<?xml version="1.0" standalone="no"?>
<!DOCTYPE svg PUBLIC "-//W3C//DTD SVG 1.1//EN" "http://www.w3.org/Graphics/SVG/1.1/DTD/svg11.dtd" >
<svg xmlns="http://www.w3.org/2000/svg">
<metadata></metadata>
<defs>
<font id="itc_officina_sansregular" horiz-adv-x="1024" >
<font-face units-per-em="2048" ascent="1638" descent="-410" />
<missing-glyph horiz-adv-x="606" />
<glyph horiz-adv-x="2048" />
<glyph horiz-adv-x="2048" />
<glyph horiz-adv-x="682" />
<glyph horiz-adv-x="630" d="M51 1356q0 -8 4 -26.5t13.5 -41t25 -48.5t37.5 -46q31 -29 76 -48.5t110 -19.5q68 0 111 19.5t74 48.5q23 20 38 46t24 48.5t13.5 41t4.5 26.5q0 23 -23 26l-80 13q-4 0 -6 1t-6 1q-12 0 -14 -11q-6 -25 -13.5 -51t-22 -48.5t-38 -37t-62.5 -14.5t-63.5 14.5t-39.5 37 t-22.5 49t-11.5 50.5q-2 10 -14 11q-4 0 -6 -1t-6 -1l-80 -13q-23 -4 -23 -26z" />
<glyph horiz-adv-x="630" d="M195 1284q0 -51 34.5 -86t85.5 -35t86 36t35 85q0 51 -34.5 86t-86.5 35q-51 0 -85.5 -35t-34.5 -86z" />
<glyph horiz-adv-x="630" d="M135 1288q0 -76 52.5 -129t127.5 -53q76 0 129.5 52t53.5 130q0 76 -52.5 129t-130.5 53q-37 0 -69.5 -14t-57 -39.5t-39 -58.5t-14.5 -70zM233 1288q0 35 24 61.5t58 26.5q35 0 59.5 -26.5t24.5 -61.5t-24.5 -61.5t-59.5 -26.5t-58.5 25.5t-23.5 62.5z" />
<glyph unicode="&#xa;" horiz-adv-x="630" d="M2 1169q0 -10 14 -20l23 -21q10 -10 18 -10q6 0 21 10l258 230q4 4 9 8t5 12q0 6 -5 10.5t-9 8.5l-70 63q-4 4 -9 8.5t-9 4.5q-8 0 -12.5 -6.5t-8.5 -10.5l-215 -268q-10 -10 -10 -19zM281 1169q0 -10 14 -20l22 -21q10 -10 19 -10q6 0 20 10l258 230q4 4 9.5 8t5.5 12 q0 6 -5.5 10.5t-9.5 8.5l-69 63q-4 4 -9.5 8.5t-9.5 4.5q-8 0 -12 -6.5t-8 -10.5l-215 -268q-10 -10 -10 -19z" />
<glyph horiz-adv-x="630" d="M141 -199q0 -82 50.5 -124t132.5 -42q29 0 58.5 6.5t53 15.5t40 21.5t16.5 22.5q0 4 -2.5 7t-2.5 7l-20 58q-4 4 -5 8t-5 4t-15.5 -7t-29 -15.5t-38 -15.5t-42.5 -7q-35 0 -52.5 19.5t-17.5 50.5t19.5 67.5t47 73.5t55.5 68.5t46 54.5l-174 -43q-12 -20 -31.5 -45 t-38 -53.5t-32 -61.5t-13.5 -70z" />
<glyph horiz-adv-x="630" d="M55 1358q0 -6 5.5 -10.5t9.5 -8.5l225 -180q4 -4 9 -7t11 -3q4 0 9.5 3t9.5 7l225 180q6 6 11 10.5t5 10.5q0 4 -3 9t-7 9l-24 33q-4 6 -8.5 11t-12.5 5q-4 0 -9 -3t-9 -5l-187 -123l-188 123q-10 6 -21 6q-4 0 -14 -10l-29 -37q-8 -12 -8 -20z" />
<glyph unicode="&#xd;" horiz-adv-x="569" d="M47 881q0 -25 25 -25h161v-831q0 -25 25 -25h107q25 0 24 25v927q0 14 -5 22.5t-22 8.5h-290q-25 0 -25 -25v-77z" />
<glyph horiz-adv-x="471" d="M-102 -14q0 -14 26 -15h78q29 0 37 21l553 1319q4 12 4 18q0 16 -27 17h-86q-20 0 -30 -21l-551 -1321q-4 -12 -4 -18z" />
<glyph horiz-adv-x="1099" d="M45 881q0 -8 2 -16.5t12 -8.5h144v-831q0 -25 24 -25h107q25 0 24 25v831h398v-831q0 -25 24 -25h107q25 0 24 25v927q0 14 -5 22.5t-21 8.5h-527v158q0 45 2 82t12.5 64.5t31 43t57.5 15.5q41 0 75.5 -11.5t51.5 -11.5q6 0 14 12l29 68q4 10 7 17t3 12q0 8 -21.5 17 t-50 16.5t-58.5 12.5t-44 5q-88 0 -140.5 -32t-80 -81t-35.5 -109.5t-8 -117.5v-160h-144q-10 0 -12 -7t-2 -18v-77zM696 1343q0 -53 36 -88.5t89 -35.5t89 36.5t36 87.5t-36 88t-89 37t-89 -35.5t-36 -89.5z" />
<glyph horiz-adv-x="1138" d="M51 881q0 -8 2 -16.5t13 -8.5h143v-831q0 -25 24 -25h107q25 0 25 25v831h262q18 0 26 18l27 80q0 4 1 7.5t1 7.5q0 14 -23 14h-294v158q0 45 3 82t15 64.5t36.5 43t67.5 15.5q66 0 109 -21.5t70 -21.5q6 0 14 12l29 67l7 17.5t3 11.5q0 12 -21.5 24.5t-55.5 22.5 t-74 17.5t-74 7.5q-96 0 -152.5 -32t-85.5 -81t-38 -109.5t-9 -117.5v-160h-143q-10 0 -12.5 -7t-2.5 -18v-77zM762 299q0 -39 3 -82t9 -83t17 -64q18 -43 67 -71t125 -28q29 0 59.5 5.5t56 12.5t42 16t16.5 18q0 6 -4 14l-27 76q-2 4 -3 8t-11 4t-37.5 -13.5t-68.5 -13.5 q-45 0 -62.5 28t-19.5 44q-2 8 -3 30.5t-2 50.5t-1 56v55v1094q0 8 -2.5 17.5t-12.5 9.5q-10 -2 -11 -1t-13 -3l-103 -25q-14 -4 -14 -24v-1063v-68z" />
<glyph horiz-adv-x="909" d="M35 494q0 -12 8 -13q4 0 12 4l135 88v-548q0 -25 25 -25h619q25 0 32 23l29 77q2 8 5 14.5t3 12.5q0 16 -24 16h-521v512l295 193q10 8 13.5 14t3.5 23v94q0 16 -8 16q-4 0 -6.5 -2t-6.5 -4l-291 -190v579q0 25 -24 25h-119q-25 0 -25 -25v-663l-137 -90q-18 -10 -18 -33 v-98z" />
<glyph horiz-adv-x="569" d="M23 383q0 -14 10 -14q6 0 14 8l152 137v-147v-68q0 -39 3 -82t9 -83t16 -64q18 -43 67.5 -71t125.5 -28q29 0 59.5 5.5t56 12.5t42 16t16.5 18q0 6 -4 14l-27 76q-2 4 -3 8t-11 4t-38 -13.5t-69 -13.5q-45 0 -61 28t-21 44q-2 8 -3 30.5t-2 50.5t-1 56v55v295l199 183 q10 10 10 18v111q0 14 -10 14q-6 0 -14 -8l-185 -170v651q0 8 -2 17.5t-12 9.5q-10 -2 -11 -1t-14 -3l-102 -25q-14 -4 -14 -24v-766l-166 -152q-10 -10 -10 -18v-111z" />
<glyph horiz-adv-x="909" d="M53 29q0 -18 6.5 -23.5t22.5 -5.5h760q12 0 22 5t10 20v81q0 16 -4 26.5t-32 10.5h-592l606 1133v100q0 16 -5 21.5t-22 5.5h-675q-25 0 -33 -23l-29 -77q-2 -8 -5 -14.5t-3 -12.5q0 -16 24 -16h551l-602 -1125v-106zM194 1778q0 -6 5.5 -10.5t9.5 -8.5l225 -180 q4 -4 9 -7t11 -3q4 0 9.5 3t9.5 7l225 180q6 6 11 10.5t5 10.5q0 4 -3 9t-7 9l-24 33q-4 6 -8.5 11t-12.5 5q-4 0 -9 -3t-9 -5l-187 -123l-188 123q-10 6 -21 6q-4 0 -14 -10l-29 -37q-8 -12 -8 -20z" />
<glyph horiz-adv-x="833" d="M68 25q0 -16 3 -20.5t19 -4.5h639q10 0 16.5 3t10.5 15l37 84q4 8 6 13.5t2 9.5q0 8 -29 8h-506l510 741v84q0 16 -4 20.5t-20 4.5h-619q-16 0 -20 -4t-4 -21v-84q0 -25 24 -24h449l-514 -744v-81zM157 1358q0 -6 5.5 -10.5t9.5 -8.5l225 -180q4 -4 9 -7t11 -3q4 0 9.5 3 t9.5 7l225 180q6 6 11 10.5t5 10.5q0 4 -3 9t-7 9l-24 33q-4 6 -8.5 11t-12.5 5q-4 0 -9 -3t-9 -5l-187 -123l-188 123q-10 6 -21 6q-4 0 -14 -10l-29 -37q-8 -12 -8 -20z" />
<glyph unicode=" "  horiz-adv-x="606" />
<glyph unicode="&#x09;" horiz-adv-x="606" />
<glyph unicode="&#xa0;" horiz-adv-x="606" />
<glyph unicode="!" horiz-adv-x="681" d="M199 115q0 -59 42 -101.5t101 -42.5t101 42.5t42 101.5t-42 101t-101 42t-101 -42t-42 -101zM236 1386q0 -8 1 -17t1 -21l45 -779q2 -18 8 -22t20 -4h58q16 0 22 4t6 22l43 777q2 8 2 20v20q0 12 -9 14.5t-17 2.5h-154q-10 0 -18 -2t-8 -15z" />
<glyph unicode="&#x22;" horiz-adv-x="833" d="M182 1448q0 -6 2 -16l31 -463q0 -16 6 -21.5t25 -5.5h45q14 0 20 4t8 23l29 463q0 6 1 15t1 17q0 14 -9 16.5t-17 2.5h-115q-8 0 -17.5 -2t-9.5 -17v-16zM485 1448q0 -6 2 -16l31 -463q0 -16 6 -21.5t25 -5.5h45q14 0 20.5 4t8.5 23l28 463q0 6 1 15t1 17q0 14 -9 16.5 t-17 2.5h-115q-8 0 -17.5 -2t-9.5 -17v-16z" />
<glyph unicode="#" d="M84 256q0 -14 3 -20.5t24 -6.5h112l-37 -364q-2 -18 2.5 -23.5t24.5 -5.5h74q18 0 22 4t6 21l37 368h258l-37 -364q-2 -16 2.5 -22.5t24.5 -6.5h74q18 0 22 4t9 27l36 362h148q16 0 16 17v100q0 16 -16 16h-135l43 410h125q18 0 23 6t5 21v80q0 14 -3 20t-23 6h-113 l43 412q2 18 -3 23.5t-24 5.5h-73q-18 0 -22.5 -4.5t-8.5 -24.5l-43 -412h-258l43 412q2 18 -2 23.5t-23 5.5h-73q-18 0 -22.5 -4.5t-8.5 -24.5l-43 -412h-148q-16 0 -16 -16v-101q0 -16 16 -16h134l-41 -410h-125q-18 0 -23.5 -6t-5.5 -20v-80zM365 362l43 410h258 l-41 -410h-260z" />
<glyph unicode="$" d="M125 82q0 -16 39 -35.5t94 -36t114.5 -28t100.5 -11.5v-125q0 -16 5 -21t24 -5h53q16 0 22.5 5t6.5 21v134q37 6 91 26.5t104 62.5t85 109.5t35 169.5q0 90 -34 154.5t-83 109.5t-103 76t-95 55v465q31 -4 60.5 -11t57.5 -17q53 -20 73 -33.5t36 -13.5q10 0 14 10l33 82 l5 10t3 10q0 18 -34.5 35.5t-80.5 32t-93.5 24t-73.5 9.5v112q0 16 -5.5 22.5t-23.5 6.5h-53q-18 0 -23.5 -6t-5.5 -23v-117q-35 0 -89 -19t-104.5 -60t-86 -104.5t-35.5 -153.5q0 -88 35.5 -150.5t86 -107t103.5 -74t90 -49.5v-514q-33 2 -65.5 9t-63.5 17q-66 20 -111 45 t-55 25q-8 0 -12 -10l-33 -86q-4 -10 -6 -16.5t-2 -10.5zM326 1018q0 51 14 85t36.5 55.5t48.5 31.5t48 14v-418q-18 12 -44 31t-49.5 45.5t-38.5 64.5t-15 91zM584 117v463q16 -12 41.5 -31t49 -48.5t40 -70.5t16.5 -98q0 -53 -13 -91t-34.5 -63.5t-48.5 -40t-51 -20.5z " />
<glyph unicode="%" horiz-adv-x="1554" d="M80 983q0 -158 67.5 -247t198.5 -89q123 0 201 91.5t78 275.5q0 154 -68 243t-197 89q-125 0 -202.5 -91.5t-77.5 -271.5zM215 989q0 51 8 96t24.5 78t44 52.5t66.5 19.5t65 -19.5t40 -52.5t20 -74.5t6 -87.5q0 -104 -32.5 -173.5t-110.5 -69.5q-39 0 -64.5 20.5t-40 52 t-20.5 73.5t-6 85zM485 -14q0 -14 27 -15h78q29 0 37 21l409 1319q0 4 2 9t2 9q0 16 -26 17h-86q-27 0 -31 -21l-408 -1321q0 -4 -2 -9t-2 -9zM932 307q0 -158 67.5 -247t198.5 -89q123 0 201 91.5t78 275.5q0 154 -68 243t-197 89q-125 0 -202.5 -91.5t-77.5 -271.5z M1067 313q0 51 8 96.5t24.5 78t44 52t66.5 19.5t64.5 -19.5t40 -52t20.5 -74.5t6 -87q0 -104 -32.5 -174t-110.5 -70q-39 0 -64.5 20.5t-40 52t-20.5 73.5t-6 85z" />
<glyph unicode="&#x26;" horiz-adv-x="1251" d="M117 340q0 -78 28.5 -145.5t83 -116.5t132 -78t178.5 -29q78 0 139 16.5t107 40t79 48t56 43.5l112 -133q4 -4 11.5 -9.5t15.5 -5.5q14 0 26 9l82 67q10 6 11 14q0 6 -11 17l-133 155q14 18 35 52t39 80.5t31.5 104.5t13.5 126q0 16 -4 24.5t-21 8.5h-100q-25 0 -24 -25 v-26q0 -92 -23 -151.5t-39 -86.5l-338 391q29 18 76 51t92 82t78 114.5t33 151.5q0 78 -27 135.5t-70 94.5t-98 54.5t-115 17.5q-63 0 -127.5 -19.5t-117 -60.5t-85 -102.5t-32.5 -147.5q0 -61 23.5 -121.5t54 -110t59.5 -85t39 -48.5q-23 -16 -68 -44.5t-90 -76t-78.5 -116 t-33.5 -160.5zM285 352q0 66 22.5 116t53 86t61.5 60.5t47 36.5l367 -432q-16 -14 -42 -32.5t-61 -36t-79 -29.5t-99 -12q-123 0 -196.5 64.5t-73.5 178.5zM367 1118q0 45 16 80t42 58.5t59.5 36t68.5 12.5q70 0 122 -47.5t52 -139.5q0 -59 -23.5 -107t-56.5 -85 t-67.5 -63.5t-57.5 -43.5q-10 10 -34.5 40t-52 72t-48 90t-20.5 97z" />
<glyph unicode="'" horiz-adv-x="342" d="M86 1448q0 -6 2 -16l31 -463q0 -16 6 -21.5t25 -5.5h45q14 0 20 4t8 23l29 463q0 6 1 15t1 17q0 14 -9 16.5t-18 2.5h-114q-8 0 -17.5 -2t-9.5 -17v-16z" />
<glyph unicode="(" horiz-adv-x="757" d="M170 502q0 -139 26.5 -265t66.5 -234.5t88 -198t91 -152t77 -96t44 -33.5q6 0 20.5 6t30 14t26.5 18.5t11 18.5q0 14 -23.5 45t-58 82t-74.5 124t-75 170t-58.5 222t-23.5 279q0 119 11 213t35 179t60.5 168t90.5 179q31 57 53 89t36.5 49.5t20.5 25.5t6 20q0 6 -5 10.5 t-9 8.5l-51 31q-6 4 -11.5 6t-11.5 2q-10 0 -44 -33t-77 -94.5t-91 -149.5t-88 -196.5t-66.5 -236.5t-26.5 -271z" />
<glyph unicode=")" horiz-adv-x="757" d="M106 -420q0 -6 5.5 -10t9.5 -8l51 -31q6 -4 11 -6t12 -2q10 0 43.5 32.5t76.5 94t91.5 149.5t88.5 196.5t66.5 236.5t26.5 272q0 139 -26.5 265t-66.5 234.5t-88.5 197.5t-91.5 151.5t-76.5 96.5t-43.5 34q-6 0 -20.5 -6.5t-30 -14.5t-27 -18t-11.5 -19q0 -14 24 -44.5 t58.5 -82t74.5 -124t75 -170t58.5 -222.5t23.5 -278q0 -119 -11.5 -213t-35 -179t-60.5 -168t-90 -180q-31 -57 -53.5 -88.5t-36.5 -49t-20.5 -26t-6.5 -20.5z" />
<glyph unicode="*" d="M176 1116q0 -10 23 -18l233 -56l-156 -184q-2 -4 -6 -9t-4 -9q0 -8 17 -21l65 -47q12 -8 21 -8q8 0 18 16l125 205l125 -205q10 -16 18 -16t21 8l65 47q16 12 17 21q0 4 -4 9t-6 9l-156 184l233 56q23 8 23 18q-2 10 -6 23l-23 71q-8 23 -18 23q-4 0 -9.5 -2t-9.5 -4 l-221 -92l17 206q0 8 1 19.5t1 19.5q0 16 -5.5 19.5t-15.5 3.5h-94q-10 0 -15.5 -3t-5.5 -20q0 -8 1 -19t1 -20l17 -206l-221 92q-4 2 -9.5 4t-9.5 2q-10 0 -18 -23l-23 -71q-4 -12 -6 -23z" />
<glyph unicode="+" d="M45 475q0 -18 4 -23.5t23 -5.5h364v-364q0 -10 4 -19.5t23 -9.5h94q18 0 22.5 8.5t4.5 20.5v364h364q18 0 23.5 5.5t5.5 23.5v90q0 18 -5 23.5t-24 5.5h-364v360q0 20 -8.5 24.5t-18.5 4.5h-94q-10 0 -18.5 -4t-8.5 -25v-360h-364q-18 0 -22.5 -5t-4.5 -24v-90z" />
<glyph unicode="," horiz-adv-x="606" d="M109 -215q0 -8 6 -11t16 -7l45 -15q4 0 9 -2t10 -2q8 0 18 19l236 432q2 4 5 9t3 11q0 10 -9.5 12t-19.5 2h-164q-25 0 -31 -22l-120 -408q-4 -12 -4 -18z" />
<glyph unicode="-" horiz-adv-x="720" d="M104 473q0 -27 29 -27h455q29 0 28 21v104q0 29 -28 29h-457q-16 0 -21.5 -8t-5.5 -25v-94z" />
<glyph unicode="." horiz-adv-x="606" d="M160 115q0 -59 42 -101.5t101 -42.5t101 42.5t42 101.5t-42 101t-101 42t-101 -42t-42 -101z" />
<glyph unicode="/" horiz-adv-x="909" d="M-6 -397q0 -16 26 -17h80q25 0 33 21l787 1839q8 16 8 24q0 10 -7.5 11.5t-17.5 1.5h-82q-10 0 -20 -5t-15 -18l-786 -1839q-2 -4 -4 -9t-2 -9z" />
<glyph unicode="0" d="M92 649q0 -145 24.5 -269t76 -215t129 -142.5t186.5 -51.5q117 0 197.5 54.5t131 149.5t73 223t22.5 276q0 133 -20.5 255t-67.5 214t-125 147.5t-195 55.5q-109 0 -189.5 -53.5t-135 -146.5t-81 -220t-26.5 -277zM260 662q0 109 14.5 207t45 171.5t79.5 117.5t121 44 q74 0 121 -46t74.5 -119.5t38 -169t10.5 -193.5q0 -119 -11.5 -221.5t-40 -177t-76.5 -117.5t-124 -43q-70 0 -118 41t-77.5 113.5t-43 173t-13.5 219.5z" />
<glyph unicode="1" d="M154 1044q0 -8 8 -20l22 -43q8 -18 19 -18q10 0 20 8l283 164v-1002h-209q-25 0 -25 -24v-84q0 -25 25 -25h549q25 0 24 25v84q0 25 -24 24h-184v1155q0 18 -5.5 23.5t-21.5 5.5h-103l-362 -254q-16 -12 -16 -19z" />
<glyph unicode="2" d="M141 27q0 -16 5.5 -21.5t21.5 -5.5h686q16 0 21.5 5t5.5 24v86q0 16 -5.5 22t-21.5 6h-532q6 39 15 82t29.5 87t56.5 92.5t95 99.5q61 53 126 95t118 92t87 115.5t34 168.5q0 168 -95.5 269.5t-261.5 101.5q-104 0 -177 -41t-118 -95.5t-65.5 -106.5t-20.5 -75 q0 -14 17 -18l90 -27q8 -4 14 -4q14 0 26.5 35t36 77t66.5 76.5t121 34.5q51 0 88 -17.5t61.5 -47t37 -69.5t12.5 -85q0 -74 -24.5 -122t-64.5 -84t-91.5 -67.5t-104.5 -74.5q-53 -41 -104.5 -92t-92 -123t-66.5 -168t-26 -225z" />
<glyph unicode="3" d="M106 61q0 -16 36 -32.5t88.5 -28.5t108.5 -20.5t99 -8.5q100 0 182 29t138.5 81t87.5 125t31 161q0 96 -29 158.5t-70 100.5t-85 56t-72 29q31 14 67.5 35.5t68 56.5t53 86t21.5 125q0 78 -27.5 139t-74.5 104t-110.5 66t-135.5 23q-80 0 -144.5 -26t-109.5 -58.5 t-69.5 -63.5t-24.5 -39q0 -10 12 -18l68 -58q6 -6 14 -6q10 0 30 19.5t49.5 43t70.5 43t96 19.5q88 0 144.5 -51t56.5 -141q0 -72 -25.5 -120t-64.5 -77t-85 -40t-89 -11h-70q-29 0 -29 -29v-82q0 -16 5.5 -21t23.5 -5h70q45 0 96 -8.5t96 -35t75 -76.5t30 -132 q0 -119 -69 -188.5t-200 -69.5q-59 0 -106 10t-82 23.5t-56.5 23.5t-27.5 10q-12 0 -16 -12l-41 -92q-4 -12 -5 -17z" />
<glyph unicode="4" d="M63 317q0 -16 5.5 -21t23.5 -5h520v-291q0 -29 29 -29h100q16 0 21.5 6.5t5.5 22.5v291h164q16 0 22.5 4t6.5 22v78q0 18 -6.5 23.5t-22.5 5.5h-164v328q0 16 -5 22t-22 6h-73q-20 0 -24.5 -5t-4.5 -21l-27 -330h-387l527 866q10 10 10 23q0 6 -8.5 9t-18.5 5l-86 14 q-10 2 -16 3.5t-10 1.5q-10 0 -14.5 -5.5t-8.5 -13.5l-537 -893v-117z" />
<glyph unicode="5" d="M145 31q0 -12 26 -23.5t65.5 -18.5t89 -12.5t96.5 -5.5q117 0 205 37t148.5 101.5t90 150.5t29.5 186q0 88 -25.5 162t-71.5 127t-109.5 82t-141.5 29q-94 0 -151.5 -31t-94.5 -57l45 416h428q16 0 22.5 5t6.5 21v88q0 18 -5 23.5t-24 5.5h-532q-16 0 -21.5 -5t-7.5 -22 l-61 -637q0 -6 -2.5 -17t-2.5 -15q0 -10 6.5 -12.5t16.5 -6.5l72 -24q4 -2 16 -3q12 0 29.5 19.5t46 44.5t73 44t109.5 19q104 0 157.5 -69.5t53.5 -190.5q0 -74 -17.5 -134t-55.5 -103t-99 -66.5t-147 -23.5q-94 0 -150.5 19.5t-71.5 19.5q-16 0 -16 -15l-23 -92 q-2 -6 -2 -16z" />
<glyph unicode="6" d="M127 535q0 -127 20.5 -231.5t65.5 -178.5t117.5 -114t175.5 -40q90 0 163.5 36t126 99.5t80 150.5t27.5 189q0 104 -25.5 189.5t-71.5 144t-108.5 90t-138.5 31.5q-63 0 -109.5 -18.5t-77 -44t-50 -52t-27.5 -43.5l-4 5q8 47 24.5 124.5t55.5 152.5t109.5 129t189.5 54 q59 0 91 -11t46 -11q12 0 20 16l29 76q4 12 4 16q0 10 -14.5 18.5t-66.5 21t-117 12.5q-104 0 -185.5 -37t-141 -99.5t-99 -145.5t-64.5 -173t-35 -182t-10 -174zM295 428q0 70 12 130t39 104.5t70 70t104 25.5q55 0 95 -24.5t67 -67.5t40 -101.5t13 -126.5 q0 -166 -66.5 -244.5t-160.5 -78.5q-102 0 -157.5 79.5t-55.5 233.5z" />
<glyph unicode="7" d="M139 1202q0 -18 5.5 -23t23.5 -5h528l-442 -1139q-2 -4 -4 -11.5t-2 -11.5q0 -6 7 -8t17 -4l97 -14q16 -4 28 -4q10 0 19 20l473 1239v47q0 18 -6 23.5t-23 5.5h-692q-18 0 -23.5 -5t-5.5 -24v-86z" />
<glyph unicode="8" d="M82 340q0 -82 29.5 -149.5t85 -116.5t135.5 -76t182 -27q106 0 186 33t134.5 85t81 118.5t26.5 134.5q0 82 -30.5 142.5t-75.5 103.5t-95.5 69.5t-89.5 42.5q31 16 71 41t76 64t60.5 94t24.5 135q0 59 -23.5 115.5t-70 99.5t-116 70t-161.5 27q-86 0 -155.5 -27t-118 -71 t-74 -104.5t-25.5 -127.5q0 -76 24.5 -129t61.5 -90t79 -62t77 -39q-43 -14 -95.5 -38.5t-97.5 -66.5t-75.5 -103.5t-30.5 -147.5zM250 332q0 74 31.5 124t74.5 82.5t86 51t66 28.5q25 -10 70 -30.5t88 -54t75.5 -82.5t32.5 -119q0 -53 -21.5 -94t-56 -70t-82 -44t-98.5 -15 t-99 13t-85 40.5t-59.5 69.5t-22.5 100zM299 1022q0 90 62.5 138t148.5 48q94 0 153.5 -51t59.5 -139q0 -61 -23.5 -104.5t-56.5 -73t-67.5 -48t-57.5 -28.5q-23 10 -59.5 30.5t-71.5 51.5t-61.5 74t-26.5 102z" />
<glyph unicode="9" d="M111 870q0 -104 25.5 -189t71.5 -143.5t108.5 -90t138.5 -31.5q63 0 109 18.5t77 44t49.5 52t28.5 42.5l4 -4q-8 -47 -24.5 -123.5t-55.5 -150.5t-109.5 -127t-189.5 -53q-59 0 -91 8t-46 8q-20 0 -21 -16l-8 -82q-2 -10 0 -19.5t12 -13.5q16 -6 68.5 -17.5t114.5 -11.5 q102 0 181 37t136.5 99.5t95 145.5t60 173t32 182t9.5 174q0 127 -20.5 231.5t-65.5 178.5t-118 114t-175 40q-90 0 -164 -36t-126 -99.5t-79.5 -150.5t-27.5 -190zM279 879q0 166 66.5 244.5t160.5 78.5q102 0 157.5 -80t55.5 -233q0 -72 -12.5 -132.5t-39 -104.5 t-69.5 -69.5t-104 -25.5q-55 0 -95.5 24.5t-67 68.5t-39.5 102.5t-13 126.5z" />
<glyph unicode=":" horiz-adv-x="606" d="M160 115q0 -59 42 -101.5t101 -42.5t101 42.5t42 101.5t-42 101t-101 42t-101 -42t-42 -101zM160 840q0 -59 42 -101.5t101 -42.5t101 42.5t42 101.5t-42 101t-101 42t-101 -42t-42 -101z" />
<glyph unicode=";" horiz-adv-x="606" d="M106 -215q0 -8 6.5 -11t16.5 -7l45 -15q4 0 9 -2t10 -2q8 0 18 19l235 432q2 4 5.5 9t3.5 11q0 10 -9.5 12t-19.5 2h-164q-25 0 -31 -22l-120 -408q-4 -12 -5 -18zM190 840q0 -59 42 -101.5t102 -42.5q61 0 102 42.5t41 101.5t-42 101t-101 42t-101.5 -42t-42.5 -101z " />
<glyph unicode="&#x3c;" d="M49 471q0 -20 5 -24.5t18 -8.5l827 -299q14 -6 23 -6q14 0 20 21l33 94q4 4 4 14q0 12 -18 21l-660 235v4l660 234q18 8 18 20q0 10 -4 15l-33 94q-6 20 -20 20q-4 0 -9.5 -2t-13.5 -4l-827 -299q-12 -4 -17.5 -8t-5.5 -23v-98z" />
<glyph unicode="=" d="M45 334q0 -18 4 -23.5t23 -5.5h876q18 0 23.5 5t5.5 24v90q0 18 -5 23.5t-24 5.5h-876q-18 0 -22.5 -5.5t-4.5 -23.5v-90zM45 614q0 -18 4 -23t23 -5h876q18 0 23.5 5t5.5 23v91q0 18 -5 23t-24 5h-876q-18 0 -22.5 -5t-4.5 -23v-91z" />
<glyph unicode="&#x3e;" d="M49 262q0 -10 4 -14l33 -94q6 -20 20 -21q4 0 9.5 2t13.5 4l827 299q12 4 17.5 8.5t5.5 22.5v98q0 20 -5 24.5t-18 8.5l-827 299q-16 6 -23 6q-14 0 -20 -20l-33 -94q-4 -4 -4 -15q0 -12 19 -20l659 -236v-4l-659 -233q-18 -8 -19 -21z" />
<glyph unicode="?" horiz-adv-x="872" d="M102 1339q0 -10 2 -14l29 -72q6 -20 23 -20q8 0 29.5 9t53 21.5t71.5 21.5t85 9q100 0 153.5 -49t53.5 -147q0 -74 -36 -118t-82 -69.5t-90 -36t-58 -16.5t-16.5 -20.5t-2.5 -40.5v-228q0 -16 5.5 -21t23.5 -5h82q18 0 23.5 5t5.5 21v187q35 8 88 27.5t103 57.5t86 101.5 t36 159.5q0 94 -30.5 156.5t-81 101.5t-115 55.5t-131.5 16.5q-43 0 -96.5 -8.5t-100.5 -21.5t-80 -29.5t-33 -33.5zM248 115q0 -59 42 -101.5t101 -42.5t101.5 42.5t42.5 101.5t-42 101t-102 42q-59 0 -101 -42t-42 -101z" />
<glyph unicode="@" horiz-adv-x="1933" d="M137 369q0 -164 50.5 -298t146.5 -229.5t236.5 -148.5t322.5 -53q111 0 235.5 19t231 48t176.5 61.5t70 57.5q0 4 -2 10l-2 6l-25 60q-4 12 -7 14t-14 2q-12 0 -59 -24.5t-128 -55.5t-194.5 -55.5t-256.5 -24.5q-162 0 -282 43t-200 124t-118.5 194.5t-38.5 255.5 q0 184 65.5 340.5t177 271.5t263 179.5t323.5 64.5q135 0 237.5 -35t172 -99.5t105.5 -154.5t36 -201q0 -125 -34 -223t-85 -165.5t-113.5 -103.5t-119.5 -36q-84 0 -84 102q0 25 6 54l98 458q0 6 2 12.5t2 10.5q0 10 -12 10h-92q-12 0 -14.5 -3t-6.5 -9l-20 -49 q-23 27 -56.5 54.5t-109.5 27.5q-66 0 -118 -28t-92 -72t-69.5 -102t-49 -118.5t-29 -119t-9.5 -105.5q0 -106 45 -170t131 -64q55 0 99.5 19.5t79 47.5t60.5 59.5t42 56.5h4q0 -27 7 -58.5t25.5 -59.5t51.5 -47.5t88 -19.5q80 0 168 43t164 125t125 202t49 275 q0 141 -49 253t-138 191t-216 120t-283 41q-201 0 -377 -76t-308 -208t-208 -311.5t-76 -385.5zM801 342q0 45 12 116.5t38 139.5t65.5 116t95.5 48q29 0 53.5 -9.5t42.5 -21.5t30.5 -23.5t18.5 -15.5l-35 -168q-2 -10 -8 -32.5t-15 -49t-20.5 -52t-23.5 -40.5 q-33 -41 -80 -81t-101 -40q-47 0 -60 35t-13 78z" />
<glyph unicode="A" horiz-adv-x="1138" d="M57 12q0 -12 29 -12h127q18 0 25.5 6t11.5 17l104 395h420l115 -395q4 -10 11 -16.5t26 -6.5h127q29 0 28 12q-2 8 -4 16.5t-6 18.5l-412 1333q-6 16 -12 19.5t-18 3.5h-121q-16 0 -21.5 -3t-9.5 -20l-409 -1333q-4 -10 -6.5 -18.5t-4.5 -16.5zM393 561l125 453 q6 20 12.5 46.5t12.5 53.5t10 51.5t8 42.5h4q8 -43 21.5 -95t25.5 -99l123 -453h-342z" />
<glyph unicode="B" horiz-adv-x="1138" d="M197 25q0 -25 24 -25h299q123 0 211 13.5t148 64.5q18 16 41.5 42.5t44 64.5t35 88.5t14.5 113.5q0 94 -24.5 155.5t-62.5 100.5t-82 59.5t-83 32.5q25 12 59.5 36t66.5 63.5t54.5 97t22.5 137.5q0 119 -42 186.5t-104.5 100.5t-133.5 40t-128 7h-336q-25 0 -24 -25 v-1353zM365 143v504h188q53 0 103.5 -11t88 -41t61 -79t23.5 -123q0 -76 -22.5 -125t-60 -76.5t-86 -38t-97.5 -10.5h-198zM365 784v476h188q45 0 86 -7.5t72.5 -29t50 -63.5t18.5 -109q0 -90 -25.5 -142.5t-65.5 -80t-87 -36t-92 -8.5h-145z" />
<glyph unicode="C" horiz-adv-x="948" d="M106 715q0 -160 25 -295t80 -235.5t145 -157t222 -56.5q68 0 127 20.5t104 46t70.5 52.5t25.5 39t-12 29l-43 55l-10 10t-11 6q-6 0 -28.5 -18t-56 -42t-75.5 -42t-87 -18q-78 0 -133.5 45t-90 126.5t-51 197.5t-16.5 257q0 131 12 234.5t43 175.5t84 110.5t137 38.5 q45 0 87 -18.5t76 -42t56.5 -41.5t28.5 -18q8 0 21 16l43 55q12 14 12 29q0 12 -25.5 38.5t-70.5 52.5t-104.5 46.5t-127.5 20.5q-133 0 -221 -57.5t-140 -156t-74 -228.5t-22 -275z" />
<glyph unicode="D" horiz-adv-x="1138" d="M199 25q0 -25 24 -25h236q156 0 265.5 43t178 131t99 223t30.5 318q0 233 -46 369.5t-123 207t-176 91t-206 20.5h-258q-25 0 -24 -25v-1353zM367 143v1117h112q90 0 159 -20.5t116 -79t70.5 -164t23.5 -273.5q0 -131 -14.5 -238.5t-53.5 -183.5t-107.5 -117t-178.5 -41 h-127z" />
<glyph unicode="E" horiz-adv-x="948" d="M195 25q0 -25 24 -25h631q16 0 22.5 5t6.5 24v92q0 23 -25 22h-492v519h402q16 0 21.5 5t5.5 21v90q0 16 -5.5 21.5t-21.5 5.5h-402v455h455q14 0 20.5 2t10.5 16l29 86q2 6 4 14t2 13q0 4 -5.5 8t-21.5 4h-637q-25 0 -24 -25v-1353z" />
<glyph unicode="F" horiz-adv-x="872" d="M195 25q0 -25 24 -25h115q16 0 22 5t6 24v633h402q16 0 21.5 5t5.5 21v90q0 16 -5.5 21.5t-21.5 5.5h-402v455h455q14 0 20.5 4t7.5 7t3 7l29 86l6 25q0 6 -5.5 10t-21.5 4h-637q-25 0 -24 -25v-1353z" />
<glyph unicode="G" horiz-adv-x="1099" d="M106 715q0 -160 26 -295t84 -235.5t152.5 -157t229.5 -56.5q94 0 184 21.5t148 54.5q23 12 25.5 28.5t2.5 57.5v553q0 25 -24 25h-307q-25 0 -25 -25v-84q0 -25 25 -24h164v-431q-29 -14 -73 -26t-116 -12q-84 0 -143.5 45t-96 126.5t-54 197.5t-17.5 257 q0 129 17.5 233.5t55 176.5t98 110.5t144.5 38.5q61 0 108.5 -15t80 -34.5t52 -35t27.5 -15.5t15.5 9t11.5 20l31 57q4 10 7 15t3 12q0 10 -26.5 31.5t-72.5 42t-108.5 36t-132.5 15.5q-135 0 -229 -57.5t-153.5 -156t-86.5 -228.5t-27 -275z" />
<glyph unicode="H" horiz-adv-x="1251" d="M195 25q0 -25 24 -25h119q25 0 24 25v632h527v-632q0 -25 24 -25h119q25 0 25 25v1353q0 25 -25 25h-119q-25 0 -24 -25v-577h-527v577q0 25 -24 25h-119q-25 0 -24 -25v-1353z" />
<glyph unicode="I" horiz-adv-x="757" d="M84 25q0 -25 25 -25h540q25 0 25 25v84q0 25 -25 24h-186v1137h186q25 0 25 24v84q0 25 -25 25h-540q-25 0 -25 -25v-84q0 -25 25 -24h186v-1137h-186q-25 0 -25 -24v-84z" />
<glyph unicode="J" horiz-adv-x="909" d="M0 365q0 -72 16.5 -142.5t57.5 -126t110.5 -90.5t175.5 -35q178 0 277.5 96.5t99.5 278.5v1030q0 16 -5 21.5t-23 5.5h-498q-25 0 -25 -25v-94q0 -25 25 -24h358v-914q0 -237 -205 -237h-2q-59 0 -99 20.5t-63.5 56t-33.5 81.5t-10 98v16q0 20 -17 20h-121q-14 0 -16 -9 t-2 -27z" />
<glyph unicode="K" horiz-adv-x="1062" d="M195 25q0 -25 24 -25h119q25 0 24 25v643h5l514 -678q14 -18 26 -19q6 0 12.5 4.5t16.5 10.5l82 57q14 8 14 23q0 4 -3 8t-7 8l-490 614l478 633q4 4 8 11.5t4 11.5q0 6 -5 10t-13 10l-66 45q-10 6 -14 10.5t-11 4.5q-10 0 -15 -6.5t-9 -10.5l-522 -708h-5v671 q0 25 -24 25h-119q-25 0 -24 -25v-1353z" />
<glyph unicode="L" horiz-adv-x="909" d="M190 25q0 -25 25 -25h619q25 0 32 23l29 77q2 8 5 14.5t3 12.5q0 16 -24 16h-521v1235q0 25 -24 25h-119q-25 0 -25 -25v-1353z" />
<glyph unicode="M" horiz-adv-x="1366" d="M152 25q0 -25 24 -25h119q25 0 24 25l31 1052q1 21 1 43v23q-1 35 -3 61l4 4q2 -35 7.5 -71.5t17.5 -73.5l237 -713q8 -23 31 -22h62q14 0 19 4t11 18l248 713q12 37 17.5 74t7.5 71l4 -4q-2 -28 -3 -62v-22q0 -22 1 -43l32 -1052q0 -25 25 -25h119q25 0 24 25l-79 1353 q0 25 -25 25h-133q-12 0 -15.5 -4t-7.5 -17l-241 -706q-8 -23 -14.5 -58.5t-14.5 -68.5h-4q-6 35 -12.5 69.5t-14.5 57.5l-241 706q-4 12 -7.5 16.5t-15.5 4.5h-133q-25 0 -25 -25z" />
<glyph unicode="N" horiz-adv-x="1175" d="M170 25q0 -25 25 -25h106q25 0 25 25v999q0 35 -4.5 79t-16.5 103l4 4q8 -43 22.5 -90t33.5 -88l471 -1012q12 -20 32 -20h115q25 0 25 25v1353q0 25 -25 25h-106q-25 0 -25 -25v-977q0 -29 7 -60.5t11 -64.5l-4 -4q-14 47 -22 83t-27 75l-452 954q-10 18 -31 19h-139 q-25 0 -25 -25v-1353z" />
<glyph unicode="O" horiz-adv-x="1138" d="M106 702q0 -164 26 -298t82 -230t144 -149.5t211 -53.5t211 53.5t143.5 149.5t82 230t26.5 298t-26.5 298.5t-83 230.5t-143.5 148.5t-210 52.5t-211 -52.5t-143 -147.5t-82 -230.5t-27 -299.5zM291 702q0 133 11 243t42 187.5t85 119.5t140 42t140.5 -42t85 -119.5 t42 -187t11.5 -243.5q0 -135 -11.5 -244.5t-42 -187t-85 -119.5t-140.5 -42t-140 42t-85 119.5t-42 187t-11 244.5z" />
<glyph unicode="P" d="M197 25q0 -25 24 -25h119q25 0 25 25v567h147q80 0 160 19.5t142.5 69.5t101 135t38.5 214q0 135 -43 211t-105.5 112t-135 43t-131.5 7h-318q-25 0 -24 -25v-1353zM365 735v525h157q43 0 90 -4.5t86 -27t63.5 -69.5t24.5 -133q0 -94 -23.5 -151.5t-63.5 -88t-92 -41 t-109 -10.5h-133z" />
<glyph unicode="Q" horiz-adv-x="1138" d="M106 698q0 -170 27 -304t82 -228t140 -144.5t202 -50.5q55 0 110.5 14.5t104.5 39.5q10 -12 38 -40t61.5 -56.5t65.5 -50t48 -21.5q8 0 19 6l108 74q8 8 8 18t-13 17.5t-48 29.5q-20 12 -45 29.5t-49.5 36t-44 36t-29.5 27.5q12 18 35.5 57t47 105.5t40 166t16.5 242.5 q0 170 -25.5 305.5t-81 229.5t-140.5 144.5t-203 50.5q-127 0 -216.5 -53.5t-146.5 -149.5t-84 -231.5t-27 -299.5zM291 707q0 127 11 234.5t42 186t86 122.5t141 44q80 0 133.5 -43t85 -121.5t44 -189.5t12.5 -244q0 -127 -11.5 -234.5t-42 -186t-85 -122.5t-140.5 -44 q-82 0 -135 43t-85 121.5t-44 189t-12 244.5z" />
<glyph unicode="R" horiz-adv-x="1062" d="M178 25q0 -25 25 -25h119q25 0 24 25v614h148l337 -651q7 -17 25 -17h6l129 25q23 4 23 14q0 6 -8 23l-340 620q43 14 90 43t87 75t66.5 110.5t26.5 148.5q0 135 -43 211t-105.5 112t-135 43t-132.5 7h-317q-25 0 -25 -25v-1353zM346 772v488h158q43 0 90 -4.5t86 -27 t63.5 -69.5t24.5 -133q0 -82 -23.5 -132t-63.5 -76.5t-92 -36t-110 -9.5h-133z" />
<glyph unicode="S" horiz-adv-x="948" d="M49 96q0 -16 17 -22q12 -6 44.5 -22.5t82 -34t112 -32t133.5 -14.5q94 0 173 28t137.5 80t91 126t32.5 168q0 102 -40.5 178t-124.5 143q-61 51 -136 88t-142 77t-111 92.5t-44 131.5q0 104 62.5 152.5t155.5 48.5q43 0 83.5 -8t74.5 -19.5t60.5 -23.5t41.5 -21 q16 -10 28 -10q10 0 13.5 7.5t9.5 19.5l26 67q2 6 5.5 13.5t3.5 11.5q0 12 -17 22q-10 6 -38.5 20.5t-71.5 30t-97.5 27t-115.5 11.5q-80 0 -154 -25t-130 -71t-90 -114.5t-34 -156.5q0 -106 44 -176t110.5 -121t144.5 -91t144.5 -83t110.5 -100.5t44 -141.5 q0 -104 -63.5 -168.5t-180.5 -64.5q-53 0 -102 11t-90 25.5t-71.5 29t-45.5 20.5q-16 10 -29 10q-10 0 -14 -7t-8 -20l-27 -67q-2 -6 -5 -13.5t-3 -11.5z" />
<glyph unicode="T" horiz-adv-x="909" d="M47 1284q0 -25 25 -24h305v-1235q0 -25 24 -25h119q25 0 25 25v1235h289q25 0 32 22l29 78q2 8 5 14t3 12q0 16 -24 17h-803q-29 0 -29 -27v-92z" />
<glyph unicode="U" horiz-adv-x="1214" d="M170 377q0 -92 22.5 -168t73.5 -128t131 -81t197 -29q236 0 343 111t107 295v1001q0 25 -24 25h-119q-25 0 -24 -25v-997q0 -141 -70 -206.5t-211 -65.5q-72 0 -121 18t-79.5 54t-44 86t-13.5 114v997q0 25 -25 25h-118q-25 0 -25 -25v-1001z" />
<glyph unicode="V" d="M47 1370q0 -4 2 -11t4 -13l355 -1338q4 -14 9 -18t21 -4h144q16 0 21 3t9 19l359 1338l4 12t2 10q0 10 -10.5 13t-14.5 5l-112 29q-6 2 -19 2q-8 0 -11 -8t-7 -25l-260 -1073q-6 -23 -16.5 -72t-14.5 -87h-4q-4 41 -12.5 88t-16.5 75l-258 1069q-6 33 -18 33t-19 -2 l-112 -29q-4 -2 -14.5 -4t-10.5 -12z" />
<glyph unicode="W" horiz-adv-x="1441" d="M66 1370q0 -8 4 -24l252 -1336q0 -10 3 -17t17 -7h147q10 0 13.5 8t5.5 16l213 1133h4l172 -1133q2 -24 20 -24h1h153q12 0 15.5 8t5.5 16l280 1336q4 16 4 24q0 10 -22 16l-99 25l-16 4t-12 2q-8 0 -10.5 -11t-6.5 -26l-186 -1011q-8 -41 -9 -96.5t-5 -106.5h-4 q0 53 -7.5 107.5t-13.5 93.5l-170 1011q-2 10 -6 17.5t-14 7.5h-129q-10 0 -13.5 -7t-5.5 -18l-196 -983q-10 -57 -15.5 -113.5t-9.5 -115.5h-4q-2 20 -4 52t-4 63.5t-4 59.5t-4 42l-175 997q-2 14 -5 25.5t-11 11.5q-4 0 -12 -2t-15 -4l-100 -25q-4 -2 -13 -4t-9 -12z" />
<glyph unicode="X" horiz-adv-x="985" d="M27 47q0 -10 7 -14t15 -8l103 -35q8 -4 18 -4t20 24l256 482q8 16 20.5 44.5t27.5 57.5q10 -35 26.5 -64.5t26.5 -50.5l250 -461q16 -32 27 -32h1q6 0 11.5 3t11.5 5l92 39q20 8 23 18q0 6 -3.5 12.5t-7.5 14.5l-370 659l336 588q4 8 7 14.5t3 12.5q-2 10 -23 18l-92 39 q-6 2 -11 5t-11 3q-12 0 -29 -33l-215 -399q-14 -25 -26.5 -52.5t-26.5 -62.5q-12 27 -26.5 59t-25.5 48l-225 416q-6 10 -11 17t-13 7q-4 0 -7.5 -2t-7.5 -2l-102 -35q-8 -4 -15.5 -8t-7.5 -14q0 -4 3 -12.5t7 -12.5l330 -600l-356 -659q-4 -4 -7 -12.5t-3 -12.5z" />
<glyph unicode="Y" horiz-adv-x="985" d="M4 1366q0 -8 6 -20l398 -754v-567q0 -25 24 -25h119q25 0 24 25v571l408 750q6 12 6 20q0 12 -10 15t-14 5l-119 29q-4 0 -9.5 1t-9.5 1q-10 0 -14 -8t-8 -18l-248 -514q-16 -29 -28.5 -59t-28.5 -68q-12 27 -28.5 58.5t-25.5 47.5l-258 535q-4 10 -8 18t-14 8 q-12 0 -19 -2l-118 -29l-17.5 -7t-7.5 -13z" />
<glyph unicode="Z" horiz-adv-x="909" d="M53 29q0 -18 6.5 -23.5t22.5 -5.5h760q12 0 22 5t10 20v81q0 16 -4 26.5t-32 10.5h-592l606 1133v100q0 16 -5 21.5t-22 5.5h-675q-25 0 -33 -23l-29 -77q-2 -8 -5 -14.5t-3 -12.5q0 -16 24 -16h551l-602 -1125v-106z" />
<glyph unicode="[" horiz-adv-x="757" d="M236 -385q0 -18 5 -23.5t23 -5.5h357q25 0 24 25v78q0 25 -24 24h-230v1628h230q25 0 24 25v78q0 25 -24 24h-357q-18 0 -23 -5t-5 -23v-1825z" />
<glyph unicode="\" horiz-adv-x="909" d="M121 1470q0 -8 8 -24l786 -1839q8 -20 33 -21h80q27 0 27 17q0 4 -2 9t-4 9l-787 1839q-4 12 -14 17.5t-21 5.5h-82q-10 0 -17 -1t-7 -12z" />
<glyph unicode="]" horiz-adv-x="757" d="M113 -311v-78q0 -25 24 -25h357q18 0 23 5.5t5 23.5v1825q0 18 -5 23t-23 5h-357q-25 0 -24 -24v-78q0 -25 24 -25h230v-1628h-230q-25 0 -24 -24z" />
<glyph unicode="^" d="M127 707q0 -12 20 -17l91 -26q12 -4 18 -5q12 0 20 15l236 528l238 -528q6 -14 20 -15q6 0 18 5l91 26q20 4 20 17l-4 12t-6 14l-293 653q-4 8 -9 12.5t-24 4.5h-100q-18 0 -23.5 -4t-9.5 -13l-293 -653q-4 -8 -6 -14z" />
<glyph unicode="_" d="M0 -154v-102h1024v102h-1024z" />
<glyph unicode="`" horiz-adv-x="630" d="M104 1325q0 -10 19 -18l336 -174q8 -6 20 -7q8 0 19 17l18 28q4 4 7 10.5t3 10.5t-5 8t-11 10l-297 230q-4 2 -9 6t-11 4t-11.5 -6t-9.5 -10l-59 -88q-8 -12 -9 -21z" />
<glyph unicode="a" horiz-adv-x="948" d="M94 260q0 -137 72 -213t194 -76q63 0 114.5 18.5t88.5 42t59.5 46t32.5 31.5q4 -10 12.5 -34t18.5 -46.5t22.5 -40t24.5 -17.5q4 0 17 6l79 50q6 4 12.5 7t6.5 9q0 10 -15.5 33.5t-21.5 42.5q-6 20 -11 37.5t-8.5 38t-4.5 50t-1 79.5v401q0 63 -16 116.5t-53 91.5 t-97.5 58.5t-148.5 20.5q-49 0 -105.5 -10.5t-103.5 -24.5t-78.5 -30.5t-31.5 -28.5t6 -27l26 -72q4 -10 15 -10q6 0 26.5 10t53 22.5t75.5 22.5t95 10q109 0 145.5 -48t36.5 -136v-74q-33 -2 -84 -4t-111.5 -13t-121 -32.5t-109.5 -60.5t-80 -99.5t-31 -146.5zM248 272 q0 80 47 124t110.5 64.5t127 24.5t98.5 4v-264q-12 -10 -36 -31.5t-54.5 -43t-67.5 -37t-76 -15.5t-67.5 15.5t-47 41t-26.5 56.5t-8 61z" />
<glyph unicode="b" d="M109 45q0 -8 9 -13t21 -14l51 -32q6 -4 14.5 -9.5t14.5 -5.5q8 0 18.5 11.5t19.5 28t16.5 33.5t11.5 28q49 -47 112.5 -74t171.5 -27q102 0 170 49.5t108 131t56.5 186t16.5 215.5q0 94 -17.5 178t-56.5 146.5t-102.5 98.5t-155.5 36q-35 0 -73 -8.5t-72.5 -22.5 t-64.5 -33.5t-50 -40.5v549q0 8 -2 17.5t-13 9.5q-10 -2 -11 -1t-13 -3l-103 -25q-14 -4 -14 -24v-1180q0 -49 -9 -85t-24 -61q-10 -27 -20 -39t-10 -20zM328 186v586q31 20 56.5 39.5t51 33t57 21.5t76.5 8q61 0 98.5 -27.5t55.5 -71.5t23.5 -101.5t5.5 -116.5 q0 -80 -6.5 -160t-28 -144.5t-63.5 -104t-113 -39.5q-68 0 -123.5 26.5t-89.5 50.5z" />
<glyph unicode="c" horiz-adv-x="872" d="M113 461q0 -225 100 -357.5t285 -132.5q57 0 114.5 13.5t103.5 32t75.5 36t29.5 25.5q0 4 -2 8l-4 8l-35 86q-8 12 -12 13q-4 0 -25.5 -13.5t-55.5 -29t-78 -28.5t-93 -13q-74 0 -120 33.5t-71.5 88t-34.5 123t-9 138.5q0 88 12 158.5t42 120.5t80 76.5t126 26.5 q45 0 84 -16t67.5 -35.5t45 -36t20.5 -16.5t12 12l47 86q2 4 4 8.5t2 8.5q0 12 -26.5 32.5t-69.5 42t-95 37t-104 15.5q-94 0 -170.5 -38t-131 -109.5t-84 -173t-29.5 -230.5z" />
<glyph unicode="d" d="M104 471q0 -96 19.5 -185t58.5 -160t99.5 -113t142.5 -42q57 0 104 14.5t85 34t66 40t46 32.5q2 -12 10 -32.5t18.5 -40t22.5 -34t23 -14.5q4 0 16 6l80 50q6 4 12 7t6 9q0 10 -14 33.5t-22 42.5q-16 39 -19.5 87t-3.5 118v1132q0 8 -2 17.5t-14 9.5q-10 -2 -11.5 -1 t-13.5 -3l-100 -25q-14 -4 -15 -24v-488q-41 27 -98 48.5t-154 21.5q-90 0 -154.5 -43t-105.5 -117t-61.5 -172t-20.5 -209zM272 475q0 74 5.5 145.5t25 128t58 91t104.5 34.5q78 0 131 -20t102 -47v-578q-18 -12 -43.5 -31.5t-57.5 -40t-68.5 -34.5t-75.5 -14 q-61 0 -97.5 32.5t-54.5 86t-23.5 118t-5.5 129.5z" />
<glyph unicode="e" horiz-adv-x="948" d="M86 492q0 -117 29.5 -212.5t85 -164t135.5 -106.5t182 -38q57 0 114.5 13.5t103.5 32t76 36t30 25.5q0 4 -2 8l-4 8l-35 86q-8 12 -13 13q-4 0 -25.5 -13.5t-55 -29t-77.5 -28.5t-93 -13q-88 0 -143.5 36.5t-86.5 91t-42 115t-11 107.5h588q16 0 19 11t3 34 q0 66 -10 153.5t-48 166.5t-111.5 133.5t-202.5 54.5q-96 0 -171 -39t-127.5 -108.5t-80 -165t-27.5 -207.5zM254 586q0 39 9 90t35 97t70 79t115 33q68 0 109 -32t64.5 -78t31.5 -98t8 -91h-442z" />
<glyph unicode="f" horiz-adv-x="645" d="M51 881q0 -8 2 -16.5t13 -8.5h143v-831q0 -25 24 -25h107q25 0 25 25v831h262q18 0 26 18l27 80q0 4 1 7.5t1 7.5q0 14 -23 14h-294v158q0 45 3 82t15 64.5t36.5 43t67.5 15.5q66 0 109 -21.5t70 -21.5q6 0 14 12l29 67l7 17.5t3 11.5q0 12 -21.5 24.5t-55.5 22.5 t-74 17.5t-74 7.5q-96 0 -152.5 -32t-85.5 -81t-38 -109.5t-9 -117.5v-160h-143q-10 0 -12.5 -7t-2.5 -18v-77z" />
<glyph unicode="g" d="M104 479q0 -217 87.5 -334.5t228.5 -117.5q51 0 94 12t79 29.5t61.5 37t43.5 33.5q0 -18 3.5 -75.5t3.5 -135.5q0 -41 -6.5 -81t-29 -70.5t-64.5 -50t-113 -19.5q-53 0 -101.5 12.5t-86.5 27.5t-62.5 27.5t-30.5 12.5q-10 0 -14 -12l-33 -70q-8 -16 -8 -27 q0 -14 31.5 -32.5t81.5 -36t111.5 -28.5t119.5 -11q104 0 172.5 29.5t110.5 80t59.5 116t17.5 134.5q0 41 -2 102.5t-5 128t-5 129t-2 105.5v316q0 55 6 83.5t20 67.5q14 37 25.5 50.5t11.5 25.5q0 6 -8 12l-92 58q-8 4 -18 4q-14 0 -30 -24.5t-30 -63.5q-10 8 -29.5 22.5 t-50 28.5t-70.5 25.5t-92 11.5q-98 0 -169.5 -38t-119.5 -107.5t-72 -168t-24 -219.5zM272 518q0 166 56.5 261t173.5 95q61 0 111.5 -21.5t76.5 -33.5v-553q-18 -12 -42.5 -29.5t-55.5 -34t-67 -27.5t-74 -11q-104 0 -141.5 95t-37.5 259z" />
<glyph unicode="h" horiz-adv-x="1062" d="M172 25q0 -25 25 -25h106q25 0 25 25v725q18 16 45.5 37.5t61.5 41t77 32.5t92 13q41 0 67.5 -13t41 -36.5t19.5 -53.5t5 -62v-684q0 -25 25 -25h106q25 0 25 25v680q0 55 -6 110t-31 98t-73 71t-134 28q-55 0 -103 -14.5t-88 -36t-73 -45t-57 -44.5v584q0 8 -2 17.5 t-13 9.5q-10 -2 -11 -1t-13 -3l-103 -25q-14 -4 -14 -24v-1405z" />
<glyph unicode="i" horiz-adv-x="569" d="M49 881q0 -25 25 -25h159v-831q0 -25 25 -25h107q25 0 24 25v927q0 14 -5 22.5t-22 8.5h-288q-25 0 -25 -25v-77zM176 1343q0 -53 36 -88.5t89 -35.5t89 36.5t36 87.5t-36 88t-89 37t-89 -35.5t-36 -89.5z" />
<glyph unicode="j" horiz-adv-x="569" d="M-150 -350q0 -10 22 -23.5t55.5 -26t76.5 -21.5t86 -9q94 0 154.5 26.5t95.5 71.5t48 103.5t13 119.5v1061q0 14 -5 22.5t-21 8.5h-291q-25 0 -25 -25v-77q0 -25 25 -25h162v-928q0 -43 -2 -83t-15.5 -70.5t-41 -49t-78.5 -18.5q-39 0 -73 8.5t-60.5 19.5t-44 19t-23.5 8 q-8 0 -10 -5t-7 -9l-36 -82q-4 -8 -5 -16zM186 1343q0 -53 36 -88.5t89 -35.5t89 36.5t36 87.5t-35.5 88t-89.5 37q-53 0 -89 -35.5t-36 -89.5z" />
<glyph unicode="k" horiz-adv-x="909" d="M162 25q0 -25 24 -25h107q25 0 24 25v479h5l417 -516q4 -4 9.5 -10.5t13.5 -6.5q6 0 12 4.5t12 8.5l72 49q4 4 8 6t4 8q0 8 -5 14.5t-9 10.5l-360 456l346 383q4 4 9 10.5t5 14.5q0 6 -4 8t-8 6l-72 49q-6 4 -12 8.5t-12 4.5q-8 0 -13.5 -6.5t-9.5 -10.5l-408 -463v924 q0 8 -2 17.5t-12 9.5q-10 -2 -11 -1t-13 -3l-103 -25q-14 -4 -14 -24v-1405z" />
<glyph unicode="l" horiz-adv-x="530" d="M154 299q0 -39 3 -82t9 -83t16 -64q18 -43 67.5 -71t125.5 -28q29 0 59.5 5.5t56 12.5t42 16t16.5 18q0 6 -4 14l-27 76q-2 4 -3 8t-11 4t-38 -13.5t-69 -13.5q-45 0 -62.5 28t-19.5 44q-2 8 -3 30.5t-2 50.5t-1 56v55v1094q0 8 -2 17.5t-12 9.5q-10 -2 -11 -1t-14 -3 l-102 -25q-14 -4 -14 -24v-1063v-68z" />
<glyph unicode="m" horiz-adv-x="1478" d="M137 940q0 -8 9.5 -21.5t17.5 -48t10 -71.5t2 -72v-702q0 -25 25 -25h106q25 0 25 25v763q12 10 32.5 25.5t45 29t55.5 22.5t65 9q41 0 68 -13t41 -36.5t19.5 -53.5t5.5 -62v-684q0 -25 24 -25h107q25 0 24 25v766q31 23 79 53t122 30q41 0 66.5 -13t40 -36.5t19.5 -53.5 t5 -62v-684q0 -25 25 -25h106q25 0 25 25v680q0 55 -6.5 110t-31 98t-72.5 71t-134 28q-37 0 -75 -13.5t-73.5 -32t-67.5 -40t-54 -37.5q-20 61 -68.5 92t-149.5 31q-33 0 -70.5 -12.5t-74.5 -30t-68.5 -39t-52.5 -39.5q0 6 -5 25.5t-12 41t-16.5 38t-21.5 16.5q-4 0 -9 -3 t-9 -5l-89 -50q-10 -8 -10 -14z" />
<glyph unicode="n" horiz-adv-x="1062" d="M137 938q0 -8 10.5 -23.5t22.5 -62.5q6 -23 7 -46.5t1 -74.5v-706q0 -25 25 -25h106q25 0 25 25v725q18 16 45 37.5t59.5 41t74.5 32.5t91 13q41 0 67.5 -13t41 -36.5t19.5 -53.5t5 -62v-684q0 -25 25 -25h106q25 0 25 25v680q0 55 -6 110t-31 98t-73 71t-134 28 q-59 0 -108 -14.5t-90 -36t-74 -45t-58 -44.5q0 6 -5 29t-13 47.5t-19.5 44t-25.5 19.5q-4 0 -8 -3t-8 -5l-93 -52q-10 -8 -10 -14z" />
<glyph unicode="o" d="M104 487q0 -111 23 -205t71 -162.5t122.5 -108.5t179.5 -40q113 0 191.5 42t129.5 114t75 167t24 204t-23 203t-72 162.5t-124.5 108.5t-180.5 40q-111 0 -189.5 -42t-128.5 -114t-74 -167t-24 -202zM272 506q0 76 11.5 144.5t39 120.5t73.5 83t116 31t116 -32t73.5 -85 t39 -123t11.5 -145q0 -88 -11.5 -162t-39 -127t-73.5 -83t-114 -30q-72 0 -118 31t-73.5 85t-39 129t-11.5 163z" />
<glyph unicode="p" d="M123 940q0 -10 15.5 -33.5t21.5 -42.5q18 -55 21 -100t3 -105v-1062q0 -8 2 -17.5t13 -9.5q10 2 11 1t13 3l103 25q14 4 14 24v418q41 -27 98.5 -48.5t151.5 -21.5q88 0 153.5 43t106.5 117t61.5 172t20.5 209q0 94 -19.5 184t-58.5 161t-99.5 113t-142.5 42 q-57 0 -104 -14.5t-85 -34t-65.5 -40t-46.5 -32.5q-4 12 -11 32.5t-17.5 40t-22.5 34t-22 14.5q-4 0 -17 -6l-80 -50q-6 -4 -12 -7t-6 -9zM340 176v598q39 31 101.5 65.5t142.5 34.5q61 0 97 -32.5t54.5 -86t23.5 -119t5 -128.5q0 -74 -5 -145.5t-24.5 -128t-58.5 -91 t-105 -34.5q-78 0 -130 20.5t-101 46.5z" />
<glyph unicode="q" horiz-adv-x="985" d="M102 512q0 -111 18.5 -209t58.5 -172t104.5 -117t154.5 -43q43 0 81 13.5t68.5 32t56.5 39t44 36.5v-495q0 -8 2 -17.5t12 -9.5q10 2 11.5 1t13.5 3l102 25q14 4 15 24v1104q0 41 4 67.5t14 57.5q10 29 23.5 55.5t13.5 36.5q0 8 -16 19l-72 41q-16 8 -20 8 q-8 0 -16.5 -11.5t-15.5 -27t-15.5 -31.5t-14.5 -29q-14 10 -36.5 27.5t-54.5 33t-72 27t-87 11.5q-96 0 -167.5 -42t-118 -113t-69 -161t-22.5 -184zM270 508q0 63 9.5 128.5t33 119t65.5 86t109 32.5q68 0 119 -30.5t82 -48.5v-568q-45 -39 -98 -78.5t-123 -39.5 q-61 0 -100 34.5t-60.5 91t-29 128t-7.5 145.5z" />
<glyph unicode="r" horiz-adv-x="645" d="M117 934q0 -12 22.5 -51t28.5 -83t6 -73v-702q0 -25 25 -25h106q25 0 25 25v675q18 20 40.5 48t47 52.5t51.5 42t53 17.5q29 0 44.5 -9t23.5 -9q6 0 8 5t4 9l45 105l4 8t2 8q0 14 -32.5 24.5t-67.5 10.5q-45 0 -81 -18.5t-66.5 -46t-54 -57.5t-44.5 -50q-4 16 -11 45.5 t-18.5 57.5t-23.5 48.5t-27 20.5q-6 0 -20 -11l-76 -47q-4 -2 -8 -6t-6 -14z" />
<glyph unicode="s" horiz-adv-x="796" d="M72 70q0 -16 34.5 -33t84 -32t102.5 -24.5t90 -9.5q66 0 125 18.5t104 55.5t72 91t27 126q0 80 -34 131t-84 86t-109.5 59.5t-109.5 51t-84 62.5t-34 91q0 72 45 104t107 32q39 0 74.5 -8.5t63 -19.5t45 -19.5t23.5 -8.5q10 0 14.5 6.5t10.5 18.5l27 55q2 6 5 11.5t3 9.5 q0 14 -23 26q-20 10 -51 21.5t-64.5 20.5t-66.5 14.5t-59 5.5q-68 0 -124.5 -21.5t-98.5 -59.5t-64.5 -90.5t-22.5 -113.5q0 -78 34 -128t84 -85t109.5 -60.5t109.5 -52t84 -61.5t34 -88q0 -74 -49 -111t-115 -37q-53 0 -98 11.5t-80 25t-57.5 24.5t-28.5 11q-10 0 -18 -18 l-29 -64q-4 -6 -6 -11t-2 -13z" />
<glyph unicode="t" horiz-adv-x="720" d="M35 881q0 -8 2 -16.5t12 -8.5h154v-582q0 -29 1 -59.5t6 -61t17.5 -58t34.5 -52.5q23 -29 75 -50.5t118 -21.5q41 0 88 9.5t86 22.5t64.5 27.5t25.5 24.5q0 4 -4 21l-23 76q0 12 -14 12q-6 0 -24.5 -8.5t-45 -19.5t-58.5 -19t-69 -8q-47 0 -71.5 14t-36 37.5t-13.5 53.5 t-2 60v582h271q18 0 26 18l27 80q0 4 1 7.5t1 7.5q0 14 -22 14h-304v315q0 23 -10 23q-4 0 -7 -1t-7 -1l-109 -31q-23 -6 -22 -24v-281h-154q-10 0 -12 -7t-2 -18v-77z" />
<glyph unicode="u" d="M150 279q0 -55 8 -110.5t37.5 -98.5t89 -71t164.5 -28q43 0 84.5 12.5t78.5 31t68 39t53 38.5q8 -18 16.5 -38.5t17.5 -39t19.5 -31t22.5 -12.5q4 0 16 6l80 50q6 4 12.5 7t6.5 9q0 10 -14.5 34.5t-24.5 43.5q-16 33 -19.5 66.5t-3.5 68.5v729q0 8 -2 17.5t-12 9.5 q-10 -2 -11 -1t-14 -3l-102 -25q-14 -4 -14 -25v-745q-14 -14 -44 -31.5t-64 -34t-67.5 -27.5t-58.5 -11q-49 0 -82 13t-52.5 36.5t-26.5 53.5t-7 62v711q0 8 -2 17.5t-12 9.5q-10 -2 -11 -1t-14 -3l-102 -25q-14 -4 -14 -25v-679z" />
<glyph unicode="v" horiz-adv-x="909" d="M41 952q0 -4 2 -7t2 -7l344 -934q4 -8 7 -13t18 -5h80q14 0 18 4t8 14l371 934q0 4 2 7t2 7q0 8 -18 15l-101 26q-4 0 -9 2t-11 2t-8.5 -5t-6.5 -11l-241 -668q-14 -37 -21.5 -63.5t-15.5 -63.5h-4q-8 29 -17.5 63t-19.5 66l-227 666q-4 6 -6.5 11t-8.5 5t-11 -2t-9 -2 l-101 -26q-18 -6 -18 -15z" />
<glyph unicode="w" horiz-adv-x="1290" d="M72 954q0 -12 4 -20l231 -928q2 -6 6 -13t17 -7h82q12 0 16 6t6 12l193 625q12 39 19 73.5t11 79.5h5q4 -35 9 -80t13 -75l162 -621q2 -6 6 -13t20 -7h80q14 0 17.5 7t7.5 13l266 928q4 16 4 20q0 6 -5 8.5l-13 6.5l-90 24q-4 0 -7.5 2t-9.5 2q-14 0 -16 -20l-174 -698 q-4 -14 -7 -38t-5 -42h-5q-4 20 -7 39.5t-7 40.5l-168 684l-7 14t-17 6h-78q-23 0 -29 -18l-194 -660q-6 -18 -11.5 -47t-11.5 -65h-4q-4 25 -9 55.5t-12 56.5l-147 672q-6 20 -16 20q-6 0 -9.5 -2t-7.5 -2l-90 -24q-8 -4 -13 -6t-5 -9z" />
<glyph unicode="x" horiz-adv-x="909" d="M27 45q0 -8 5 -10t11 -6l86 -35q8 -4 13 -6t12 -2q12 0 16 4t10 12l219 309q16 25 28.5 43.5t27.5 40.5q10 -16 24.5 -39.5t28.5 -46.5l203 -307q4 -8 9 -12t17 -4q6 0 11.5 2t13.5 6l86 35q6 4 11 6t5 10q0 4 -3 8t-5 8l-319 457l307 404q2 4 5 8t3 8q0 8 -5 10t-11 6 l-86 35q-8 4 -13.5 6t-11.5 2q-12 0 -17.5 -4t-9.5 -12l-178 -264q-16 -23 -32.5 -48.5t-32.5 -50.5q-12 20 -28.5 46t-33.5 53l-170 264q-6 8 -10 12t-16 4q-6 0 -11.5 -2t-13.5 -6l-86 -35q-6 -4 -11 -6t-5 -10t8 -16l297 -420l-340 -441q-8 -8 -8 -16z" />
<glyph unicode="y" horiz-adv-x="909" d="M0 -328q0 -12 23.5 -29.5t61.5 -34t84 -27.5t89 -11q86 0 148.5 42t93.5 107q47 98 81.5 210t59.5 198l233 782q2 8 3.5 13.5t1.5 15.5q0 8 -5.5 10t-11.5 6l-86 35q-20 8 -28 8q-18 0 -23 -16l-205 -778q-10 -37 -17 -72t-14 -72h-4q-8 33 -16 68t-25 80l-258 774 q-6 16 -22 16q-8 0 -29 -8l-86 -35q-6 -4 -11 -6t-5 -10q-2 -10 0 -15t4 -14l317 -891q4 -10 8.5 -14t18.5 -4h74l-43 -129q-25 -74 -62 -124t-94 -50q-37 0 -69.5 12t-58.5 27.5t-43 28t-26 12.5q-10 0 -14 -10l-41 -82q-4 -8 -4 -13z" />
<glyph unicode="z" horiz-adv-x="833" d="M68 25q0 -16 3 -20.5t19 -4.5h639q10 0 16.5 3t10.5 15l37 84q4 8 6 13.5t2 9.5q0 8 -29 8h-506l510 741v84q0 16 -4 20.5t-20 4.5h-619q-16 0 -20 -4t-4 -21v-84q0 -25 24 -24h449l-514 -744v-81z" />
<glyph unicode="{" horiz-adv-x="872" d="M127 508q0 -16 5 -22.5t24 -6.5h41q102 0 141 -45t39 -137v-399q0 -88 23.5 -147.5t67.5 -96.5t106.5 -52.5t142.5 -15.5h41q16 0 22 5.5t6 23.5v70q0 18 -6 23t-22 5h-47q-98 0 -138.5 44t-40.5 139v399q0 57 -9 97t-27.5 67.5t-45 47t-59.5 38.5q33 16 59.5 35.5t45 47 t27.5 66.5t9 97v364q0 104 42 145t149 41h35q16 0 22 5.5t6 23.5v70q0 18 -6 23t-22 5h-41q-78 0 -140.5 -15t-106.5 -51t-68.5 -96.5t-24.5 -152.5v-365q0 -96 -41 -139t-141 -43h-39q-18 0 -23.5 -6t-5.5 -22v-70z" />
<glyph unicode="|" horiz-adv-x="622" d="M238 -483q0 -18 4 -23.5t22 -5.5h94q18 0 22.5 5t4.5 24v1990q0 14 -4 21.5t-23 7.5h-94q-16 0 -21 -6t-5 -23v-1990z" />
<glyph unicode="}" horiz-adv-x="872" d="M86 -315v-70q0 -18 6 -23.5t23 -5.5h41q76 0 139 15.5t107 51.5t69 96.5t25 152.5v364q0 96 41 139.5t141 43.5h39q18 0 23 6t5 22v70q0 16 -5 22t-23 6h-41q-102 0 -141 45.5t-39 137.5v399q0 88 -23.5 147.5t-68 96.5t-106.5 52t-142 15h-41q-16 0 -22.5 -5t-6.5 -23 v-70q0 -18 6 -23.5t23 -5.5h47q98 0 138 -44t40 -138v-399q0 -59 9 -98t27.5 -67t45.5 -47.5t59 -37.5q-33 -16 -59.5 -35.5t-45 -47.5t-27.5 -66.5t-9 -96.5v-364q0 -104 -42 -145.5t-148 -41.5h-35q-16 0 -22.5 -5t-6.5 -23z" />
<glyph unicode="~" d="M-14 375h94q2 20 7 52t21.5 60.5t46 50t78.5 21.5q35 0 87.5 -20.5t95.5 -44.5l116 -70q53 -35 115 -60.5t127 -25.5q70 0 120 32.5t83 82t47 107.5t14 112h-94q-2 -23 -8 -53.5t-21.5 -59.5t-45 -49.5t-78.5 -20.5q-29 0 -85.5 20.5t-97.5 43.5l-116 70 q-55 33 -117 60.5t-125 27.5q-80 0 -131 -38t-81 -92.5t-41 -111.5t-11 -94z" />
<glyph unicode="&#xa1;" horiz-adv-x="681" d="M199 868q0 -59 42 -101t101 -42t101 42t42 101t-42 101.5t-101 42.5t-101 -42t-42 -102zM236 -397q0 -12 8 -14.5t18 -2.5h154q8 0 17 2t9 15q0 8 -1 20t-1 21l-43 770q0 18 -6 22t-22 4h-58q-14 0 -21 -4t-7 -22l-45 -772q0 -12 -1 -21.5t-1 -17.5z" />
<glyph unicode="&#xa2;" d="M172 627q0 -141 33 -233.5t84 -150t114.5 -83t126.5 -31.5v-113q0 -16 6.5 -21t22.5 -5h53q16 0 22.5 5t6.5 21v121q27 2 67 13.5t77.5 27t65.5 31.5t28 27q0 6 -5 14l-34 86q-4 12 -15 12q-10 0 -32.5 -14.5t-51.5 -28.5q-18 -10 -47.5 -17t-52.5 -12v750q20 -2 45 -9 t41 -16q31 -16 55.5 -29.5t34.5 -13.5q6 0 14 13l46 78l4 8t2 8q0 12 -26 29.5t-62.5 33t-78.5 25.5t-75 10v109q0 29 -29 28h-53q-16 0 -22.5 -5t-6.5 -23v-109q-59 -8 -122.5 -37.5t-115.5 -91t-86 -161t-34 -246.5zM328 651q0 100 16 167t44 109t64.5 63.5t77.5 31.5 v-750q-111 23 -156.5 113t-45.5 266z" />
<glyph unicode="&#xa3;" d="M57 657q0 -18 5.5 -23t23.5 -5h184q12 -49 23.5 -104.5t11.5 -145.5q0 -88 -10 -145.5t-21 -100.5h-176q-16 0 -21 -5t-5 -22v-77q0 -18 5 -23.5t21 -5.5h844q16 0 21.5 5t9.5 15l31 70q6 14 6 27q0 10 -8.5 13t-18.5 3h-553q8 41 19.5 99.5t11.5 142.5q0 88 -13.5 151.5 t-23.5 102.5h244q16 0 22 5t6 23v78q0 16 -5 21.5t-23 5.5h-277q-10 53 -19.5 107.5t-9.5 107.5q0 106 73 168.5t192 62.5q51 0 93 -10t73.5 -21.5t52 -21.5t28.5 -10t17 12l39 78q2 4 4 9t2 9q0 14 -28.5 30.5t-72.5 30t-97.5 23t-100.5 9.5q-94 0 -173 -26t-136.5 -74 t-89 -117.5t-31.5 -157.5q0 -53 9 -104.5t26 -104.5h-156q-18 0 -23.5 -5t-5.5 -22v-78z" />
<glyph unicode="&#xa4;" d="M25 1145l143 -144q-47 -59 -72.5 -132.5t-25.5 -149.5q0 -74 22.5 -148.5t73.5 -130.5l-137 -137l61 -61l135 135q57 -45 133 -70.5t154 -25.5q76 0 146.5 22.5t138.5 73.5l135 -135l61 61l-137 137q49 55 72.5 130t23.5 149q0 76 -22.5 151.5t-75.5 130.5l143 144 l-65 63l-141 -139q-59 43 -132 68.5t-147 25.5q-76 0 -148.5 -25.5t-132.5 -68.5l-141 139zM154 719q0 74 27.5 139.5t76.5 114.5t114.5 77.5t139.5 28.5t138.5 -28.5t113.5 -77.5t76.5 -114.5t27.5 -139.5t-28.5 -138.5t-76.5 -112.5t-112.5 -75.5t-138.5 -27.5 t-139.5 27.5t-113.5 75.5t-76.5 112.5t-28.5 138.5z" />
<glyph unicode="&#xa5;" d="M35 528q0 -12 4 -17t20 -5h373v-481q0 -25 25 -25h118q25 0 25 25v481h365q16 0 20 5t4 17v33q0 18 -4 26.5t-27 8.5h-358l64 135h301q16 0 20 5t4 18v32q0 18 -4 26.5t-27 8.5h-251l241 522q4 6 7 14.5t3 14.5q0 12 -16 17l-102 30q-6 2 -21 2q-8 0 -12 -8t-8 -18 l-217 -518q-12 -29 -26.5 -59t-31.5 -68q-12 27 -28.5 58.5t-24.5 47.5l-250 539q-4 10 -8 18t-14 8q-12 0 -19 -2l-102 -30q-16 -4 -17 -17q0 -6 4.5 -14t8.5 -15l250 -522h-258q-23 0 -27 -8t-4 -27v-32q0 -12 4 -17.5t20 -5.5h308l65 -135h-366q-23 0 -27 -8t-4 -27v-33z " />
<glyph unicode="&#xa6;" horiz-adv-x="622" d="M238 -330q0 -18 4 -23t22 -5h94q18 0 22.5 5t4.5 23v688h-147v-688zM238 666h147v688q0 14 -4 21t-23 7h-94q-16 0 -21 -6t-5 -22v-688z" />
<glyph unicode="&#xa7;" d="M160 -84q0 -14 31.5 -35.5t78.5 -41t104.5 -34t108.5 -14.5q70 0 131.5 22.5t107.5 61.5t73.5 93.5t27.5 117.5q0 59 -21.5 101t-53 73t-66.5 51.5t-61 34.5q25 14 66.5 40t80.5 63.5t67.5 91t28.5 121.5q0 88 -45 145t-119 104q-55 37 -114.5 63.5t-108.5 54.5 t-80.5 60.5t-31.5 77.5q0 33 14 56.5t36.5 39t51.5 23.5t57 8q47 0 83 -12t62.5 -25.5t43 -25.5t26.5 -12q8 0 17 16l37 78q8 12 8 20q0 12 -23.5 28.5t-61.5 32t-85 27t-94 11.5q-74 0 -134.5 -21.5t-103.5 -58.5t-66.5 -86t-23.5 -107q0 -57 21.5 -98t51 -69.5t62.5 -46 t57 -27.5q-27 -14 -67.5 -38t-79.5 -62t-66.5 -91t-27.5 -127q0 -53 14 -92t39 -68.5t58.5 -54.5t72.5 -47q49 -29 103.5 -53.5t100.5 -53t76.5 -66.5t30.5 -93q0 -66 -46 -105t-115 -39q-51 0 -97.5 15.5t-81 35t-59.5 35t-33 15.5q-10 0 -18 -17l-37 -71q-8 -10 -8 -25z M315 621q0 51 21.5 91t52.5 68.5t61.5 48t49.5 29.5q18 -10 54 -27.5t69.5 -43t59.5 -62.5t26 -82q0 -49 -22.5 -86t-53.5 -65.5t-64.5 -47t-56.5 -30.5q-27 12 -60.5 28.5t-64.5 40t-51.5 56t-20.5 82.5z" />
<glyph unicode="&#xa8;" horiz-adv-x="630" d="M-4 1288q0 -45 31.5 -76.5t76.5 -31.5q47 0 78 31.5t31 76.5t-30.5 77t-78.5 32q-45 0 -76.5 -32t-31.5 -77zM399 1288q0 -45 32 -76.5t77 -31.5t76.5 31.5t31.5 76.5t-31.5 77t-76.5 32t-77 -32t-32 -77z" />
<glyph unicode="&#xa9;" horiz-adv-x="1138" d="M88 950q0 -100 38 -187t103.5 -152.5t152.5 -103.5t187 -38q98 0 186.5 38t154 103.5t103.5 152.5t38 187q0 98 -38 186.5t-103.5 154t-153.5 103.5t-187 38q-100 0 -187 -38t-152.5 -103.5t-103.5 -153.5t-38 -187zM160 950q0 84 32.5 159t88 130t130 88t158.5 33 t159 -33t130 -88t88 -130t33 -159t-33 -158.5t-88 -130t-130 -88t-159 -32.5t-158.5 32.5t-130 88t-88 130t-32.5 158.5zM313 958q0 -59 23.5 -109t61.5 -87t88.5 -57.5t105.5 -20.5q43 0 75.5 9t56.5 22.5t39 27t23 21.5l-53 65q-18 -16 -50 -38.5t-97 -22.5 q-31 0 -62.5 12.5t-59.5 36t-45.5 59t-17.5 82.5q0 45 17.5 81t45.5 60.5t61.5 37t66.5 12.5q53 0 88 -23.5t53 -40.5l53 68q-8 8 -23 21.5t-40 26.5t-56.5 22.5t-74.5 9.5q-53 0 -103.5 -20.5t-89.5 -57.5t-62.5 -87t-23.5 -110z" />
<glyph unicode="&#xaa;" horiz-adv-x="872" d="M156 842q0 -90 50 -140.5t134 -50.5q45 0 80 11.5t60.5 27t42 29.5t22.5 20q0 -6 6 -20t14 -27.5t18.5 -25t20.5 -11.5h10l11 4l61 37q12 8 12 21q0 6 -12 25.5t-18 37.5q-8 23 -9.5 54.5t-1.5 74.5v242q0 92 -47 143.5t-180 51.5q-41 0 -84 -6.5t-76.5 -16.5t-55 -21.5 t-21.5 -21.5q0 -4 2 -10t4 -10l16 -60q0 -14 10 -14q14 0 58.5 21.5t117.5 21.5q72 0 99.5 -24.5t27.5 -78.5v-36q-33 0 -95 -5.5t-123.5 -30t-107.5 -73.5t-46 -139zM293 848q0 51 28.5 79.5t67.5 43t78 16.5t61 2v-164q-8 -6 -25.5 -18t-39 -22.5t-46 -18.5t-48.5 -8 q-39 0 -57.5 28.5t-18.5 61.5z" />
<glyph unicode="&#xab;" horiz-adv-x="985" d="M45 489q0 -8 10 -18l344 -432q8 -14 21 -14q8 0 18 6l56 30q6 4 13 9.5t7 11.5q0 4 -3 9t-7 9l-264 389l264 392q2 4 5 7t3 11q0 10 -18 21l-56 30q-4 2 -9 4t-9 2q-8 0 -12.5 -5t-8.5 -9l-344 -432q-10 -10 -10 -21zM424 489q0 -8 10 -18l344 -432q8 -14 21 -14 q8 0 18 6l55 30q6 4 13.5 9.5t7.5 11.5q0 4 -3 9t-7 9l-265 389l265 392q2 4 5 7t3 11q0 10 -19 21l-55 30q-4 2 -9 4t-9 2q-8 0 -12.5 -5t-8.5 -9l-344 -432q-10 -10 -10 -21z" />
<glyph unicode="&#xac;" d="M45 614q0 -18 4 -23t23 -5h757v-252q0 -10 4.5 -19.5t22.5 -9.5h94q18 0 22.5 8.5t4.5 20.5v371q0 18 -5 23t-24 5h-876q-18 0 -22.5 -5t-4.5 -23v-91z" />
<glyph unicode="&#xad;" horiz-adv-x="720" d="M104 473q0 -27 29 -27h455q29 0 28 21v104q0 29 -28 29h-457q-16 0 -21.5 -8t-5.5 -25v-94z" />
<glyph unicode="&#xae;" horiz-adv-x="1138" d="M88 950q0 -100 38 -187t103.5 -152.5t153.5 -103.5t186 -38t186.5 38t154 103.5t103.5 152.5t38 187q0 98 -38 186.5t-103.5 154t-153.5 103.5t-187 38q-98 0 -186 -38t-153.5 -103.5t-103.5 -153.5t-38 -187zM160 950q0 84 32.5 159t88 130t130 88t158.5 33t159 -33 t130 -88t88 -130t33 -159t-33 -158.5t-88 -130t-130 -88t-159 -32.5t-158.5 32.5t-130 88t-88 130t-32.5 158.5zM387 709h92v204h109l80 -204h102l-94 219q12 6 27.5 13t28.5 21.5t22.5 35t9.5 55.5q0 55 -18.5 88t-48 49t-66.5 21.5t-74 5.5h-170v-508zM479 995v133h103 q86 0 86 -67q0 -35 -22.5 -50.5t-55.5 -15.5h-111z" />
<glyph unicode="&#xaf;" horiz-adv-x="630" d="M63 1251q0 -16 5.5 -21t23.5 -5h447q18 0 22 5t4 21v72q0 29 -26 29h-447q-29 0 -29 -29v-72z" />
<glyph unicode="&#xb0;" d="M195 1087q0 -66 25.5 -123t68.5 -100t100 -67.5t123 -24.5q63 0 120.5 24.5t100.5 67.5t68.5 100t25.5 123t-25.5 123.5t-68.5 100.5t-100.5 67.5t-120.5 24.5q-66 0 -123 -24.5t-100 -67.5t-68.5 -100.5t-25.5 -123.5zM324 1087q0 39 15 73t41 59.5t59.5 40t70.5 14.5 q78 0 133 -54.5t55 -132.5t-55 -132t-133 -54q-37 0 -70.5 14.5t-59.5 40t-41 59.5t-15 72z" />
<glyph unicode="&#xb1;" d="M45 16v-90q0 -18 4 -23t23 -5h876q18 0 23.5 5t5.5 23v90q0 18 -5 23.5t-24 5.5h-876q-18 0 -22.5 -5t-4.5 -24zM45 475q0 -18 4 -23.5t23 -5.5h364v-294q0 -18 4 -23.5t23 -5.5h94q18 0 22.5 5t4.5 24v294h364q18 0 23.5 5.5t5.5 23.5v90q0 18 -5 23.5t-24 5.5h-364v360 q0 20 -4.5 24.5t-22.5 4.5h-94q-16 0 -21.5 -4t-5.5 -25v-360h-364q-18 0 -22.5 -5t-4.5 -24v-90z" />
<glyph unicode="&#xb2;" horiz-adv-x="720" d="M111 555q0 -16 10 -24.5t26 -8.5h424q20 0 29.5 7.5t9.5 29.5v53q0 23 -9 30t-30 7h-315q8 43 26.5 84t79.5 88q31 25 74 49.5t82 58.5t65.5 80t26.5 111q0 104 -67.5 158.5t-171.5 54.5q-76 0 -115 -19.5t-68 -45.5q-33 -29 -54 -72t-21 -66q0 -10 5 -17t21 -11l56 -15 q12 -4 20 -4q10 0 15.5 7.5t9.5 15.5q2 10 10 29.5t22.5 39t37 34t55.5 14.5q53 0 79.5 -30t26.5 -79q0 -37 -15.5 -61.5t-47.5 -48.5q-41 -31 -92.5 -63t-96.5 -79t-76.5 -117.5t-31.5 -179.5v-10z" />
<glyph unicode="&#xb3;" horiz-adv-x="720" d="M72 567q0 -12 24.5 -23.5t61.5 -19.5t76.5 -13t70.5 -5q135 0 218 65.5t83 178.5q0 49 -15.5 84.5t-37 59.5t-45 38t-41.5 22q12 8 30.5 20.5t37 33t31 49t12.5 69.5q0 49 -19.5 88t-53.5 66t-78 40t-93 13q-51 0 -95 -14t-77 -34.5t-51.5 -41t-18.5 -33.5q0 -8 8 -16 l50 -37q8 -8 16 -8t22.5 11t34 25.5t45 26t60.5 11.5q49 0 85 -26t36 -73q0 -39 -17.5 -64.5t-42 -39.5t-52.5 -19.5t-50 -5.5h-45q-18 0 -24.5 -6t-6.5 -24v-56q0 -16 10 -19t21 -3h45q25 0 55.5 -3t58 -16.5t47 -40t19.5 -73.5q0 -66 -41 -102t-117 -36q-84 0 -129 20.5 t-57 20.5q-10 0 -19 -16l-26 -53q-6 -12 -6 -21z" />
<glyph unicode="&#xb4;" horiz-adv-x="630" d="M104 1192q0 -4 3.5 -10t7.5 -11l18 -28q10 -16 19 -17q10 0 20 7l336 174q18 8 18 18q0 8 -8 21l-59 88q-4 4 -9.5 10t-11.5 6t-11 -4t-9 -6l-297 -230q-6 -6 -11.5 -10t-5.5 -8z" />
<glyph unicode="&#xb5;" horiz-adv-x="1138" d="M150 -403q0 -8 2 -17.5t12 -9.5q10 2 11 1t13 3l103 25q14 4 14 24v406q43 -33 80 -45.5t84 -12.5q41 0 78 13.5t70.5 32t62.5 39t53 36.5q8 -18 16.5 -38.5t17.5 -39t19.5 -31t22.5 -12.5q4 0 16 6l80 50q6 4 12.5 7t6.5 9q0 10 -14.5 34.5t-24.5 43.5 q-16 33 -19.5 66.5t-3.5 68.5v700q0 8 -2 17.5t-12 9.5q-10 -2 -11 -1t-14 -3l-102 -25q-14 -4 -14 -24v-717q-14 -14 -44 -31.5t-64 -34t-67.5 -27.5t-58.5 -11q-49 0 -82 13t-52.5 36.5t-26.5 53.5t-7 62v682q0 8 -2 17.5t-12 9.5q-10 -2 -11 -1t-14 -3l-102 -25 q-14 -4 -14 -24v-1333z" />
<glyph unicode="&#xb6;" horiz-adv-x="1251" d="M80 881q0 -274 97 -406.5t284 -132.5q39 0 75.5 5t75.5 9v-710q0 -16 5.5 -21.5t23.5 -5.5h84q18 0 23.5 5t5.5 22v1624h131v-1624q0 -16 6 -21.5t22 -5.5h84q18 0 23.5 5t5.5 22v1624h137q16 0 22.5 5t6.5 21v80q0 16 -5 21.5t-24 5.5h-551q-43 0 -95 -2t-106.5 -11.5 t-105.5 -31t-90 -64.5q-27 -29 -51.5 -63.5t-43 -83.5t-29.5 -113.5t-11 -152.5zM258 879q0 135 18.5 213.5t60.5 117.5t109.5 49.5t165.5 10.5v-783q-47 -12 -94 -12q-76 0 -126 27.5t-79.5 79t-42 126t-12.5 171.5z" />
<glyph unicode="&#xb7;" d="M385 520q0 -53 37 -90t90 -37t90 37t37 90t-37 90t-90 37t-90 -37t-37 -90z" />
<glyph unicode="&#xb8;" horiz-adv-x="630" d="M150 -367q0 -10 12 -17t30.5 -11t40 -7.5t39.5 -3.5q37 0 74 9.5t67.5 30t50 51t19.5 71.5q0 43 -16 67.5t-40 38t-51.5 18.5l-49.5 9l10 113h-119l-14 -137q-2 -14 -2 -21v-16q0 -23 24.5 -26t54 -5t54 -9t24.5 -36q0 -25 -22.5 -36t-59.5 -11q-51 0 -75.5 8t-30.5 8 q-10 0 -10 -10l-8 -61q-2 -6 -2 -17z" />
<glyph unicode="&#xb9;" horiz-adv-x="720" d="M104 1145q0 -10 7 -19l16 -24q4 -8 8 -13.5t15 -5.5q8 0 18 7l170 86v-543h-125q-18 0 -24.5 -6t-6.5 -25v-49q0 -18 6.5 -24.5t24.5 -6.5h358q18 0 24.5 6.5t6.5 24.5v49q0 18 -7 24.5t-24 6.5h-104v653q0 18 -7 24.5t-26 6.5h-69l-244 -150q-4 -4 -10.5 -8t-6.5 -14z " />
<glyph unicode="&#xba;" horiz-adv-x="833" d="M141 993q0 -72 15.5 -134t48.5 -108t84 -73t121 -27q76 0 129 28t86.5 76t50 111t16.5 135q0 74 -15 136.5t-48 108.5t-84 73t-123 27q-74 0 -127 -29t-87 -77t-50.5 -111.5t-16.5 -135.5zM279 1008q0 45 6 86t22.5 73.5t43 52t67.5 19.5t67.5 -20.5t42 -53t21.5 -75.5 t6 -86q0 -53 -6 -97.5t-21.5 -78t-42 -52t-67.5 -18.5t-68.5 20.5t-43 54t-21.5 78.5t-6 97z" />
<glyph unicode="&#xbb;" horiz-adv-x="985" d="M92 899q0 -4 3 -9t7 -9l265 -389l-265 -392q-2 -4 -5 -7t-3 -11q0 -10 19 -21l55 -30q4 -2 9 -4t9 -2q8 0 12.5 5t8.5 9l344 432q10 10 10 21q0 8 -10 18l-344 432q-8 14 -21 14q-10 0 -18 -6l-55 -30q-6 -4 -13.5 -9.5t-7.5 -11.5zM471 899q0 -4 3 -9t7 -9l264 -389 l-264 -392q-2 -4 -5 -7t-3 -11q0 -10 19 -21l55 -30q4 -2 9 -4t9 -2q8 0 12.5 5t8.5 9l344 432q10 10 10 21q0 8 -10 18l-344 432q-8 14 -21 14q-10 0 -18 -6l-55 -30q-6 -4 -13.5 -9.5t-7.5 -11.5z" />
<glyph unicode="&#xbc;" horiz-adv-x="1705" d="M115 1145q0 -10 6 -19l16 -24q4 -8 8.5 -13.5t14.5 -5.5q8 0 18 7l170 86v-543h-125q-18 0 -24 -6t-6 -25v-49q0 -18 6 -24.5t24 -6.5h359q18 0 24 6.5t6 24.5v49q0 18 -7 24.5t-23 6.5h-105v653q0 18 -7 24.5t-26 6.5h-69l-244 -150q-4 -4 -10 -8t-6 -14zM565 -14 q0 -14 27 -15h78q29 0 37 21l409 1319q0 4 2 9t2 9q0 16 -26 17h-86q-27 0 -31 -21l-408 -1321q0 -4 -2 -9t-2 -9zM958 186q0 -18 6.5 -24t24.5 -6h330v-154q0 -18 6 -24.5t29 -6.5h63q18 0 24.5 6.5t6.5 24.5v154h96q18 0 24.5 6t6.5 24v45q0 18 -6 24.5t-25 6.5h-96v176 q0 18 -6 24.5t-25 6.5h-49q-33 0 -35 -29l-14 -178h-215l328 471q10 14 10 25q0 10 -9.5 13t-19.5 5l-53 8q-20 4 -29 4q-4 0 -10 -6t-10 -12l-353 -512v-72z" />
<glyph unicode="&#xbd;" horiz-adv-x="1705" d="M123 1145q0 -10 6 -19l16 -24q4 -8 8.5 -13.5t14.5 -5.5q8 0 18 7l170 86v-543h-125q-18 0 -24 -6t-6 -25v-49q0 -18 6 -24.5t24 -6.5h359q18 0 24.5 6.5t6.5 24.5v49q0 18 -7.5 24.5t-23.5 6.5h-105v653q0 18 -7 24.5t-25 6.5h-70l-244 -150q-4 -4 -10 -8t-6 -14z M573 -14q0 -14 27 -15h78q29 0 37 21l409 1319q0 4 2 9t2 9q0 16 -26 17h-86q-27 0 -31 -21l-407 -1321q0 -4 -2.5 -9t-2.5 -9zM1059 33q0 -16 10 -24.5t27 -8.5h424q20 0 29.5 7t9.5 30v53q0 23 -9.5 30t-29.5 7h-316q8 43 26.5 84t80.5 88q31 25 73.5 49.5t81.5 58 t66 79.5t27 112q0 104 -68 158.5t-172 54.5q-76 0 -115 -19.5t-67 -46.5q-33 -29 -54.5 -71.5t-21.5 -65.5q0 -10 5 -17t21 -11l56 -15q12 -4 20 -4q10 0 15.5 7t9.5 16q2 10 10 29.5t22.5 39t37 33.5t55.5 14q53 0 79.5 -29.5t26.5 -78.5q0 -37 -15 -61.5t-48 -49.5 q-41 -31 -92.5 -62.5t-96.5 -78.5t-76.5 -117.5t-31.5 -179.5v-10z" />
<glyph unicode="&#xbe;" horiz-adv-x="1705" d="M106 567q0 -12 25 -23.5t61.5 -19.5t76.5 -13t71 -5q135 0 218 65.5t83 178.5q0 49 -15.5 84.5t-37 59.5t-45 38t-41.5 22q12 8 30.5 20.5t37 33t30.5 49t12 69.5q0 49 -19.5 88t-53 66t-77.5 40t-93 13q-51 0 -95.5 -14t-77 -34.5t-51 -41t-18.5 -33.5q0 -8 8 -16 l49 -37q8 -8 17 -8q8 0 22.5 11t33.5 25.5t45 26t60 11.5q49 0 85 -26t36 -73q0 -39 -17 -64.5t-42 -39.5t-52.5 -19.5t-49.5 -5.5h-46q-18 0 -24 -6t-6 -24v-56q0 -16 10 -19t20 -3h46q25 0 55.5 -3t58 -16.5t47 -40t19.5 -73.5q0 -66 -41 -102t-117 -36q-84 0 -129 20.5 t-57 20.5q-10 0 -19 -16l-26 -53q-6 -12 -7 -21zM598 -14q0 -14 27 -15h77q29 0 37 21l410 1319q0 4 2 9t2 9q0 16 -27 17h-86q-27 0 -30 -21l-408 -1321q0 -4 -2 -9t-2 -9zM991 186q0 -18 6.5 -24t24.5 -6h330v-154q0 -18 6 -24.5t28 -6.5h64q18 0 24.5 6.5t6.5 24.5v154 h96q18 0 24.5 6t6.5 24v45q0 18 -6.5 24.5t-24.5 6.5h-96v176q0 18 -6.5 24.5t-24.5 6.5h-49q-33 0 -35 -29l-14 -178h-215l327 471q10 14 11 25q0 10 -9.5 13t-19.5 5l-53 8q-20 4 -29 4q-4 0 -10 -6t-11 -12l-352 -512v-72z" />
<glyph unicode="&#xbf;" horiz-adv-x="872" d="M102 -100q0 -94 31 -158t81 -101.5t114.5 -54t132.5 -16.5q43 0 96 8t100.5 21.5t80 30t32.5 32.5q0 10 -2 14l-29 72q-6 20 -22 21q-8 0 -29.5 -9.5t-53.5 -21.5t-72 -21.5t-85 -9.5q-100 0 -153.5 49t-53.5 148q0 74 36 118t82 69.5t90 35.5t58.5 16.5t16.5 20.5t2 41 v227q0 16 -5 21.5t-24 5.5h-82q-18 0 -23 -5t-5 -22v-186q-35 -10 -88.5 -28.5t-103.5 -57.5t-86 -101.5t-36 -158.5zM338 868q0 -59 42 -101t101 -42t101.5 42t42.5 101t-42 101.5t-102 42.5q-59 0 -101 -42.5t-42 -101.5z" />
<glyph unicode="&#xc0;" horiz-adv-x="1138" d="M57 12q0 -12 29 -12h127q18 0 25.5 6t11.5 17l104 395h420l115 -395q4 -10 11 -16.5t26 -6.5h127q29 0 28 12q-2 8 -4 16.5t-6 18.5l-412 1333q-6 16 -12 19.5t-18 3.5h-121q-16 0 -21.5 -3t-9.5 -20l-409 -1333q-4 -10 -6.5 -18.5t-4.5 -16.5zM358 1745q0 -10 19 -18 l336 -174q8 -6 20 -7q8 0 19 17l18 28q4 4 7 10.5t3 10.5t-5 8t-11 10l-297 230q-4 2 -9 6t-11 4t-11.5 -6t-9.5 -10l-59 -88q-8 -12 -9 -21zM393 561l125 453q6 20 12.5 46.5t12.5 53.5t10 51.5t8 42.5h4q8 -43 21.5 -95t25.5 -99l123 -453h-342z" />
<glyph unicode="&#xc1;" horiz-adv-x="1138" d="M57 12q0 -12 29 -12h127q18 0 25.5 6t11.5 17l104 395h420l115 -395q4 -10 11 -16.5t26 -6.5h127q29 0 28 12q-2 8 -4 16.5t-6 18.5l-412 1333q-6 16 -12 19.5t-18 3.5h-121q-16 0 -21.5 -3t-9.5 -20l-409 -1333q-4 -10 -6.5 -18.5t-4.5 -16.5zM358 1612q0 -4 3.5 -10 t7.5 -11l18 -28q10 -16 19 -17q10 0 20 7l336 174q18 8 18 18q0 8 -8 21l-59 88q-4 4 -9.5 10t-11.5 6t-11 -4t-9 -6l-297 -230q-6 -6 -11.5 -10t-5.5 -8zM393 561l125 453q6 20 12.5 46.5t12.5 53.5t10 51.5t8 42.5h4q8 -43 21.5 -95t25.5 -99l123 -453h-342z" />
<glyph unicode="&#xc2;" horiz-adv-x="1138" d="M57 12q0 -12 29 -12h127q18 0 25.5 6t11.5 17l104 395h420l115 -395q4 -10 11 -16.5t26 -6.5h127q29 0 28 12q-2 8 -4 16.5t-6 18.5l-412 1333q-6 16 -12 19.5t-18 3.5h-121q-16 0 -21.5 -3t-9.5 -20l-409 -1333q-4 -10 -6.5 -18.5t-4.5 -16.5zM309 1637q0 -4 3 -9.5 t8 -9.5l24 -33q12 -16 21 -16q4 0 9 3t9 5l186 123l189 -123q8 -6 18 -6t17 10l28 37q8 12 8 21q0 6 -5 10t-9 8l-225 180q-4 4 -9 7t-12 3q-4 0 -9 -3t-9 -7l-225 -180q-6 -6 -11.5 -10t-5.5 -10zM393 561l125 453q6 20 12.5 46.5t12.5 53.5t10 51.5t8 42.5h4 q8 -43 21.5 -95t25.5 -99l123 -453h-342z" />
<glyph unicode="&#xc3;" horiz-adv-x="1138" d="M57 12q0 -12 29 -12h127q18 0 25.5 6t11.5 17l104 395h420l115 -395q4 -10 11 -16.5t26 -6.5h127q29 0 28 12q-2 8 -4 16.5t-6 18.5l-412 1333q-6 16 -12 19.5t-18 3.5h-121q-16 0 -21.5 -3t-9.5 -20l-409 -1333q-4 -10 -6.5 -18.5t-4.5 -16.5zM264 1653q0 -10 17 -19 l55 -22q8 -4 12 -4q8 0 16.5 12t20.5 27.5t28.5 28t41.5 12.5q29 0 54.5 -12.5t51.5 -28.5q29 -16 58.5 -29.5t64.5 -13.5q49 0 85 23.5t58.5 52t33.5 54t11 32.5q0 6 -5 9t-9 7l-55 24q-12 4 -14 5q-8 0 -15.5 -12.5t-17.5 -28t-28.5 -27.5t-49.5 -12q-25 0 -49.5 13 t-53 29.5t-59.5 29t-65 12.5q-49 0 -84 -24.5t-58.5 -53.5t-34 -55.5t-10.5 -28.5zM393 561l125 453q6 20 12.5 46.5t12.5 53.5t10 51.5t8 42.5h4q8 -43 21.5 -95t25.5 -99l123 -453h-342z" />
<glyph unicode="&#xc4;" horiz-adv-x="1138" d="M57 12q0 -12 29 -12h127q18 0 25.5 6t11.5 17l104 395h420l115 -395q4 -10 11 -16.5t26 -6.5h127q29 0 28 12q-2 8 -4 16.5t-6 18.5l-412 1333q-6 16 -12 19.5t-18 3.5h-121q-16 0 -21.5 -3t-9.5 -20l-409 -1333q-4 -10 -6.5 -18.5t-4.5 -16.5zM250 1708 q0 -45 31.5 -76.5t76.5 -31.5q47 0 78 31.5t31 76.5t-30.5 77t-78.5 32q-45 0 -76.5 -32t-31.5 -77zM393 561l125 453q6 20 12.5 46.5t12.5 53.5t10 51.5t8 42.5h4q8 -43 21.5 -95t25.5 -99l123 -453h-342zM653 1708q0 -45 32 -76.5t77 -31.5t76.5 31.5t31.5 76.5t-31.5 77 t-76.5 32t-77 -32t-32 -77z" />
<glyph unicode="&#xc5;" horiz-adv-x="1138" d="M57 12q0 -12 29 -12h127q18 0 25.5 6t11.5 17l104 395h420l115 -395q4 -10 11 -16.5t26 -6.5h127q29 0 28 12q-2 8 -4 16.5t-6 18.5l-412 1333q-6 16 -12 19.5t-18 3.5h-121q-16 0 -21.5 -3t-9.5 -20l-409 -1333q-4 -10 -6.5 -18.5t-4.5 -16.5zM389 1708q0 -76 52.5 -129 t127.5 -53q76 0 129.5 52t53.5 130q0 76 -52.5 129t-130.5 53q-37 0 -69.5 -14t-57 -39.5t-39 -58.5t-14.5 -70zM393 561l125 453q6 20 12.5 46.5t12.5 53.5t10 51.5t8 42.5h4q8 -43 21.5 -95t25.5 -99l123 -453h-342zM487 1708q0 35 24 61.5t58 26.5q35 0 59.5 -26.5 t24.5 -61.5t-24.5 -61.5t-59.5 -26.5t-58.5 25.5t-23.5 62.5z" />
<glyph unicode="&#xc6;" horiz-adv-x="1517" d="M20 12q0 -12 27 -12h127q18 0 25.5 6t11.5 17l176 401h375v-399q0 -25 24 -25h633q16 0 22.5 5t6.5 24v92q0 23 -25 22h-493v519h403q16 0 21.5 5t5.5 21v90q0 16 -5 21.5t-22 5.5h-403v455h461q16 0 21 3t9 15l29 86q2 6 4 13t2 12q0 6 -5 10t-21 4h-717 q-23 0 -33 -14.5t-18 -30.5l-625 -1309q-4 -10 -10.5 -19.5t-6.5 -17.5zM446 561l218 481q25 53 51 119t43 121h4v-721h-316z" />
<glyph unicode="&#xc7;" horiz-adv-x="948" d="M106 715q0 -143 20.5 -268t65 -222.5t117 -160t176.5 -82.5l-12 -127q-2 -14 -2 -21v-16q0 -23 24.5 -26t54.5 -5t54.5 -9t24.5 -36q0 -25 -22.5 -36t-59.5 -11q-51 0 -76 8t-31 8q-10 0 -10 -10l-8 -61q-2 -6 -2 -17q0 -10 12 -17t30.5 -11.5t40 -7.5t40.5 -3 q37 0 73.5 10.5t67.5 30t50.5 50t19.5 73.5q0 45 -16.5 71.5t-40 41t-51.5 19.5t-50 9l8 84q63 4 117.5 24.5t95.5 46.5t64.5 49.5t23.5 35.5t-12 29l-43 55l-10 10t-11 6q-6 0 -28.5 -18t-56 -42t-75.5 -42t-87 -18q-78 0 -133.5 45t-90 126.5t-51 197.5t-16.5 257 q0 131 12 234.5t43 175.5t84 110.5t137 38.5q45 0 87 -18.5t76 -42t56.5 -41.5t28.5 -18q8 0 21 16l43 55q12 14 12 29q0 12 -25.5 38.5t-70.5 52.5t-104.5 46.5t-127.5 20.5q-133 0 -221 -57.5t-140 -156t-74 -228.5t-22 -275z" />
<glyph unicode="&#xc8;" horiz-adv-x="948" d="M195 25q0 -25 24 -25h631q16 0 22.5 5t6.5 24v92q0 23 -25 22h-492v519h402q16 0 21.5 5t5.5 21v90q0 16 -5.5 21.5t-21.5 5.5h-402v455h455q14 0 20.5 2t10.5 16l29 86q2 6 4 14t2 13q0 4 -5.5 8t-21.5 4h-637q-25 0 -24 -25v-1353zM305 1745q0 -10 19 -18l336 -174 q8 -6 20 -7q8 0 19 17l18 28q4 4 7 10.5t3 10.5t-5 8t-11 10l-297 230q-4 2 -9 6t-11 4t-11.5 -6t-9.5 -10l-59 -88q-8 -12 -9 -21z" />
<glyph unicode="&#xc9;" horiz-adv-x="948" d="M195 25q0 -25 24 -25h631q16 0 22.5 5t6.5 24v92q0 23 -25 22h-492v519h402q16 0 21.5 5t5.5 21v90q0 16 -5.5 21.5t-21.5 5.5h-402v455h455q14 0 20.5 2t10.5 16l29 86q2 6 4 14t2 13q0 4 -5.5 8t-21.5 4h-637q-25 0 -24 -25v-1353zM315 1612q0 -4 3.5 -10t7.5 -11 l18 -28q10 -16 19 -17q10 0 20 7l336 174q18 8 18 18q0 8 -8 21l-59 88q-4 4 -9.5 10t-11.5 6t-11 -4t-9 -6l-297 -230q-6 -6 -11.5 -10t-5.5 -8z" />
<glyph unicode="&#xca;" horiz-adv-x="948" d="M195 25q0 -25 24 -25h631q16 0 22.5 5t6.5 24v92q0 23 -25 22h-492v519h402q16 0 21.5 5t5.5 21v90q0 16 -5.5 21.5t-21.5 5.5h-402v455h455q14 0 20.5 2t10.5 16l29 86q2 6 4 14t2 13q0 4 -5.5 8t-21.5 4h-637q-25 0 -24 -25v-1353zM266 1637q0 -4 3 -9.5t8 -9.5l24 -33 q12 -16 21 -16q4 0 9 3t9 5l186 123l189 -123q8 -6 18 -6t17 10l28 37q8 12 8 21q0 6 -5 10t-9 8l-225 180q-4 4 -9 7t-12 3q-4 0 -9 -3t-9 -7l-225 -180q-6 -6 -11.5 -10t-5.5 -10z" />
<glyph unicode="&#xcb;" horiz-adv-x="948" d="M195 25q0 -25 24 -25h631q16 0 22.5 5t6.5 24v92q0 23 -25 22h-492v519h402q16 0 21.5 5t5.5 21v90q0 16 -5.5 21.5t-21.5 5.5h-402v455h455q14 0 20.5 2t10.5 16l29 86q2 6 4 14t2 13q0 4 -5.5 8t-21.5 4h-637q-25 0 -24 -25v-1353zM197 1708q0 -45 31.5 -76.5 t76.5 -31.5q47 0 78 31.5t31 76.5t-30.5 77t-78.5 32q-45 0 -76.5 -32t-31.5 -77zM600 1708q0 -45 32 -76.5t77 -31.5t76.5 31.5t31.5 76.5t-31.5 77t-76.5 32t-77 -32t-32 -77z" />
<glyph unicode="&#xcc;" horiz-adv-x="757" d="M84 25q0 -25 25 -25h540q25 0 25 25v84q0 25 -25 24h-186v1137h186q25 0 25 24v84q0 25 -25 25h-540q-25 0 -25 -25v-84q0 -25 25 -24h186v-1137h-186q-25 0 -25 -24v-84zM167 1745q0 -10 19 -18l336 -174q8 -6 20 -7q8 0 19 17l18 28q4 4 7 10.5t3 10.5t-5 8t-11 10 l-297 230q-4 2 -9 6t-11 4t-11.5 -6t-9.5 -10l-59 -88q-8 -12 -9 -21z" />
<glyph unicode="&#xcd;" horiz-adv-x="757" d="M84 25q0 -25 25 -25h540q25 0 25 25v84q0 25 -25 24h-186v1137h186q25 0 25 24v84q0 25 -25 25h-540q-25 0 -25 -25v-84q0 -25 25 -24h186v-1137h-186q-25 0 -25 -24v-84zM167 1612q0 -4 3.5 -10t7.5 -11l18 -28q10 -16 19 -17q10 0 20 7l336 174q18 8 18 18q0 8 -8 21 l-59 88q-4 4 -9.5 10t-11.5 6t-11 -4t-9 -6l-297 -230q-6 -6 -11.5 -10t-5.5 -8z" />
<glyph unicode="&#xce;" horiz-adv-x="757" d="M84 25q0 -25 25 -25h540q25 0 25 25v84q0 25 -25 24h-186v1137h186q25 0 25 24v84q0 25 -25 25h-540q-25 0 -25 -25v-84q0 -25 25 -24h186v-1137h-186q-25 0 -25 -24v-84zM118 1637q0 -4 3 -9.5t8 -9.5l24 -33q12 -16 21 -16q4 0 9 3t9 5l186 123l189 -123q8 -6 18 -6 t17 10l28 37q8 12 8 21q0 6 -5 10t-9 8l-225 180q-4 4 -9 7t-12 3q-4 0 -9 -3t-9 -7l-225 -180q-6 -6 -11.5 -10t-5.5 -10z" />
<glyph unicode="&#xcf;" horiz-adv-x="757" d="M59 1708q0 -45 31.5 -76.5t76.5 -31.5q47 0 78 31.5t31 76.5t-30.5 77t-78.5 32q-45 0 -76.5 -32t-31.5 -77zM84 25q0 -25 25 -25h540q25 0 25 25v84q0 25 -25 24h-186v1137h186q25 0 25 24v84q0 25 -25 25h-540q-25 0 -25 -25v-84q0 -25 25 -24h186v-1137h-186 q-25 0 -25 -24v-84zM462 1708q0 -45 32 -76.5t77 -31.5t76.5 31.5t31.5 76.5t-31.5 77t-76.5 32t-77 -32t-32 -77z" />
<glyph unicode="&#xd0;" horiz-adv-x="1138" d="M43 692q0 -16 5 -22t22 -6h127v-639q0 -25 24 -25h236q156 0 265 43t178 131t99.5 223t30.5 318q0 233 -46 369.5t-123 207t-176 91t-206 20.5h-258q-25 0 -24 -25v-581h-127q-18 0 -22.5 -5.5t-4.5 -21.5v-78zM365 143v521h245q18 0 23.5 5t5.5 23v78q0 18 -5 22.5 t-24 4.5h-245v463h112q90 0 159 -20.5t116 -79t70.5 -164t23.5 -273.5q0 -131 -14.5 -238.5t-53.5 -183.5t-107.5 -117t-178.5 -41h-127z" />
<glyph unicode="&#xd1;" horiz-adv-x="1175" d="M170 25q0 -25 25 -25h106q25 0 25 25v999q0 35 -4.5 79t-16.5 103l4 4q8 -43 22.5 -90t33.5 -88l471 -1012q12 -20 32 -20h115q25 0 25 25v1353q0 25 -25 25h-106q-25 0 -25 -25v-977q0 -29 7 -60.5t11 -64.5l-4 -4q-14 47 -22 83t-27 75l-452 954q-10 18 -31 19h-139 q-25 0 -25 -25v-1353zM282 1653q0 -10 17 -19l55 -22q8 -4 12 -4q8 0 16.5 12t20.5 27.5t28.5 28t41.5 12.5q29 0 54.5 -12.5t51.5 -28.5q29 -16 58.5 -29.5t64.5 -13.5q49 0 85 23.5t58.5 52t33.5 54t11 32.5q0 6 -5 9t-9 7l-55 24q-12 4 -14 5q-8 0 -15.5 -12.5t-17.5 -28 t-28.5 -27.5t-49.5 -12q-25 0 -49.5 13t-53 29.5t-59.5 29t-65 12.5q-49 0 -84 -24.5t-58.5 -53.5t-34 -55.5t-10.5 -28.5z" />
<glyph unicode="&#xd2;" horiz-adv-x="1138" d="M106 702q0 -164 26 -298t82 -230t144 -149.5t211 -53.5t211 53.5t143.5 149.5t82 230t26.5 298t-26.5 298.5t-83 230.5t-143.5 148.5t-210 52.5t-211 -52.5t-143 -147.5t-82 -230.5t-27 -299.5zM291 702q0 133 11 243t42 187.5t85 119.5t140 42t140.5 -42t85 -119.5 t42 -187t11.5 -243.5q0 -135 -11.5 -244.5t-42 -187t-85 -119.5t-140.5 -42t-140 42t-85 119.5t-42 187t-11 244.5zM358 1745q0 -10 19 -18l336 -174q8 -6 20 -7q8 0 19 17l18 28q4 4 7 10.5t3 10.5t-5 8t-11 10l-297 230q-4 2 -9 6t-11 4t-11.5 -6t-9.5 -10l-59 -88 q-8 -12 -9 -21z" />
<glyph unicode="&#xd3;" horiz-adv-x="1138" d="M106 702q0 -164 26 -298t82 -230t144 -149.5t211 -53.5t211 53.5t143.5 149.5t82 230t26.5 298t-26.5 298.5t-83 230.5t-143.5 148.5t-210 52.5t-211 -52.5t-143 -147.5t-82 -230.5t-27 -299.5zM291 702q0 133 11 243t42 187.5t85 119.5t140 42t140.5 -42t85 -119.5 t42 -187t11.5 -243.5q0 -135 -11.5 -244.5t-42 -187t-85 -119.5t-140.5 -42t-140 42t-85 119.5t-42 187t-11 244.5zM368 1612q0 -4 3.5 -10t7.5 -11l18 -28q10 -16 19 -17q10 0 20 7l336 174q18 8 18 18q0 8 -8 21l-59 88q-4 4 -9.5 10t-11.5 6t-11 -4t-9 -6l-297 -230 q-6 -6 -11.5 -10t-5.5 -8z" />
<glyph unicode="&#xd4;" horiz-adv-x="1138" d="M106 702q0 -164 26 -298t82 -230t144 -149.5t211 -53.5t211 53.5t143.5 149.5t82 230t26.5 298t-26.5 298.5t-83 230.5t-143.5 148.5t-210 52.5t-211 -52.5t-143 -147.5t-82 -230.5t-27 -299.5zM291 702q0 133 11 243t42 187.5t85 119.5t140 42t140.5 -42t85 -119.5 t42 -187t11.5 -243.5q0 -135 -11.5 -244.5t-42 -187t-85 -119.5t-140.5 -42t-140 42t-85 119.5t-42 187t-11 244.5zM309 1637q0 -4 3 -9.5t8 -9.5l24 -33q12 -16 21 -16q4 0 9 3t9 5l186 123l189 -123q8 -6 18 -6t17 10l28 37q8 12 8 21q0 6 -5 10t-9 8l-225 180q-4 4 -9 7 t-12 3q-4 0 -9 -3t-9 -7l-225 -180q-6 -6 -11.5 -10t-5.5 -10z" />
<glyph unicode="&#xd5;" horiz-adv-x="1138" d="M106 702q0 -164 26 -298t82 -230t144 -149.5t211 -53.5t211 53.5t143.5 149.5t82 230t26.5 298t-26.5 298.5t-83 230.5t-143.5 148.5t-210 52.5t-211 -52.5t-143 -147.5t-82 -230.5t-27 -299.5zM264 1653q0 -10 17 -19l55 -22q8 -4 12 -4q8 0 16.5 12t20.5 27.5t28.5 28 t41.5 12.5q29 0 54.5 -12.5t51.5 -28.5q29 -16 58.5 -29.5t64.5 -13.5q49 0 85 23.5t58.5 52t33.5 54t11 32.5q0 6 -5 9t-9 7l-55 24q-12 4 -14 5q-8 0 -15.5 -12.5t-17.5 -28t-28.5 -27.5t-49.5 -12q-25 0 -49.5 13t-53 29.5t-59.5 29t-65 12.5q-49 0 -84 -24.5 t-58.5 -53.5t-34 -55.5t-10.5 -28.5zM291 702q0 133 11 243t42 187.5t85 119.5t140 42t140.5 -42t85 -119.5t42 -187t11.5 -243.5q0 -135 -11.5 -244.5t-42 -187t-85 -119.5t-140.5 -42t-140 42t-85 119.5t-42 187t-11 244.5z" />
<glyph unicode="&#xd6;" horiz-adv-x="1138" d="M106 702q0 -164 26 -298t82 -230t144 -149.5t211 -53.5t211 53.5t143.5 149.5t82 230t26.5 298t-26.5 298.5t-83 230.5t-143.5 148.5t-210 52.5t-211 -52.5t-143 -147.5t-82 -230.5t-27 -299.5zM250 1708q0 -45 31.5 -76.5t76.5 -31.5q47 0 78 31.5t31 76.5t-30.5 77 t-78.5 32q-45 0 -76.5 -32t-31.5 -77zM291 702q0 133 11 243t42 187.5t85 119.5t140 42t140.5 -42t85 -119.5t42 -187t11.5 -243.5q0 -135 -11.5 -244.5t-42 -187t-85 -119.5t-140.5 -42t-140 42t-85 119.5t-42 187t-11 244.5zM653 1708q0 -45 32 -76.5t77 -31.5t76.5 31.5 t31.5 76.5t-31.5 77t-76.5 32t-77 -32t-32 -77z" />
<glyph unicode="&#xd7;" d="M135 242q0 -6 4 -10.5t8 -8.5l66 -65q4 -4 9 -9.5t11 -5.5q10 0 21 15l256 260l254 -260q10 -14 20 -15q6 0 11.5 5.5l9.5 9.5l65 65l8.5 8.5t4.5 10.5q0 8 -13 20l-245 258l245 256q12 8 13 21q0 10 -13 20l-65 64l-9 9t-12 5q-6 0 -11 -5l-9 -9l-254 -258l-256 258 l-9 9t-12 5q-6 0 -11 -5l-9 -9l-66 -64q-12 -10 -12 -20q0 -12 12 -21l261 -256l-261 -258q-12 -12 -12 -20z" />
<glyph unicode="&#xd8;" horiz-adv-x="1138" d="M106 696q0 -102 8.5 -182t23 -142.5t32.5 -111.5t39 -88l-92 -182q-2 -4 -5 -9.5t-1 -11.5q0 -10 18 -18l59 -29q8 -6 21 -6q8 0 18 18l68 132q6 -4 24.5 -19.5t50 -32t79 -30t110.5 -13.5q125 0 214 53.5t146.5 149.5t84 231.5t26.5 301.5q0 141 -16.5 240.5t-37 165 t-41 99t-26.5 45.5l92 179q2 4 5.5 10t3.5 10q0 8 -21 19l-59 28q-4 2 -9.5 4t-11.5 2q-10 0 -18 -18l-72 -135q-33 23 -58.5 37t-52 23t-57 12.5t-71.5 3.5q-127 0 -216.5 -53.5t-146.5 -149.5t-84 -231.5t-27 -301.5zM274 694q0 135 12.5 246t45.5 189.5t91 121.5t150 43 q45 0 76 -8t52.5 -19.5t34 -22.5t18.5 -17l-451 -869q-23 70 -26 159t-3 177zM365 201l464 903q4 -16 10.5 -45t11.5 -76t8 -115.5t3 -162.5q0 -133 -11 -243t-44 -187.5t-91.5 -121.5t-150.5 -44q-49 0 -84 10t-58.5 25.5t-36.5 30.5t-21 26z" />
<glyph unicode="&#xd9;" horiz-adv-x="1214" d="M170 377q0 -92 22.5 -168t73.5 -128t131 -81t197 -29q236 0 343 111t107 295v1001q0 25 -24 25h-119q-25 0 -24 -25v-997q0 -141 -70 -206.5t-211 -65.5q-72 0 -121 18t-79.5 54t-44 86t-13.5 114v997q0 25 -25 25h-118q-25 0 -25 -25v-1001zM397 1745q0 -10 19 -18 l336 -174q8 -6 20 -7q8 0 19 17l18 28q4 4 7 10.5t3 10.5t-5 8t-11 10l-297 230q-4 2 -9 6t-11 4t-11.5 -6t-9.5 -10l-59 -88q-8 -12 -9 -21z" />
<glyph unicode="&#xda;" horiz-adv-x="1214" d="M170 377q0 -92 22.5 -168t73.5 -128t131 -81t197 -29q236 0 343 111t107 295v1001q0 25 -24 25h-119q-25 0 -24 -25v-997q0 -141 -70 -206.5t-211 -65.5q-72 0 -121 18t-79.5 54t-44 86t-13.5 114v997q0 25 -25 25h-118q-25 0 -25 -25v-1001zM417 1612q0 -4 3.5 -10 t7.5 -11l18 -28q10 -16 19 -17q10 0 20 7l336 174q18 8 18 18q0 8 -8 21l-59 88q-4 4 -9.5 10t-11.5 6t-11 -4t-9 -6l-297 -230q-6 -6 -11.5 -10t-5.5 -8z" />
<glyph unicode="&#xdb;" horiz-adv-x="1214" d="M170 377q0 -92 22.5 -168t73.5 -128t131 -81t197 -29q236 0 343 111t107 295v1001q0 25 -24 25h-119q-25 0 -24 -25v-997q0 -141 -70 -206.5t-211 -65.5q-72 0 -121 18t-79.5 54t-44 86t-13.5 114v997q0 25 -25 25h-118q-25 0 -25 -25v-1001zM348 1637q0 -4 3 -9.5 t8 -9.5l24 -33q12 -16 21 -16q4 0 9 3t9 5l186 123l189 -123q8 -6 18 -6t17 10l28 37q8 12 8 21q0 6 -5 10t-9 8l-225 180q-4 4 -9 7t-12 3q-4 0 -9 -3t-9 -7l-225 -180q-6 -6 -11.5 -10t-5.5 -10z" />
<glyph unicode="&#xdc;" horiz-adv-x="1214" d="M170 377q0 -92 22.5 -168t73.5 -128t131 -81t197 -29q236 0 343 111t107 295v1001q0 25 -24 25h-119q-25 0 -24 -25v-997q0 -141 -70 -206.5t-211 -65.5q-72 0 -121 18t-79.5 54t-44 86t-13.5 114v997q0 25 -25 25h-118q-25 0 -25 -25v-1001zM289 1708q0 -45 31.5 -76.5 t76.5 -31.5q47 0 78 31.5t31 76.5t-30.5 77t-78.5 32q-45 0 -76.5 -32t-31.5 -77zM692 1708q0 -45 32 -76.5t77 -31.5t76.5 31.5t31.5 76.5t-31.5 77t-76.5 32t-77 -32t-32 -77z" />
<glyph unicode="&#xdd;" horiz-adv-x="985" d="M4 1366q0 -8 6 -20l398 -754v-567q0 -25 24 -25h119q25 0 24 25v571l408 750q6 12 6 20q0 12 -10 15t-14 5l-119 29q-4 0 -9.5 1t-9.5 1q-10 0 -14 -8t-8 -18l-248 -514q-16 -29 -28.5 -59t-28.5 -68q-12 27 -28.5 58.5t-25.5 47.5l-258 535q-4 10 -8 18t-14 8 q-12 0 -19 -2l-118 -29l-17.5 -7t-7.5 -13zM323 1612q0 -4 3.5 -10t7.5 -11l18 -28q10 -16 19 -17q10 0 20 7l336 174q18 8 18 18q0 8 -8 21l-59 88q-4 4 -9.5 10t-11.5 6t-11 -4t-9 -6l-297 -230q-6 -6 -11.5 -10t-5.5 -8z" />
<glyph unicode="&#xde;" d="M195 25q0 -25 24 -25h119q25 0 24 25v346h146q80 0 160 19.5t142 68.5t101 133t39 211q0 131 -43 204.5t-105.5 109.5t-135 44t-131.5 8h-173v211q0 23 -24 23h-119q-25 0 -24 -23v-1355zM362 514v512h156q43 0 90 -4t86 -26.5t63.5 -68.5t24.5 -128q0 -92 -23.5 -148.5 t-63.5 -86t-92 -40t-109 -10.5h-132z" />
<glyph unicode="&#xdf;" horiz-adv-x="1138" d="M141 25q0 -25 25 -25h104q16 0 21.5 4t5.5 21v1081q0 131 49 190.5t172 59.5q90 0 143.5 -43t53.5 -121q0 -45 -16.5 -76t-42 -56.5t-54.5 -49t-54.5 -52t-42 -66.5t-16.5 -91q0 -63 31 -110.5t76 -85.5t99.5 -70.5t99.5 -69.5t75.5 -81t30.5 -103q0 -84 -39 -133.5 t-131 -49.5q-41 0 -77 8.5t-63.5 18.5t-47 18.5t-25.5 8.5q-12 0 -14 -15l-21 -74q-4 -8 -6 -15t-2 -17t24.5 -21.5t60.5 -19.5t79 -13.5t80 -5.5q158 0 245 84t87 250q0 88 -33 143.5t-96 114.5q-35 33 -83 66t-91 65.5t-73 64.5t-30 66q0 45 35 80t78 76t77.5 96.5 t34.5 141.5q0 131 -95 197.5t-245 66.5q-111 0 -185.5 -28t-119.5 -77t-64.5 -117.5t-19.5 -150.5v-1085z" />
<glyph unicode="&#xe0;" horiz-adv-x="948" d="M94 260q0 -137 72 -213t194 -76q63 0 114.5 18.5t88.5 42t59.5 46t32.5 31.5q4 -10 12.5 -34t18.5 -46.5t22.5 -40t24.5 -17.5q4 0 17 6l79 50q6 4 12.5 7t6.5 9q0 10 -15.5 33.5t-21.5 42.5q-6 20 -11 37.5t-8.5 38t-4.5 50t-1 79.5v401q0 63 -16 116.5t-53 91.5 t-97.5 58.5t-148.5 20.5q-49 0 -105.5 -10.5t-103.5 -24.5t-78.5 -30.5t-31.5 -28.5t6 -27l26 -72q4 -10 15 -10q6 0 26.5 10t53 22.5t75.5 22.5t95 10q109 0 145.5 -48t36.5 -136v-74q-33 -2 -84 -4t-111.5 -13t-121 -32.5t-109.5 -60.5t-80 -99.5t-31 -146.5zM248 272 q0 80 47 124t110.5 64.5t127 24.5t98.5 4v-264q-12 -10 -36 -31.5t-54.5 -43t-67.5 -37t-76 -15.5t-67.5 15.5t-47 41t-26.5 56.5t-8 61zM264 1325q0 -10 19 -18l336 -174q8 -6 20 -7q8 0 19 17l18 28q4 4 7 10.5t3 10.5t-5 8t-11 10l-297 230q-4 2 -9 6t-11 4t-11.5 -6 t-9.5 -10l-59 -88q-8 -12 -9 -21z" />
<glyph unicode="&#xe1;" horiz-adv-x="948" d="M94 260q0 -137 72 -213t194 -76q63 0 114.5 18.5t88.5 42t59.5 46t32.5 31.5q4 -10 12.5 -34t18.5 -46.5t22.5 -40t24.5 -17.5q4 0 17 6l79 50q6 4 12.5 7t6.5 9q0 10 -15.5 33.5t-21.5 42.5q-6 20 -11 37.5t-8.5 38t-4.5 50t-1 79.5v401q0 63 -16 116.5t-53 91.5 t-97.5 58.5t-148.5 20.5q-49 0 -105.5 -10.5t-103.5 -24.5t-78.5 -30.5t-31.5 -28.5t6 -27l26 -72q4 -10 15 -10q6 0 26.5 10t53 22.5t75.5 22.5t95 10q109 0 145.5 -48t36.5 -136v-74q-33 -2 -84 -4t-111.5 -13t-121 -32.5t-109.5 -60.5t-80 -99.5t-31 -146.5zM248 272 q0 80 47 124t110.5 64.5t127 24.5t98.5 4v-264q-12 -10 -36 -31.5t-54.5 -43t-67.5 -37t-76 -15.5t-67.5 15.5t-47 41t-26.5 56.5t-8 61zM264 1192q0 -4 3.5 -10t7.5 -11l18 -28q10 -16 19 -17q10 0 20 7l336 174q18 8 18 18q0 8 -8 21l-59 88q-4 4 -9.5 10t-11.5 6t-11 -4 t-9 -6l-297 -230q-6 -6 -11.5 -10t-5.5 -8z" />
<glyph unicode="&#xe2;" horiz-adv-x="948" d="M94 260q0 -137 72 -213t194 -76q63 0 114.5 18.5t88.5 42t59.5 46t32.5 31.5q4 -10 12.5 -34t18.5 -46.5t22.5 -40t24.5 -17.5q4 0 17 6l79 50q6 4 12.5 7t6.5 9q0 10 -15.5 33.5t-21.5 42.5q-6 20 -11 37.5t-8.5 38t-4.5 50t-1 79.5v401q0 63 -16 116.5t-53 91.5 t-97.5 58.5t-148.5 20.5q-49 0 -105.5 -10.5t-103.5 -24.5t-78.5 -30.5t-31.5 -28.5t6 -27l26 -72q4 -10 15 -10q6 0 26.5 10t53 22.5t75.5 22.5t95 10q109 0 145.5 -48t36.5 -136v-74q-33 -2 -84 -4t-111.5 -13t-121 -32.5t-109.5 -60.5t-80 -99.5t-31 -146.5zM215 1217 q0 -4 3 -9.5t8 -9.5l24 -33q12 -16 21 -16q4 0 9 3t9 5l186 123l189 -123q8 -6 18 -6t17 10l28 37q8 12 8 21q0 6 -5 10t-9 8l-225 180q-4 4 -9 7t-12 3q-4 0 -9 -3t-9 -7l-225 -180q-6 -6 -11.5 -10t-5.5 -10zM248 272q0 80 47 124t110.5 64.5t127 24.5t98.5 4v-264 q-12 -10 -36 -31.5t-54.5 -43t-67.5 -37t-76 -15.5t-67.5 15.5t-47 41t-26.5 56.5t-8 61z" />
<glyph unicode="&#xe3;" horiz-adv-x="948" d="M94 260q0 -137 72 -213t194 -76q63 0 114.5 18.5t88.5 42t59.5 46t32.5 31.5q4 -10 12.5 -34t18.5 -46.5t22.5 -40t24.5 -17.5q4 0 17 6l79 50q6 4 12.5 7t6.5 9q0 10 -15.5 33.5t-21.5 42.5q-6 20 -11 37.5t-8.5 38t-4.5 50t-1 79.5v401q0 63 -16 116.5t-53 91.5 t-97.5 58.5t-148.5 20.5q-49 0 -105.5 -10.5t-103.5 -24.5t-78.5 -30.5t-31.5 -28.5t6 -27l26 -72q4 -10 15 -10q6 0 26.5 10t53 22.5t75.5 22.5t95 10q109 0 145.5 -48t36.5 -136v-74q-33 -2 -84 -4t-111.5 -13t-121 -32.5t-109.5 -60.5t-80 -99.5t-31 -146.5zM170 1233 q0 -10 17 -19l55 -22q8 -4 12 -4q8 0 16.5 12t20.5 27.5t28.5 28t41.5 12.5q29 0 54.5 -12.5t51.5 -28.5q29 -16 58.5 -29.5t64.5 -13.5q49 0 85 23.5t58.5 52t33.5 54t11 32.5q0 6 -5 9t-9 7l-55 24q-12 4 -14 5q-8 0 -15.5 -12.5t-17.5 -28t-28.5 -27.5t-49.5 -12 q-25 0 -49.5 13t-53 29.5t-59.5 29t-65 12.5q-49 0 -84 -24.5t-58.5 -53.5t-34 -55.5t-10.5 -28.5zM248 272q0 80 47 124t110.5 64.5t127 24.5t98.5 4v-264q-12 -10 -36 -31.5t-54.5 -43t-67.5 -37t-76 -15.5t-67.5 15.5t-47 41t-26.5 56.5t-8 61z" />
<glyph unicode="&#xe4;" horiz-adv-x="948" d="M94 260q0 -137 72 -213t194 -76q63 0 114.5 18.5t88.5 42t59.5 46t32.5 31.5q4 -10 12.5 -34t18.5 -46.5t22.5 -40t24.5 -17.5q4 0 17 6l79 50q6 4 12.5 7t6.5 9q0 10 -15.5 33.5t-21.5 42.5q-6 20 -11 37.5t-8.5 38t-4.5 50t-1 79.5v401q0 63 -16 116.5t-53 91.5 t-97.5 58.5t-148.5 20.5q-49 0 -105.5 -10.5t-103.5 -24.5t-78.5 -30.5t-31.5 -28.5t6 -27l26 -72q4 -10 15 -10q6 0 26.5 10t53 22.5t75.5 22.5t95 10q109 0 145.5 -48t36.5 -136v-74q-33 -2 -84 -4t-111.5 -13t-121 -32.5t-109.5 -60.5t-80 -99.5t-31 -146.5zM156 1288 q0 -45 31.5 -76.5t76.5 -31.5q47 0 78 31.5t31 76.5t-30.5 77t-78.5 32q-45 0 -76.5 -32t-31.5 -77zM248 272q0 80 47 124t110.5 64.5t127 24.5t98.5 4v-264q-12 -10 -36 -31.5t-54.5 -43t-67.5 -37t-76 -15.5t-67.5 15.5t-47 41t-26.5 56.5t-8 61zM559 1288q0 -45 32 -76.5 t77 -31.5t76.5 31.5t31.5 76.5t-31.5 77t-76.5 32t-77 -32t-32 -77z" />
<glyph unicode="&#xe5;" horiz-adv-x="948" d="M94 260q0 -137 72 -213t194 -76q63 0 114.5 18.5t88.5 42t59.5 46t32.5 31.5q4 -10 12.5 -34t18.5 -46.5t22.5 -40t24.5 -17.5q4 0 17 6l79 50q6 4 12.5 7t6.5 9q0 10 -15.5 33.5t-21.5 42.5q-6 20 -11 37.5t-8.5 38t-4.5 50t-1 79.5v401q0 63 -16 116.5t-53 91.5 t-97.5 58.5t-148.5 20.5q-49 0 -105.5 -10.5t-103.5 -24.5t-78.5 -30.5t-31.5 -28.5t6 -27l26 -72q4 -10 15 -10q6 0 26.5 10t53 22.5t75.5 22.5t95 10q109 0 145.5 -48t36.5 -136v-74q-33 -2 -84 -4t-111.5 -13t-121 -32.5t-109.5 -60.5t-80 -99.5t-31 -146.5zM248 272 q0 80 47 124t110.5 64.5t127 24.5t98.5 4v-264q-12 -10 -36 -31.5t-54.5 -43t-67.5 -37t-76 -15.5t-67.5 15.5t-47 41t-26.5 56.5t-8 61zM295 1288q0 -76 52.5 -129t127.5 -53q76 0 129.5 52t53.5 130q0 76 -52.5 129t-130.5 53q-37 0 -69.5 -14t-57 -39.5t-39 -58.5 t-14.5 -70zM393 1288q0 35 24 61.5t58 26.5q35 0 59.5 -26.5t24.5 -61.5t-24.5 -61.5t-59.5 -26.5t-58.5 25.5t-23.5 62.5z" />
<glyph unicode="&#xe6;" horiz-adv-x="1441" d="M72 260q0 -137 76.5 -213t201.5 -76q72 0 128.5 18.5t98 43t68.5 48t37 32.5q20 -20 54 -45t78 -46.5t97.5 -36t112.5 -14.5q57 0 114.5 13.5t103.5 32t76 36t30 25.5q0 4 -2.5 8t-4.5 8l-34 86q-8 12 -13 13q-4 0 -25.5 -13.5t-55 -29t-77.5 -28.5t-94 -13 q-88 0 -143 38.5t-86 95t-42 119t-11 109.5h588q16 0 19 11.5t3 33.5q0 66 -13.5 152t-53 162.5t-112.5 129t-194 52.5q-72 0 -149.5 -28t-128.5 -97q-12 31 -41 54.5t-66 38.5t-77.5 23.5t-73.5 8.5q-53 0 -111.5 -10.5t-107.5 -24.5t-81 -30.5t-32 -28.5t6 -27l27 -72 q4 -10 14 -10q8 0 30.5 10t56.5 22.5t78 22.5t97 10q109 0 146 -48t37 -136v-90q-33 -2 -86.5 -4t-115 -12.5t-122.5 -32t-111.5 -58t-82 -94t-31.5 -139.5zM227 272q0 74 48.5 115t113 59.5t131 22.5t101.5 4v-248q-12 -10 -36 -31.5t-54.5 -43t-67.5 -37t-76 -15.5 q-41 0 -70.5 15.5t-50 41t-30 56.5t-9.5 61zM760 598q0 39 9 88t34.5 93t70 75t115.5 31q55 0 94 -27t65 -68.5t38 -92t16 -99.5h-442z" />
<glyph unicode="&#xe7;" horiz-adv-x="872" d="M113 461q0 -217 86 -340t223 -146l-14 -120q-2 -8 -2 -15v-12q0 -23 24.5 -26t55 -5t55 -9t24.5 -36q0 -25 -22.5 -36t-59.5 -11q-51 0 -75.5 8t-30.5 8q-10 0 -10 -10l-9 -61q-2 -6 -2 -17q0 -10 12.5 -17t31 -11t40 -7.5t39.5 -3.5q37 0 74 9.5t67.5 30t50 51 t19.5 71.5q0 43 -16.5 67.5t-40 39t-51 18.5t-50.5 8l9 82q51 4 101 18.5t90 32t64.5 34t24.5 22.5q0 4 -2 8l-4 8l-35 86q-8 12 -12 13q-4 0 -25.5 -13.5t-55.5 -29t-78 -28.5t-93 -13q-74 0 -120 33.5t-71.5 88t-34.5 123t-9 138.5q0 88 12 158.5t42 120.5t80 76.5 t126 26.5q45 0 84 -16t67.5 -35.5t45 -36t20.5 -16.5t12 12l47 86q2 4 4 8.5t2 8.5q0 12 -26.5 32.5t-69.5 42t-95 37t-104 15.5q-94 0 -170.5 -38t-131 -109.5t-84 -173t-29.5 -230.5z" />
<glyph unicode="&#xe8;" horiz-adv-x="948" d="M86 492q0 -117 29.5 -212.5t85 -164t135.5 -106.5t182 -38q57 0 114.5 13.5t103.5 32t76 36t30 25.5q0 4 -2 8l-4 8l-35 86q-8 12 -13 13q-4 0 -25.5 -13.5t-55 -29t-77.5 -28.5t-93 -13q-88 0 -143.5 36.5t-86.5 91t-42 115t-11 107.5h588q16 0 19 11t3 34 q0 66 -10 153.5t-48 166.5t-111.5 133.5t-202.5 54.5q-96 0 -171 -39t-127.5 -108.5t-80 -165t-27.5 -207.5zM254 586q0 39 9 90t35 97t70 79t115 33q68 0 109 -32t64.5 -78t31.5 -98t8 -91h-442zM264 1325q0 -10 19 -18l336 -174q8 -6 20 -7q8 0 19 17l18 28q4 4 7 10.5 t3 10.5t-5 8t-11 10l-297 230q-4 2 -9 6t-11 4t-11.5 -6t-9.5 -10l-59 -88q-8 -12 -9 -21z" />
<glyph unicode="&#xe9;" horiz-adv-x="948" d="M86 492q0 -117 29.5 -212.5t85 -164t135.5 -106.5t182 -38q57 0 114.5 13.5t103.5 32t76 36t30 25.5q0 4 -2 8l-4 8l-35 86q-8 12 -13 13q-4 0 -25.5 -13.5t-55 -29t-77.5 -28.5t-93 -13q-88 0 -143.5 36.5t-86.5 91t-42 115t-11 107.5h588q16 0 19 11t3 34 q0 66 -10 153.5t-48 166.5t-111.5 133.5t-202.5 54.5q-96 0 -171 -39t-127.5 -108.5t-80 -165t-27.5 -207.5zM254 586q0 39 9 90t35 97t70 79t115 33q68 0 109 -32t64.5 -78t31.5 -98t8 -91h-442zM264 1192q0 -4 3.5 -10t7.5 -11l18 -28q10 -16 19 -17q10 0 20 7l336 174 q18 8 18 18q0 8 -8 21l-59 88q-4 4 -9.5 10t-11.5 6t-11 -4t-9 -6l-297 -230q-6 -6 -11.5 -10t-5.5 -8z" />
<glyph unicode="&#xea;" horiz-adv-x="948" d="M86 492q0 -117 29.5 -212.5t85 -164t135.5 -106.5t182 -38q57 0 114.5 13.5t103.5 32t76 36t30 25.5q0 4 -2 8l-4 8l-35 86q-8 12 -13 13q-4 0 -25.5 -13.5t-55 -29t-77.5 -28.5t-93 -13q-88 0 -143.5 36.5t-86.5 91t-42 115t-11 107.5h588q16 0 19 11t3 34 q0 66 -10 153.5t-48 166.5t-111.5 133.5t-202.5 54.5q-96 0 -171 -39t-127.5 -108.5t-80 -165t-27.5 -207.5zM215 1217q0 -4 3 -9.5t8 -9.5l24 -33q12 -16 21 -16q4 0 9 3t9 5l186 123l189 -123q8 -6 18 -6t17 10l28 37q8 12 8 21q0 6 -5 10t-9 8l-225 180q-4 4 -9 7t-12 3 q-4 0 -9 -3t-9 -7l-225 -180q-6 -6 -11.5 -10t-5.5 -10zM254 586q0 39 9 90t35 97t70 79t115 33q68 0 109 -32t64.5 -78t31.5 -98t8 -91h-442z" />
<glyph unicode="&#xeb;" horiz-adv-x="948" d="M86 492q0 -117 29.5 -212.5t85 -164t135.5 -106.5t182 -38q57 0 114.5 13.5t103.5 32t76 36t30 25.5q0 4 -2 8l-4 8l-35 86q-8 12 -13 13q-4 0 -25.5 -13.5t-55 -29t-77.5 -28.5t-93 -13q-88 0 -143.5 36.5t-86.5 91t-42 115t-11 107.5h588q16 0 19 11t3 34 q0 66 -10 153.5t-48 166.5t-111.5 133.5t-202.5 54.5q-96 0 -171 -39t-127.5 -108.5t-80 -165t-27.5 -207.5zM156 1288q0 -45 31.5 -76.5t76.5 -31.5q47 0 78 31.5t31 76.5t-30.5 77t-78.5 32q-45 0 -76.5 -32t-31.5 -77zM254 586q0 39 9 90t35 97t70 79t115 33 q68 0 109 -32t64.5 -78t31.5 -98t8 -91h-442zM559 1288q0 -45 32 -76.5t77 -31.5t76.5 31.5t31.5 76.5t-31.5 77t-76.5 32t-77 -32t-32 -77z" />
<glyph unicode="&#xec;" horiz-adv-x="569" d="M47 881q0 -25 25 -25h161v-831q0 -25 25 -25h107q25 0 24 25v927q0 14 -5 22.5t-22 8.5h-290q-25 0 -25 -25v-77zM75 1325q0 -10 19 -18l336 -174q8 -6 20 -7q8 0 19 17l18 28q4 4 7 10.5t3 10.5t-5 8t-11 10l-297 230q-4 2 -9 6t-11 4t-11.5 -6t-9.5 -10l-59 -88 q-8 -12 -9 -21z" />
<glyph unicode="&#xed;" horiz-adv-x="569" d="M47 881q0 -25 25 -25h161v-831q0 -25 25 -25h107q25 0 24 25v927q0 14 -5 22.5t-22 8.5h-290q-25 0 -25 -25v-77zM75 1192q0 -4 3.5 -10t7.5 -11l18 -28q10 -16 19 -17q10 0 20 7l336 174q18 8 18 18q0 8 -8 21l-59 88q-4 4 -9.5 10t-11.5 6t-11 -4t-9 -6l-297 -230 q-6 -6 -11.5 -10t-5.5 -8z" />
<glyph unicode="&#xee;" horiz-adv-x="569" d="M26 1217q0 -4 3 -9.5t8 -9.5l24 -33q12 -16 21 -16q4 0 9 3t9 5l186 123l189 -123q8 -6 18 -6t17 10l28 37q8 12 8 21q0 6 -5 10t-9 8l-225 180q-4 4 -9 7t-12 3q-4 0 -9 -3t-9 -7l-225 -180q-6 -6 -11.5 -10t-5.5 -10zM47 881q0 -25 25 -25h161v-831q0 -25 25 -25h107 q25 0 24 25v927q0 14 -5 22.5t-22 8.5h-290q-25 0 -25 -25v-77z" />
<glyph unicode="&#xef;" horiz-adv-x="569" d="M-33 1288q0 -45 31.5 -76.5t76.5 -31.5q47 0 78 31.5t31 76.5t-30.5 77t-78.5 32q-45 0 -76.5 -32t-31.5 -77zM47 881q0 -25 25 -25h161v-831q0 -25 25 -25h107q25 0 24 25v927q0 14 -5 22.5t-22 8.5h-290q-25 0 -25 -25v-77zM370 1288q0 -45 32 -76.5t77 -31.5 t76.5 31.5t31.5 76.5t-31.5 77t-76.5 32t-77 -32t-32 -77z" />
<glyph unicode="&#xf0;" d="M104 487q0 -111 24 -205t72 -162.5t121.5 -108.5t176.5 -40q117 0 197.5 49.5t129.5 129t72 184t23 215.5q0 131 -30 254t-68 222t-75.5 170t-56.5 101l154 74q14 4 14 19q0 8 -4 16l-23 45q-8 14 -14 14q-4 0 -8 -3t-8 -3l-162 -78q-4 8 -21.5 34t-46.5 56q-6 6 -10 9.5 t-14 3.5q-6 0 -13.5 -2t-13.5 -2l-59 -11q-10 -4 -17.5 -6t-7.5 -10q0 -4 8.5 -18.5t20.5 -35t26.5 -42t24.5 -41.5l-172 -84q-16 -10 -16 -17q0 -10 4 -14l24 -47q6 -14 17 -14q4 0 7 2t7 4l176 86q39 -66 74 -143.5t63 -147.5l-4 -4q-37 35 -89 55.5t-105 20.5 q-100 0 -175 -42t-124 -114t-74 -167t-25 -202zM272 506q0 76 11.5 144.5t39 120.5t73.5 83t116 31t116 -32t73.5 -85t39 -123t11.5 -145q0 -88 -11.5 -162t-39 -127t-73.5 -83t-114 -30q-72 0 -118 31t-73.5 85t-39 129t-11.5 163z" />
<glyph unicode="&#xf1;" horiz-adv-x="1062" d="M137 938q0 -8 10.5 -23.5t22.5 -62.5q6 -23 7 -46.5t1 -74.5v-706q0 -25 25 -25h106q25 0 25 25v725q18 16 45 37.5t59.5 41t74.5 32.5t91 13q41 0 67.5 -13t41 -36.5t19.5 -53.5t5 -62v-684q0 -25 25 -25h106q25 0 25 25v680q0 55 -6 110t-31 98t-73 71t-134 28 q-59 0 -108 -14.5t-90 -36t-74 -45t-58 -44.5q0 6 -5 29t-13 47.5t-19.5 44t-25.5 19.5q-4 0 -8 -3t-8 -5l-93 -52q-10 -8 -10 -14zM207 1233q0 -10 17 -19l55 -22q8 -4 12 -4q8 0 16.5 12t20.5 27.5t28.5 28t41.5 12.5q29 0 54.5 -12.5t51.5 -28.5q29 -16 58.5 -29.5 t64.5 -13.5q49 0 85 23.5t58.5 52t33.5 54t11 32.5q0 6 -5 9t-9 7l-55 24q-12 4 -14 5q-8 0 -15.5 -12.5t-17.5 -28t-28.5 -27.5t-49.5 -12q-25 0 -49.5 13t-53 29.5t-59.5 29t-65 12.5q-49 0 -84 -24.5t-58.5 -53.5t-34 -55.5t-10.5 -28.5z" />
<glyph unicode="&#xf2;" d="M104 487q0 -111 23 -205t71 -162.5t122.5 -108.5t179.5 -40q113 0 191.5 42t129.5 114t75 167t24 204t-23 203t-72 162.5t-124.5 108.5t-180.5 40q-111 0 -189.5 -42t-128.5 -114t-74 -167t-24 -202zM272 506q0 76 11.5 144.5t39 120.5t73.5 83t116 31t116 -32t73.5 -85 t39 -123t11.5 -145q0 -88 -11.5 -162t-39 -127t-73.5 -83t-114 -30q-72 0 -118 31t-73.5 85t-39 129t-11.5 163zM301 1325q0 -10 19 -18l336 -174q8 -6 20 -7q8 0 19 17l18 28q4 4 7 10.5t3 10.5t-5 8t-11 10l-297 230q-4 2 -9 6t-11 4t-11.5 -6t-9.5 -10l-59 -88 q-8 -12 -9 -21z" />
<glyph unicode="&#xf3;" d="M104 487q0 -111 23 -205t71 -162.5t122.5 -108.5t179.5 -40q113 0 191.5 42t129.5 114t75 167t24 204t-23 203t-72 162.5t-124.5 108.5t-180.5 40q-111 0 -189.5 -42t-128.5 -114t-74 -167t-24 -202zM272 506q0 76 11.5 144.5t39 120.5t73.5 83t116 31t116 -32t73.5 -85 t39 -123t11.5 -145q0 -88 -11.5 -162t-39 -127t-73.5 -83t-114 -30q-72 0 -118 31t-73.5 85t-39 129t-11.5 163zM301 1192q0 -4 3.5 -10t7.5 -11l18 -28q10 -16 19 -17q10 0 20 7l336 174q18 8 18 18q0 8 -8 21l-59 88q-4 4 -9.5 10t-11.5 6t-11 -4t-9 -6l-297 -230 q-6 -6 -11.5 -10t-5.5 -8z" />
<glyph unicode="&#xf4;" d="M104 487q0 -111 23 -205t71 -162.5t122.5 -108.5t179.5 -40q113 0 191.5 42t129.5 114t75 167t24 204t-23 203t-72 162.5t-124.5 108.5t-180.5 40q-111 0 -189.5 -42t-128.5 -114t-74 -167t-24 -202zM252 1217q0 -4 3 -9.5t8 -9.5l24 -33q12 -16 21 -16q4 0 9 3t9 5 l186 123l189 -123q8 -6 18 -6t17 10l28 37q8 12 8 21q0 6 -5 10t-9 8l-225 180q-4 4 -9 7t-12 3q-4 0 -9 -3t-9 -7l-225 -180q-6 -6 -11.5 -10t-5.5 -10zM272 506q0 76 11.5 144.5t39 120.5t73.5 83t116 31t116 -32t73.5 -85t39 -123t11.5 -145q0 -88 -11.5 -162t-39 -127 t-73.5 -83t-114 -30q-72 0 -118 31t-73.5 85t-39 129t-11.5 163z" />
<glyph unicode="&#xf5;" d="M104 487q0 -111 23 -205t71 -162.5t122.5 -108.5t179.5 -40q113 0 191.5 42t129.5 114t75 167t24 204t-23 203t-72 162.5t-124.5 108.5t-180.5 40q-111 0 -189.5 -42t-128.5 -114t-74 -167t-24 -202zM207 1233q0 -10 17 -19l55 -22q8 -4 12 -4q8 0 16.5 12t20.5 27.5 t28.5 28t41.5 12.5q29 0 54.5 -12.5t51.5 -28.5q29 -16 58.5 -29.5t64.5 -13.5q49 0 85 23.5t58.5 52t33.5 54t11 32.5q0 6 -5 9t-9 7l-55 24q-12 4 -14 5q-8 0 -15.5 -12.5t-17.5 -28t-28.5 -27.5t-49.5 -12q-25 0 -49.5 13t-53 29.5t-59.5 29t-65 12.5q-49 0 -84 -24.5 t-58.5 -53.5t-34 -55.5t-10.5 -28.5zM272 506q0 76 11.5 144.5t39 120.5t73.5 83t116 31t116 -32t73.5 -85t39 -123t11.5 -145q0 -88 -11.5 -162t-39 -127t-73.5 -83t-114 -30q-72 0 -118 31t-73.5 85t-39 129t-11.5 163z" />
<glyph unicode="&#xf6;" d="M104 487q0 -111 23 -205t71 -162.5t122.5 -108.5t179.5 -40q113 0 191.5 42t129.5 114t75 167t24 204t-23 203t-72 162.5t-124.5 108.5t-180.5 40q-111 0 -189.5 -42t-128.5 -114t-74 -167t-24 -202zM193 1288q0 -45 31.5 -76.5t76.5 -31.5q47 0 78 31.5t31 76.5 t-30.5 77t-78.5 32q-45 0 -76.5 -32t-31.5 -77zM272 506q0 76 11.5 144.5t39 120.5t73.5 83t116 31t116 -32t73.5 -85t39 -123t11.5 -145q0 -88 -11.5 -162t-39 -127t-73.5 -83t-114 -30q-72 0 -118 31t-73.5 85t-39 129t-11.5 163zM596 1288q0 -45 32 -76.5t77 -31.5 t76.5 31.5t31.5 76.5t-31.5 77t-76.5 32t-77 -32t-32 -77z" />
<glyph unicode="&#xf7;" d="M45 475q0 -18 4 -23.5t23 -5.5h874q18 0 23.5 5.5t5.5 23.5v90q0 18 -5 23.5t-24 5.5h-874q-18 0 -22.5 -5t-4.5 -24v-90zM395 166q0 -47 34 -81t81 -34t81 34t34 81t-34 81t-81 34t-81 -34t-34 -81zM395 874q0 -47 34 -80.5t81 -33.5t81 33.5t34 80.5t-34 81t-81 34 t-81 -33.5t-34 -81.5z" />
<glyph unicode="&#xf8;" d="M104 485q0 -90 13.5 -156.5t32 -114.5t38 -76.5t29.5 -43.5l-74 -135l-4 -8t-2 -8q0 -6 5 -9.5t10 -7.5l65 -32q6 -6 16 -7q4 0 7.5 5.5t7.5 9.5l63 114q8 -4 55.5 -24.5t133.5 -20.5q113 0 191.5 42t129.5 114t75 167t24 204q0 88 -14.5 155.5t-34 115.5t-40 79 t-32.5 45l69 125q2 4 5.5 7t3.5 7q0 8 -17 17l-63 34q-12 4 -17 4q-10 0 -16 -14l-59 -104q-10 4 -55.5 23.5t-129.5 19.5q-111 0 -189.5 -42t-128.5 -115t-74 -168t-24 -202zM256 498q0 82 12.5 152.5t42 122.5t78.5 82t123 30q59 0 90 -15.5t37 -19.5l-346 -623 q-12 20 -19.5 52t-11.5 69t-5 76t-1 74zM377 135l352 635q12 -27 18.5 -59.5t10.5 -67.5t5 -69.5t1 -61.5q0 -94 -12.5 -171t-42 -130t-76.5 -83t-117 -30q-59 0 -93 15.5t-46 21.5z" />
<glyph unicode="&#xf9;" d="M150 279q0 -55 8 -110.5t37.5 -98.5t89 -71t164.5 -28q43 0 84.5 12.5t78.5 31t68 39t53 38.5q8 -18 16.5 -38.5t17.5 -39t19.5 -31t22.5 -12.5q4 0 16 6l80 50q6 4 12.5 7t6.5 9q0 10 -14.5 34.5t-24.5 43.5q-16 33 -19.5 66.5t-3.5 68.5v729q0 8 -2 17.5t-12 9.5 q-10 -2 -11 -1t-14 -3l-102 -25q-14 -4 -14 -25v-745q-14 -14 -44 -31.5t-64 -34t-67.5 -27.5t-58.5 -11q-49 0 -82 13t-52.5 36.5t-26.5 53.5t-7 62v711q0 8 -2 17.5t-12 9.5q-10 -2 -11 -1t-14 -3l-102 -25q-14 -4 -14 -25v-679zM301 1325q0 -10 19 -18l336 -174 q8 -6 20 -7q8 0 19 17l18 28q4 4 7 10.5t3 10.5t-5 8t-11 10l-297 230q-4 2 -9 6t-11 4t-11.5 -6t-9.5 -10l-59 -88q-8 -12 -9 -21z" />
<glyph unicode="&#xfa;" d="M150 279q0 -55 8 -110.5t37.5 -98.5t89 -71t164.5 -28q43 0 84.5 12.5t78.5 31t68 39t53 38.5q8 -18 16.5 -38.5t17.5 -39t19.5 -31t22.5 -12.5q4 0 16 6l80 50q6 4 12.5 7t6.5 9q0 10 -14.5 34.5t-24.5 43.5q-16 33 -19.5 66.5t-3.5 68.5v729q0 8 -2 17.5t-12 9.5 q-10 -2 -11 -1t-14 -3l-102 -25q-14 -4 -14 -25v-745q-14 -14 -44 -31.5t-64 -34t-67.5 -27.5t-58.5 -11q-49 0 -82 13t-52.5 36.5t-26.5 53.5t-7 62v711q0 8 -2 17.5t-12 9.5q-10 -2 -11 -1t-14 -3l-102 -25q-14 -4 -14 -25v-679zM331 1192q0 -4 3.5 -10t7.5 -11l18 -28 q10 -16 19 -17q10 0 20 7l336 174q18 8 18 18q0 8 -8 21l-59 88q-4 4 -9.5 10t-11.5 6t-11 -4t-9 -6l-297 -230q-6 -6 -11.5 -10t-5.5 -8z" />
<glyph unicode="&#xfb;" d="M150 279q0 -55 8 -110.5t37.5 -98.5t89 -71t164.5 -28q43 0 84.5 12.5t78.5 31t68 39t53 38.5q8 -18 16.5 -38.5t17.5 -39t19.5 -31t22.5 -12.5q4 0 16 6l80 50q6 4 12.5 7t6.5 9q0 10 -14.5 34.5t-24.5 43.5q-16 33 -19.5 66.5t-3.5 68.5v729q0 8 -2 17.5t-12 9.5 q-10 -2 -11 -1t-14 -3l-102 -25q-14 -4 -14 -25v-745q-14 -14 -44 -31.5t-64 -34t-67.5 -27.5t-58.5 -11q-49 0 -82 13t-52.5 36.5t-26.5 53.5t-7 62v711q0 8 -2 17.5t-12 9.5q-10 -2 -11 -1t-14 -3l-102 -25q-14 -4 -14 -25v-679zM252 1217q0 -4 3 -9.5t8 -9.5l24 -33 q12 -16 21 -16q4 0 9 3t9 5l186 123l189 -123q8 -6 18 -6t17 10l28 37q8 12 8 21q0 6 -5 10t-9 8l-225 180q-4 4 -9 7t-12 3q-4 0 -9 -3t-9 -7l-225 -180q-6 -6 -11.5 -10t-5.5 -10z" />
<glyph unicode="&#xfc;" d="M150 279q0 -55 8 -110.5t37.5 -98.5t89 -71t164.5 -28q43 0 84.5 12.5t78.5 31t68 39t53 38.5q8 -18 16.5 -38.5t17.5 -39t19.5 -31t22.5 -12.5q4 0 16 6l80 50q6 4 12.5 7t6.5 9q0 10 -14.5 34.5t-24.5 43.5q-16 33 -19.5 66.5t-3.5 68.5v729q0 8 -2 17.5t-12 9.5 q-10 -2 -11 -1t-14 -3l-102 -25q-14 -4 -14 -25v-745q-14 -14 -44 -31.5t-64 -34t-67.5 -27.5t-58.5 -11q-49 0 -82 13t-52.5 36.5t-26.5 53.5t-7 62v711q0 8 -2 17.5t-12 9.5q-10 -2 -11 -1t-14 -3l-102 -25q-14 -4 -14 -25v-679zM193 1288q0 -45 31.5 -76.5t76.5 -31.5 q47 0 78 31.5t31 76.5t-30.5 77t-78.5 32q-45 0 -76.5 -32t-31.5 -77zM596 1288q0 -45 32 -76.5t77 -31.5t76.5 31.5t31.5 76.5t-31.5 77t-76.5 32t-77 -32t-32 -77z" />
<glyph unicode="&#xfd;" horiz-adv-x="909" d="M0 -328q0 -12 23.5 -29.5t61.5 -34t84 -27.5t89 -11q86 0 148.5 42t93.5 107q47 98 81.5 210t59.5 198l233 782q2 8 3.5 13.5t1.5 15.5q0 8 -5.5 10t-11.5 6l-86 35q-20 8 -28 8q-18 0 -23 -16l-205 -778q-10 -37 -17 -72t-14 -72h-4q-8 33 -16 68t-25 80l-258 774 q-6 16 -22 16q-8 0 -29 -8l-86 -35q-6 -4 -11 -6t-5 -10q-2 -10 0 -15t4 -14l317 -891q4 -10 8.5 -14t18.5 -4h74l-43 -129q-25 -74 -62 -124t-94 -50q-37 0 -69.5 12t-58.5 27.5t-43 28t-26 12.5q-10 0 -14 -10l-41 -82q-4 -8 -4 -13zM264 1192q0 -4 3.5 -10t7.5 -11 l18 -28q10 -16 19 -17q10 0 20 7l336 174q18 8 18 18q0 8 -8 21l-59 88q-4 4 -9.5 10t-11.5 6t-11 -4t-9 -6l-297 -230q-6 -6 -11.5 -10t-5.5 -8z" />
<glyph unicode="&#xfe;" horiz-adv-x="985" d="M164 -403q0 -8 2 -17.5t12 -9.5q10 2 11 1t14 3l102 25q14 4 14 24v438q39 -27 97.5 -58.5t146.5 -31.5t153.5 43t106.5 117t61.5 172t20.5 209q0 94 -13 184t-49 161t-97.5 113t-159.5 42q-53 0 -95 -11.5t-75 -27t-57.5 -31.5t-39.5 -24v538q0 8 -2 17.5t-12 9.5 q-10 -2 -11 -1t-13 -3l-103 -25q-14 -4 -14 -24v-1833zM319 197v577q16 12 42 28.5t57 33t66.5 27.5t72.5 11q61 0 97 -32.5t54.5 -86t23.5 -119t5 -128.5q0 -74 -5 -145.5t-24.5 -128t-58.5 -91t-104 -34.5q-72 0 -126 28.5t-100 59.5z" />
<glyph unicode="&#xff;" horiz-adv-x="909" d="M0 -328q0 -12 23.5 -29.5t61.5 -34t84 -27.5t89 -11q86 0 148.5 42t93.5 107q47 98 81.5 210t59.5 198l233 782q2 8 3.5 13.5t1.5 15.5q0 8 -5.5 10t-11.5 6l-86 35q-20 8 -28 8q-18 0 -23 -16l-205 -778q-10 -37 -17 -72t-14 -72h-4q-8 33 -16 68t-25 80l-258 774 q-6 16 -22 16q-8 0 -29 -8l-86 -35q-6 -4 -11 -6t-5 -10q-2 -10 0 -15t4 -14l317 -891q4 -10 8.5 -14t18.5 -4h74l-43 -129q-25 -74 -62 -124t-94 -50q-37 0 -69.5 12t-58.5 27.5t-43 28t-26 12.5q-10 0 -14 -10l-41 -82q-4 -8 -4 -13zM135 1288q0 -45 31.5 -76.5 t76.5 -31.5q47 0 78 31.5t31 76.5t-30.5 77t-78.5 32q-45 0 -76.5 -32t-31.5 -77zM538 1288q0 -45 32 -76.5t77 -31.5t76.5 31.5t31.5 76.5t-31.5 77t-76.5 32t-77 -32t-32 -77z" />
<glyph unicode="&#x152;" horiz-adv-x="1554" d="M106 690q0 -160 28 -293t83 -227t137 -146.5t191 -52.5q57 0 102 14.5t77 34t51.5 38t29.5 28.5v-61q0 -25 22 -25h633q16 0 22.5 5t6.5 24v92q0 23 -25 22h-491v519h401q16 0 21.5 5t5.5 21v90q0 16 -5 21.5t-22 5.5h-401v455h459q16 0 21 3t9 15l29 86q2 6 4 13t2 12 q0 6 -5 10t-22 4h-636q-18 0 -23.5 -5t-5.5 -22v-41q-10 10 -29.5 26.5t-48.5 32t-71 27t-97 11.5q-213 0 -333 -182.5t-120 -559.5zM291 702q0 133 14 242t47 186.5t85 120.5t128 43q49 0 89 -15t70 -35.5t49.5 -43t31.5 -35.5v-932l-33.5 -33.5t-53.5 -41t-72 -34.5 t-87 -15q-76 0 -127 46t-83 126.5t-45 189.5t-13 231z" />
<glyph unicode="&#x153;" horiz-adv-x="1593" d="M96 487q0 -111 23.5 -205t72 -162.5t124 -108.5t180.5 -40q84 0 142 22.5t97 52.5t61.5 61.5t32.5 50.5q18 -29 44 -62t65 -60.5t96.5 -46t139.5 -18.5q57 0 114.5 13.5t103.5 32t75.5 36t29.5 25.5q0 4 -2 8l-4 8l-35 86q-8 12 -12 13q-4 0 -25.5 -13.5t-55.5 -29 t-78 -28.5t-93 -13q-88 0 -143.5 38.5t-86 95t-42 119t-11.5 109.5h588q16 0 19.5 11.5t3.5 33.5q0 66 -13.5 152t-53.5 162.5t-112.5 129t-193.5 52.5q-41 0 -84 -10.5t-85 -32t-80 -56t-67 -84.5q-16 23 -40.5 54.5t-62.5 60.5t-91 48.5t-127 19.5q-109 0 -187.5 -42 t-129 -114t-74 -167t-23.5 -202zM264 508q0 76 11.5 143.5t39 119.5t73.5 83t116 31q72 0 119 -32t75.5 -85t40 -121.5t11.5 -144.5q0 -90 -11.5 -165t-39 -128t-74.5 -82t-117 -29q-72 0 -118 31t-74.5 85t-40 129t-11.5 165zM909 598q0 39 9.5 88t35 93t69.5 75t116 31 q55 0 94 -27t64.5 -68.5t38 -92t16.5 -99.5h-443z" />
<glyph unicode="&#x178;" horiz-adv-x="985" d="M4 1366q0 -8 6 -20l398 -754v-567q0 -25 24 -25h119q25 0 24 25v571l408 750q6 12 6 20q0 12 -10 15t-14 5l-119 29q-4 0 -9.5 1t-9.5 1q-10 0 -14 -8t-8 -18l-248 -514q-16 -29 -28.5 -59t-28.5 -68q-12 27 -28.5 58.5t-25.5 47.5l-258 535q-4 10 -8 18t-14 8 q-12 0 -19 -2l-118 -29l-17.5 -7t-7.5 -13zM174 1708q0 -45 31.5 -76.5t76.5 -31.5q47 0 78 31.5t31 76.5t-30.5 77t-78.5 32q-45 0 -76.5 -32t-31.5 -77zM577 1708q0 -45 32 -76.5t77 -31.5t76.5 31.5t31.5 76.5t-31.5 77t-76.5 32t-77 -32t-32 -77z" />
<glyph unicode="&#x2c6;" horiz-adv-x="630" d="M55 1217q0 -4 3 -9.5t8 -9.5l24 -33q12 -16 21 -16q4 0 9 3t9 5l186 123l189 -123q8 -6 18 -6t17 10l28 37q8 12 8 21q0 6 -5 10t-9 8l-225 180q-4 4 -9 7t-12 3q-4 0 -9 -3t-9 -7l-225 -180q-6 -6 -11.5 -10t-5.5 -10z" />
<glyph unicode="&#x2dc;" horiz-adv-x="630" d="M10 1233q0 -10 17 -19l55 -22q8 -4 12 -4q8 0 16.5 12t20.5 27.5t28.5 28t41.5 12.5q29 0 54.5 -12.5t51.5 -28.5q29 -16 58.5 -29.5t64.5 -13.5q49 0 85 23.5t58.5 52t33.5 54t11 32.5q0 6 -5 9t-9 7l-55 24q-12 4 -14 5q-8 0 -15.5 -12.5t-17.5 -28t-28.5 -27.5 t-49.5 -12q-25 0 -49.5 13t-53 29.5t-59.5 29t-65 12.5q-49 0 -84 -24.5t-58.5 -53.5t-34 -55.5t-10.5 -28.5z" />
<glyph unicode="&#x2000;" horiz-adv-x="945" />
<glyph unicode="&#x2001;" horiz-adv-x="1890" />
<glyph unicode="&#x2002;" horiz-adv-x="945" />
<glyph unicode="&#x2003;" horiz-adv-x="1890" />
<glyph unicode="&#x2004;" horiz-adv-x="630" />
<glyph unicode="&#x2005;" horiz-adv-x="472" />
<glyph unicode="&#x2006;" horiz-adv-x="315" />
<glyph unicode="&#x2007;" horiz-adv-x="315" />
<glyph unicode="&#x2008;" horiz-adv-x="236" />
<glyph unicode="&#x2009;" horiz-adv-x="378" />
<glyph unicode="&#x200a;" horiz-adv-x="105" />
<glyph unicode="&#x2010;" horiz-adv-x="720" d="M104 473q0 -27 29 -27h455q29 0 28 21v104q0 29 -28 29h-457q-16 0 -21.5 -8t-5.5 -25v-94z" />
<glyph unicode="&#x2011;" horiz-adv-x="720" d="M104 473q0 -27 29 -27h455q29 0 28 21v104q0 29 -28 29h-457q-16 0 -21.5 -8t-5.5 -25v-94z" />
<glyph unicode="&#x2012;" horiz-adv-x="720" d="M104 473q0 -27 29 -27h455q29 0 28 21v104q0 29 -28 29h-457q-16 0 -21.5 -8t-5.5 -25v-94z" />
<glyph unicode="&#x2013;" d="M92 481q0 -27 29 -26h782q29 0 29 20v88q0 29 -29 29h-784q-16 0 -21.5 -8.5t-5.5 -24.5v-78z" />
<glyph unicode="&#x2014;" horiz-adv-x="2048" d="M102 481q0 -27 29 -26h1784q29 0 29 20v88q0 29 -29 29h-1786q-16 0 -21.5 -8.5t-5.5 -24.5v-78z" />
<glyph unicode="&#x2018;" horiz-adv-x="378" d="M10 997q0 -10 9.5 -12t19.5 -2h164q25 0 30 23l121 407q4 12 4 19q0 8 -6 11t-16 7l-45 14q-4 0 -9.5 2t-9.5 2q-8 0 -18 -18l-236 -432q-2 -4 -5 -9t-3 -12z" />
<glyph unicode="&#x2019;" horiz-adv-x="378" d="M20 1020q0 -8 6.5 -11t16.5 -8l45 -14q4 0 9 -2t9 -2q8 0 19 18l235 433q2 4 5.5 9t3.5 11q0 10 -9.5 12t-19.5 2h-164q-25 0 -31 -22l-120 -408q-4 -12 -5 -18z" />
<glyph unicode="&#x201a;" horiz-adv-x="378" d="M-6 -215q0 -8 6 -11t16 -7l45 -15q4 0 9.5 -2t9.5 -2q8 0 18 19l236 432q2 4 5 9t3 11q0 10 -9 12t-20 2h-163q-25 0 -31 -22l-121 -408q-4 -12 -4 -18z" />
<glyph unicode="&#x201c;" horiz-adv-x="833" d="M61 997q0 -10 9.5 -12t19.5 -2h164q25 0 31 23l121 407q4 12 4 19q0 8 -6.5 11t-16.5 7l-45 14q-4 0 -9 2t-9 2q-8 0 -19 -18l-235 -432q-2 -4 -5.5 -9t-3.5 -12zM422 997q0 -10 9 -12t20 -2h163q25 0 31 23l121 407q4 12 4 19q0 8 -6 11t-16 7l-46 14q-4 0 -9 2t-9 2 q-8 0 -18 -18l-236 -432q-2 -4 -5 -9t-3 -12z" />
<glyph unicode="&#x201d;" horiz-adv-x="833" d="M63 1020q0 -8 6.5 -11t16.5 -8l45 -14q4 0 9 -2t10 -2q8 0 18 18l235 433q2 4 5.5 9t3.5 11q0 10 -9.5 12t-19.5 2h-164q-25 0 -31 -22l-120 -408q-4 -12 -5 -18zM424 1020q0 -8 6 -11l16 -8l46 -14q4 0 9 -2t9 -2q8 0 18 18l236 433q2 4 5 9t3 11q0 10 -9 12t-20 2h-163 q-25 0 -31 -22l-121 -408q-4 -12 -4 -18z" />
<glyph unicode="&#x201e;" horiz-adv-x="833" d="M72 -215q0 -8 6 -11t16 -7l45 -15q4 0 9.5 -2t9.5 -2q8 0 18 19l236 432q2 4 5 9t3 11q0 10 -9.5 12t-19.5 2h-164q-25 0 -30 -22l-121 -408q-4 -12 -4 -18zM432 -215q0 -8 6 -11t17 -7l45 -15q4 0 9 -2t9 -2q8 0 19 19l235 432q2 4 5 9t3 11q0 10 -9 12t-19 2h-164 q-25 0 -31 -22l-121 -408q-4 -12 -4 -18z" />
<glyph unicode="&#x2022;" d="M141 737q0 -76 29 -143.5t80 -117.5t117.5 -78.5t144.5 -28.5q76 0 143.5 28.5t117.5 78.5t80 118t30 143q0 76 -30 144.5t-80 119t-117.5 80t-143.5 29.5q-78 0 -144.5 -29.5t-117.5 -80t-80 -119t-29 -144.5z" />
<glyph unicode="&#x2026;" horiz-adv-x="2048" d="M205 137q0 -59 39 -98t98 -39t98 39t39 98t-39 98t-98 39t-98 -38.5t-39 -98.5zM887 137q0 -59 39 -98t98 -39t98 39t39 98t-39 98t-98 39t-98 -38.5t-39 -98.5zM1569 137q0 -59 39 -98t98 -39t98 39t39 98t-39 98t-98 39t-98 -38.5t-39 -98.5z" />
<glyph unicode="&#x202f;" horiz-adv-x="378" />
<glyph unicode="&#x2039;" horiz-adv-x="606" d="M45 489q0 -8 10 -18l344 -432q8 -14 21 -14q8 0 18 6l56 30q6 4 13 9.5t7 11.5q0 4 -3 9t-7 9l-264 389l264 392q2 4 5 7t3 11q0 10 -18 21l-56 30q-4 2 -9 4t-9 2q-8 0 -12.5 -5t-8.5 -9l-344 -432q-10 -10 -10 -21z" />
<glyph unicode="&#x203a;" horiz-adv-x="606" d="M92 899q0 -4 3 -9t7 -9l265 -389l-265 -392q-2 -4 -5 -7t-3 -11q0 -10 19 -21l55 -30q4 -2 9 -4t9 -2q8 0 12.5 5t8.5 9l344 432q10 10 10 21q0 8 -10 18l-344 432q-8 14 -21 14q-10 0 -18 -6l-55 -30q-6 -4 -13.5 -9.5t-7.5 -11.5z" />
<glyph unicode="&#x205f;" horiz-adv-x="472" />
<glyph unicode="&#x2122;" horiz-adv-x="1441" d="M150 1317h149v-508h88v508h152v86h-389v-86zM606 809h88v537h4l140 -537h108l139 537h5v-537h88v594h-164l-121 -467h-4l-123 467h-160v-594z" />
<glyph unicode="&#xe000;" horiz-adv-x="993" d="M0 0v993h993v-993h-993z" />
</font>
</defs>
</svg>
