<?xml version="1.0" standalone="no"?>
<!DOCTYPE svg PUBLIC "-//W3C//DTD SVG 1.1//EN" "http://www.w3.org/Graphics/SVG/1.1/DTD/svg11.dtd" >
<svg xmlns="http://www.w3.org/2000/svg">
<metadata></metadata>
<defs>
<font id="officina_sans_itcbook" horiz-adv-x="500" >
<font-face units-per-em="1000" ascent="800" descent="-200" />
<missing-glyph horiz-adv-x="206" />
<glyph unicode="fi" horiz-adv-x="519" d="M394 715q24 0 41.5 -17.5t17.5 -42.5q0 -24 -17.5 -41.5t-41.5 -17.5q-26 0 -43 17.5t-17 42.5t17.5 42t42.5 17zM90 558q0 47 5 71.5t19 44.5q35 50 103 50q15 0 30 -2.5t27 -6.5t19.5 -9t7.5 -9l-1 -7l-16 -40q-2 -5 -7 -5q-4 0 -6 1q-23 9 -32.5 11.5t-21.5 2.5 q-31 0 -43 -20q-8 -11 -10 -27.5t-2 -55.5v-77h260q8 0 10 -2t2 -10v-456q0 -8 -2 -10t-10 -2h-49q-7 0 -9 2t-2 10v406h-200v-406q0 -8 -2 -10t-10 -2h-49q-7 0 -9 2t-2 10v406h-63q-11 0 -11 11v39q0 8 2 10t9 2h63v78z" />
<glyph unicode="fl" horiz-adv-x="556" d="M440 720q4 1 6 1q7 0 7 -11v-532q0 -36 0.5 -59.5t1.5 -32.5q3 -17 13.5 -27.5t27.5 -10.5q22 0 45 12q6 2 8 2q5 0 7 -6l12 -37q2 -5 2 -5.5v-2.5q0 -4 -8 -8.5t-20 -8t-27 -6t-29 -2.5q-42 0 -69 19t-34 51q-2 8 -3 14t-1.5 18t-0.5 33v59v515q0 10 10 13zM94 558 q0 47 5.5 71.5t19.5 44.5q38 50 109 50q16 0 34 -3.5t33 -8.5t25 -11t10 -11l-1 -7l-17 -41q-2 -6 -7 -6q-3 0 -9 3q-19 10 -36.5 15.5t-32.5 5.5q-31 0 -45 -20q-8 -11 -10.5 -28t-2.5 -55v-77h144q11 0 11 -7q0 -4 -1 -6l-13 -40q-4 -9 -13 -9h-128v-406q0 -8 -2 -10 t-9 -2h-53q-7 0 -9 2t-2 10v406h-66q-8 0 -10 2t-2 9v39q0 8 2 10t10 2h66v78z" />
<glyph unicode="&#xd;" horiz-adv-x="206" />
<glyph unicode=" "  horiz-adv-x="206" />
<glyph unicode="&#x09;" horiz-adv-x="206" />
<glyph unicode="&#xa0;" horiz-adv-x="206" />
<glyph unicode="!" horiz-adv-x="333" d="M202 686q14 0 14 -11v-3l-22 -394q-1 -8 -3 -10.5t-11 -2.5h-29q-8 0 -10.5 2.5t-3.5 10.5l-23 394v4q0 10 14 10h74zM168 127q28 0 48.5 -20.5t20.5 -49.5t-20.5 -50t-49.5 -21q-30 0 -50.5 20.5t-20.5 50.5q0 29 21 49.5t51 20.5z" />
<glyph unicode="&#x22;" d="M194 686q14 0 13 -14l-15 -237q-1 -8 -3.5 -10.5t-10.5 -2.5h-22q-9 0 -11.5 2.5t-2.5 10.5l-17 237v4q0 10 14 10h55zM360 686q14 0 14 -10v-4l-15 -237q-1 -8 -3.5 -10.5t-10.5 -2.5h-23q-8 0 -10.5 2.5t-3.5 10.5l-16 237q-1 14 13 14h55z" />
<glyph unicode="#" d="M307 178l19 199h-127l-19 -199h127zM136 377h-59q-9 0 -11.5 2.5t-2.5 11.5v38q0 9 2.5 11.5t11.5 2.5h67l21 202q1 8 3.5 10.5t10.5 2.5h36q8 0 10.5 -2t2.5 -10v-2l-21 -201h127l21 202q1 9 3.5 11t10.5 2h35q14 0 14 -9v-5l-21 -201h54q9 0 11.5 -2.5t2.5 -11.5v-38 q0 -9 -2.5 -11.5t-11.5 -2.5h-62l-20 -199h55q9 0 11.5 -2.5t2.5 -11.5v-36q0 -9 -2.5 -11.5t-11.5 -2.5h-62l-19 -181q-1 -8 -3.5 -10.5t-10.5 -2.5h-36q-13 0 -13 11v4l19 179h-127l-19 -181q-1 -8 -3.5 -10.5t-10.5 -2.5h-35q-14 0 -14 9v6l19 179h-59q-9 0 -11.5 2.5 t-2.5 11.5v36q0 9 2.5 11.5t11.5 2.5h67z" />
<glyph unicode="$" d="M284 55q35 8 55 35.5t20 69.5q0 38 -16.5 64.5t-58.5 56.5v-226zM230 586q-35 -5 -54 -28.5t-19 -61.5q0 -19 3.5 -34t12 -28t22.5 -25.5t35 -26.5v204zM284 655q23 -2 47 -7t44 -12t33 -15t13 -15v-1.5t-2 -5.5l-17 -43q-2 -5 -7 -5q-3 0 -5.5 1t-10.5 5q-30 16 -51 23 t-44 9v-228q24 -14 41.5 -24.5t29.5 -18.5t20.5 -15.5t16.5 -15.5q46 -49 46 -119q0 -35 -11 -65.5t-31.5 -54t-49 -39t-62.5 -20.5v-65q0 -9 -2.5 -11.5t-11.5 -2.5h-26q-9 0 -11.5 2.5t-2.5 11.5v61q-25 1 -55 6.5t-55.5 13.5t-42.5 17t-17 17l1 7l18 47q3 5 7 5q3 0 8 -3 q37 -19 75.5 -31.5t60.5 -11.5v251q-28 16 -44.5 25.5t-26.5 16t-16 11.5t-13 11q-54 49 -54 121q0 33 11.5 61.5t32 50.5t48.5 36t62 17v57q0 9 2.5 11.5t11.5 2.5h26q9 0 11.5 -2.5t2.5 -11.5v-55z" />
<glyph unicode="%" horiz-adv-x="759" d="M482 650q3 10 15 10h41q14 0 14 -8q0 -2 -0.5 -2.5t-2.5 -5.5l-272 -653q-5 -10 -19 -10h-38q-13 0 -13 7q0 5 2 9zM599 276q-33 0 -51 -31t-18 -88q0 -112 64 -112q34 0 52 30.5t18 87.5q0 113 -65 113zM602 331q61 0 94.5 -42.5t33.5 -120.5q0 -85 -36 -131.5 t-101 -46.5q-62 0 -95.5 42.5t-33.5 120.5q0 85 36 131.5t102 46.5zM164 598q-33 0 -51 -31t-18 -88q0 -112 64 -112q33 0 51 30.5t18 87.5q0 113 -64 113zM167 653q60 0 93.5 -42.5t33.5 -120.5q0 -85 -36 -131.5t-100 -46.5q-62 0 -95.5 42.5t-33.5 121.5q0 85 36 131 t102 46z" />
<glyph unicode="&#x26;" horiz-adv-x="611" d="M228 318q-26 -21 -43 -38t-27.5 -33t-14.5 -33t-4 -38q0 -57 35.5 -89.5t95.5 -32.5q38 0 71 13.5t67 43.5zM255 401q56 39 78.5 71t22.5 70q0 41 -24 65.5t-63 24.5t-65.5 -25.5t-26.5 -63.5q0 -31 17.5 -63t60.5 -79zM450 62q-24 -20 -46.5 -33.5t-44.5 -22 t-45.5 -12.5t-50.5 -4q-47 0 -85 13t-65 36.5t-41.5 57t-14.5 74.5q0 91 78 151q6 4 10.5 7.5t10.5 8t14 10t19 13.5q-48 55 -67.5 94.5t-19.5 78.5q0 35 13 65t36.5 51.5t56 33.5t71.5 12q34 0 62 -10.5t47.5 -30t30.5 -46.5t11 -60q0 -55 -32 -99.5t-104 -92.5l166 -187 q14 24 22 54.5t8 62.5v12q0 12 12 12h49q12 0 12 -17q0 -47 -15 -92.5t-43 -83.5l69 -79q3 -3 3 -6q0 -5 -6 -9l-40 -33q-6 -4 -10 -4q-5 0 -11 6z" />
<glyph unicode="'" horiz-adv-x="333" d="M194 686q14 0 13 -14l-15 -237q-1 -8 -3.5 -10.5t-10.5 -2.5h-22q-9 0 -11.5 2.5t-2.5 10.5l-17 237v4q0 10 14 10h55z" />
<glyph unicode="(" horiz-adv-x="370" d="M310 709q7 -4 7 -9q0 -6 -9 -18q-76 -101 -110 -204.5t-34 -228.5q0 -63 8.5 -119.5t26 -109.5t44.5 -103t65 -101q9 -13 9 -18q0 -3 -5 -8t-12 -9.5t-14.5 -7.5t-11.5 -3q-8 0 -24 18.5t-45 62.5q-63 95 -93 191.5t-30 206.5q0 118 35.5 222.5t109.5 206.5 q23 32 31.5 41t15.5 9q5 0 12 -4z" />
<glyph unicode=")" horiz-adv-x="370" d="M60 -212q-7 6 -7 10q0 6 9 18q38 51 65 101.5t44.5 103t26 109t8.5 119.5t-8.5 119.5t-26 109.5t-44.5 103t-65 101q-9 13 -9 18q0 4 3 6t20 13q11 7 13 8t7 1q8 0 22.5 -17.5t46.5 -63.5q63 -94 93 -190.5t30 -207.5q0 -119 -35 -222.5t-110 -206.5l-19.5 -26t-12.5 -15 t-8.5 -7t-6.5 -2q-5 0 -12 4z" />
<glyph unicode="*" d="M214 672v5q0 9 14 9h44q13 0 13 -8v-6l-10 -117l107 46l4 1q4 2 5 2q5 0 9 -11l13 -42q2 -5 2 -8q0 -7 -11 -9l-114 -26l77 -88q4 -5 4.5 -6t0.5 -3q0 -4 -8 -11l-35 -25q-6 -5 -9 -5q-6 0 -10 8l-60 100l-60 -100q-5 -8 -10 -8q-4 0 -10 5l-35 26q-5 4 -6.5 5.5 t-1.5 3.5q0 3 6 10l76 88l-113 26q-12 3 -12 9q0 3 2 8l14 42q3 11 9 11q1 0 2 -0.5t6 -2.5l108 -46z" />
<glyph unicode="+" d="M464 291q9 0 11.5 -2.5t2.5 -11.5v-47q0 -9 -2.5 -11.5t-11.5 -2.5h-177v-176q0 -9 -2.5 -11.5t-11.5 -2.5h-47q-9 0 -11.5 2.5t-2.5 11.5v176h-176q-9 0 -11.5 2.5t-2.5 11.5v47q0 9 2.5 11.5t11.5 2.5h176v177q0 9 2 11t12 2h47q10 0 12 -2t2 -11v-177h177z" />
<glyph unicode="," horiz-adv-x="296" d="M123 103q4 11 15 11h81q14 0 14 -7q0 -2 -0.5 -3.5t-3.5 -6.5l-115 -212q-4 -6 -5.5 -7.5t-4.5 -1.5t-5 1l-3 1l-22 8q-11 4 -11 9v2.5t2 5.5z" />
<glyph unicode="-" horiz-adv-x="352" d="M37 279q0 9 2.5 11.5t11.5 2.5h250q9 0 11.5 -2.5t2.5 -11.5v-47q0 -9 -2.5 -11.5t-11.5 -2.5h-250q-9 0 -11.5 2.5t-2.5 11.5v47z" />
<glyph unicode="." horiz-adv-x="296" d="M150 127q28 0 48.5 -20.5t20.5 -49.5t-20.5 -50t-49.5 -21q-30 0 -50.5 20.5t-20.5 50.5q0 29 21 49.5t51 20.5z" />
<glyph unicode="/" horiz-adv-x="444" d="M358 718q5 10 16 10h39q14 0 14 -7q0 -2 -0.5 -3.5t-2.5 -6.5l-388 -931q-4 -9 -16 -9h-39q-13 0 -13 7q0 2 0.5 3.5t2.5 5.5z" />
<glyph unicode="0" d="M253 586q-60 0 -93.5 -69.5t-33.5 -195.5q0 -65 9 -117t27 -89q28 -58 88 -58q68 0 95 67q15 36 22.5 87.5t7.5 114.5q0 260 -122 260zM259 657q96 0 146.5 -84.5t50.5 -244.5q0 -168 -53 -255t-154 -87q-87 0 -135 66q-69 94 -69 263q0 81 14.5 144.5t42 107.5t67 67 t90.5 23z" />
<glyph unicode="1" d="M310 644q9 0 11.5 -2.5t2.5 -11.5v-564h87q9 0 11.5 -2.5t2.5 -11.5v-38q0 -9 -2.5 -11.5t-11.5 -2.5h-265q-9 0 -11.5 2.5t-2.5 11.5v38q0 9 2.5 11.5t11.5 2.5h102v489l-140 -81q-5 -4 -10 -4q-4 0 -8 9l-12 22q-3 4 -3 10q0 4 8 8l177 125h50z" />
<glyph unicode="2" d="M416 73q9 0 11.5 -2.5t2.5 -11.5v-45q0 -9 -2.5 -11.5t-11.5 -2.5h-335q-8 0 -10 2.5t-2 11.5q0 54 9.5 98.5t30 83t53 72t77.5 64.5q25 17 39 27t22.5 17t13 12t10.5 13q25 33 25 79q0 49 -26.5 77.5t-71.5 28.5q-42 0 -67.5 -23t-45.5 -77q-3 -8 -8 -8q-3 0 -8 2 l-44 13q-8 3 -8 9t3.5 17t9.5 23t13 24.5t14 21.5q52 69 146 69q81 0 127.5 -48.5t46.5 -132.5q0 -29 -6 -52.5t-19.5 -45t-36.5 -43t-56 -45.5q-39 -27 -67 -51.5t-46 -50t-28 -53.5t-14 -62h259z" />
<glyph unicode="3" d="M73 561q-4 3 -4 5q0 7 14.5 22.5t34.5 29.5q54 39 121 39q38 0 69.5 -12t54 -33t35 -51t12.5 -66q0 -107 -103 -147q24 -8 37.5 -14t26.5 -17q29 -22 45 -58.5t16 -79.5q0 -44 -15.5 -79.5t-43.5 -60.5t-67.5 -39t-87.5 -14q-26 0 -54.5 4.5t-52.5 11t-40 14t-16 14.5 q0 2 0.5 3l2.5 5l19 45q4 6 9 6q1 0 5 -2q37 -17 66 -23.5t62 -6.5q63 0 97.5 32.5t34.5 92.5q0 123 -146 123h-34q-10 0 -12 2.5t-2 11.5v40q0 9 2.5 11.5t11.5 2.5h33q60 0 94.5 32.5t34.5 87.5q0 45 -26 71.5t-71 26.5q-52 0 -98 -46l-10.5 -10.5t-5.5 -5t-3.5 -2 t-2.5 -0.5q-5 0 -7 2z" />
<glyph unicode="4" d="M290 641q5 8 11 8h2h4l50 -8q12 -3 12 -9q0 -4 -4 -9l-255 -416h191l11 161q1 8 3.5 10.5t10.5 2.5h36q9 0 11.5 -2.5t2.5 -11.5v-160h79q9 0 11.5 -2.5t2.5 -11.5v-37q0 -9 -2.5 -11.5t-11.5 -2.5h-79v-142q0 -9 -2.5 -11.5t-11.5 -2.5h-47q-9 0 -11.5 2.5t-2.5 11.5 v142h-256q-9 0 -11.5 2.5t-2.5 11.5v56z" />
<glyph unicode="5" d="M143 371q32 23 59.5 33t60.5 10q38 0 69 -14t53.5 -40t35 -62t12.5 -80q0 -53 -16 -95.5t-46 -73t-72 -47t-93 -16.5q-31 0 -63.5 4t-61.5 12q-14 4 -14 13v4t1 4l10 45q2 7 9 7q2 0 10 -2q42 -16 98 -16q84 0 119 42q18 21 28 51.5t10 65.5q0 60 -27.5 93.5t-76.5 33.5 q-61 0 -116 -55q-6 -6 -10 -6l-8 1l-35 11q-11 4 -11 10q0 3 1 6l31 321q1 8 3.5 10.5t10.5 2.5h260q9 0 11.5 -2.5t2.5 -11.5v-42q0 -9 -2.5 -11.5t-11.5 -2.5h-209z" />
<glyph unicode="6" d="M249 369q-52 0 -80.5 -37.5t-28.5 -106.5q0 -81 28 -124.5t82 -43.5t82.5 42.5t28.5 123.5q0 72 -28.5 109t-83.5 37zM408 584q-2 -5 -6 -5q-2 0 -8 2q-31 11 -63 11q-42 0 -73 -17t-58 -54q-22 -32 -34 -65.5t-19 -82.5q31 35 60 50t67 15t69 -15.5t53 -43.5t34 -67.5 t12 -87.5q0 -53 -14 -96.5t-39.5 -75t-61 -49t-78.5 -17.5q-48 0 -88.5 24t-63.5 68q-20 36 -29 79t-9 103q0 91 19.5 164t55.5 125t87 80t114 28q16 0 31.5 -2t27.5 -5t19.5 -6.5t7.5 -7.5q0 -2 -1 -6z" />
<glyph unicode="7" d="M195 1q-4 -10 -10 -10q-1 0 -6 1l-54 7q-12 3 -12 9q0 2 0.5 3t2.5 6l216 555h-258q-9 0 -11.5 2.5t-2.5 11.5v44q0 9 2.5 11.5t11.5 2.5h338q9 0 11.5 -2.5t2.5 -11.5v-23z" />
<glyph unicode="8" d="M248 302q-26 -11 -38.5 -17t-25.5 -14q-29 -17 -45.5 -47t-16.5 -62q0 -50 35.5 -80t94.5 -30q56 0 91 31t35 79q0 46 -30.5 78.5t-99.5 61.5zM253 373q54 24 78 53t24 71q0 45 -28.5 70.5t-77.5 25.5q-46 0 -74 -26t-28 -68q0 -38 25.5 -68.5t80.5 -57.5zM186 341 q-118 49 -118 155q0 65 46 111q26 26 59 38t79 12q40 0 73 -11t56.5 -31t36.5 -48t13 -62q0 -56 -26.5 -94.5t-86.5 -68.5q70 -27 106 -71.5t36 -103.5q0 -31 -11 -60t-34 -54q-30 -35 -69.5 -51t-95.5 -16q-48 0 -86.5 13t-66 36.5t-42.5 56.5t-15 74q0 37 15 70t42 57 q17 14 36.5 24.5t52.5 23.5z" />
<glyph unicode="9" d="M245 586q-51 0 -81 -42.5t-30 -114.5q0 -75 28.5 -116.5t79.5 -41.5q54 0 82 41.5t28 119.5q0 75 -27 114.5t-80 39.5zM91 56q0 8 8 8q2 0 8 -2q29 -8 61 -8q79 0 122.5 53.5t61.5 172.5q-24 -40 -55.5 -58.5t-74.5 -18.5q-38 0 -69 16t-53.5 45t-34.5 70t-12 91 q0 52 14 94.5t40 73t61.5 47.5t79.5 17q185 0 185 -274q0 -93 -17.5 -166.5t-50 -124.5t-79 -78.5t-105.5 -27.5q-42 0 -68.5 6.5t-26.5 17.5v7z" />
<glyph unicode=":" horiz-adv-x="296" d="M150 474q28 0 48.5 -21t20.5 -50t-20.5 -49.5t-49.5 -20.5q-30 0 -50.5 20.5t-20.5 50.5q0 29 21 49.5t51 20.5zM150 127q28 0 48.5 -20.5t20.5 -49.5t-20.5 -50t-49.5 -21q-30 0 -50.5 20.5t-20.5 50.5q0 29 21 49.5t51 20.5z" />
<glyph unicode=";" horiz-adv-x="296" d="M123 103q4 11 15 11h81q14 0 14 -7q0 -2 -0.5 -3.5t-3.5 -6.5l-115 -212q-4 -6 -5.5 -7.5t-4.5 -1.5t-5 1l-3 1l-22 8q-11 4 -11 9v2.5t2 5.5zM165 474q28 0 48.5 -21t20.5 -50t-21 -49.5t-50 -20.5t-49.5 20.5t-20.5 50.5q0 29 21 49.5t51 20.5z" />
<glyph unicode="&#x3c;" horiz-adv-x="514" d="M480 508l-359 -165l359 -165v-81l-446 211v70l446 211v-81z" />
<glyph unicode="=" d="M22 208q0 9 2.5 11.5t11.5 2.5h428q9 0 11.5 -2.5t2.5 -11.5v-47q0 -9 -2.5 -11.5t-11.5 -2.5h-428q-9 0 -11.5 2.5t-2.5 11.5v47zM22 346q0 9 2.5 11.5t11.5 2.5h428q9 0 11.5 -2.5t2.5 -11.5v-47q0 -9 -2.5 -11.5t-11.5 -2.5h-428q-14 0 -14 14v47z" />
<glyph unicode="&#x3e;" horiz-adv-x="514" d="M480 378v-70l-445 -211v81l358 165l-358 165v81z" />
<glyph unicode="?" horiz-adv-x="426" d="M212 279q0 -9 -2.5 -11.5t-11.5 -2.5h-40q-9 0 -11.5 2.5t-2.5 11.5v123q0 9 3 13t14 7q31 9 50 16t33 16q20 12 31 34t11 49q0 43 -26.5 66t-77.5 23q-52 0 -109 -25q-6 -2 -9 -2q-6 0 -9 8l-14 38q-2 5 -2 7q0 7 14.5 14.5t36.5 14t49 10.5t51 4q83 0 129 -41t46 -115 q0 -66 -37.5 -107.5t-115.5 -62.5v-90zM182 127q28 0 48.5 -20.5t20.5 -49.5t-21 -50t-50 -21t-49.5 21t-20.5 50t21 49.5t51 20.5z" />
<glyph unicode="@" horiz-adv-x="944" d="M566 338q-36 33 -71 33q-23 0 -40.5 -16.5t-33.5 -53.5q-13 -30 -21 -67.5t-8 -66.5q0 -55 35 -55q19 0 38 11t35.5 30.5t29 45.5t18.5 57zM590 414q2 5 3.5 5.5t6.5 0.5h45q6 0 6 -4v-3l-1 -3l-49 -230q-1 -5 -1.5 -12.5t-0.5 -15.5q0 -48 40 -48q34 0 65.5 21t55 56.5 t37.5 82.5t14 99q0 103 -57 160q-35 38 -90.5 58t-121.5 20q-86 0 -159.5 -32.5t-128.5 -88.5t-86 -132t-31 -164q0 -67 20.5 -125.5t58.5 -96.5q77 -80 232 -80q78 0 155 18.5t142 53.5q10 6 16 6t10 -8l12 -29q2 -6 2 -8q0 -10 -17 -18q-34 -17 -74 -30.5t-82.5 -23 t-86.5 -14.5t-86 -5q-177 0 -274 97q-46 47 -71.5 114.5t-25.5 144.5q0 47 10 94.5t28.5 92.5t44.5 85.5t58 72.5q64 64 151 99t181 35q79 0 147 -24t113 -68q75 -72 75 -202q0 -91 -37.5 -165.5t-106.5 -118.5q-24 -15 -51 -23.5t-52 -8.5q-39 0 -61 23.5t-24 66.5 q-61 -89 -138 -89q-40 0 -63 30t-23 83q0 51 15.5 102.5t41.5 91.5q26 38 54.5 55.5t67.5 17.5q27 0 44 -8.5t37 -31.5z" />
<glyph unicode="A" horiz-adv-x="537" d="M350 275l-60 220q-7 26 -12.5 50t-10.5 46q-4 -20 -9.5 -43.5t-13.5 -51.5l-60 -221h166zM166 206l-56 -195q-3 -11 -15 -11h-60q-14 0 -14 7v3t2 6l201 659q3 8 5 9.5t10 1.5h60q8 0 10 -1.5t5 -9.5l201 -659q2 -5 2 -6v-2q0 -8 -14 -8h-64q-10 0 -15 11l-55 195h-203z " />
<glyph unicode="B" horiz-adv-x="556" d="M178 67h98q35 0 55 5t37 19q20 16 31.5 42t11.5 59q0 37 -15 65t-42 43q-29 16 -82 16h-94v-249zM178 383h72q18 0 30.5 0.5t22 2.5t17 5.5t15.5 9.5q49 34 49 112q0 58 -25.5 82t-87.5 24h-93v-236zM273 686q53 0 83 -6t53 -21q30 -20 47 -56t17 -81q0 -57 -25 -98.5 t-73 -64.5q27 -8 42.5 -15t29.5 -20q25 -23 39 -58t14 -77q0 -63 -30.5 -110t-84.5 -66q-23 -8 -50 -10.5t-80 -2.5h-145q-9 0 -11.5 2.5t-2.5 11.5v658q0 9 2.5 11.5t11.5 2.5h163z" />
<glyph unicode="C" horiz-adv-x="463" d="M405 578q-2 -4 -8 -4q-3 0 -7.5 3t-26.5 21q-47 35 -91 35q-69 0 -100 -65t-31 -209q0 -152 35.5 -229t105.5 -77q51 0 112 53q6 6 11 6q4 0 8 -7l25 -33q3 -3 3 -8q0 -11 -28 -32q-29 -23 -63.5 -34.5t-71.5 -11.5q-111 0 -168.5 92.5t-57.5 271.5q0 89 14 153.5 t43 111.5q26 40 68.5 62.5t93.5 22.5q40 0 79 -14.5t70 -41.5q10 -8 13 -11.5t3 -8.5q0 -4 -2 -8z" />
<glyph unicode="D" horiz-adv-x="556" d="M229 71q29 0 50.5 3t38 10t29 18.5t24.5 29.5q23 33 33.5 87.5t10.5 135.5q0 100 -20.5 158.5t-64.5 81.5q-20 11 -46 15.5t-65 4.5h-41v-544h51zM96 672q0 9 2.5 11.5t11.5 2.5h104q33 0 59 -2t47 -7t38.5 -12.5t33.5 -18.5q54 -37 82.5 -111.5t28.5 -179.5 q0 -355 -280 -355h-113q-9 0 -11.5 2.5t-2.5 11.5v658z" />
<glyph unicode="E" horiz-adv-x="463" d="M178 390h196q9 0 11.5 -2.5t2.5 -11.5v-39q0 -9 -2.5 -11.5t-11.5 -2.5h-196v-252h239q9 0 11.5 -2.5t2.5 -11.5v-43q0 -9 -2.5 -11.5t-11.5 -2.5h-307q-10 0 -12 2t-2 12v658q0 9 2.5 11.5t11.5 2.5h308q14 0 14 -7v-3t-2 -6l-15 -44q-5 -11 -15 -11h-222v-225z" />
<glyph unicode="F" horiz-adv-x="426" d="M178 383h196q9 0 11.5 -2.5t2.5 -11.5v-39q0 -9 -2.5 -11.5t-11.5 -2.5h-196v-302q0 -9 -2.5 -11.5t-11.5 -2.5h-54q-9 0 -11.5 2.5t-2.5 11.5v658q0 9 2.5 11.5t11.5 2.5h308q14 0 14 -7q0 -3 -1 -5l-1 -4l-15 -44q-5 -11 -15 -11h-222v-232z" />
<glyph unicode="G" horiz-adv-x="537" d="M386 278h-78q-9 0 -11.5 2.5t-2.5 11.5v41q0 9 2.5 11.5t11.5 2.5h146q9 0 11.5 -2.5t2.5 -11.5v-292q0 -6 -1.5 -9t-7.5 -6q-29 -18 -74.5 -29t-91.5 -11q-118 0 -179.5 90t-61.5 264q0 177 62 268.5t182 91.5q38 0 75 -10.5t69 -30.5q20 -13 20 -20q0 -4 -3 -8l-21 -43 q-2 -4 -6 -4q-3 0 -7 2t-24 16q-48 31 -103 31q-81 0 -118 -67.5t-37 -214.5q0 -79 9.5 -135.5t29.5 -92.5t51.5 -53t75.5 -17q21 0 39.5 4t39.5 15v206z" />
<glyph unicode="H" horiz-adv-x="611" d="M434 391v281q0 9 2.5 11.5t11.5 2.5h54q9 0 11.5 -2.5t2.5 -11.5v-658q0 -9 -2.5 -11.5t-11.5 -2.5h-54q-9 0 -11.5 2.5t-2.5 11.5v308h-256v-308q0 -9 -2.5 -11.5t-11.5 -2.5h-54q-9 0 -11.5 2.5t-2.5 11.5v658q0 9 2.5 11.5t11.5 2.5h54q9 0 11.5 -2.5t2.5 -11.5v-281 h256z" />
<glyph unicode="I" horiz-adv-x="333" d="M207 65h89q9 0 11.5 -2.5t2.5 -11.5v-37q0 -9 -2.5 -11.5t-11.5 -2.5h-259q-9 0 -11.5 2.5t-2.5 11.5v37q0 9 2.5 11.5t11.5 2.5h88v556h-88q-9 0 -11.5 2.5t-2.5 11.5v37q0 9 2.5 11.5t11.5 2.5h259q9 0 11.5 -2.5t2.5 -11.5v-37q0 -9 -2.5 -11.5t-11.5 -2.5h-89v-556z " />
<glyph unicode="J" horiz-adv-x="444" d="M104 617q-9 0 -11.5 2.5t-2.5 11.5v41q0 9 2.5 11.5t11.5 2.5h241q9 0 11.5 -2.5t2.5 -11.5v-460q0 -37 -1 -61t-3.5 -40.5t-8 -28.5t-14.5 -25q-23 -35 -61.5 -53t-89.5 -18q-84 0 -127.5 48.5t-43.5 142.5q0 13 1.5 16.5t7.5 3.5h59q8 0 8 -10v-12q0 -60 24.5 -91 t71.5 -31q32 0 54.5 14t32.5 40q3 7 4.5 13t2 16.5t1 27t0.5 43.5v410h-173z" />
<glyph unicode="K" horiz-adv-x="518" d="M435 687q5 5 6 6.5t4 1.5q2 0 3 -0.5t6 -4.5l37 -25q5 -4 6.5 -6t1.5 -4q0 -3 -5 -10l-235 -304l240 -295q5 -5 5 -9t-7 -10l-46 -32q-5 -3 -6 -3.5t-3 -0.5q-4 0 -10 7l-254 327v-311q0 -9 -2.5 -11.5t-11.5 -2.5h-54q-9 0 -11.5 2.5t-2.5 11.5v658q0 9 2.5 11.5 t11.5 2.5h54q9 0 11.5 -2.5t2.5 -11.5v-325z" />
<glyph unicode="L" horiz-adv-x="445" d="M431 71q14 0 14 -7q0 -1 -2 -9l-16 -44q-5 -11 -15 -11h-302q-9 0 -11.5 2.5t-2.5 11.5v658q0 9 2.5 11.5t11.5 2.5h54q9 0 11.5 -2.5t2.5 -11.5v-601h253z" />
<glyph unicode="M" horiz-adv-x="667" d="M318 330q5 -14 8.5 -31.5t5.5 -30.5q3 19 5 30t8 32l119 345q3 8 5 9.5t10 1.5h63q8 0 10.5 -2.5t2.5 -10.5l38 -659v-2v-2q0 -10 -13 -10h-58q-9 0 -11 2.5t-3 10.5l-15 508v5q0 8 0.5 22.5t2.5 28.5l1 20q-4 -26 -9.5 -49.5t-11.5 -38.5l-117 -338q-2 -8 -4.5 -9.5 t-10.5 -1.5h-29q-11 0 -15 11l-113 338q-7 21 -11.5 42t-7.5 46v-19l1 -18l1 -20v-16v-3l-15 -508q0 -8 -2.5 -10.5t-10.5 -2.5h-54q-14 0 -14 10v4l38 659q0 8 2.5 10.5t11.5 2.5h59q8 0 10.5 -1.5t4.5 -9.5z" />
<glyph unicode="N" horiz-adv-x="574" d="M397 210q8 -19 15 -38.5t13 -45.5q-4 28 -5.5 47.5t-1.5 39.5v459q0 9 2.5 11.5t11.5 2.5h45q9 0 11.5 -2.5t2.5 -11.5v-658q0 -9 -2.5 -11.5t-11.5 -2.5h-54q-11 0 -15 10l-229 495q-10 21 -16 40.5t-14 53.5q3 -20 5 -33.5t3 -24t1.5 -19.5t0.5 -21v-487 q0 -9 -2.5 -11.5t-11.5 -2.5h-45q-9 0 -11.5 2.5t-2.5 11.5v658q0 9 2.5 11.5t11.5 2.5h63q11 0 15 -10z" />
<glyph unicode="O" horiz-adv-x="556" d="M278 633q-34 0 -61.5 -17t-41.5 -46q-34 -74 -34 -225q0 -76 9.5 -135.5t29.5 -98.5q28 -58 97 -58q35 0 62 16.5t41 46.5q17 36 25.5 91.5t8.5 129.5q0 162 -38 238q-30 58 -98 58zM286 700q107 0 162 -90t55 -266q0 -177 -58.5 -267.5t-172.5 -90.5q-109 0 -164.5 89 t-55.5 264q0 361 234 361z" />
<glyph unicode="P" horiz-adv-x="482" d="M244 362q38 0 57.5 4.5t36.5 18.5q44 36 44 116q0 85 -56 108q-13 5 -26.5 6.5t-43.5 1.5h-78v-255h66zM178 14q0 -9 -2.5 -11.5t-11.5 -2.5h-54q-9 0 -11.5 2.5t-2.5 11.5v658q0 9 2.5 11.5t11.5 2.5h153q48 0 78 -5.5t50 -17.5q37 -22 56 -63t19 -98q0 -66 -26 -115 t-74 -75q-24 -12 -50 -17t-66 -5h-72v-276z" />
<glyph unicode="Q" horiz-adv-x="556" d="M278 633q-34 0 -61.5 -17t-41.5 -46q-34 -74 -34 -225q0 -76 9.5 -135.5t28.5 -98.5q28 -58 97 -58q35 0 62.5 16.5t41.5 46.5q17 36 25.5 92.5t8.5 128.5q0 79 -9.5 139.5t-28.5 98.5q-30 58 -98 58zM490 -67q-1 -1 -4 -2t-5 -1q-6 0 -17.5 7t-25.5 18.5t-30 26 t-31 30.5q-27 -14 -51 -20t-54 -6q-109 0 -164.5 89t-55.5 266t58.5 268t172.5 91q109 0 164.5 -89.5t55.5 -267.5q0 -94 -16.5 -161t-51.5 -118q29 -30 107 -79q5 -4 5 -8q0 -5 -4 -8z" />
<glyph unicode="R" horiz-adv-x="519" d="M255 374q30 0 48 5t34 18q43 36 43 112q0 77 -49 101q-13 7 -28 9t-45 2h-80v-247h77zM501 20q4 -7 4 -11t-12 -7l-61 -12h-5q-7 0 -11 8l-162 313h-76v-297q0 -9 -2.5 -11.5t-11.5 -2.5h-54q-9 0 -11.5 2.5t-2.5 11.5v658q0 9 2.5 11.5t11.5 2.5h153q48 0 76 -5t50 -16 q36 -19 55.5 -58t19.5 -92q0 -73 -33.5 -124.5t-96.5 -72.5z" />
<glyph unicode="S" horiz-adv-x="482" d="M60 102q2 5 7 5q2 0 4.5 -1t12.5 -6q37 -20 75 -31t70 -11q56 0 89 31t33 82q0 23 -5.5 41t-20 35t-38.5 34.5t-61 38.5q-32 18 -52 30t-33.5 21.5t-22.5 18t-18 18.5q-20 23 -30 51.5t-10 59.5q0 40 14.5 73t40.5 57t62 37.5t80 13.5q25 0 54.5 -5.5t54.5 -13.5 t41.5 -17.5t16.5 -17.5v-2.5t-2 -5.5l-18 -45q-3 -6 -8 -6q-1 0 -2.5 0.5t-5.5 2t-12 5.5t-23 12q-21 10 -47 16t-50 6q-52 0 -81 -26t-29 -73q0 -53 40 -85q8 -6 14 -10t17.5 -11t31.5 -19.5t57 -34.5q22 -13 37.5 -23t26.5 -19t19 -18t16 -20q17 -23 25 -50.5t8 -57.5 q0 -44 -15 -80t-43 -62t-66.5 -40t-85.5 -14q-28 0 -61 6t-61.5 15t-47.5 19.5t-19 19.5q0 4 2 8z" />
<glyph unicode="T" horiz-adv-x="407" d="M246 14q0 -9 -2.5 -11.5t-11.5 -2.5h-54q-9 0 -11.5 2.5t-2.5 11.5v602h-146q-9 0 -11.5 2.5t-2.5 11.5v42q0 9 2.5 11.5t11.5 2.5h390q14 0 14 -7q0 -4 -1 -6l-1 -3l-15 -43q-3 -11 -15 -11h-144v-602z" />
<glyph unicode="U" horiz-adv-x="592" d="M152 686q9 0 11.5 -2.5t2.5 -11.5v-485q0 -73 29 -103.5t98 -30.5q70 0 103 32.5t33 101.5v485q0 9 2.5 11.5t11.5 2.5h51q9 0 11.5 -2.5t2.5 -11.5v-488q0 -49 -12 -82t-38 -59q-31 -30 -70.5 -43.5t-98.5 -13.5q-205 0 -205 198v488q0 9 2.5 11.5t11.5 2.5h54z" />
<glyph unicode="V" horiz-adv-x="482" d="M240 75q4 22 8 42.5t7 34.5l131 531q3 11 9 11h4t4 -1l54 -13q11 -3 11 -8l-1 -9l-177 -652q-2 -7 -4.5 -9t-10.5 -2h-70q-8 0 -10.5 1.5t-4.5 9.5l-174 652q-2 5 -2 5.5v2.5q0 5 12 9l56 13l3 1q2 1 5 1q5 0 8 -12l127 -529q4 -17 6 -28t5 -28z" />
<glyph unicode="W" horiz-adv-x="685" d="M188 187q2 -13 3.5 -25t2.5 -26t1.5 -31.5t1.5 -42.5q2 23 3.5 40t2.5 30.5t2.5 25.5t3.5 26l97 490q2 8 4.5 10t10.5 2h53q9 0 11 -2t4 -10l82 -494q2 -17 3.5 -29t2.5 -24t2 -28t3 -41q2 42 3.5 67.5t5.5 54.5l92 501q3 12 9 12q3 0 7 -1l52 -11q12 -3 12 -9 q0 -3 -1 -4v-4l-138 -652q-2 -8 -4.5 -10t-10.5 -2h-66q-8 0 -10.5 2t-3.5 10l-86 553l-104 -553q-2 -8 -4.5 -10t-10.5 -2h-61q-8 0 -10.5 2t-4.5 10l-125 654q-1 5 -1 5.5v2.5q0 5 12 8l52 10q5 1 5.5 1h2.5q4 0 5.5 -2t2.5 -10z" />
<glyph unicode="X" horiz-adv-x="482" d="M30 656q-3 6 -3 10q0 5 10 8l50 18q5 2 5.5 2h2.5q3 0 4.5 -1.5t5.5 -7.5l113 -208q3 -7 5.5 -11.5t4.5 -9.5t5.5 -12t8.5 -19q5 14 11 26.5t15 30.5l108 202q6 9 10 9q2 0 3.5 -0.5l4.5 -1.5l49 -20q10 -5 10 -9q0 -3 -4 -10l-164 -292l183 -331q4 -7 4 -10q0 -5 -11 -8 l-54 -17l-3 -1q-2 -1 -5 -1q-5 0 -9 9l-129 243q-7 14 -12 26t-8 22q-6 -14 -11 -25.5t-10 -21.5l-129 -244q-3 -6 -4.5 -7.5t-4.5 -1.5h-2.5t-5.5 2l-51 16q-11 4 -11 9q0 3 4 10l178 329z" />
<glyph unicode="Y" horiz-adv-x="426" d="M191 424q10 -21 14.5 -32t12.5 -30q6 16 12 30t15 33l122 259q4 9 10 9q4 0 8 -1l54 -15q11 -3 11 -8q0 -2 -0.5 -5t-2.5 -5l-190 -368v-277q0 -9 -2.5 -11.5t-11.5 -2.5h-54q-9 0 -11.5 2.5t-2.5 11.5v275l-196 369q-1 2 -2 5t-1 5q0 5 11 8l60 16l4 1q2 1 4 1 q5 0 10 -10z" />
<glyph unicode="Z" horiz-adv-x="444" d="M320 617h-264q-14 0 -14 8q0 2 1 4l1 3l10 42q3 12 15 12h333q9 0 11.5 -2.5t2.5 -11.5v-48l-296 -553h293q9 0 11.5 -2.5t2.5 -11.5v-43q0 -9 -2.5 -11.5t-11.5 -2.5h-373q-9 0 -11.5 2.5t-2.5 11.5v52z" />
<glyph unicode="[" horiz-adv-x="370" d="M193 -143h109q9 0 11.5 -2.5t2.5 -11.5v-34q0 -9 -2.5 -11.5t-11.5 -2.5h-172q-9 0 -11.5 2.5t-2.5 11.5v892q0 9 2.5 11.5t11.5 2.5h172q9 0 11.5 -2.5t2.5 -11.5v-34q0 -9 -2.5 -11.5t-11.5 -2.5h-109v-796z" />
<glyph unicode="\" horiz-adv-x="444" d="M71 728q12 0 16 -10l387 -931q2 -5 2.5 -6t0.5 -3q0 -7 -14 -7h-38q-12 0 -17 9l-387 931q-3 7 -3 10q0 7 13 7h40z" />
<glyph unicode="]" horiz-adv-x="370" d="M177 653h-110q-8 0 -10.5 2.5t-2.5 11.5v34q0 10 2 12t11 2h173q9 0 11.5 -2.5t2.5 -11.5v-892q0 -9 -2.5 -11.5t-11.5 -2.5h-172q-9 0 -11.5 2.5t-2.5 11.5v34q0 9 2 11.5t12 2.5h109v796z" />
<glyph unicode="^" horiz-adv-x="514" d="M32 385l179 303h93l178 -303h-77l-149 247l-147 -247h-77z" />
<glyph unicode="_" horiz-adv-x="514" d="M514 -73v-54h-514v54h514z" />
<glyph unicode="`" d="M132 698q5 8 10 8q3 0 10 -5l145 -111q5 -4 6.5 -5.5t1.5 -4.5q0 -2 -5 -9l-12 -17q-3 -5 -7 -5t-10 3l-163 85q-9 4 -9 10q0 2 0.5 3t3.5 6z" />
<glyph unicode="a" horiz-adv-x="463" d="M301 239q-187 -1 -187 -106q0 -35 20.5 -57.5t52.5 -22.5q50 0 114 57v129zM301 334q0 48 -21 68.5t-71 20.5q-29 0 -54.5 -6t-64.5 -23q-6 -2 -7 -2q-5 0 -7 5l-15 40l-1 8q0 5 5 8.5t22 10.5q60 27 133 27q80 0 118 -34t38 -106v-189q0 -26 1 -44t4 -32.5t8.5 -27 t13.5 -27.5q2 -4 2 -6q0 -3 -4 -5l-43 -27q-5 -3 -8 -3q-8 0 -19 19t-19 44q-34 -33 -67.5 -48t-75.5 -15q-61 0 -96.5 37t-35.5 100q0 170 264 174v33z" />
<glyph unicode="b" d="M160 93q45 -39 104 -39q54 0 79 49.5t25 157.5q0 88 -21 127t-68 39q-28 0 -53.5 -10.5t-65.5 -38.5v-285zM160 445q39 27 69 38t64 11q78 0 117 -56t39 -166q0 -146 -44.5 -216t-137.5 -70q-38 0 -67 11.5t-61 37.5q-8 -19 -17.5 -32t-14.5 -13q-4 0 -8 3l-43 27 q-3 3 -3 5t3 7q15 20 21.5 45t6.5 60v561q0 10 11 13l52 12q1 1 3.5 1h3.5q6 0 6 -11v-268z" />
<glyph unicode="c" horiz-adv-x="408" d="M375 385q-4 -7 -8 -7t-8 4q-18 13 -32 22t-25.5 14t-22 7t-23.5 2q-121 0 -121 -186q0 -187 111 -187q15 0 27.5 2t25.5 7.5t28.5 15t36.5 24.5q4 3 7 3q4 0 7 -6l15 -38q1 -2 2 -5.5t1 -4.5q0 -7 -16 -19q-31 -23 -67 -35t-73 -12q-90 0 -139.5 64t-49.5 179 q0 61 14 110.5t40 83.5t64 52.5t85 18.5q66 0 122 -39q22 -15 22 -25l-1 -6z" />
<glyph unicode="d" d="M340 395q-32 18 -54 25t-48 7q-57 0 -81.5 -41.5t-24.5 -136.5q0 -104 21.5 -149.5t71.5 -45.5q29 0 55.5 13.5t59.5 44.5v283zM398 -7q-3 -3 -8 -3q-7 0 -17 18t-16 42q-24 -18 -44 -30.5t-37 -20t-33.5 -10.5t-34.5 -3q-74 0 -115.5 68.5t-41.5 190.5q0 116 47.5 182.5 t131.5 66.5q28 0 53 -7.5t57 -24.5v236q0 10 10 13l52 12q2 1 6 1q7 0 7 -11v-555q0 -23 1 -40t4 -30.5t7.5 -24.5t12.5 -23q6 -10 7 -12t1 -4q0 -4 -5 -6z" />
<glyph unicode="e" horiz-adv-x="463" d="M350 285q-2 72 -29 110t-78 38q-103 0 -109 -148h216zM133 223q4 -82 37.5 -125.5t94.5 -43.5q27 0 55 8.5t61 27.5q4 3 10 3q4 0 7 -5l18 -39q2 -5 2 -7q0 -6 -8 -12t-28 -16q-61 -28 -123 -28q-48 0 -86.5 17.5t-65.5 50.5t-41.5 80t-14.5 105t14 105.5t39.5 80.5 t62 51t81.5 18q61 0 104.5 -31.5t63.5 -88.5q8 -24 11.5 -54.5t3.5 -78.5q0 -11 -2 -14.5t-9 -3.5h-287z" />
<glyph unicode="f" horiz-adv-x="296" d="M94 558q0 47 5.5 71.5t20.5 44.5q38 50 112 50q18 0 37 -3.5t35.5 -8.5t27 -11t10.5 -12q0 -2 -2 -6l-17 -41q-2 -6 -7 -6q-4 0 -10 3q-20 10 -40 15.5t-37 5.5q-32 0 -46 -20q-8 -11 -11 -27.5t-3 -55.5v-77h144q11 0 11 -7q0 -4 -1 -6l-13 -40q-3 -9 -13 -9h-128v-406 q0 -8 -2 -10t-9 -2h-53q-7 0 -9 2t-2 10v406h-66q-8 0 -10 2t-2 9v39q0 8 2 10t10 2h66v78z" />
<glyph unicode="g" d="M341 400q-30 15 -51 21.5t-43 6.5q-56 0 -85 -44.5t-29 -129.5q0 -92 20.5 -132.5t68.5 -40.5q28 0 54.5 11t64.5 38v270zM346 68q-67 -55 -139 -55t-113.5 59.5t-41.5 162.5q0 125 49 192t140 67q34 0 61 -9.5t60 -32.5q8 21 15.5 33.5t12.5 12.5q4 0 8 -2l46 -28 q3 -2 3 -6q0 -3 -6 -13q-14 -21 -19.5 -45t-5.5 -56v-154v-43.5t0.5 -32.5t1.5 -37t3 -58q1 -17 1.5 -31t0.5 -26q0 -88 -45 -132.5t-133 -44.5q-38 0 -77.5 10t-72.5 27q-12 7 -15 9.5t-3 7.5q0 1 2 7l18 40q1 6 6 6q3 0 8 -3q32 -17 67.5 -27t63.5 -10q30 0 54.5 9.5 t36.5 26.5q8 12 11.5 28t3.5 45v25.5t-1 25.5l-1 41v11z" />
<glyph unicode="h" horiz-adv-x="519" d="M160 428q40 37 75 51.5t80 14.5q67 0 96 -39q7 -9 12 -19t8 -23t4 -29.5t1 -40.5v-331q0 -8 -2 -10t-9 -2h-53q-7 0 -9 2t-2 10v333q0 48 -15 66t-54 18q-30 0 -60 -14t-72 -49v-354q0 -8 -2 -10t-9 -2h-53q-7 0 -9 2t-2 10v686q0 10 10 13l52 12q1 1 3.5 1h3.5 q6 0 6 -11v-285z" />
<glyph unicode="i" horiz-adv-x="259" d="M20 418q-8 0 -10 2t-2 9v39q0 8 2 10t10 2h144q7 0 9 -2t2 -10v-456q0 -8 -2 -10t-9 -2h-53q-7 0 -9 2t-2 10v406h-80zM131 718q24 0 41.5 -17.5t17.5 -42.5q0 -26 -17.5 -43.5t-42.5 -17.5q-26 0 -43.5 17.5t-17.5 43.5q0 25 18 42.5t44 17.5z" />
<glyph unicode="j" horiz-adv-x="259" d="M19 418q-8 0 -9.5 1.5t-1.5 9.5v39q0 8 1.5 10t9.5 2h144q7 0 9 -2t2 -10v-521q0 -44 -7 -69.5t-26 -45.5q-39 -44 -111 -44q-18 0 -39.5 4t-40 9.5t-31 12.5t-12.5 13q0 3 2 8l19 40q2 6 8 6q1 0 7 -2q22 -11 46 -17.5t44 -6.5q21 0 36.5 8.5t21.5 24.5q8 21 8 76v454 h-80zM131 718q24 0 41.5 -18t17.5 -42q0 -26 -17.5 -43.5t-42.5 -17.5q-26 0 -43.5 17.5t-17.5 43.5q0 25 18 42.5t44 17.5z" />
<glyph unicode="k" horiz-adv-x="444" d="M361 486q4 6 10 6q2 0 3.5 -0.5t5.5 -3.5l38 -25q5 -5 5 -9t-5 -9l-171 -186l179 -215q3 -3 3 -8q0 -3 -5 -8l-41 -31q-4 -3 -5 -3.5t-3 -0.5t-6 4l-209 250v-235q0 -8 -2 -10t-9 -2h-53q-7 0 -9 2t-2 10v686q0 10 10 13l52 12l7 1q6 0 6 -11v-453z" />
<glyph unicode="l" horiz-adv-x="259" d="M156 182q0 -36 0.5 -59.5t1.5 -32.5q6 -38 41 -38q21 0 45 12q6 2 8 2q3 0 7 -7l12 -37q2 -5 2 -5.5v-2.5q0 -4 -8 -8t-20.5 -7.5t-27.5 -6t-29 -2.5q-41 0 -68 19t-34 51q-2 8 -3 14t-1.5 17.5t-0.5 32.5v59v516q0 10 11 12l51 12q1 1 3.5 1h3.5q6 0 6 -11v-531z" />
<glyph unicode="m" horiz-adv-x="722" d="M112 489q4 3 9 3q6 0 14.5 -16t14.5 -41q41 32 73 45.5t67 13.5q70 0 95 -59q45 32 78 45.5t68 13.5q31 0 55 -12t36 -32q10 -17 14 -39t4 -58v-341q0 -8 -2 -10t-10 -2h-51q-8 0 -10 2t-2 10v344q0 73 -64 73q-25 0 -46 -8.5t-56 -31.5v-377q0 -8 -2 -10t-9 -2h-52 q-7 0 -9 2t-2 10v343q0 74 -64 74q-25 0 -47 -9.5t-53 -33.5v-374q0 -8 -2 -10t-10 -2h-51q-8 0 -10 2t-2 10v359q0 14 -0.5 24t-2.5 19t-5.5 18.5t-9.5 22.5q-1 1 -1 5t5 6z" />
<glyph unicode="n" horiz-adv-x="519" d="M117 489q6 3 8 3q8 0 17 -18.5t14 -47.5q46 37 82.5 52.5t78.5 15.5q35 0 61.5 -12.5t40.5 -35.5q5 -9 8.5 -18t5.5 -20t2.5 -26.5t0.5 -36.5v-333q0 -8 -2 -10t-9 -2h-53q-7 0 -9 2t-2 10v334q0 45 -15.5 64t-50.5 19t-64.5 -14t-67.5 -49v-354q0 -8 -2 -10t-9 -2h-53 q-7 0 -9 2t-2 10v343q0 17 -1 29.5t-3 23t-5.5 21t-9.5 22.5q-2 4 -2 6q0 4 5 6z" />
<glyph unicode="o" d="M249 431q-57 0 -87 -46.5t-30 -136.5q0 -48 8.5 -89t22.5 -66q13 -20 36.5 -32t51.5 -12q27 0 50 11t35 31q15 24 23.5 64.5t8.5 88.5q0 187 -119 187zM256 494q91 0 142 -66.5t51 -184.5q0 -122 -54 -189.5t-151 -67.5q-92 0 -142.5 66t-50.5 186q0 122 54 189t151 67z " />
<glyph unicode="p" d="M165 96q35 -24 59 -33t50 -9q51 0 72.5 44.5t21.5 149.5q0 45 -3.5 75t-11.5 52q-9 24 -28.5 38t-43.5 14q-26 0 -50.5 -10.5t-65.5 -38.5v-282zM106 493q3 3 8 3q6 0 17.5 -18.5t19.5 -41.5q42 32 74 45t70 13q86 0 121 -69q16 -33 24.5 -77.5t8.5 -97.5 q0 -124 -44 -194t-122 -70q-31 0 -57.5 10t-60.5 34v-214q0 -10 -9 -13l-53 -14q-3 -1 -6 -1q-7 0 -7 11v543q0 37 -4 57t-16 40q-7 10 -8.5 13.5t-1.5 5.5q0 3 3 5z" />
<glyph unicode="q" d="M336 389q-31 20 -55.5 29t-49.5 9q-99 0 -99 -185q0 -104 27 -150q10 -17 28.5 -27.5t36.5 -10.5q26 0 52 13.5t60 43.5v278zM336 45q-33 -31 -64.5 -45t-67.5 -14q-35 0 -63.5 17t-48.5 49.5t-30.5 78t-10.5 102.5q0 124 46 192.5t128 68.5q37 0 65.5 -10.5t66.5 -37.5 q7 21 16 35.5t15 14.5q1 0 5 -2l42 -25q5 -3 5 -8q0 -2 -0.5 -4t-5.5 -11q-11 -26 -16.5 -49t-5.5 -50v-530q0 -13 -9 -16l-54 -16q-3 -1 -6 -1q-7 0 -7 11v250z" />
<glyph unicode="r" horiz-adv-x="333" d="M113 491q4 3 8 3t10 -7t11 -19t9.5 -27t7.5 -30q24 27 40 43t29.5 25t26 12t28.5 3q17 0 33.5 -5.5t16.5 -10.5q0 -3 -2 -7l-24 -56q-2 -3 -5 -3q-1 0 -3 0.5t-14 4.5q-10 2 -17 2q-10 0 -19.5 -3.5t-20.5 -12.5t-25.5 -23.5t-33.5 -36.5v-331q0 -8 -2 -10t-9 -2h-53 q-7 0 -9 2t-2 10v300q0 30 -1 49t-3.5 33.5t-7 26t-12.5 25.5q-4 7 -4 10q0 6 5 9z" />
<glyph unicode="s" horiz-adv-x="389" d="M55 82q2 4 6 4q2 0 8 -2q33 -17 64.5 -25.5t57.5 -8.5q36 0 58 20t22 52q0 26 -14.5 42.5t-49.5 33.5q-25 12 -42.5 20t-30 15t-21.5 13t-18 14q-46 37 -46 95q0 30 11 55.5t31.5 44t48.5 29t61 10.5q19 0 42 -4t42 -10.5t32 -14t13 -13.5q0 -2 -2 -7l-18 -37 q-4 -6 -9 -6q-2 0 -3.5 0.5l-4.5 1.5q-55 26 -94 26q-36 0 -56 -17.5t-20 -49.5q0 -31 20 -49q5 -5 9.5 -8.5t14 -8.5t28.5 -14.5t53 -25.5q55 -27 77.5 -55.5t22.5 -73.5q0 -32 -11.5 -58t-32.5 -45t-50 -29t-65 -10q-38 0 -77.5 10.5t-70.5 28.5q-6 4 -6 9q0 2 1 4z" />
<glyph unicode="t" horiz-adv-x="333" d="M91 617q0 10 10 13l52 14q5 2 6 2q5 0 6 -2t1 -10v-154h150q9 0 9 -7q0 -2 -1 -6l-11 -39q-3 -10 -14 -10h-133v-282q0 -30 1.5 -41t8.5 -20q15 -20 50 -20q19 0 38 5.5t52 19.5q4 2 7 2q5 0 7 -6l11 -41q2 -4 2 -5q0 -6 -13 -13t-32.5 -13t-42.5 -10t-42 -4 q-38 0 -66.5 15t-42.5 41q-8 15 -10.5 33t-2.5 57v282h-71q-8 0 -10 1.5t-2 9.5v39q0 8 2 10t10 2h71v137z" />
<glyph unicode="u" d="M346 465q0 10 10 13l53 14q4 1 6 1q7 0 7 -11v-349q0 -39 5.5 -60t20.5 -43q3 -5 3 -7q0 -1 -4 -5l-45 -29q-5 -3 -7 -3q-6 0 -16.5 18t-18.5 42q-43 -33 -76.5 -46.5t-73.5 -13.5q-67 0 -102 34t-35 100v345q0 10 10 13l52 14q4 1 6 1q7 0 7 -11v-312q0 -66 15.5 -91 t56.5 -25q31 0 64 13.5t62 37.5v360z" />
<glyph unicode="v" horiz-adv-x="426" d="M210 91q3 10 5 17.5t4 14t4.5 13.5t5.5 17l119 329q3 9 8 9q1 0 6 -1l52 -14q9 -3 9 -8q0 -3 -2 -7l-182 -459q-2 -6 -4 -7.5t-9 -1.5h-38q-7 0 -9 1.5t-4 7.5l-169 461q-2 4 -2 6q0 7 10 8l56 12l3 1h3q5 0 8 -9l107 -327q2 -5 3.5 -10.5t3.5 -10.5l7 -24z" />
<glyph unicode="w" horiz-adv-x="611" d="M169 133q2 -6 2.5 -12t4.5 -27q1 6 2 10.5t2.5 9.5t3.5 13t5 22l95 324q2 6 3.5 7.5t8.5 1.5h40q8 0 9 -1t3 -8l82 -337l3 -12l2 -16l2 -11l3 14l5 25l85 344q3 9 8 9q0 -1 1 -1h2h3l46 -11q10 -3 10 -8q0 -3 -1 -4l-1 -3l-132 -459q-2 -8 -3.5 -9t-8.5 -1h-39 q-6 0 -8 1.5t-4 8.5l-79 303q-2 8 -4 18.5t-4 24.5l-2 15l-3 21q-4 -40 -15 -78l-94 -305q-2 -6 -4 -7.5t-9 -1.5h-37q-7 0 -8.5 1.5t-3.5 8.5l-115 459q-1 4 -1 6q0 7 9 8l51 13q4 1 6 1q5 0 8 -10l68 -331z" />
<glyph unicode="x" horiz-adv-x="445" d="M38 455q-3 3 -3 7q0 6 8 9l52 19q1 1 6 1q4 0 9 -6l87 -135q6 -10 10.5 -16.5t7.5 -11.5q2 -3 3.5 -5.5l7.5 -12.5q6 9 9 14.5t6 10t6.5 9.5t8.5 13l91 133q4 6 10 6q2 0 6 -2l49 -20q8 -3 8 -7q0 -5 -4 -9l-148 -198l157 -229q3 -4 3.5 -5t0.5 -3q0 -4 -9 -7l-53 -20 q-5 -2 -7 -2q-3 0 -8 7l-102 156q-2 3 -4.5 6.5t-4.5 7.5l-10 16l-6 10q-4 -7 -6 -11t-4.5 -7.5t-5.5 -8t-8 -11.5l-110 -158q-3 -6 -8 -6l-7 1l-52 22q-8 3 -8 8q0 3 4 7l164 218z" />
<glyph unicode="y" horiz-adv-x="426" d="M210 101q3 -10 5 -16.5l4 -13t4.5 -16.5l6.5 -26q5 21 8.5 37t8.5 33l98 382q4 8 10 8q1 0 5 -1l52 -19q9 -3 9 -8q0 -2 -1 -6l-114 -393q-8 -28 -17 -56.5t-18 -54.5t-17 -47t-14 -34q-39 -82 -121 -82q-18 0 -40 5t-41 13t-32 16.5t-13 16.5q0 4 2 6l20 40q2 5 7 5 q2 0 7 -3q25 -17 47.5 -26.5t40.5 -9.5q50 0 77 86l21 63h-40q-6 0 -8 1.5t-4 7.5l-157 444q-2 4 -2 7q0 5 9 8l54 19l8 1q4 0 7 -9z" />
<glyph unicode="z" horiz-adv-x="407" d="M285 417h-221q-8 0 -9.5 1.5t-1.5 9.5v41q0 8 1.5 9.5t9.5 1.5h304q11 0 11 -11v-42l-249 -362h249q11 0 11 -6q0 -3 -2 -8l-19 -42q-3 -9 -13 -9h-312q-8 0 -10 2t-2 10v40z" />
<glyph unicode="{" horiz-adv-x="426" d="M261 386q0 -48 -15 -74.5t-54 -46.5q39 -20 54 -46.5t15 -74.5v-198q0 -48 20 -68.5t67 -20.5h23q9 0 11.5 -2.5t2.5 -11.5v-34q0 -9 -2.5 -11.5t-11.5 -2.5h-19q-88 0 -127.5 36.5t-39.5 115.5v198q0 48 -20 68.5t-68 20.5h-20q-9 0 -11.5 2.5t-2.5 11.5v34 q0 9 2.5 11.5t11.5 2.5h19q48 0 68.5 20.5t20.5 68.5v178q0 79 39.5 115.5t127.5 36.5h19q9 0 11.5 -2.5t2.5 -11.5v-34q0 -9 -2.5 -11.5t-11.5 -2.5h-17q-51 0 -72 -19.5t-21 -69.5v-178z" />
<glyph unicode="|" horiz-adv-x="514" d="M298 686v-857h-82v857h82z" />
<glyph unicode="}" horiz-adv-x="426" d="M165 124q0 48 15 74.5t54 46.5q-40 21 -54.5 47t-14.5 74v198q0 48 -20 68.5t-67 20.5h-23q-9 0 -11.5 2.5t-2.5 11.5v34q0 9 2.5 11.5t11.5 2.5h19q88 0 127.5 -36t39.5 -116v-198q0 -48 20 -68.5t68 -20.5h20q9 0 11.5 -2.5t2.5 -11.5v-34q0 -9 -2.5 -11.5t-11.5 -2.5 h-20q-48 0 -68 -20.5t-20 -68.5v-178q0 -79 -39.5 -115.5t-127.5 -36.5h-19q-9 0 -11.5 2.5t-2.5 11.5v34q0 9 2.5 11.5t11.5 2.5h17q51 0 72 19.5t21 69.5v178z" />
<glyph unicode="~" horiz-adv-x="686" d="M97 631q56 116 139 116q22 0 48 -9t70 -31q21 -11 36 -18t25.5 -10.5t19 -5t17.5 -1.5q27 0 49 17.5t45 59.5l44 -34q-29 -61 -62.5 -89t-76.5 -28q-11 0 -21 2t-23.5 6.5t-31 12.5t-42.5 20q-21 10 -35.5 17t-26 10.5t-20.5 5t-18 1.5q-27 0 -47.5 -17t-44.5 -59z" />
<glyph unicode="&#xa1;" horiz-adv-x="333" d="M130 -206q-14 0 -13 14l22 394q0 8 2.5 10.5t11.5 2.5h28q9 0 11.5 -2.5t2.5 -10.5l23 -394l1 -5q0 -9 -14 -9h-75zM168 494q28 0 48.5 -21t20.5 -50t-21 -49.5t-50 -20.5t-49.5 21t-20.5 50t21 49.5t51 20.5z" />
<glyph unicode="&#xa2;" d="M259 499q-51 -12 -75 -55.5t-24 -125.5q0 -87 24 -131.5t75 -53.5v366zM312 569q32 -4 52.5 -10t43.5 -19q14 -8 18 -11.5t4 -8.5q0 -4 -3 -8l-21 -38q-3 -6 -8 -6t-9 3q-24 14 -40.5 20.5t-36.5 9.5v-366q11 2 19.5 4t17.5 5.5t20 9t26 13.5q4 3 8 3t6 -6l17 -42 q2 -4 2 -7q0 -5 -10.5 -12t-27.5 -13.5t-37.5 -13t-40.5 -9.5v-59q0 -8 -2.5 -10.5t-11.5 -2.5h-25q-9 0 -11.5 2.5t-2.5 10.5v55q-85 7 -130.5 69.5t-45.5 173.5q0 114 46.5 183.5t129.5 78.5v53q0 9 2.5 11.5t11.5 2.5h25q9 0 11.5 -2.5t2.5 -11.5v-52z" />
<glyph unicode="&#xa3;" d="M118 373q-9 35 -12.5 56.5t-3.5 46.5q0 40 15 73.5t42.5 57t66 36.5t85.5 13q24 0 49.5 -4t47 -10.5t35.5 -14.5t14 -15q0 -4 -2 -8l-19 -38q-4 -6 -8 -6q-5 0 -11 3q-25 13 -55 20.5t-56 7.5q-59 0 -94 -30.5t-35 -81.5q0 -11 0.5 -20t2 -20t4.5 -26.5t8 -39.5h134 q9 0 11.5 -2.5t2.5 -11.5v-37q0 -9 -2.5 -11.5t-11.5 -2.5h-119q6 -24 9.5 -41t5.5 -30.5t2.5 -26t0.5 -27.5q0 -29 -3 -53t-12 -63h270q14 0 14 -9q0 -2 -0.5 -2.5t-2.5 -5.5l-15 -40q-3 -6 -5.5 -8t-10.5 -2h-411q-9 0 -11.5 2.5t-2.5 11.5v38q0 9 2.5 11.5t11.5 2.5h85 q4 20 7 35.5t5 29t2.5 26.5t0.5 28q0 33 -3.5 59t-13.5 64h-90q-9 0 -11.5 2.5t-2.5 11.5v37q0 9 2.5 11.5t11.5 2.5h76z" />
<glyph unicode="&#xa4;" horiz-adv-x="529" d="M264 505q-72 0 -109.5 -40t-37.5 -116q0 -42 10.5 -77t28.5 -54q17 -18 46 -28t64 -10t62.5 9.5t44.5 26.5q18 18 29 53t11 77q0 78 -37.5 118.5t-111.5 40.5zM73 105q-5 -5 -6 -5.5t-4 -0.5t-9 6l-27 27q-6 6 -6 10t6 9l47 48q-38 61 -38 142q0 82 40 144l-49 50 q-6 5 -6 10q0 3 6 9l27 27q6 6 10 6q3 0 9 -6l50 -50q59 40 147 40q43 0 76 -8.5t64 -28.5l47 47q5 6 10 6q3 0 9 -6l27 -27q6 -6 6 -10q0 -3 -6 -9l-48 -48q39 -62 39 -141q0 -84 -41 -145l50 -50q5 -5 5.5 -6t0.5 -4t-6 -9l-27 -27q-6 -6 -10 -6q-3 0 -9 6l-50 50 q-60 -41 -149 -41q-43 0 -75.5 9t-62.5 29z" />
<glyph unicode="&#xa5;" d="M471 401q8 0 10 -2t2 -10v-21q0 -8 -2 -10t-10 -2h-148l-31 -64h179q8 0 10 -2t2 -10v-21q0 -8 -2 -10t-10 -2h-179v-235q0 -8 -2 -10t-9 -2h-56q-7 0 -9 2t-2 10v235h-185q-8 0 -10 2t-2 10v21q0 8 2 10t10 2h184l-31 64h-153q-8 0 -10 2t-2 10v21q0 8 2 10t10 2h131 l-125 260l-1 2q-2 4 -2 5q0 4 10 8l58 16l2 1q2 1 5 1q2 0 3.5 -1.5t3.5 -7.5l114 -261l7 -16q6 -12 10 -21t10 -26q8 20 13.5 33t13.5 31l110 260q3 8 7 8q5 0 7 -1l53 -16q9 -3 9 -7q0 -1 -0.5 -2t-2.5 -6l-121 -260h127z" />
<glyph unicode="&#xa6;" horiz-adv-x="514" d="M298 158v-329h-82v329h82zM298 686v-344h-82v344h82z" />
<glyph unicode="&#xa7;" d="M250 91q53 29 74.5 54.5t21.5 57.5q0 16 -5 29t-17 25.5t-31.5 25t-48.5 26.5q-46 -25 -67.5 -53t-21.5 -63q0 -47 42 -73q5 -3 9.5 -5.5t9.5 -5.5t13 -7t21 -11zM100 -104q3 7 9 7q5 0 9 -4q69 -45 124 -45q35 0 57 19.5t22 51.5q0 16 -4.5 28.5t-16.5 24t-33.5 24.5 t-55.5 30q-39 19 -64.5 36t-41 34t-21.5 36.5t-6 44.5q0 51 27 87t90 68q-50 23 -71.5 51t-21.5 67q0 29 12 53.5t33.5 42.5t50.5 28t64 10q20 0 42.5 -5t42 -12t32 -16t12.5 -16q0 -2 -0.5 -3l-3.5 -7l-18 -38q-4 -8 -8 -8q-3 0 -6.5 1.5t-19.5 12.5q-17 11 -38 17t-41 6 q-35 0 -56.5 -17t-21.5 -45q0 -30 28 -49q6 -5 11.5 -8t13.5 -7.5t21.5 -11.5t35.5 -19q41 -21 61.5 -34.5t36.5 -29.5q36 -36 36 -88q0 -47 -28 -83t-91 -71q28 -15 47 -29.5t30.5 -29.5t16.5 -31.5t5 -36.5q0 -30 -13 -56.5t-35.5 -46t-52.5 -30.5t-65 -11 q-21 0 -48.5 6.5t-52 15.5t-41 19.5t-16.5 18.5q0 2 0.5 4t3.5 8z" />
<glyph unicode="&#xa8;" d="M349 684q22 0 37.5 -15.5t15.5 -38.5q0 -22 -15.5 -37.5t-38.5 -15.5q-22 0 -37.5 15.5t-15.5 38.5q0 22 15.5 37.5t38.5 15.5zM152 684q22 0 37.5 -15.5t15.5 -38.5q0 -22 -15.5 -37.5t-37.5 -15.5q-23 0 -38.5 15.5t-15.5 38.5q0 22 15.5 37.5t38.5 15.5z" />
<glyph unicode="&#xa9;" horiz-adv-x="707" d="M438 475q-3 -5 -10 -5q-4 0 -7 1.5t-19 12.5q-28 19 -53 19q-40 0 -58 -35.5t-18 -115.5q0 -83 20.5 -126.5t60.5 -43.5q17 0 30 6t37 23q8 5 12 5q6 0 10 -7l16 -19q3 -3 3 -9q0 -8 -10.5 -17.5t-27 -17t-35.5 -12.5t-37 -5q-73 0 -111 55.5t-38 162.5q0 103 36.5 156 t108.5 53q17 0 36.5 -5t36 -12.5t27.5 -16t11 -16.5q0 -6 -3 -9zM351 649q-54 0 -102 -24t-84 -66t-57 -97.5t-21 -118.5t21 -119t57.5 -97.5t85 -65.5t103.5 -24t103.5 24t84.5 65.5t57 97t21 118.5q0 64 -21 120.5t-57.5 97.5t-85.5 65t-105 24zM358 699q64 0 121.5 -28.5 t100.5 -77t68 -113t25 -137.5q0 -74 -25 -138.5t-68.5 -113t-101.5 -76.5t-124 -28t-124.5 28t-102 76.5t-68.5 113t-25 137.5q0 75 25 140t69 113.5t103 76t127 27.5z" />
<glyph unicode="&#xaa;" horiz-adv-x="333" d="M200 417q-55 -2 -79.5 -16.5t-24.5 -43.5q0 -17 10 -28t27 -11q32 0 67 29v70zM200 474v1q4 44 -51 44q-17 0 -30 -3t-41 -14q-6 -2 -8 -2q-7 0 -9 7l-9 25q-2 4 -2 7q0 6 9.5 11.5t25 10.5t34.5 8t37 3q106 0 106 -88v-110q0 -15 0.5 -25t2 -17.5t5 -14.5t8.5 -16 q2 -4 2 -7q0 -5 -5 -8l-30 -15l-5 -2.5t-3 -0.5q-13 0 -26 33q-26 -19 -45 -26t-42 -7q-42 0 -66.5 23t-24.5 62q0 51 44 79.5t123 28.5v13z" />
<glyph unicode="&#xab;" horiz-adv-x="481" d="M246 49q4 -8 4 -10q0 -4 -9 -9l-28 -15q-6 -3 -9 -3t-9 7l-168 211q-4 5 -4 10q0 4 4 9l168 211q4 7 10 7q3 0 8 -3l28 -15q9 -5 9 -10q0 -2 -0.5 -3t-3.5 -6l-129 -190zM431 49q4 -5 4.5 -6.5t0.5 -3.5t-1.5 -3.5t-8.5 -5.5l-27 -15q-8 -3 -9 -3q-4 0 -10 7l-168 211 q-2 4 -3 5.5t-1 4.5q0 2 4 9l168 211q6 7 10 7q3 0 8 -3l28 -15q9 -5 9 -9q0 -3 -4 -10l-129 -190z" />
<glyph unicode="&#xac;" horiz-adv-x="514" d="M401 214h-367v72h446v-286h-79v214z" />
<glyph unicode="&#xad;" horiz-adv-x="352" d="M37 279q0 9 2.5 11.5t11.5 2.5h250q9 0 11.5 -2.5t2.5 -11.5v-47q0 -9 -2.5 -11.5t-11.5 -2.5h-250q-9 0 -11.5 2.5t-2.5 11.5v47z" />
<glyph unicode="&#xae;" horiz-adv-x="707" d="M339 370q74 0 74 69q0 32 -15.5 44.5t-56.5 12.5h-42v-126h40zM497 167q4 -5 4 -9q0 -8 -13 -11l-35 -6q-1 -1 -3 -1h-1q-9 0 -13 9l-97 173h-40v-162q0 -14 -15 -14h-32q-15 0 -15 14v372q0 14 15 14h94q30 0 48 -2.5t32 -9.5q24 -12 37 -35.5t13 -55.5q0 -85 -76 -114z M351 649q-54 0 -102 -24t-84 -66t-57 -97.5t-21 -118.5t21 -119t57.5 -97.5t85 -65.5t103.5 -24t103.5 24t84.5 65.5t57 97t21 118.5q0 64 -21 120.5t-57.5 97.5t-85.5 65t-105 24zM358 699q64 0 121.5 -28.5t100.5 -77t68 -113t25 -137.5q0 -74 -25 -138.5t-68.5 -113 t-101.5 -76.5t-124 -28t-124.5 28t-102 76.5t-68.5 113t-25 137.5q0 75 25 140t69 113.5t103 76t127 27.5z" />
<glyph unicode="&#xaf;" d="M127 634q0 9 2.5 11.5t11.5 2.5h217q9 0 11.5 -2.5t2.5 -11.5v-35q0 -9 -2.5 -11.5t-11.5 -2.5h-217q-9 0 -11.5 2.5t-2.5 11.5v35z" />
<glyph unicode="&#xb0;" d="M249 636q-37 0 -63 -26.5t-26 -64.5q0 -19 7 -35.5t19 -29t28.5 -19.5t35.5 -7q38 0 64.5 26.5t26.5 64.5t-26.5 64.5t-65.5 26.5zM252 700q31 0 59 -12.5t49 -33.5t33 -49t12 -60t-12 -60t-33 -49t-49.5 -33t-60.5 -12t-60 12t-49 33t-33 49t-12 60q0 33 12 61t33 49 t49.5 33t61.5 12z" />
<glyph unicode="&#xb1;" d="M469 17q9 0 11.5 -2.5t2.5 -11.5v-44q0 -9 -2.5 -11.5t-11.5 -2.5h-438q-9 0 -11.5 2.5t-2.5 11.5v44q0 9 2.5 11.5t11.5 2.5h438zM464 291q9 0 11.5 -2.5t2.5 -11.5v-47q0 -9 -2.5 -11.5t-11.5 -2.5h-177v-155q0 -9 -2.5 -11.5t-11.5 -2.5h-47q-9 0 -11.5 2.5t-2.5 11.5 v155h-176q-9 0 -11.5 2.5t-2.5 11.5v47q0 9 2.5 11.5t11.5 2.5h176v177q0 9 2 11t12 2h47q10 0 12 -2t2 -11v-177h177z" />
<glyph unicode="&#xb2;" horiz-adv-x="352" d="M279 329q11 0 15 -3.5t4 -14.5v-26q0 -11 -4 -14.5t-15 -3.5h-206q-19 0 -19 18q0 58 22 102q7 15 15 26t18 21.5t24 20.5t34 23q19 12 31 21t19 17.5t9.5 17.5t2.5 20q0 24 -13.5 37.5t-37.5 13.5q-23 0 -36 -11.5t-25 -42.5q-5 -13 -12 -12l-10 1l-27 7q-12 4 -12 14 t8 27t19 31q36 42 98 42q54 0 85.5 -28.5t31.5 -76.5q0 -20 -5 -36t-16 -31t-29.5 -30t-46.5 -33q-36 -23 -53.5 -45.5t-22.5 -51.5h154z" />
<glyph unicode="&#xb3;" horiz-adv-x="352" d="M55 595q-5 3 -5 7q0 15 35 37q37 24 83 24q54 0 86.5 -28t32.5 -73q0 -28 -12.5 -48t-40.5 -37q67 -29 67 -98q0 -54 -40 -86.5t-107 -32.5q-20 0 -40 3t-36.5 7.5t-26.5 10t-10 10.5t2 9l13 26q4 8 10 8q2 0 4 -0.5t13 -5.5q14 -6 34 -9.5t39 -3.5q38 0 58.5 17t20.5 49 q0 64 -89 64h-23q-9 0 -12 3t-3 12v23q0 9 3 12t12 3h23q36 0 57 17t21 46q0 23 -16 36.5t-42 13.5q-18 0 -33.5 -7t-36.5 -26q-5 -5 -9 -5q-5 0 -9 3z" />
<glyph unicode="&#xb4;" d="M348 701q6 5 10 5q3 0 4.5 -1.5t5.5 -6.5l29 -42q4 -7 4 -11t-9 -8l-164 -85q-5 -3 -6.5 -3.5t-3.5 -0.5t-3 1t-6 7l-10 15q-4 7 -4 10q0 4 8 9z" />
<glyph unicode="&#xb6;" horiz-adv-x="611" d="M275 621q-30 0 -48.5 -0.5t-31 -2t-20.5 -4.5t-16 -8q-30 -18 -43.5 -59.5t-13.5 -116.5q0 -105 29.5 -151t97.5 -46q11 0 21 1t25 4v383zM275 175q-29 -5 -44.5 -6t-31.5 -1q-91 0 -137.5 66.5t-46.5 196.5q0 88 27.5 147t81.5 86q23 12 57 17t94 5h269q9 0 11.5 -2.5 t2.5 -11.5v-37q0 -9 -2.5 -11.5t-11.5 -2.5h-66v-793q0 -9 -2.5 -11.5t-11.5 -2.5h-41q-9 0 -11.5 2.5t-2.5 11.5v793h-65v-793q0 -9 -2.5 -11.5t-11.5 -2.5h-41q-9 0 -11.5 2.5t-2.5 11.5v347z" />
<glyph unicode="&#xb7;" horiz-adv-x="206" d="M104 311q27 0 46.5 -20t19.5 -47q0 -29 -19.5 -48.5t-48.5 -19.5q-28 0 -47.5 19.5t-19.5 48.5q0 28 20 47.5t49 19.5z" />
<glyph unicode="&#xb8;" d="M255 -55q42 -5 59 -19t17 -45q0 -35 -28.5 -57t-73.5 -22q-27 0 -43.5 5t-16.5 13q0 3 1 8l4 30q0 6 5 6q4 0 6 -1q8 -3 22 -5t24 -2q40 0 40 23q0 25 -49 23q-14 0 -22 3.5t-7 9.5q1 5 1 7.5v4.5l8 73h58z" />
<glyph unicode="&#xb9;" horiz-adv-x="352" d="M216 654q9 0 12 -3t3 -12v-320h52q9 0 12 -3t3 -12v-22q0 -9 -3 -12t-12 -3h-176q-9 0 -12 3t-3 12v22q0 9 3 12t12 3h62v266l-70 -35q-3 -3 -10 -3q-5 0 -11 8l-7 13q-3 4 -3 9t8 11l105 66h35z" />
<glyph unicode="&#xba;" horiz-adv-x="334" d="M166 523q-66 0 -66 -99q0 -108 67 -108q66 0 66 106q0 101 -67 101zM170 573q60 0 94 -40t34 -112q0 -73 -36 -114t-100 -41q-60 0 -93.5 40t-33.5 112q0 74 35.5 114.5t99.5 40.5z" />
<glyph unicode="&#xbb;" horiz-adv-x="481" d="M236 430q-5 6 -5 10t9 9l28 15q6 3 9 3t10 -7l167 -211q5 -6 5 -10q0 -3 -5 -9l-167 -211q-6 -7 -10 -7q-3 0 -9 3l-28 15q-9 5 -9 9q0 2 0.5 3.5t4.5 6.5l129 190zM51 430q-5 7 -5 9q0 5 9 10l28 15q6 3 9 3q4 0 9 -7l168 -211q4 -4 4 -10q0 -5 -4 -9l-167 -211 q-6 -7 -11 -7q-2 0 -8 3l-28 15q-9 5 -9 9q0 2 0.5 3.5t4.5 6.5l128 190z" />
<glyph unicode="&#xbc;" horiz-adv-x="834" d="M221 654q9 0 12 -3t3 -12v-320h52q9 0 12 -3t3 -12v-22q0 -9 -3 -12t-12 -3h-176q-9 0 -12 3t-3 12v22q0 9 3 12t12 3h62v266l-70 -35q-3 -3 -10 -3q-5 0 -11 8l-7 13q-3 4 -3 9t8 11l105 66h35zM667 383q5 8 12 8q1 0 5 -1l33 -4q14 -3 14 -10q0 -6 -4 -11l-161 -231 h107l7 87q1 14 16 14h24q9 0 12 -3t3 -12v-86h46q9 0 12 -3t3 -12v-22q0 -9 -3 -12t-12 -3h-46v-75q0 -9 -3 -12t-12 -3h-32q-9 0 -12 3t-3 12v75h-163q-9 0 -12 3t-3 12v35zM514 650q4 10 15 10h42q13 0 13 -8q0 -2 -0.5 -3l-2.5 -5l-272 -653q-2 -6 -6 -8t-13 -2h-37 q-14 0 -14 7q0 2 0.5 3t2.5 6z" />
<glyph unicode="&#xbd;" horiz-adv-x="834" d="M741 62q11 0 15 -3.5t4 -14.5v-26q0 -11 -4 -14.5t-15 -3.5h-206q-18 0 -18 16v5q0 68 33 119q7 11 14 19.5t16 16t20.5 16t28.5 19.5q19 12 31 21.5t19 18t9.5 17t2.5 19.5q0 24 -13.5 37.5t-37.5 13.5q-23 0 -35.5 -11t-25.5 -43q-5 -14 -12 -12q-7 1 -8 1h-2l-27 8 q-12 3 -12 13t8 27t19 30q35 43 98 43q54 0 85.5 -28.5t31.5 -76.5q0 -20 -5 -36t-16 -31t-29.5 -30t-46.5 -33q-36 -23 -54 -45.5t-22 -51.5h154zM221 654q9 0 12 -3t3 -12v-320h52q9 0 12 -3t3 -12v-22q0 -9 -3 -12t-12 -3h-176q-9 0 -12 3t-3 12v22q0 9 3 12t12 3h62v266 l-70 -35q-3 -3 -10 -3q-5 0 -11 8l-7 13q-3 4 -3 9t8 11l105 66h35zM511 650q3 10 15 10h41q14 0 14 -8q0 -2 -0.5 -2.5t-2.5 -5.5l-272 -653q-4 -10 -19 -10h-38q-13 0 -13 8q0 2 0.5 3.5l1.5 4.5z" />
<glyph unicode="&#xbe;" horiz-adv-x="834" d="M657 383q5 8 12 8q1 0 5 -1l33 -4q14 -3 14 -10q0 -6 -4 -11l-161 -231h108l6 87q1 14 16 14h24q9 0 12 -3t3 -12v-86h46q9 0 12 -3t3 -12v-22q0 -15 -15 -15h-46v-75q0 -9 -3 -12t-12 -3h-32q-9 0 -12 3t-3 12v75h-163q-9 0 -12 3t-3 12v35zM531 650q4 10 16 10h41 q13 0 13 -8q0 -4 -2 -8l-273 -653q-4 -10 -18 -10h-38q-13 0 -13 7q0 3 2 9zM67 595q-5 3 -5 7q0 15 35 37q37 24 83 24q54 0 86.5 -28t32.5 -73q0 -28 -12.5 -48t-40.5 -37q67 -29 67 -98q0 -54 -40 -86.5t-107 -32.5q-20 0 -40 3t-36.5 7.5t-26.5 10t-10 10.5t2 9l13 26 q4 8 10 8q2 0 4 -0.5t13 -5.5q14 -6 34 -9.5t39 -3.5q38 0 58.5 17t20.5 49q0 64 -89 64h-23q-9 0 -12 3t-3 12v23q0 9 3 12t12 3h23q36 0 57 17t21 46q0 23 -16 36.5t-42 13.5q-18 0 -33.5 -7t-36.5 -26q-5 -5 -9 -5q-5 0 -9 3z" />
<glyph unicode="&#xbf;" horiz-adv-x="426" d="M215 201q0 9 2.5 11.5t11.5 2.5h40q9 0 11.5 -2.5t2.5 -11.5v-123q0 -9 -3 -13t-14 -7q-31 -9 -50 -16.5t-33 -15.5q-20 -13 -31 -34.5t-11 -48.5q0 -44 26.5 -67t76.5 -23q51 0 110 25q6 2 9 2q5 0 9 -7l14 -39q2 -5 2 -7q0 -7 -14.5 -14.5t-37 -14t-49 -10.5t-51.5 -4 q-83 0 -128.5 41t-45.5 116q0 66 37.5 107.5t115.5 62.5v90zM248 494q28 0 48.5 -21t20.5 -50t-20.5 -49.5t-49.5 -20.5q-30 0 -50.5 21t-20.5 50t21 49.5t51 20.5z" />
<glyph unicode="&#xc0;" horiz-adv-x="537" d="M122 884q5 8 10 8t10 -4l159 -97q7 -4 8 -5.5t1 -4.5q0 -2 -4 -9l-11 -19q-3 -5 -8 -5q-4 0 -10 3l-174 69q-10 4 -10 10q0 2 0.5 3t2.5 6zM350 275l-60 220q-7 26 -12.5 50t-10.5 46q-4 -20 -9.5 -43.5t-13.5 -51.5l-60 -221h166zM166 206l-56 -195q-3 -11 -15 -11h-60 q-14 0 -14 7v3t2 6l201 659q3 8 5 9.5t10 1.5h60q8 0 10 -1.5t5 -9.5l201 -659q2 -5 2 -6v-2q0 -8 -14 -8h-64q-10 0 -15 11l-55 195h-203z" />
<glyph unicode="&#xc1;" horiz-adv-x="537" d="M396 888q5 4 9 4q6 0 10 -8l26 -45q4 -5 4 -10t-10 -9l-176 -70q-4 -2 -9 -2q-4 0 -9 8l-9 16q-4 5 -4 10q0 3 9 9zM350 275l-60 220q-7 26 -12.5 50t-10.5 46q-4 -20 -9.5 -43.5t-13.5 -51.5l-60 -221h166zM166 206l-56 -195q-3 -11 -15 -11h-60q-14 0 -14 7v3t2 6 l201 659q3 8 5 9.5t10 1.5h60q8 0 10 -1.5t5 -9.5l201 -659q2 -5 2 -6v-2q0 -8 -14 -8h-64q-10 0 -15 11l-55 195h-203z" />
<glyph unicode="&#xc2;" horiz-adv-x="537" d="M172 751q-6 -3 -10 -3q-5 0 -10 7l-12 15q-4 5 -4 10q0 6 7 10l108 74q11 8 19 8q7 0 18 -8l109 -74q7 -6 7 -11q0 -2 -4 -9l-12 -15q-5 -7 -10 -7q-4 0 -10 3l-98 53zM350 275l-60 220q-7 26 -12.5 50t-10.5 46q-4 -20 -9.5 -43.5t-13.5 -51.5l-60 -221h166zM166 206 l-56 -195q-3 -11 -15 -11h-60q-14 0 -14 7v3t2 6l201 659q3 8 5 9.5t10 1.5h60q8 0 10 -1.5t5 -9.5l201 -659q2 -5 2 -6v-2q0 -8 -14 -8h-64q-10 0 -15 11l-55 195h-203z" />
<glyph unicode="&#xc3;" horiz-adv-x="537" d="M414 851q8 -3 8 -8q0 -7 -8.5 -21.5t-18.5 -26.5q-29 -31 -68 -31q-14 0 -26.5 4t-35.5 17q-22 11 -32 15t-21 4q-27 0 -44 -30q-4 -8 -10 -8q-3 0 -6 2l-28 11q-8 3 -8 9q0 5 9.5 21t19.5 27q25 30 65 30q8 0 15.5 -1t16.5 -4.5t21.5 -10t32.5 -16.5q13 -8 28 -8 q31 0 47 30q4 8 9 8l7 -1zM350 275l-60 220q-7 26 -12.5 50t-10.5 46q-4 -20 -9.5 -43.5t-13.5 -51.5l-60 -221h166zM166 206l-56 -195q-3 -11 -15 -11h-60q-14 0 -14 7v3t2 6l201 659q3 8 5 9.5t10 1.5h60q8 0 10 -1.5t5 -9.5l201 -659q2 -5 2 -6v-2q0 -8 -14 -8h-64 q-10 0 -15 11l-55 195h-203z" />
<glyph unicode="&#xc4;" horiz-adv-x="537" d="M371 856q22 0 38 -16t16 -39t-16 -39t-39 -16t-39 16t-16 39t16.5 39t39.5 16zM168 857q23 0 39 -16t16 -39t-16 -39.5t-39 -16.5t-39.5 16.5t-16.5 39.5t16.5 39t39.5 16zM350 275l-60 220q-7 26 -12.5 50t-10.5 46q-4 -20 -9.5 -43.5t-13.5 -51.5l-60 -221h166z M166 206l-56 -195q-3 -11 -15 -11h-60q-14 0 -14 7v3t2 6l201 659q3 8 5 9.5t10 1.5h60q8 0 10 -1.5t5 -9.5l201 -659q2 -5 2 -6v-2q0 -8 -14 -8h-64q-10 0 -15 11l-55 195h-203z" />
<glyph unicode="&#xc5;" horiz-adv-x="537" d="M268 868q-18 0 -30.5 -13t-12.5 -31q0 -19 12.5 -32t31.5 -13q18 0 30.5 13t12.5 32q0 18 -13 31t-31 13zM270 915q18 0 34.5 -7.5t29 -20t19.5 -29t7 -34.5q0 -19 -7 -36t-19.5 -29.5t-29.5 -19.5t-36 -7t-35.5 7t-29 19.5t-19.5 29.5t-7 36t7 35.5t20 29t29.5 19.5 t36.5 7zM350 275l-60 220q-7 26 -12.5 50t-10.5 46q-4 -20 -9.5 -43.5t-13.5 -51.5l-60 -221h166zM166 206l-56 -195q-3 -11 -15 -11h-60q-14 0 -14 7v3t2 6l201 659q3 8 5 9.5t10 1.5h60q8 0 10 -1.5t5 -9.5l201 -659q2 -5 2 -6v-2q0 -8 -14 -8h-64q-10 0 -15 11l-55 195 h-203z" />
<glyph unicode="&#xc6;" horiz-adv-x="685" d="M318 275v228v32v37v29.5t1 30.5q-5 -14 -8 -23t-7.5 -20.5t-12.5 -29.5t-22 -49l-107 -235h156zM400 390h196q9 0 11.5 -2.5t2.5 -11.5v-39q0 -9 -2.5 -11.5t-11.5 -2.5h-196v-252h239q9 0 11.5 -2.5t2.5 -11.5v-43q0 -9 -2.5 -11.5t-11.5 -2.5h-307q-9 0 -11.5 2.5 t-2.5 11.5v192h-183l-89 -195q-4 -11 -16 -11h-60q-14 0 -14 8q0 1 3 9l315 659q3 7 5.5 8.5t10.5 1.5h350q14 0 14 -8v-2.5t-2 -5.5l-15 -43q-4 -12 -17 -12h-220v-225z" />
<glyph unicode="&#xc7;" horiz-adv-x="463" d="M291 -56q43 -5 60.5 -20t17.5 -47q0 -36 -29 -59t-76 -23q-28 0 -45 5.5t-17 14.5v5l1 3l4 31q1 6 6 6l6 -2q8 -3 22 -5.5t25 -2.5q41 0 41 24t-53 25q-12 0 -20 3.5t-7 8.5t1 8v5l7 66q-183 40 -183 360q0 89 14 153.5t43 111.5q26 40 68.5 62.5t93.5 22.5 q40 0 79 -14.5t70 -41.5q16 -13 16 -20q0 -4 -2 -8l-29 -38q-2 -4 -8 -4q-3 0 -7.5 3t-26.5 21q-47 35 -91 35q-69 0 -100 -65t-31 -209q0 -152 35.5 -229t105.5 -77q26 0 54.5 13.5t57.5 39.5q6 6 11 6q4 0 8 -7l25 -34q3 -3 3 -7q0 -13 -36 -38q-25 -17 -50.5 -26.5 t-60.5 -13.5z" />
<glyph unicode="&#xc8;" horiz-adv-x="463" d="M138 884q5 8 10 8t10 -4l159 -97q7 -4 8 -5.5t1 -4.5q0 -2 -4 -9l-11 -19q-3 -5 -8 -5q-4 0 -10 3l-174 69q-10 4 -10 10q0 2 0.5 3t2.5 6zM178 390h196q9 0 11.5 -2.5t2.5 -11.5v-39q0 -9 -2.5 -11.5t-11.5 -2.5h-196v-252h239q9 0 11.5 -2.5t2.5 -11.5v-43 q0 -9 -2.5 -11.5t-11.5 -2.5h-307q-10 0 -12 2t-2 12v658q0 9 2.5 11.5t11.5 2.5h308q14 0 14 -7v-3t-2 -6l-15 -44q-5 -11 -15 -11h-222v-225z" />
<glyph unicode="&#xc9;" horiz-adv-x="463" d="M370 888q5 4 9 4q6 0 10 -8l26 -45q4 -5 4 -10t-10 -9l-176 -70q-4 -2 -9 -2q-4 0 -9 8l-9 16q-4 5 -4 10q0 3 9 9zM178 390h196q9 0 11.5 -2.5t2.5 -11.5v-39q0 -9 -2.5 -11.5t-11.5 -2.5h-196v-252h239q9 0 11.5 -2.5t2.5 -11.5v-43q0 -9 -2.5 -11.5t-11.5 -2.5h-307 q-10 0 -12 2t-2 12v658q0 9 2.5 11.5t11.5 2.5h308q14 0 14 -7v-3t-2 -6l-15 -44q-5 -11 -15 -11h-222v-225z" />
<glyph unicode="&#xca;" horiz-adv-x="463" d="M169 751q-6 -3 -10 -3q-5 0 -10 7l-12 15q-4 5 -4 10q0 6 7 10l108 74q11 8 19 8q7 0 18 -8l109 -74q7 -6 7 -11q0 -2 -4 -9l-12 -15q-5 -7 -10 -7q-4 0 -10 3l-98 53zM178 390h196q9 0 11.5 -2.5t2.5 -11.5v-39q0 -9 -2.5 -11.5t-11.5 -2.5h-196v-252h239q9 0 11.5 -2.5 t2.5 -11.5v-43q0 -9 -2.5 -11.5t-11.5 -2.5h-307q-10 0 -12 2t-2 12v658q0 9 2.5 11.5t11.5 2.5h308q14 0 14 -7v-3t-2 -6l-15 -44q-5 -11 -15 -11h-222v-225z" />
<glyph unicode="&#xcb;" horiz-adv-x="463" d="M368 866q22 0 38 -16t16 -39t-16 -39t-39 -16t-39 16t-16 39t16.5 39t39.5 16zM165 867q23 0 39 -16t16 -39t-16 -39.5t-39 -16.5t-39.5 16.5t-16.5 39.5t16.5 39t39.5 16zM178 390h196q9 0 11.5 -2.5t2.5 -11.5v-39q0 -9 -2.5 -11.5t-11.5 -2.5h-196v-252h239 q9 0 11.5 -2.5t2.5 -11.5v-43q0 -9 -2.5 -11.5t-11.5 -2.5h-307q-10 0 -12 2t-2 12v658q0 9 2.5 11.5t11.5 2.5h308q14 0 14 -7v-3t-2 -6l-15 -44q-5 -11 -15 -11h-222v-225z" />
<glyph unicode="&#xcc;" horiz-adv-x="333" d="M68 884q5 8 10 8t10 -4l159 -97q7 -4 8 -5.5t1 -4.5q0 -2 -4 -9l-11 -19q-3 -5 -8 -5q-4 0 -10 3l-174 69q-10 4 -10 10q0 2 0.5 3t2.5 6zM207 65h89q9 0 11.5 -2.5t2.5 -11.5v-37q0 -9 -2.5 -11.5t-11.5 -2.5h-259q-9 0 -11.5 2.5t-2.5 11.5v37q0 9 2.5 11.5t11.5 2.5 h88v556h-88q-9 0 -11.5 2.5t-2.5 11.5v37q0 9 2.5 11.5t11.5 2.5h259q9 0 11.5 -2.5t2.5 -11.5v-37q0 -9 -2.5 -11.5t-11.5 -2.5h-89v-556z" />
<glyph unicode="&#xcd;" horiz-adv-x="333" d="M259 888q5 4 9 4q6 0 10 -8l26 -45q4 -5 4 -10t-10 -9l-176 -70q-4 -2 -9 -2q-4 0 -9 8l-9 16q-4 5 -4 10q0 3 9 9zM207 65h89q9 0 11.5 -2.5t2.5 -11.5v-37q0 -9 -2.5 -11.5t-11.5 -2.5h-259q-9 0 -11.5 2.5t-2.5 11.5v37q0 9 2.5 11.5t11.5 2.5h88v556h-88 q-9 0 -11.5 2.5t-2.5 11.5v37q0 9 2.5 11.5t11.5 2.5h259q9 0 11.5 -2.5t2.5 -11.5v-37q0 -9 -2.5 -11.5t-11.5 -2.5h-89v-556z" />
<glyph unicode="&#xce;" horiz-adv-x="333" d="M69 751q-6 -3 -10 -3q-5 0 -10 7l-12 15q-4 5 -4 10q0 6 7 10l108 74q11 8 19 8q7 0 18 -8l109 -74q7 -6 7 -11q0 -2 -4 -9l-12 -15q-5 -7 -10 -7q-4 0 -10 3l-98 53zM207 65h89q9 0 11.5 -2.5t2.5 -11.5v-37q0 -9 -2.5 -11.5t-11.5 -2.5h-259q-9 0 -11.5 2.5t-2.5 11.5 v37q0 9 2.5 11.5t11.5 2.5h88v556h-88q-9 0 -11.5 2.5t-2.5 11.5v37q0 9 2.5 11.5t11.5 2.5h259q9 0 11.5 -2.5t2.5 -11.5v-37q0 -9 -2.5 -11.5t-11.5 -2.5h-89v-556z" />
<glyph unicode="&#xcf;" horiz-adv-x="333" d="M255 866q22 0 38 -16t16 -39t-16 -39t-39 -16t-39 16t-16 39t16.5 39t39.5 16zM79 867q23 0 39 -16t16 -39t-16 -39.5t-39 -16.5t-39.5 16.5t-16.5 39.5t16.5 39t39.5 16zM207 65h89q9 0 11.5 -2.5t2.5 -11.5v-37q0 -9 -2.5 -11.5t-11.5 -2.5h-259q-9 0 -11.5 2.5 t-2.5 11.5v37q0 9 2.5 11.5t11.5 2.5h88v556h-88q-9 0 -11.5 2.5t-2.5 11.5v37q0 9 2.5 11.5t11.5 2.5h259q9 0 11.5 -2.5t2.5 -11.5v-37q0 -9 -2.5 -11.5t-11.5 -2.5h-89v-556z" />
<glyph unicode="&#xd0;" horiz-adv-x="556" d="M178 71h51q29 0 50.5 3t38 10t29 18.5t24.5 29.5q23 33 33.5 87.5t10.5 135.5q0 100 -20.5 158.5t-65.5 81.5q-19 11 -45 15.5t-65 4.5h-41v-225h120q10 0 12 -2t2 -12v-37q0 -10 -2 -12t-12 -2h-120v-254zM35 325q-9 0 -11.5 2.5t-2.5 11.5v37q0 9 2.5 11.5t11.5 2.5h61 v282q0 9 2.5 11.5t11.5 2.5h104q33 0 59 -2t47 -7t38.5 -12.5t33.5 -18.5q54 -37 82.5 -111t28.5 -180q0 -355 -280 -355h-113q-9 0 -11.5 2.5t-2.5 11.5v311h-61z" />
<glyph unicode="&#xd1;" horiz-adv-x="574" d="M444 851q8 -3 8 -8q0 -7 -8.5 -21.5t-18.5 -26.5q-29 -31 -68 -31q-14 0 -26.5 4t-35.5 17q-22 11 -32 15t-21 4q-27 0 -44 -30q-4 -8 -10 -8q-3 0 -6 2l-28 11q-8 3 -8 9q0 5 9.5 21t19.5 27q25 30 65 30q8 0 15.5 -1t16.5 -4.5t21.5 -10t32.5 -16.5q13 -8 28 -8 q31 0 47 30q4 8 9 8l7 -1zM397 210q8 -19 15 -38.5t13 -45.5q-4 28 -5.5 47.5t-1.5 39.5v459q0 9 2.5 11.5t11.5 2.5h45q9 0 11.5 -2.5t2.5 -11.5v-658q0 -9 -2.5 -11.5t-11.5 -2.5h-54q-11 0 -15 10l-229 495q-10 21 -16 40.5t-14 53.5q3 -20 5 -33.5t3 -24t1.5 -19.5 t0.5 -21v-487q0 -9 -2.5 -11.5t-11.5 -2.5h-45q-9 0 -11.5 2.5t-2.5 11.5v658q0 9 2.5 11.5t11.5 2.5h63q11 0 15 -10z" />
<glyph unicode="&#xd2;" horiz-adv-x="556" d="M144 884q5 8 10 8t10 -4l159 -97q7 -4 8 -5.5t1 -4.5q0 -2 -4 -9l-11 -19q-3 -5 -8 -5q-4 0 -10 3l-174 69q-10 4 -10 10q0 2 0.5 3t2.5 6zM278 633q-34 0 -61.5 -17t-41.5 -46q-34 -74 -34 -225q0 -76 9.5 -135.5t29.5 -98.5q28 -58 97 -58q35 0 62 16.5t41 46.5 q17 36 25.5 91.5t8.5 129.5q0 162 -38 238q-30 58 -98 58zM286 700q107 0 162 -90t55 -266q0 -177 -58.5 -267.5t-172.5 -90.5q-109 0 -164.5 89t-55.5 264q0 361 234 361z" />
<glyph unicode="&#xd3;" horiz-adv-x="556" d="M391 888q5 4 9 4q6 0 10 -8l26 -45q4 -5 4 -10t-10 -9l-176 -70q-4 -2 -9 -2q-4 0 -9 8l-9 16q-4 5 -4 10q0 3 9 9zM278 633q-34 0 -61.5 -17t-41.5 -46q-34 -74 -34 -225q0 -76 9.5 -135.5t29.5 -98.5q28 -58 97 -58q35 0 62 16.5t41 46.5q17 36 25.5 91.5t8.5 129.5 q0 162 -38 238q-30 58 -98 58zM286 700q107 0 162 -90t55 -266q0 -177 -58.5 -267.5t-172.5 -90.5q-109 0 -164.5 89t-55.5 264q0 361 234 361z" />
<glyph unicode="&#xd4;" horiz-adv-x="556" d="M180 751q-6 -3 -10 -3q-5 0 -10 7l-12 15q-4 5 -4 10q0 6 7 10l108 74q11 8 19 8q7 0 18 -8l109 -74q7 -6 7 -11q0 -2 -4 -9l-12 -15q-5 -7 -10 -7q-4 0 -10 3l-98 53zM278 633q-34 0 -61.5 -17t-41.5 -46q-34 -74 -34 -225q0 -76 9.5 -135.5t29.5 -98.5q28 -58 97 -58 q35 0 62 16.5t41 46.5q17 36 25.5 91.5t8.5 129.5q0 162 -38 238q-30 58 -98 58zM286 700q107 0 162 -90t55 -266q0 -177 -58.5 -267.5t-172.5 -90.5q-109 0 -164.5 89t-55.5 264q0 361 234 361z" />
<glyph unicode="&#xd5;" horiz-adv-x="556" d="M422 851q8 -3 8 -8q0 -7 -8.5 -21.5t-18.5 -26.5q-29 -31 -68 -31q-14 0 -26.5 4t-35.5 17q-22 11 -32 15t-21 4q-27 0 -44 -30q-4 -8 -10 -8q-3 0 -6 2l-28 11q-8 3 -8 9q0 5 9.5 21t19.5 27q25 30 65 30q8 0 15.5 -1t16.5 -4.5t21.5 -10t32.5 -16.5q13 -8 28 -8 q31 0 47 30q4 8 9 8l7 -1zM278 633q-34 0 -61.5 -17t-41.5 -46q-34 -74 -34 -225q0 -76 9.5 -135.5t29.5 -98.5q28 -58 97 -58q35 0 62 16.5t41 46.5q17 36 25.5 91.5t8.5 129.5q0 162 -38 238q-30 58 -98 58zM286 700q107 0 162 -90t55 -266q0 -177 -58.5 -267.5 t-172.5 -90.5q-109 0 -164.5 89t-55.5 264q0 361 234 361z" />
<glyph unicode="&#xd6;" horiz-adv-x="556" d="M380 856q22 0 38 -16t16 -39t-16 -39t-39 -16t-39 16t-16 39t16.5 39t39.5 16zM177 857q23 0 39 -16t16 -39t-16 -39.5t-39 -16.5t-39.5 16.5t-16.5 39.5t16.5 39t39.5 16zM278 633q-34 0 -61.5 -17t-41.5 -46q-34 -74 -34 -225q0 -76 9.5 -135.5t29.5 -98.5 q28 -58 97 -58q35 0 62 16.5t41 46.5q17 36 25.5 91.5t8.5 129.5q0 162 -38 238q-30 58 -98 58zM286 700q107 0 162 -90t55 -266q0 -177 -58.5 -267.5t-172.5 -90.5q-109 0 -164.5 89t-55.5 264q0 361 234 361z" />
<glyph unicode="&#xd7;" d="M428 129q5 -5 5.5 -6t0.5 -4t-6 -9l-34 -34q-6 -6 -9 -6q-6 0 -10 6l-125 126l-125 -126q-5 -6 -9 -6q-5 0 -10 6l-34 34q-6 5 -6 9t6 10l126 125l-126 124q-6 6 -6 11q0 3 6 9l34 34q5 5 6 5.5t4 0.5q2 0 3 -0.5t6 -5.5l125 -126l125 126q4 5 5.5 5.5t3.5 0.5q4 0 10 -6 l34 -34q6 -6 6 -10q0 -3 -6 -10l-126 -124z" />
<glyph unicode="&#xd8;" horiz-adv-x="556" d="M364 600q-17 17 -36.5 25t-47.5 8q-77 0 -111 -68.5t-34 -224.5q0 -45 3.5 -89t9.5 -86zM183 98q17 -23 38.5 -34t53.5 -11q39 0 66.5 16t45 51.5t25.5 90.5t8 133q0 54 -5 108.5t-13 87.5zM103 84q-51 94 -51 256q0 178 58 269t172 91q36 0 63.5 -8.5t55.5 -28.5l34 66 q5 9 9 9q3 0 9 -3l30 -15q9 -5 9 -8q0 -2 -0.5 -5t-2.5 -5l-45 -87q59 -92 59 -271q0 -177 -58.5 -267.5t-171.5 -90.5q-77 0 -130 46l-33 -64q-4 -9 -9 -9t-9 3l-29 14q-10 5 -10 9q0 2 0.5 3.5t3.5 6.5z" />
<glyph unicode="&#xd9;" horiz-adv-x="592" d="M163 884q5 8 10 8t10 -4l159 -97q7 -4 8 -5.5t1 -4.5q0 -2 -4 -9l-11 -19q-3 -5 -8 -5q-4 0 -10 3l-174 69q-10 4 -10 10q0 2 0.5 3t2.5 6zM152 686q9 0 11.5 -2.5t2.5 -11.5v-485q0 -73 29 -103.5t98 -30.5q70 0 103 32.5t33 101.5v485q0 9 2.5 11.5t11.5 2.5h51 q9 0 11.5 -2.5t2.5 -11.5v-488q0 -49 -12 -82t-38 -59q-31 -30 -70.5 -43.5t-98.5 -13.5q-205 0 -205 198v488q0 9 2.5 11.5t11.5 2.5h54z" />
<glyph unicode="&#xda;" horiz-adv-x="592" d="M409 888q5 4 9 4q6 0 10 -8l26 -45q4 -5 4 -10t-10 -9l-176 -70q-4 -2 -9 -2q-4 0 -9 8l-9 16q-4 5 -4 10q0 3 9 9zM152 686q9 0 11.5 -2.5t2.5 -11.5v-485q0 -73 29 -103.5t98 -30.5q70 0 103 32.5t33 101.5v485q0 9 2.5 11.5t11.5 2.5h51q9 0 11.5 -2.5t2.5 -11.5v-488 q0 -49 -12 -82t-38 -59q-31 -30 -70.5 -43.5t-98.5 -13.5q-205 0 -205 198v488q0 9 2.5 11.5t11.5 2.5h54z" />
<glyph unicode="&#xdb;" horiz-adv-x="592" d="M199 751q-6 -3 -10 -3q-5 0 -10 7l-12 15q-4 5 -4 10q0 6 7 10l108 74q11 8 19 8q7 0 18 -8l109 -74q7 -6 7 -11q0 -2 -4 -9l-12 -15q-5 -7 -10 -7q-4 0 -10 3l-98 53zM152 686q9 0 11.5 -2.5t2.5 -11.5v-485q0 -73 29 -103.5t98 -30.5q70 0 103 32.5t33 101.5v485 q0 9 2.5 11.5t11.5 2.5h51q9 0 11.5 -2.5t2.5 -11.5v-488q0 -49 -12 -82t-38 -59q-31 -30 -70.5 -43.5t-98.5 -13.5q-205 0 -205 198v488q0 9 2.5 11.5t11.5 2.5h54z" />
<glyph unicode="&#xdc;" horiz-adv-x="592" d="M398 856q22 0 38 -16t16 -39t-16 -39t-39 -16t-39 16t-16 39t16.5 39t39.5 16zM195 857q23 0 39 -16t16 -39t-16 -39.5t-39 -16.5t-39.5 16.5t-16.5 39.5t16.5 39t39.5 16zM152 686q9 0 11.5 -2.5t2.5 -11.5v-485q0 -73 29 -103.5t98 -30.5q70 0 103 32.5t33 101.5v485 q0 9 2.5 11.5t11.5 2.5h51q9 0 11.5 -2.5t2.5 -11.5v-488q0 -49 -12 -82t-38 -59q-31 -30 -70.5 -43.5t-98.5 -13.5q-205 0 -205 198v488q0 9 2.5 11.5t11.5 2.5h54z" />
<glyph unicode="&#xdd;" horiz-adv-x="426" d="M354 888q5 4 9 4q6 0 10 -8l26 -45q4 -5 4 -10t-10 -9l-176 -70q-4 -2 -9 -2q-4 0 -9 8l-9 16q-4 5 -4 10q0 3 9 9zM191 424q10 -21 14.5 -32t12.5 -30q6 16 12 30t15 33l122 259q4 9 10 9q4 0 8 -1l54 -15q11 -3 11 -8q0 -2 -0.5 -5t-2.5 -5l-190 -368v-277 q0 -9 -2.5 -11.5t-11.5 -2.5h-54q-9 0 -11.5 2.5t-2.5 11.5v275l-196 369q-1 2 -2 5t-1 5q0 5 11 8l60 16l4 1q2 1 4 1q5 0 10 -10z" />
<glyph unicode="&#xde;" horiz-adv-x="482" d="M244 252q38 0 57.5 4.5t36.5 18.5q44 35 44 116q0 85 -56 108q-13 5 -26.5 6.5t-43.5 1.5h-78v-255h66zM263 576q48 0 78 -5.5t50 -17.5q37 -22 56 -63t19 -98q0 -66 -26 -115t-74 -75q-24 -12 -50 -17t-66 -5h-72v-166q0 -9 -2.5 -11.5t-11.5 -2.5h-54q-9 0 -11.5 2.5 t-2.5 11.5v658q0 9 2.5 11.5t11.5 2.5h54q9 0 11.5 -2.5t2.5 -11.5v-96h85z" />
<glyph unicode="&#xdf;" horiz-adv-x="611" d="M96 0q-7 0 -9 2t-2 10v530q0 48 9 77.5t31 53.5q23 25 61.5 38t89.5 13q77 0 121 -34t44 -94q0 -47 -26 -85q-4 -5 -6.5 -8.5t-7.5 -8.5t-13.5 -13t-23.5 -22q-19 -18 -26.5 -30t-7.5 -26q0 -9 1.5 -15.5t11.5 -16t31.5 -26t61.5 -45.5q51 -38 72.5 -72.5t21.5 -77.5 q0 -37 -13 -70.5t-34 -54.5q-39 -36 -116 -36q-21 0 -42 3t-38 7.5t-27.5 10t-10.5 11.5q0 2 1 6l12 43q2 7 8 7q3 0 8 -3q20 -9 47.5 -15.5t47.5 -6.5q84 0 84 84q0 18 -3.5 31t-15 27t-33.5 31t-59 44q-17 12 -27 19.5t-16.5 12.5t-11 9t-8.5 9q-27 29 -27 72 q0 32 12 54.5t42 48.5q31 27 42 45.5t11 43.5q0 37 -25 58.5t-68 21.5q-52 0 -80 -25q-17 -14 -23.5 -35.5t-6.5 -61.5v-529q0 -8 -2 -10t-9 -2h-53z" />
<glyph unicode="&#xe0;" horiz-adv-x="463" d="M82 697q5 8 10 8q3 0 10 -5l145 -111q5 -4 6.5 -5.5t1.5 -4.5q0 -2 -5 -9l-12 -17q-3 -5 -7 -5t-10 3l-163 85q-9 4 -9 10q0 2 0.5 3t3.5 6zM301 239q-187 -1 -187 -106q0 -35 20.5 -57.5t52.5 -22.5q50 0 114 57v129zM301 334q0 48 -21 68.5t-71 20.5q-29 0 -54.5 -6 t-64.5 -23q-6 -2 -7 -2q-5 0 -7 5l-15 40l-1 8q0 5 5 8.5t22 10.5q60 27 133 27q80 0 118 -34t38 -106v-189q0 -26 1 -44t4 -32.5t8.5 -27t13.5 -27.5q2 -4 2 -6q0 -3 -4 -5l-43 -27q-5 -3 -8 -3q-8 0 -19 19t-19 44q-34 -33 -67.5 -48t-75.5 -15q-61 0 -96.5 37t-35.5 100 q0 170 264 174v33z" />
<glyph unicode="&#xe1;" horiz-adv-x="463" d="M339 701q6 5 10 5q3 0 4.5 -1.5t5.5 -6.5l29 -42q4 -7 4 -11t-9 -8l-164 -85q-5 -3 -6.5 -3.5t-3.5 -0.5t-3 1t-6 7l-10 15q-4 7 -4 10q0 4 8 9zM301 239q-187 -1 -187 -106q0 -35 20.5 -57.5t52.5 -22.5q50 0 114 57v129zM301 334q0 48 -21 68.5t-71 20.5 q-29 0 -54.5 -6t-64.5 -23q-6 -2 -7 -2q-5 0 -7 5l-15 40l-1 8q0 5 5 8.5t22 10.5q60 27 133 27q80 0 118 -34t38 -106v-189q0 -26 1 -44t4 -32.5t8.5 -27t13.5 -27.5q2 -4 2 -6q0 -3 -4 -5l-43 -27q-5 -3 -8 -3q-8 0 -19 19t-19 44q-34 -33 -67.5 -48t-75.5 -15 q-61 0 -96.5 37t-35.5 100q0 170 264 174v33z" />
<glyph unicode="&#xe2;" horiz-adv-x="463" d="M126 566q-7 -4 -9 -4q-3 0 -10 7l-11 16q-5 7 -5 10q0 4 7 10l111 87q5 5 9 5t9 -5l111 -87q7 -7 7 -10t-5 -10l-13 -18q-4 -5 -8 -5q-2 0 -9 4l-92 59zM301 239q-187 -1 -187 -106q0 -35 20.5 -57.5t52.5 -22.5q50 0 114 57v129zM301 334q0 48 -21 68.5t-71 20.5 q-29 0 -54.5 -6t-64.5 -23q-6 -2 -7 -2q-5 0 -7 5l-15 40l-1 8q0 5 5 8.5t22 10.5q60 27 133 27q80 0 118 -34t38 -106v-189q0 -26 1 -44t4 -32.5t8.5 -27t13.5 -27.5q2 -4 2 -6q0 -3 -4 -5l-43 -27q-5 -3 -8 -3q-8 0 -19 19t-19 44q-34 -33 -67.5 -48t-75.5 -15 q-61 0 -96.5 37t-35.5 100q0 170 264 174v33z" />
<glyph unicode="&#xe3;" horiz-adv-x="463" d="M359 666q7 -3 7 -8t-8.5 -20t-18.5 -28q-25 -31 -66 -31q-14 0 -25.5 4t-34.5 17q-20 11 -30.5 15t-20.5 4q-26 0 -43 -30q-4 -8 -9 -8l-6 1l-27 12q-8 3 -8 9q0 5 9 20.5t19 27.5q25 30 63 30q8 0 15.5 -1t16.5 -4.5t21 -10t30 -16.5q16 -8 28 -8q31 0 45 30q4 8 9 8 l7 -1zM301 239q-187 -1 -187 -106q0 -35 20.5 -57.5t52.5 -22.5q50 0 114 57v129zM301 334q0 48 -21 68.5t-71 20.5q-29 0 -54.5 -6t-64.5 -23q-6 -2 -7 -2q-5 0 -7 5l-15 40l-1 8q0 5 5 8.5t22 10.5q60 27 133 27q80 0 118 -34t38 -106v-189q0 -26 1 -44t4 -32.5t8.5 -27 t13.5 -27.5q2 -4 2 -6q0 -3 -4 -5l-43 -27q-5 -3 -8 -3q-8 0 -19 19t-19 44q-34 -33 -67.5 -48t-75.5 -15q-61 0 -96.5 37t-35.5 100q0 170 264 174v33z" />
<glyph unicode="&#xe4;" horiz-adv-x="463" d="M320 684q22 0 37.5 -15.5t15.5 -38.5q0 -22 -15.5 -37.5t-38.5 -15.5q-22 0 -37.5 15.5t-15.5 38.5q0 22 15.5 37.5t38.5 15.5zM123 684q22 0 37.5 -15.5t15.5 -38.5q0 -22 -15.5 -37.5t-37.5 -15.5q-23 0 -38.5 15.5t-15.5 38.5q0 22 15.5 37.5t38.5 15.5zM301 239 q-187 -1 -187 -106q0 -35 20.5 -57.5t52.5 -22.5q50 0 114 57v129zM301 334q0 48 -21 68.5t-71 20.5q-29 0 -54.5 -6t-64.5 -23q-6 -2 -7 -2q-5 0 -7 5l-15 40l-1 8q0 5 5 8.5t22 10.5q60 27 133 27q80 0 118 -34t38 -106v-189q0 -26 1 -44t4 -32.5t8.5 -27t13.5 -27.5 q2 -4 2 -6q0 -3 -4 -5l-43 -27q-5 -3 -8 -3q-8 0 -19 19t-19 44q-34 -33 -67.5 -48t-75.5 -15q-61 0 -96.5 37t-35.5 100q0 170 264 174v33z" />
<glyph unicode="&#xe5;" horiz-adv-x="463" d="M220 684q-17 0 -29.5 -13t-12.5 -30q0 -18 12.5 -30.5t30.5 -12.5t30.5 12.5t12.5 30.5t-13 30.5t-31 12.5zM223 730q18 0 33.5 -7t27.5 -19t19 -28.5t7 -34.5q0 -37 -26 -63t-63 -26t-63 26t-26 64q0 18 7 34t19.5 28t29 19t35.5 7zM301 239q-187 -1 -187 -106 q0 -35 20.5 -57.5t52.5 -22.5q50 0 114 57v129zM301 334q0 48 -21 68.5t-71 20.5q-29 0 -54.5 -6t-64.5 -23q-6 -2 -7 -2q-5 0 -7 5l-15 40l-1 8q0 5 5 8.5t22 10.5q60 27 133 27q80 0 118 -34t38 -106v-189q0 -26 1 -44t4 -32.5t8.5 -27t13.5 -27.5q2 -4 2 -6q0 -3 -4 -5 l-43 -27q-5 -3 -8 -3q-8 0 -19 19t-19 44q-34 -33 -67.5 -48t-75.5 -15q-61 0 -96.5 37t-35.5 100q0 170 264 174v33z" />
<glyph unicode="&#xe6;" horiz-adv-x="704" d="M304 232q-103 -3 -146.5 -26t-43.5 -74q0 -35 20.5 -57t53.5 -22q29 0 57 13.5t59 43.5v122zM590 292q-7 72 -32.5 106.5t-73.5 34.5q-27 0 -50 -13t-36 -36q-9 -15 -14.5 -36.5t-7.5 -55.5h214zM304 334q0 48 -21.5 68.5t-71.5 20.5q-14 0 -25.5 -1.5t-24.5 -4.5 t-28.5 -8.5t-36.5 -14.5q-6 -2 -9 -2q-4 0 -6 5l-14 39q-2 5 -2.5 6t-0.5 3q0 7 15.5 15t38.5 15t50.5 11.5t50.5 4.5q47 0 77.5 -14t56.5 -48q29 33 62.5 49t77.5 16q87 0 133 -63.5t46 -181.5q0 -19 -13 -19h-285q2 -42 8.5 -70.5t21.5 -51.5q18 -27 44 -41.5t56 -14.5 q53 0 115 37q5 4 10 4t8 -5l18 -39q2 -6 2 -8q0 -5 -8.5 -11t-28.5 -15q-29 -14 -60 -21.5t-61 -7.5q-51 0 -86.5 18t-68.5 61q-43 -40 -83 -57.5t-90 -17.5q-63 0 -98.5 36.5t-35.5 100.5q0 83 65 124t202 43v40z" />
<glyph unicode="&#xe7;" horiz-adv-x="408" d="M273 -55q42 -5 59 -19.5t17 -45.5q0 -35 -28 -57t-74 -22q-27 0 -43.5 5.5t-16.5 13.5v8l5 30q0 6 5 6q3 0 6 -1q8 -3 22 -5.5t24 -2.5q40 0 40 24q0 23 -50 23q-30 0 -28 13q1 7 1 8v3l6 61q-81 10 -124 72t-43 170q0 125 54.5 195t151.5 70q30 0 60.5 -8t57.5 -22 q23 -14 23 -21l-1 -5l-23 -41q-3 -6 -8 -6q-4 0 -8 3q-34 19 -55.5 26t-44.5 7q-123 0 -123 -186q0 -96 28 -141.5t86 -45.5q51 0 116 37q4 2 6 2q4 0 6 -6l17 -41q2 -6 2 -8q0 -5 -11.5 -12t-29.5 -14.5t-39 -14t-40 -9.5z" />
<glyph unicode="&#xe8;" horiz-adv-x="463" d="M137 698q5 8 10 8q3 0 10 -5l145 -111q5 -4 6.5 -5.5t1.5 -4.5q0 -2 -5 -9l-12 -17q-3 -5 -7 -5t-10 3l-163 85q-9 4 -9 10q0 2 0.5 3t3.5 6zM350 285q-2 72 -29 110t-78 38q-103 0 -109 -148h216zM133 223q4 -82 37.5 -125.5t94.5 -43.5q27 0 55 8.5t61 27.5q4 3 10 3 q4 0 7 -5l18 -39q2 -5 2 -7q0 -6 -8 -12t-28 -16q-61 -28 -123 -28q-48 0 -86.5 17.5t-65.5 50.5t-41.5 80t-14.5 105t14 105.5t39.5 80.5t62 51t81.5 18q61 0 104.5 -31.5t63.5 -88.5q8 -24 11.5 -54.5t3.5 -78.5q0 -11 -2 -14.5t-9 -3.5h-287z" />
<glyph unicode="&#xe9;" horiz-adv-x="463" d="M366 701q6 5 10 5q3 0 4.5 -1.5t5.5 -6.5l29 -42q4 -7 4 -11t-9 -8l-164 -85q-5 -3 -6.5 -3.5t-3.5 -0.5t-3 1t-6 7l-10 15q-4 7 -4 10q0 4 8 9zM350 285q-2 72 -29 110t-78 38q-103 0 -109 -148h216zM133 223q4 -82 37.5 -125.5t94.5 -43.5q27 0 55 8.5t61 27.5 q4 3 10 3q4 0 7 -5l18 -39q2 -5 2 -7q0 -6 -8 -12t-28 -16q-61 -28 -123 -28q-48 0 -86.5 17.5t-65.5 50.5t-41.5 80t-14.5 105t14 105.5t39.5 80.5t62 51t81.5 18q61 0 104.5 -31.5t63.5 -88.5q8 -24 11.5 -54.5t3.5 -78.5q0 -11 -2 -14.5t-9 -3.5h-287z" />
<glyph unicode="&#xea;" horiz-adv-x="463" d="M160 566q-7 -4 -9 -4q-3 0 -10 7l-11 16q-5 7 -5 10q0 4 7 10l111 87q5 5 9 5t9 -5l111 -87q7 -7 7 -10t-5 -10l-13 -18q-4 -5 -8 -5q-2 0 -9 4l-92 59zM350 285q-2 72 -29 110t-78 38q-103 0 -109 -148h216zM133 223q4 -82 37.5 -125.5t94.5 -43.5q27 0 55 8.5t61 27.5 q4 3 10 3q4 0 7 -5l18 -39q2 -5 2 -7q0 -6 -8 -12t-28 -16q-61 -28 -123 -28q-48 0 -86.5 17.5t-65.5 50.5t-41.5 80t-14.5 105t14 105.5t39.5 80.5t62 51t81.5 18q61 0 104.5 -31.5t63.5 -88.5q8 -24 11.5 -54.5t3.5 -78.5q0 -11 -2 -14.5t-9 -3.5h-287z" />
<glyph unicode="&#xeb;" horiz-adv-x="463" d="M351 684q22 0 37.5 -15.5t15.5 -38.5q0 -22 -15.5 -37.5t-38.5 -15.5q-22 0 -37.5 15.5t-15.5 38.5q0 22 15.5 37.5t38.5 15.5zM154 684q22 0 37.5 -15.5t15.5 -38.5q0 -22 -15.5 -37.5t-37.5 -15.5q-23 0 -38.5 15.5t-15.5 38.5q0 22 15.5 37.5t38.5 15.5zM350 285 q-2 72 -29 110t-78 38q-103 0 -109 -148h216zM133 223q4 -82 37.5 -125.5t94.5 -43.5q27 0 55 8.5t61 27.5q4 3 10 3q4 0 7 -5l18 -39q2 -5 2 -7q0 -6 -8 -12t-28 -16q-61 -28 -123 -28q-48 0 -86.5 17.5t-65.5 50.5t-41.5 80t-14.5 105t14 105.5t39.5 80.5t62 51t81.5 18 q61 0 104.5 -31.5t63.5 -88.5q8 -24 11.5 -54.5t3.5 -78.5q0 -11 -2 -14.5t-9 -3.5h-287z" />
<glyph unicode="&#xec;" horiz-adv-x="259" d="M12 698q5 8 10 8q3 0 10 -5l145 -111q5 -4 6.5 -5.5t1.5 -4.5q0 -2 -5 -9l-12 -17q-3 -5 -7 -5t-10 3l-163 85q-9 4 -9 10q0 2 0.5 3t3.5 6zM20 418q-8 0 -10 2t-2 9v39q0 8 2 10t10 2h144q7 0 9 -2t2 -10v-456q0 -8 -2 -10t-9 -2h-53q-7 0 -9 2t-2 10v406h-80z" />
<glyph unicode="&#xed;" horiz-adv-x="259" d="M244 701q6 5 10 5q3 0 4.5 -1.5t5.5 -6.5l29 -42q4 -7 4 -11t-9 -8l-164 -85q-5 -3 -6.5 -3.5t-3.5 -0.5t-3 1t-6 7l-10 15q-4 7 -4 10q0 4 8 9zM20 418q-8 0 -10 2t-2 9v39q0 8 2 10t10 2h144q7 0 9 -2t2 -10v-456q0 -8 -2 -10t-9 -2h-53q-7 0 -9 2t-2 10v406h-80z" />
<glyph unicode="&#xee;" horiz-adv-x="259" d="M38 566q-7 -4 -9 -4q-3 0 -10 7l-11 16q-5 7 -5 10q0 4 7 10l111 87q5 5 9 5t9 -5l111 -87q7 -7 7 -10t-5 -10l-13 -18q-4 -5 -8 -5q-2 0 -9 4l-92 59zM20 418q-8 0 -10 2t-2 9v39q0 8 2 10t10 2h144q7 0 9 -2t2 -10v-456q0 -8 -2 -10t-9 -2h-53q-7 0 -9 2t-2 10v406h-80 z" />
<glyph unicode="&#xef;" horiz-adv-x="259" d="M201 684q22 0 37.5 -15.5t15.5 -38.5q0 -22 -15.5 -37.5t-38.5 -15.5q-22 0 -37.5 15.5t-15.5 38.5q0 22 15.5 37.5t38.5 15.5zM59 684q22 0 37.5 -15.5t15.5 -38.5q0 -22 -15.5 -37.5t-37.5 -15.5q-23 0 -38.5 15.5t-15.5 38.5q0 22 15.5 37.5t38.5 15.5zM20 418 q-8 0 -10 2t-2 9v39q0 8 2 10t10 2h144q7 0 9 -2t2 -10v-456q0 -8 -2 -10t-9 -2h-53q-7 0 -9 2t-2 10v406h-80z" />
<glyph unicode="&#xf0;" d="M249 431q-57 0 -87 -45t-30 -133q0 -50 9 -93t25 -68q13 -20 36 -31.5t51 -11.5t51.5 12t35.5 32q14 23 21.5 61t7.5 85q0 94 -30.5 143t-89.5 49zM328 633q63 -103 92 -192t29 -179q0 -131 -54 -203.5t-152 -72.5q-91 0 -141.5 67.5t-50.5 188.5q0 58 13.5 104.5 t38.5 79.5t61 50.5t80 17.5q28 0 50 -8.5t45 -26.5q-14 37 -33.5 74t-40.5 67l-81 -43q-4 -2 -8 -2t-7 7l-13 24q-3 6 -3 8t1.5 4t6.5 4l78 42q-5 8 -16 26t-25 39q-5 8 -7 11.5t-2 5.5q0 6 11 9l39 8h5q7 0 18 -13.5t38 -54.5l81 44l4.5 1.5t3.5 0.5t3.5 -1.5t3.5 -6.5 l14 -24q2 -6 2 -7q0 -4 -7 -8z" />
<glyph unicode="&#xf1;" horiz-adv-x="519" d="M413 666q7 -3 7 -8t-8.5 -20t-18.5 -28q-25 -31 -66 -31q-14 0 -25.5 4t-34.5 17q-20 11 -30.5 15t-20.5 4q-26 0 -43 -30q-4 -8 -9 -8l-6 1l-27 12q-8 3 -8 9q0 5 9 20.5t19 27.5q25 30 63 30q8 0 15.5 -1t16.5 -4.5t21 -10t30 -16.5q16 -8 28 -8q31 0 45 30q4 8 9 8 l7 -1zM117 489q6 3 8 3q8 0 17 -18.5t14 -47.5q46 37 82.5 52.5t78.5 15.5q35 0 61.5 -12.5t40.5 -35.5q5 -9 8.5 -18t5.5 -20t2.5 -26.5t0.5 -36.5v-333q0 -8 -2 -10t-9 -2h-53q-7 0 -9 2t-2 10v334q0 45 -15.5 64t-50.5 19t-64.5 -14t-67.5 -49v-354q0 -8 -2 -10t-9 -2 h-53q-7 0 -9 2t-2 10v343q0 17 -1 29.5t-3 23t-5.5 21t-9.5 22.5q-2 4 -2 6q0 4 5 6z" />
<glyph unicode="&#xf2;" d="M146 698q5 8 10 8q3 0 10 -5l145 -111q5 -4 6.5 -5.5t1.5 -4.5q0 -2 -5 -9l-12 -17q-3 -5 -7 -5t-10 3l-163 85q-9 4 -9 10q0 2 0.5 3t3.5 6zM249 431q-57 0 -87 -46.5t-30 -136.5q0 -48 8.5 -89t22.5 -66q13 -20 36.5 -32t51.5 -12q27 0 50 11t35 31q15 24 23.5 64.5 t8.5 88.5q0 187 -119 187zM256 494q91 0 142 -66.5t51 -184.5q0 -122 -54 -189.5t-151 -67.5q-92 0 -142.5 66t-50.5 186q0 122 54 189t151 67z" />
<glyph unicode="&#xf3;" d="M348 701q6 5 10 5q3 0 4.5 -1.5t5.5 -6.5l29 -42q4 -7 4 -11t-9 -8l-164 -85q-5 -3 -6.5 -3.5t-3.5 -0.5t-3 1t-6 7l-10 15q-4 7 -4 10q0 4 8 9zM249 431q-57 0 -87 -46.5t-30 -136.5q0 -48 8.5 -89t22.5 -66q13 -20 36.5 -32t51.5 -12q27 0 50 11t35 31q15 24 23.5 64.5 t8.5 88.5q0 187 -119 187zM256 494q91 0 142 -66.5t51 -184.5q0 -122 -54 -189.5t-151 -67.5q-92 0 -142.5 66t-50.5 186q0 122 54 189t151 67z" />
<glyph unicode="&#xf4;" d="M158 566q-7 -4 -9 -4q-3 0 -10 7l-11 16q-5 7 -5 10q0 4 7 10l111 87q5 5 9 5t9 -5l111 -87q7 -7 7 -10t-5 -10l-13 -18q-4 -5 -8 -5q-2 0 -9 4l-92 59zM249 431q-57 0 -87 -46.5t-30 -136.5q0 -48 8.5 -89t22.5 -66q13 -20 36.5 -32t51.5 -12q27 0 50 11t35 31 q15 24 23.5 64.5t8.5 88.5q0 187 -119 187zM256 494q91 0 142 -66.5t51 -184.5q0 -122 -54 -189.5t-151 -67.5q-92 0 -142.5 66t-50.5 186q0 122 54 189t151 67z" />
<glyph unicode="&#xf5;" d="M392 666q7 -3 7 -8t-8.5 -20t-18.5 -28q-25 -31 -66 -31q-14 0 -25.5 4t-34.5 17q-20 11 -30.5 15t-20.5 4q-26 0 -43 -30q-4 -8 -9 -8l-6 1l-27 12q-8 3 -8 9q0 5 9 20.5t19 27.5q25 30 63 30q8 0 15.5 -1t16.5 -4.5t21 -10t30 -16.5q16 -8 28 -8q31 0 45 30q4 8 9 8 l7 -1zM249 431q-57 0 -87 -46.5t-30 -136.5q0 -48 8.5 -89t22.5 -66q13 -20 36.5 -32t51.5 -12q27 0 50 11t35 31q15 24 23.5 64.5t8.5 88.5q0 187 -119 187zM256 494q91 0 142 -66.5t51 -184.5q0 -122 -54 -189.5t-151 -67.5q-92 0 -142.5 66t-50.5 186q0 122 54 189 t151 67z" />
<glyph unicode="&#xf6;" d="M349 684q22 0 37.5 -15.5t15.5 -38.5q0 -22 -15.5 -37.5t-38.5 -15.5q-22 0 -37.5 15.5t-15.5 38.5q0 22 15.5 37.5t38.5 15.5zM152 684q22 0 37.5 -15.5t15.5 -38.5q0 -22 -15.5 -37.5t-37.5 -15.5q-23 0 -38.5 15.5t-15.5 38.5q0 22 15.5 37.5t38.5 15.5zM249 431 q-57 0 -87 -46.5t-30 -136.5q0 -48 8.5 -89t22.5 -66q13 -20 36.5 -32t51.5 -12q27 0 50 11t35 31q15 24 23.5 64.5t8.5 88.5q0 187 -119 187zM256 494q91 0 142 -66.5t51 -184.5q0 -122 -54 -189.5t-151 -67.5q-92 0 -142.5 66t-50.5 186q0 122 54 189t151 67z" />
<glyph unicode="&#xf7;" d="M250 136q23 0 39.5 -16.5t16.5 -40.5q0 -23 -16.5 -39.5t-39.5 -16.5q-24 0 -40.5 16.5t-16.5 39.5q0 24 16.5 40.5t40.5 16.5zM250 484q23 0 39.5 -16.5t16.5 -39.5q0 -24 -16.5 -40.5t-39.5 -16.5q-24 0 -40.5 16.5t-16.5 40.5q0 23 16.5 39.5t40.5 16.5zM22 277 q0 9 2.5 11.5t11.5 2.5h428q9 0 11.5 -2.5t2.5 -11.5v-47q0 -9 -2.5 -11.5t-11.5 -2.5h-428q-9 0 -11.5 2.5t-2.5 11.5v47z" />
<glyph unicode="&#xf8;" d="M309 415q-14 8 -27.5 12t-31.5 4q-124 0 -124 -188q0 -78 20 -141zM191 66q16 -10 29.5 -13.5t31.5 -3.5q28 0 52 11t38 31q16 24 24.5 65.5t8.5 93.5q0 39 -5 68.5t-16 60.5zM106 46q-26 32 -40.5 82t-14.5 110q0 121 53 188.5t150 67.5q27 0 48.5 -5t43.5 -16l28 51 q3 7 7 7q2 0 8 -2l31 -17q8 -4 8 -8q0 -1 -3 -7l-33 -61q27 -32 42 -82.5t15 -110.5q0 -122 -54 -189.5t-151 -67.5q-27 0 -48.5 5t-44.5 17l-30 -56q-3 -7 -7 -7t-8 3l-32 16q-7 5 -7 8q0 2 0.5 3l2.5 5z" />
<glyph unicode="&#xf9;" d="M132 698q5 8 10 8q3 0 10 -5l145 -111q5 -4 6.5 -5.5t1.5 -4.5q0 -2 -5 -9l-12 -17q-3 -5 -7 -5t-10 3l-163 85q-9 4 -9 10q0 2 0.5 3t3.5 6zM346 465q0 10 10 13l53 14q4 1 6 1q7 0 7 -11v-349q0 -39 5.5 -60t20.5 -43q3 -5 3 -7q0 -1 -4 -5l-45 -29q-5 -3 -7 -3 q-6 0 -16.5 18t-18.5 42q-43 -33 -76.5 -46.5t-73.5 -13.5q-67 0 -102 34t-35 100v345q0 10 10 13l52 14q4 1 6 1q7 0 7 -11v-312q0 -66 15.5 -91t56.5 -25q31 0 64 13.5t62 37.5v360z" />
<glyph unicode="&#xfa;" d="M357 701q6 5 10 5q3 0 4.5 -1.5t5.5 -6.5l29 -42q4 -7 4 -11t-9 -8l-164 -85q-5 -3 -6.5 -3.5t-3.5 -0.5t-3 1t-6 7l-10 15q-4 7 -4 10q0 4 8 9zM346 465q0 10 10 13l53 14q4 1 6 1q7 0 7 -11v-349q0 -39 5.5 -60t20.5 -43q3 -5 3 -7q0 -1 -4 -5l-45 -29q-5 -3 -7 -3 q-6 0 -16.5 18t-18.5 42q-43 -33 -76.5 -46.5t-73.5 -13.5q-67 0 -102 34t-35 100v345q0 10 10 13l52 14q4 1 6 1q7 0 7 -11v-312q0 -66 15.5 -91t56.5 -25q31 0 64 13.5t62 37.5v360z" />
<glyph unicode="&#xfb;" d="M158 566q-7 -4 -9 -4q-3 0 -10 7l-11 16q-5 7 -5 10q0 4 7 10l111 87q5 5 9 5t9 -5l111 -87q7 -7 7 -10t-5 -10l-13 -18q-4 -5 -8 -5q-2 0 -9 4l-92 59zM346 465q0 10 10 13l53 14q4 1 6 1q7 0 7 -11v-349q0 -39 5.5 -60t20.5 -43q3 -5 3 -7q0 -1 -4 -5l-45 -29 q-5 -3 -7 -3q-6 0 -16.5 18t-18.5 42q-43 -33 -76.5 -46.5t-73.5 -13.5q-67 0 -102 34t-35 100v345q0 10 10 13l52 14q4 1 6 1q7 0 7 -11v-312q0 -66 15.5 -91t56.5 -25q31 0 64 13.5t62 37.5v360z" />
<glyph unicode="&#xfc;" d="M361 684q22 0 37.5 -15.5t15.5 -38.5q0 -22 -15.5 -37.5t-38.5 -15.5q-22 0 -37.5 15.5t-15.5 38.5q0 22 15.5 37.5t38.5 15.5zM164 684q22 0 37.5 -15.5t15.5 -38.5q0 -22 -15.5 -37.5t-37.5 -15.5q-23 0 -38.5 15.5t-15.5 38.5q0 22 15.5 37.5t38.5 15.5zM346 465 q0 10 10 13l53 14q4 1 6 1q7 0 7 -11v-349q0 -39 5.5 -60t20.5 -43q3 -5 3 -7q0 -1 -4 -5l-45 -29q-5 -3 -7 -3q-6 0 -16.5 18t-18.5 42q-43 -33 -76.5 -46.5t-73.5 -13.5q-67 0 -102 34t-35 100v345q0 10 10 13l52 14q4 1 6 1q7 0 7 -11v-312q0 -66 15.5 -91t56.5 -25 q31 0 64 13.5t62 37.5v360z" />
<glyph unicode="&#xfd;" horiz-adv-x="426" d="M339 701q6 5 10 5q3 0 4.5 -1.5t5.5 -6.5l29 -42q4 -7 4 -11t-9 -8l-164 -85q-5 -3 -6.5 -3.5t-3.5 -0.5t-3 1t-6 7l-10 15q-4 7 -4 10q0 4 8 9zM210 101q3 -10 5 -16.5l4 -13t4.5 -16.5l6.5 -26q5 21 8.5 37t8.5 33l98 382q4 8 10 8q1 0 5 -1l52 -19q9 -3 9 -8 q0 -2 -1 -6l-114 -393q-8 -28 -17 -56.5t-18 -54.5t-17 -47t-14 -34q-39 -82 -121 -82q-18 0 -40 5t-41 13t-32 16.5t-13 16.5q0 4 2 6l20 40q2 5 7 5q2 0 7 -3q25 -17 47.5 -26.5t40.5 -9.5q50 0 77 86l21 63h-40q-6 0 -8 1.5t-4 7.5l-157 444q-2 4 -2 7q0 5 9 8l54 19l8 1 q4 0 7 -9z" />
<glyph unicode="&#xfe;" d="M165 96q35 -24 59 -33t51 -9q50 0 71.5 44.5t21.5 149.5q0 45 -3.5 75t-11.5 52q-9 24 -28.5 38t-43.5 14q-26 0 -50.5 -10.5t-65.5 -38.5v-282zM165 442q38 29 67 40.5t63 11.5q154 0 154 -243q0 -62 -11.5 -111t-33 -83.5t-52 -52.5t-69.5 -18q-31 0 -57.5 10t-60.5 34 v-214q0 -7 -1.5 -9t-7.5 -4l-53 -14q-2 -1 -6 -1q-7 0 -7 11v899q0 10 10 13l52 12h1.5t5.5 1q6 0 6 -11v-271z" />
<glyph unicode="&#xff;" horiz-adv-x="426" d="M311 684q22 0 37.5 -15.5t15.5 -38.5q0 -22 -15.5 -37.5t-38.5 -15.5q-22 0 -37.5 15.5t-15.5 38.5q0 22 15.5 37.5t38.5 15.5zM114 684q22 0 37.5 -15.5t15.5 -38.5q0 -22 -15.5 -37.5t-37.5 -15.5q-23 0 -38.5 15.5t-15.5 38.5q0 22 15.5 37.5t38.5 15.5zM210 101 q3 -10 5 -16.5l4 -13t4.5 -16.5l6.5 -26q5 21 8.5 37t8.5 33l98 382q4 8 10 8q1 0 5 -1l52 -19q9 -3 9 -8q0 -2 -1 -6l-114 -393q-8 -28 -17 -56.5t-18 -54.5t-17 -47t-14 -34q-39 -82 -121 -82q-18 0 -40 5t-41 13t-32 16.5t-13 16.5q0 4 2 6l20 40q2 5 7 5q2 0 7 -3 q25 -17 47.5 -26.5t40.5 -9.5q50 0 77 86l21 63h-40q-6 0 -8 1.5t-4 7.5l-157 444q-2 4 -2 7q0 5 9 8l54 19l8 1q4 0 7 -9z" />
<glyph unicode="&#x131;" horiz-adv-x="259" d="M20 418q-8 0 -10 2t-2 9v39q0 8 2 10t10 2h144q7 0 9 -2t2 -10v-456q0 -8 -2 -10t-9 -2h-53q-7 0 -9 2t-2 10v406h-80z" />
<glyph unicode="&#x141;" horiz-adv-x="444" d="M29 225q-2 -1 -5 -2t-5 -1q-5 0 -5 11v45q0 8 7 12l75 50v332q0 9 2.5 11.5t11.5 2.5h54q9 0 11.5 -2.5t2.5 -11.5v-278l132 87q4 3 5 3.5t3 0.5q6 0 6 -11v-44q0 -8 -9 -14l-137 -91v-254h253q14 0 14 -7q0 -2 -0.5 -3t-2.5 -6l-15 -44q-4 -11 -16 -11h-301 q-9 0 -11.5 2.5t-2.5 11.5v256z" />
<glyph unicode="&#x142;" horiz-adv-x="278" d="M283 498q4 3 9 3q6 0 6 -11v-37q0 -8 -9 -14l-110 -73v-178q0 -73 3 -91q5 -38 40 -38q20 0 46 12q6 2 7 2q5 0 7 -7l12 -37q2 -5 2 -7q0 -4 -8 -8.5t-20 -8t-27 -6t-29 -2.5q-42 0 -69 19t-34 51q-2 8 -3 14t-1.5 17.5t-0.5 32.5v59v129l-88 -59q-5 -3 -10 -3t-5 11v37 q0 9 7 13l96 64v323q0 10 10 13l52 12q2 1 6 1q7 0 7 -11v-292z" />
<glyph unicode="&#x152;" horiz-adv-x="759" d="M392 570q-28 33 -55.5 48t-61.5 15q-28 0 -51 -13t-37 -36q-46 -78 -46 -242q0 -142 33.5 -215.5t97.5 -73.5q32 0 60.5 14t59.5 46v457zM474 390h196q9 0 11.5 -2.5t2.5 -11.5v-39q0 -9 -2.5 -11.5t-11.5 -2.5h-196v-252h239q9 0 11.5 -2.5t2.5 -11.5v-43 q0 -9 -2.5 -11.5t-11.5 -2.5h-307q-9 0 -11.5 2.5t-2.5 11.5v28q-29 -29 -59 -42.5t-68 -13.5q-43 0 -80.5 19t-63.5 54q-35 48 -52 116.5t-17 165.5q0 205 75 293q26 32 64 49t81 17q38 0 66.5 -11.5t53.5 -35.5v19q0 9 2.5 11.5t11.5 2.5h308q14 0 14 -7v-3t-2 -6l-15 -44 q-5 -11 -15 -11h-222v-225z" />
<glyph unicode="&#x153;" horiz-adv-x="778" d="M665 285q-5 76 -31 112t-76 36q-101 0 -110 -148h217zM248 431q-57 0 -86.5 -47t-29.5 -135q0 -50 8.5 -91t23.5 -66q13 -20 36.5 -32t51.5 -12t51 11t35 31q15 24 23.5 64.5t8.5 89.5q0 187 -122 187zM730 50q3 -6 3 -9q0 -9 -37 -26q-58 -29 -124 -29q-56 0 -98.5 24 t-64.5 67q-50 -91 -163 -91q-94 0 -144.5 65.5t-50.5 186.5t53.5 188.5t148.5 67.5q51 0 88.5 -21t68.5 -68q31 48 67 68.5t88 20.5q106 0 152 -91q8 -16 13.5 -32t9 -35t5 -42.5t1.5 -53.5q0 -17 -11 -17h-289q4 -43 10 -68t20 -45q18 -28 44.5 -43t57.5 -15q14 0 25.5 1.5 t25 6t29.5 12t39 19.5q6 2 8 2q5 0 7 -5z" />
<glyph unicode="&#x160;" horiz-adv-x="482" d="M353 868q2 2 5 2.5t5 0.5q4 0 10 -6l12 -16q4 -7 4 -10q0 -4 -7 -10l-109 -74q-11 -8 -18 -8q-6 0 -19 8l-108 74q-7 4 -7 11q0 4 4 9l12 16q6 6 9 6q6 0 11 -3l98 -52zM60 102q2 5 7 5q2 0 4.5 -1t12.5 -6q37 -20 75 -31t70 -11q56 0 89 31t33 82q0 23 -5.5 41t-20 35 t-38.5 34.5t-61 38.5q-32 18 -52 30t-33.5 21.5t-22.5 18t-18 18.5q-20 23 -30 51.5t-10 59.5q0 40 14.5 73t40.5 57t62 37.5t80 13.5q25 0 54.5 -5.5t54.5 -13.5t41.5 -17.5t16.5 -17.5v-2.5t-2 -5.5l-18 -45q-3 -6 -8 -6q-1 0 -2.5 0.5t-5.5 2t-12 5.5t-23 12 q-21 10 -47 16t-50 6q-52 0 -81 -26t-29 -73q0 -53 40 -85q8 -6 14 -10t17.5 -11t31.5 -19.5t57 -34.5q22 -13 37.5 -23t26.5 -19t19 -18t16 -20q17 -23 25 -50.5t8 -57.5q0 -44 -15 -80t-43 -62t-66.5 -40t-85.5 -14q-28 0 -61 6t-61.5 15t-47.5 19.5t-19 19.5q0 4 2 8z " />
<glyph unicode="&#x161;" horiz-adv-x="389" d="M300 693q6 4 9 4q4 0 10 -7l11 -16q5 -6 5 -10q0 -3 -7 -9l-111 -88q-5 -5 -9 -5q-2 0 -9 5l-111 88q-7 6 -7 9q0 4 5 10l13 18q4 5 8 5q2 0 9 -4l92 -59zM55 82q2 4 6 4q2 0 8 -2q33 -17 64.5 -25.5t57.5 -8.5q36 0 58 20t22 52q0 26 -14.5 42.5t-49.5 33.5 q-25 12 -42.5 20t-30 15t-21.5 13t-18 14q-46 37 -46 95q0 30 11 55.5t31.5 44t48.5 29t61 10.5q19 0 42 -4t42 -10.5t32 -14t13 -13.5q0 -2 -2 -7l-18 -37q-4 -6 -9 -6q-2 0 -3.5 0.5l-4.5 1.5q-55 26 -94 26q-36 0 -56 -17.5t-20 -49.5q0 -31 20 -49q5 -5 9.5 -8.5 t14 -8.5t28.5 -14.5t53 -25.5q55 -27 77.5 -55.5t22.5 -73.5q0 -32 -11.5 -58t-32.5 -45t-50 -29t-65 -10q-38 0 -77.5 10.5t-70.5 28.5q-6 4 -6 9q0 2 1 4z" />
<glyph unicode="&#x178;" horiz-adv-x="426" d="M315 866q22 0 38 -16t16 -39t-16 -39t-39 -16t-39 16t-16 39t16.5 39t39.5 16zM112 867q23 0 39 -16t16 -39t-16 -39.5t-39 -16.5t-39.5 16.5t-16.5 39.5t16.5 39t39.5 16zM191 424q10 -21 14.5 -32t12.5 -30q6 16 12 30t15 33l122 259q4 9 10 9q4 0 8 -1l54 -15 q11 -3 11 -8q0 -2 -0.5 -5t-2.5 -5l-190 -368v-277q0 -9 -2.5 -11.5t-11.5 -2.5h-54q-9 0 -11.5 2.5t-2.5 11.5v275l-196 369q-1 2 -2 5t-1 5q0 5 11 8l60 16l4 1q2 1 4 1q5 0 10 -10z" />
<glyph unicode="&#x17d;" horiz-adv-x="444" d="M321 868q2 2 5 2.5t5 0.5q4 0 10 -6l12 -16q4 -7 4 -10q0 -4 -7 -10l-109 -74q-11 -8 -18 -8q-6 0 -19 8l-108 74q-7 4 -7 11q0 4 4 9l12 16q6 6 9 6q6 0 11 -3l98 -52zM320 617h-264q-14 0 -14 8q0 2 1 4l1 3l10 42q3 12 15 12h333q9 0 11.5 -2.5t2.5 -11.5v-48 l-296 -553h293q9 0 11.5 -2.5t2.5 -11.5v-43q0 -9 -2.5 -11.5t-11.5 -2.5h-373q-9 0 -11.5 2.5t-2.5 11.5v52z" />
<glyph unicode="&#x17e;" horiz-adv-x="407" d="M316 693q6 4 9 4q4 0 10 -7l11 -16q5 -6 5 -10q0 -3 -7 -9l-111 -88q-5 -5 -9 -5q-2 0 -9 5l-111 88q-7 6 -7 9q0 4 5 10l13 18q4 5 8 5q2 0 9 -4l92 -59zM285 417h-221q-8 0 -9.5 1.5t-1.5 9.5v41q0 8 1.5 9.5t9.5 1.5h304q11 0 11 -11v-42l-249 -362h249q11 0 11 -6 q0 -3 -2 -8l-19 -42q-3 -9 -13 -9h-312q-8 0 -10 2t-2 10v40z" />
<glyph unicode="&#x192;" d="M278 577q8 39 19 62.5t28 40.5q20 20 49.5 30t64.5 10q17 0 36.5 -3t35.5 -7.5t26.5 -9.5t10.5 -10q0 -2 -1 -4l-1 -3l-18 -43q-2 -5 -7 -5q-2 0 -6 2q-23 9 -44.5 14t-39.5 5q-36 0 -54 -19t-28 -69l-18 -84h131q14 0 14 -8q0 -1 -0.5 -2t-2.5 -6l-13 -36 q-4 -10 -15 -10h-128l-97 -450q-20 -93 -64.5 -134.5t-125.5 -41.5q-32 0 -55 5.5t-23 13.5q0 1 2 6l15 47q2 5 5 5q4 0 6 -1q10 -4 26 -6.5t32 -2.5q43 0 68.5 26.5t38.5 86.5l97 446h-65q-13 0 -13 8q0 5 1 7l7 35q2 8 4 10t10 2h72z" />
<glyph unicode="&#x2c6;" d="M158 566q-7 -4 -9 -4q-3 0 -10 7l-11 16q-5 7 -5 10q0 4 7 10l111 87q5 5 9 5t9 -5l111 -87q7 -7 7 -10t-5 -10l-13 -18q-4 -5 -8 -5q-2 0 -9 4l-92 59z" />
<glyph unicode="&#x2c7;" d="M342 693q6 4 9 4q4 0 10 -7l11 -16q5 -6 5 -10q0 -3 -7 -9l-111 -88q-5 -5 -9 -5q-2 0 -9 5l-111 88q-7 6 -7 9q0 4 5 10l13 18q4 5 8 5q2 0 9 -4l92 -59z" />
<glyph unicode="&#x2d8;" d="M368 677q11 -1 11 -12t-9 -31.5t-20 -35.5q-34 -46 -100 -46q-77 0 -111 59q-7 12 -12.5 28.5t-5.5 25.5q0 11 11 12l39 7h4q9 0 10 -10q8 -36 23 -52.5t41 -16.5q27 0 42 16t23 53q2 10 11 10h4z" />
<glyph unicode="&#x2d9;" d="M251 690q25 0 43 -18.5t18 -44.5t-18 -44t-44 -18t-44.5 18.5t-18.5 44.5t18.5 44t45.5 18z" />
<glyph unicode="&#x2da;" d="M249 669q-17 0 -29.5 -13t-12.5 -30q0 -18 12.5 -30.5t30.5 -12.5t30.5 12.5t12.5 30.5t-13 30.5t-31 12.5zM252 715q18 0 33.5 -7t27.5 -19t19 -28.5t7 -34.5q0 -37 -26 -63t-63 -26t-63 26t-26 64q0 18 7 34t19.5 28t29 19t35.5 7z" />
<glyph unicode="&#x2db;" d="M306 36q-23 -26 -38.5 -45.5t-25.5 -34.5t-14 -27t-4 -22q0 -34 34 -34q11 0 26.5 5.5t29.5 14.5q4 2 6 2q3 0 4 -6l10 -28q2 -5 2 -5.5v-2.5q0 -5 -8 -11t-20 -10.5t-26.5 -7.5t-27.5 -3q-42 0 -65.5 21.5t-23.5 59.5q0 12 2.5 23t8.5 23.5t17 28.5t28 38z" />
<glyph unicode="&#x2dc;" d="M391 666q7 -3 7 -8t-8.5 -20t-18.5 -28q-25 -31 -66 -31q-14 0 -25.5 4t-34.5 17q-20 11 -30.5 15t-20.5 4q-26 0 -43 -30q-4 -8 -9 -8l-6 1l-27 12q-8 3 -8 9q0 5 9 20.5t19 27.5q25 30 63 30q8 0 15.5 -1t16.5 -4.5t21 -10t30 -16.5q16 -8 28 -8q31 0 45 30q4 8 9 8 l7 -1z" />
<glyph unicode="&#x2dd;" d="M343 712q5 7 10 7q3 0 9 -5l34 -31q7 -6 7 -10q0 -3 -7 -10l-127 -112q-5 -5 -9 -5t-10 6l-11 9q-6 7 -6 11q0 3 5 8zM207 712q6 7 10 7q3 0 9 -5l34 -31q7 -6 7 -10q0 -2 -1 -3.5t-6 -6.5l-127 -112q-5 -5 -9 -5q-3 0 -10 6l-10 9q-7 7 -7 10q0 2 0.5 3.5t4.5 5.5z" />
<glyph unicode="&#x3bc;" d="M148 -184q0 -10 -9 -13l-53 -14q-2 -1 -6 -1q-7 0 -7 11v666q0 10 10 13l52 14q4 1 6 1q7 0 7 -11v-312q0 -66 15.5 -91t56.5 -25q31 0 64 13.5t62 37.5v360q0 10 10 13l53 14q4 1 6 1q7 0 7 -11v-349q0 -39 5.5 -60t20.5 -43q3 -5 3 -7q0 -1 -4 -5l-45 -29q-5 -3 -7 -3 q-6 0 -16.5 18t-18.5 42q-40 -32 -72 -46t-68 -14q-22 0 -38 4.5t-34 15.5v-190z" />
<glyph unicode="&#x2013;" d="M448 289q9 0 11.5 -2.5t2.5 -11.5v-39q0 -9 -2.5 -11.5t-11.5 -2.5h-395q-9 0 -11.5 2.5t-2.5 11.5v39q0 9 2.5 11.5t11.5 2.5h395z" />
<glyph unicode="&#x2014;" horiz-adv-x="778" d="M727 288q9 0 11.5 -2.5t2.5 -11.5v-37q0 -10 -2 -12t-12 -2h-676q-9 0 -11.5 2.5t-2.5 11.5v37q0 9 2.5 11.5t11.5 2.5h676z" />
<glyph unicode="&#x2018;" horiz-adv-x="241" d="M38 476q-14 0 -14 7q0 5 4 10l115 212q3 6 5 7.5t4 1.5t3.5 -0.5t5.5 -1.5l22 -8q11 -4 11 -9q0 -2 -1 -4l-1 -4l-59 -200q-3 -11 -15 -11h-80z" />
<glyph unicode="&#x2019;" horiz-adv-x="241" d="M203 707q14 0 14 -8q0 -2 -0.5 -3t-3.5 -6l-115 -212q-6 -9 -9 -9h-3t-6 2l-22 8q-11 4 -11 9v2t2 6l58 200q5 11 15 11h81z" />
<glyph unicode="&#x201a;" horiz-adv-x="241" d="M203 114q14 0 14 -7q0 -2 -0.5 -3.5t-3.5 -6.5l-115 -212q-4 -6 -5.5 -7.5t-4.5 -1.5h-2.5t-5.5 2l-22 8q-11 4 -11 9v2t2 6l58 200q4 11 15 11h81z" />
<glyph unicode="&#x201c;" horiz-adv-x="408" d="M38 476q-14 0 -14 7q0 5 4 10l115 212q4 6 5.5 7.5t4.5 1.5h2.5t5.5 -2l22 -8q11 -4 11 -9q0 -2 -1 -4l-1 -4l-59 -200q-3 -11 -15 -11h-80zM204 476q-13 0 -13 7q0 4 3 10l116 212q4 9 9 9q3 0 8 -2l22 -8q11 -4 11 -9l-2 -8l-58 -200q-3 -11 -15 -11h-81z" />
<glyph unicode="&#x201d;" horiz-adv-x="408" d="M370 707q13 0 13 -7q0 -2 -1 -5t-2 -5l-116 -212q-5 -9 -9 -9q-3 0 -8 2l-23 8q-10 4 -10 9q0 4 2 8l58 200q3 11 15 11h81zM203 707q14 0 14 -8q0 -2 -0.5 -3t-3.5 -6l-115 -212q-6 -9 -9 -9h-3t-6 2l-22 8q-11 4 -11 9v2t2 6l58 200q5 11 15 11h81z" />
<glyph unicode="&#x201e;" horiz-adv-x="408" d="M370 114q13 0 13 -7q0 -2 -1 -5t-2 -5l-116 -212q-3 -6 -4.5 -7.5t-4.5 -1.5h-2.5t-5.5 2l-23 8q-10 4 -10 9q0 4 2 8l58 200q3 11 15 11h81zM203 114q14 0 14 -7q0 -2 -0.5 -3.5t-3.5 -6.5l-115 -212q-4 -6 -5.5 -7.5t-4.5 -1.5h-2.5t-5.5 2l-22 8q-11 4 -11 9v2t2 6 l58 200q4 11 15 11h81z" />
<glyph unicode="&#x2020;" d="M212 672q0 9 2.5 11.5t11.5 2.5h47q9 0 11.5 -2.5t2.5 -11.5v-212h118q9 0 11.5 -2.5t2.5 -11.5v-44q0 -9 -2.5 -11.5t-11.5 -2.5h-118v-586q0 -9 -2.5 -11.5t-11.5 -2.5h-47q-9 0 -11.5 2.5t-2.5 11.5v586h-117q-9 0 -11.5 2.5t-2.5 11.5v44q0 9 2.5 11.5t11.5 2.5h117 v212z" />
<glyph unicode="&#x2021;" d="M405 460q10 0 12 -2.5t2 -14.5v-38q0 -9 -2.5 -11.5t-11.5 -2.5h-118v-302h118q9 0 11.5 -2.5t2.5 -11.5v-40q0 -9 -2.5 -11.5t-11.5 -2.5h-118v-219q0 -9 -2.5 -11.5t-11.5 -2.5h-46q-9 0 -11.5 2.5t-2.5 11.5v219h-118q-9 0 -11.5 2.5t-2.5 11.5v40q0 9 2.5 11.5 t11.5 2.5h118v302h-118q-9 0 -11.5 2.5t-2.5 11.5v41q0 9 2.5 11.5t11.5 2.5h118v212q0 9 2.5 11.5t11.5 2.5h46q9 0 11.5 -2.5t2.5 -11.5v-212h118z" />
<glyph unicode="&#x2022;" horiz-adv-x="686" d="M346 491q29 0 54.5 -11t45 -30.5t30.5 -45.5t11 -56q0 -29 -11 -55t-30.5 -45.5t-45.5 -30.5t-55 -11q-30 0 -56 11t-45.5 30.5t-30.5 45.5t-11 55q0 30 11 56t30.5 45.5t46 30.5t56.5 11z" />
<glyph unicode="&#x2026;" horiz-adv-x="889" d="M743 127q28 0 48.5 -20.5t20.5 -49.5t-20.5 -50t-49.5 -21q-30 0 -50.5 21t-20.5 50t21 49.5t51 20.5zM446 127q28 0 48.5 -20.5t20.5 -49.5t-20.5 -50t-49.5 -21q-30 0 -50.5 21t-20.5 50t21 49.5t51 20.5zM150 127q28 0 48.5 -20.5t20.5 -49.5t-20.5 -50t-49.5 -21 q-30 0 -50.5 20.5t-20.5 50.5q0 29 21 49.5t51 20.5z" />
<glyph unicode="&#x2030;" horiz-adv-x="1111" d="M487 650q3 10 15 10h41q14 0 14 -8q0 -2 -0.5 -2.5t-2.5 -5.5l-272 -653q-5 -10 -19 -10h-38q-13 0 -13 7q0 5 2 9zM947 276q-33 0 -51 -31t-18 -88q0 -112 63 -112q34 0 52 30.5t18 87.5q0 113 -64 113zM950 331q60 0 93.5 -42.5t33.5 -120.5q0 -85 -36 -131.5 t-100 -46.5q-62 0 -95.5 42.5t-33.5 120.5q0 85 36 131.5t102 46.5zM604 276q-33 0 -51 -31t-18 -88q0 -112 64 -112q34 0 52 30.5t18 87.5q0 113 -65 113zM607 331q61 0 94.5 -42.5t33.5 -120.5q0 -85 -36 -131.5t-101 -46.5q-62 0 -95.5 42.5t-33.5 120.5q0 85 36 131.5 t102 46.5zM169 598q-33 0 -51 -31t-18 -88q0 -112 64 -112q33 0 51 30.5t18 87.5q0 113 -64 113zM172 653q60 0 93.5 -42.5t33.5 -120.5q0 -85 -36 -131.5t-100 -46.5q-62 0 -95.5 42.5t-33.5 121.5q0 85 36 131t102 46z" />
<glyph unicode="&#x2039;" horiz-adv-x="296" d="M269 49q4 -6 4 -9q0 -4 -9 -10l-28 -15q-6 -3 -9 -3q-5 0 -9 7l-168 211q-4 6 -4 10q0 3 4 9l168 211q4 7 10 7q3 0 8 -3l28 -15q9 -4 9 -9q0 -3 -4 -10l-129 -190z" />
<glyph unicode="&#x203a;" horiz-adv-x="296" d="M28 430q-5 7 -5 9q0 5 9 10l28 15q6 3 9 3q4 0 9 -7l168 -211q4 -4 4 -10q0 -5 -4 -9l-167 -211q-6 -7 -11 -7q-2 0 -8 3l-28 15q-9 5 -9 9q0 2 0.5 3.5t4.5 6.5l128 190z" />
<glyph unicode="&#x2044;" horiz-adv-x="130" d="M167 650q4 10 15 10h41q14 0 14 -8q0 -2 -0.5 -2.5t-2.5 -5.5l-272 -653q-4 -10 -19 -10h-37q-14 0 -14 8q0 2 0.5 2.5t2.5 5.5z" />
<glyph unicode="&#x2122;" horiz-adv-x="685" d="M463 469q2 7 2.5 10t1.5 6l74 193q3 8 13 8h39q12 0 13 -11l23 -368v-2q0 -10 -13 -10h-35q-13 0 -13 11l-9 281l-75 -194q-4 -8 -13 -8h-19q-9 0 -13 8l-72 194l-9 -281q-1 -11 -13 -11h-34q-13 0 -12 12l23 368q1 11 13 11h37q6 0 8.5 -1.5t4.5 -6.5l73 -193l2 -6z M168 306q0 -11 -13 -11h-33q-13 0 -13 11v334h-86q-13 0 -13 11v24q0 11 13 11h241q13 0 13 -8q0 -2 -2 -6l-9 -24q-3 -8 -13 -8h-85v-334z" />
<glyph unicode="&#x2212;" d="M469 291q9 0 11.5 -2.5t2.5 -11.5v-44q0 -14 -14 -14h-438q-9 0 -11.5 2.5t-2.5 11.5v44q0 9 2.5 11.5t11.5 2.5h438z" />
<glyph unicode="&#x2219;" horiz-adv-x="206" d="M104 311q27 0 46.5 -20t19.5 -47q0 -29 -19.5 -48.5t-48.5 -19.5q-28 0 -47.5 19.5t-19.5 48.5q0 28 20 47.5t49 19.5z" />
<glyph unicode="&#x25fc;" horiz-adv-x="490" d="M0 490h490v-490h-490v490z" />
</font>
</defs>
</svg>
