<?xml version="1.0" standalone="no"?>
<!DOCTYPE svg PUBLIC "-//W3C//DTD SVG 1.1//EN" "http://www.w3.org/Graphics/SVG/1.1/DTD/svg11.dtd" >
<svg xmlns="http://www.w3.org/2000/svg">
<metadata></metadata>
<defs>
<font id="officinaseritcbold" horiz-adv-x="500" >
<font-face units-per-em="1000" ascent="800" descent="-200" />
<missing-glyph horiz-adv-x="206" />
<glyph unicode="fi" horiz-adv-x="630" d="M511 723q32 0 55.5 -23.5t23.5 -56.5t-23.5 -56.5t-56.5 -23.5t-56.5 23.5t-23.5 57.5q0 33 23.5 56t57.5 23zM115 536q0 56 9.5 88t33.5 56q44 44 116 44q21 0 41.5 -3t37 -8t26.5 -11.5t10 -12.5q0 -5 -1 -9l-19 -71q-2 -9 -9 -9q-4 0 -10 3q-32 14 -54 14 q-31 0 -44 -18q-6 -9 -8 -20.5t-2 -42.5v-42h290q11 0 14 -3t3 -14v-384h65q14 0 14 -14v-65q0 -14 -14 -14h-244q-14 0 -14 14v65q0 14 14 14h52v308h-180v-308h52q13 0 13 -14v-65q0 -8 -2.5 -11t-10.5 -3h-248q-14 0 -14 14v65q0 14 14 14h69v308h-76q-13 0 -15 3t-2 21 v55q0 14 17 14h76v42z" />
<glyph unicode="fl" horiz-adv-x="648" d="M115 536q0 56 9.5 88t33.5 56q23 23 51.5 33.5t70.5 10.5q41 0 74 -6t77 -22l106 21q14 3 14 -14v-517v-32v-17t0.5 -9t1.5 -6q4 -22 25 -22q16 0 33 7q3 1 7 1q6 0 8 -7l20 -82l1 -4q1 -2 1 -4q0 -5 -9 -10t-23.5 -9t-32 -6.5t-35.5 -2.5q-82 0 -110 59q-4 9 -7 19.5 t-4.5 25.5t-2 36.5t-0.5 53.5v419q-19 8 -34 13.5t-28.5 9t-27 5t-28.5 1.5q-39 0 -54 -21q-6 -8 -8 -21t-2 -47v-42h114q17 0 17 -10v-2.5t-2 -7.5l-14 -58q-4 -15 -19 -15h-96v-308h75q14 0 14 -14v-65q0 -14 -14 -14h-271q-14 0 -14 14v65q0 14 14 14h69v308h-76 q-13 0 -15 3t-2 21v55q0 14 17 14h76v42z" />
<glyph unicode="&#xd;" horiz-adv-x="206" />
<glyph unicode=" "  horiz-adv-x="206" />
<glyph unicode="&#x09;" horiz-adv-x="206" />
<glyph unicode="&#xa0;" horiz-adv-x="206" />
<glyph unicode="!" horiz-adv-x="352" d="M228 697q22 0 21 -12l-1 -9l-22 -403q-1 -14 -4.5 -17t-16.5 -3h-60q-14 0 -17 3t-4 17l-23 403v7q0 8 4 11t16 3h107zM178 142q34 0 58.5 -25t24.5 -60t-24.5 -59.5t-59.5 -24.5t-60 25t-25 60t25 59.5t61 24.5z" />
<glyph unicode="&#x22;" horiz-adv-x="537" d="M405 686q20 0 20 -13v-9l-21 -231q-1 -12 -4.5 -15.5t-16.5 -3.5h-42q-13 0 -16 3t-5 16l-21 231q-1 4 -1 6.5v3.5q0 7 4.5 9.5t16.5 2.5h86zM220 686q20 0 20 -13v-3q0 -2 -0.5 -3t-0.5 -3l-20 -231q-1 -12 -4.5 -15.5t-16.5 -3.5h-42q-13 0 -16 3t-5 16l-21 231 q-1 4 -1 9q0 13 20 13h87z" />
<glyph unicode="#" horiz-adv-x="537" d="M305 211l17 168h-100l-18 -168h101zM133 379h-40q-14 0 -17.5 3t-3.5 17v57q0 13 3.5 16.5t17.5 3.5h50l17 163q2 12 6 15.5t15 3.5h48q12 0 16 -3t4 -11v-8l-17 -160h100l18 163q2 11 5.5 15t15.5 4h47q22 0 21 -13l-1 -9l-17 -160h50q14 0 17.5 -3.5t3.5 -16.5v-57 q0 -13 -3.5 -16.5t-17.5 -3.5h-60l-18 -168h51q14 0 17.5 -3.5t3.5 -17.5v-53q0 -14 -3.5 -17.5t-17.5 -3.5h-60l-19 -177q-2 -11 -6 -15t-15 -4h-48q-12 0 -16 3t-4 13v6l19 174h-101l-19 -177q-2 -11 -6 -15t-15 -4h-48q-20 0 -20 13v3q0 3 1 6l18 174h-39 q-14 0 -17.5 3.5t-3.5 17.5v53q0 14 3.5 17.5t17.5 3.5h49z" />
<glyph unicode="$" horiz-adv-x="537" d="M245 574q-69 -17 -69 -78q0 -29 16 -48.5t53 -36.5v163zM293 96q32 8 50 29.5t18 53.5t-16 53t-52 39v-175zM238 727q0 14 3.5 17.5t17.5 3.5h20q14 0 17.5 -3.5t3.5 -17.5v-49q28 -2 56.5 -7.5t50.5 -14t36 -17.5t14 -18q0 -2 -0.5 -5.5t-2.5 -5.5l-31 -68q-3 -8 -9 -8 q-3 0 -5.5 1t-14.5 8q-44 24 -94 29v-184q27 -13 47 -23t34.5 -19t25.5 -17.5t20 -18.5q49 -50 49 -125q0 -78 -47 -130.5t-129 -65.5v-44q0 -14 -3.5 -17.5t-17.5 -3.5h-20q-14 0 -17.5 3.5t-3.5 17.5v42q-32 2 -63.5 8t-56 14t-39.5 17t-15 17l1 9l30 84q3 8 9 8 q5 0 21 -8q34 -17 60.5 -26t52.5 -11v195q-28 12 -47 21t-32.5 16t-22.5 13.5t-18 13.5q-56 49 -56 130q0 79 45 127.5t131 60.5v51z" />
<glyph unicode="%" horiz-adv-x="833" d="M510 662q7 15 23 15h51q20 0 20 -13q0 -3 -3 -12l-282 -674q-7 -18 -23 -18h-51q-12 0 -16.5 2.5t-4.5 8.5q0 3 0.5 5t3.5 9zM633 266q-26 0 -40.5 -27t-14.5 -75q0 -105 57 -105t57 100q0 107 -59 107zM638 340q68 0 108.5 -47.5t40.5 -126.5q0 -85 -41.5 -133 t-115.5 -48q-69 0 -109 46t-40 126q0 85 42 134t115 49zM199 589q-26 0 -40.5 -26.5t-14.5 -74.5q0 -107 57 -107t57 101q0 107 -59 107zM204 663q68 0 108.5 -47.5t40.5 -127.5q0 -85 -41.5 -133t-115.5 -48q-69 0 -109 46t-40 127q0 84 42.5 133.5t114.5 49.5z" />
<glyph unicode="&#x26;" horiz-adv-x="611" d="M249 294q-76 -50 -76 -114q0 -43 29 -71.5t73 -28.5q62 0 110 54zM280 423q38 34 53 59.5t15 57.5q0 33 -17.5 52t-48.5 19t-51 -20t-20 -51q0 -12 2 -22t8.5 -21t18 -25t29.5 -36q2 -2 4.5 -5t6.5 -8zM460 48q-22 -20 -43 -34t-44.5 -23t-49 -13t-56.5 -4q-52 0 -94 13 t-71.5 38t-45.5 60.5t-16 79.5q0 31 7 56.5t24 48.5t45 46t69 49q-27 32 -45 56t-28.5 43.5t-14.5 36.5t-4 36q0 36 15.5 67t42 54t62 36t76.5 13q40 0 73 -11.5t56.5 -32.5t36.5 -50.5t13 -64.5q0 -27 -6.5 -50.5t-21.5 -46t-39 -46.5t-60 -51l107 -127q12 23 20.5 55 t11.5 68q1 11 9 11q2 0 10 -2l74 -20q12 -3 12 -15q0 -16 -5 -39t-13 -48t-19 -50.5t-23 -46.5l71 -86q7 -8 8 -10t1 -5q0 -5 -10 -14l-51 -43q-8 -6 -14 -6t-15 10z" />
<glyph unicode="'" horiz-adv-x="352" d="M220 686q20 0 20 -13v-3q0 -2 -0.5 -3t-0.5 -3l-20 -231q-1 -12 -4.5 -15.5t-16.5 -3.5h-42q-13 0 -16 3t-5 16l-21 231q-1 4 -1 9q0 13 20 13h87z" />
<glyph unicode="(" horiz-adv-x="445" d="M346 -260q-5 -3 -11 -3q-9 0 -30.5 26.5t-62.5 88.5q-65 98 -95 192t-30 200q0 57 8 109t25.5 103t45 102.5t66.5 107.5q18 26 30 42.5t20 26t13 13t10 3.5q10 0 46 -24q16 -10 20.5 -14.5t4.5 -9.5t-1.5 -8t-6.5 -10q-13 -18 -27.5 -41t-28 -47t-25.5 -47t-19 -41 q-26 -60 -38 -125t-12 -140q0 -61 8.5 -116.5t26.5 -109t46.5 -106.5t68.5 -109q8 -12 8 -18q0 -8 -8 -13z" />
<glyph unicode=")" horiz-adv-x="445" d="M100 748q4 3 10 3q10 0 31 -26.5t62 -88.5q65 -98 95 -192t30 -200q0 -57 -8 -109t-25.5 -103t-45 -102.5t-66.5 -107.5q-35 -51 -50 -68t-23 -17q-10 0 -46 24q-16 11 -20.5 15t-4.5 9q0 7 8 18q11 15 25.5 38t28.5 47.5t26 48.5t20 42q25 60 37.5 125t12.5 140 q0 85 -16 157.5t-48 139.5q-6 12 -17.5 33t-24.5 42.5t-25 40.5t-19 28q-8 11 -8 18t8 13z" />
<glyph unicode="*" horiz-adv-x="537" d="M96 502q-11 2 -14.5 4.5t-3.5 7.5q0 4 3 13l20 61q5 17 13 17q3 0 4.5 -0.5t9.5 -5.5l110 -59l-20 124l-1 5q-1 2 -1 6q0 6 4.5 8.5t16.5 2.5h64q20 0 20 -12l-1 -11l-22 -123l111 58q7 4 8.5 4.5t5.5 0.5q5 0 7.5 -3t5.5 -13l20 -61q2 -8 2.5 -9.5t0.5 -3.5q0 -6 -4 -8 t-15 -4l-124 -17l89 -88q6 -5 7.5 -8t1.5 -6q0 -5 -2 -7.5t-9 -7.5l-52 -38q-10 -7 -15 -7q-4 0 -6.5 3t-6.5 11l-55 113l-56 -112q-4 -8 -6.5 -11t-6.5 -3q-7 0 -15 7l-52 38q-7 5 -9 7.5t-2 6.5q0 7 9 15l90 87z" />
<glyph unicode="+" horiz-adv-x="537" d="M58 206q-11 0 -14 3t-3 14v68q0 11 3 14t14 3h160v159q0 11 3 14t14 3h68q11 0 14 -3t3 -14v-159h159q11 0 14 -3t3 -14v-68q0 -11 -3 -14t-14 -3h-159v-160q0 -11 -3 -14t-14 -3h-68q-11 0 -14 3t-3 14v160h-160z" />
<glyph unicode="," horiz-adv-x="297" d="M227 125q20 0 20 -11q0 -7 -5 -14l-119 -224q-5 -8 -7 -11t-7 -3q-2 0 -3.5 0.5t-8.5 2.5l-38 13q-10 4 -13 6.5t-3 7.5q0 2 0.5 3.5t2.5 8.5l62 204q3 10 7.5 13.5t15.5 3.5h96z" />
<glyph unicode="-" horiz-adv-x="371" d="M310 315q14 0 17.5 -3.5t3.5 -16.5v-79q0 -14 -3.5 -17t-17.5 -3h-250q-14 0 -17.5 3t-3.5 17v79q0 14 3.5 17t17.5 3h250z" />
<glyph unicode="." horiz-adv-x="296" d="M150 174q19 0 36 -7.5t29.5 -20.5t20 -30.5t7.5 -36.5q0 -40 -27.5 -67.5t-67.5 -27.5t-67.5 27.5t-27.5 68.5q0 19 7.5 36.5t20.5 30t31 20t38 7.5z" />
<glyph unicode="/" horiz-adv-x="445" d="M387 746q18 0 18 -12q0 -4 -3 -13l-325 -966q-6 -18 -27 -18h-58q-12 0 -16 2.5t-4 10.5q0 2 0.5 3.5l2.5 7.5l326 967q6 18 27 18h59z" />
<glyph unicode="0" horiz-adv-x="537" d="M270 579q-57 0 -83.5 -59.5t-26.5 -186.5t26 -185t83 -58q61 0 87 59q11 26 16 63t5 103q0 43 -1 75.5t-4 57.5t-7.5 43.5t-11.5 33.5q-25 54 -83 54zM279 686q45 0 87 -18.5t68 -50.5q72 -87 72 -278t-63 -276q-29 -38 -75 -59t-102 -21q-115 0 -175 88.5t-60 257.5 q0 198 77 284q30 35 75 54t96 19z" />
<glyph unicode="1" horiz-adv-x="537" d="M426 93q14 0 17.5 -3.5t3.5 -17.5v-51q0 -14 -3.5 -17.5t-17.5 -3.5h-293q-14 0 -17.5 3.5t-3.5 17.5v51q0 14 3.5 17.5t17.5 3.5h95v425l-77 -47q-8 -5 -15 -5q-5 0 -13 13l-26 44q-4 8 -4 14q0 7 11 15l160 117h69q14 0 17.5 -3.5t3.5 -17.5v-555h72z" />
<glyph unicode="2" horiz-adv-x="537" d="M447 112q14 0 17.5 -3.5t3.5 -17.5v-70q0 -14 -3.5 -17.5t-17.5 -3.5h-360q-14 0 -14 14v8q0 31 1.5 54.5t5 42.5t9.5 35.5t15 33.5q11 20 22.5 35.5t28.5 33t43 38.5t66 52q51 39 70.5 70.5t19.5 73.5q0 41 -21.5 62.5t-60.5 21.5q-37 0 -59 -18.5t-42 -66.5 q-6 -15 -15 -15q-5 0 -11 2l-64 24q-12 4 -12 15q0 9 4.5 22t12 28t17 29.5t19.5 25.5q57 65 162 65q91 0 140.5 -50t49.5 -141q0 -95 -59 -160q-11 -12 -19 -20t-21 -18.5t-33.5 -27t-57.5 -44.5q-39 -30 -54.5 -55.5t-16.5 -57.5h234z" />
<glyph unicode="3" horiz-adv-x="537" d="M70 574q-5 5 -5 10q0 10 21 34q63 68 158 68q44 0 80.5 -13t62.5 -36.5t40 -56t14 -72.5q0 -54 -22.5 -89.5t-72.5 -59.5q118 -38 118 -170q0 -94 -71 -153q-33 -28 -70.5 -40.5t-87.5 -12.5q-42 0 -83.5 8t-77.5 25q-17 8 -23 12.5t-6 9.5q0 2 2 10l20 72q2 9 11 9 q4 0 10 -3q41 -20 72.5 -28.5t63.5 -8.5q54 0 82.5 28t28.5 79q0 52 -30 76t-96 24h-30q-14 0 -17.5 3.5t-3.5 17.5v66q0 14 3.5 17.5t17.5 3.5h32q27 0 44 4t29 13q17 12 26 33t9 44q0 38 -22.5 60.5t-59.5 22.5q-51 0 -90 -51q-9 -10 -13 -10q-5 0 -9 4z" />
<glyph unicode="4" horiz-adv-x="537" d="M298 233l13 161q1 13 4.5 16t16.5 3h68q14 0 17.5 -3.5t3.5 -17.5v-162h57q14 0 17.5 -3.5t3.5 -20.5v-54q0 -13 -3.5 -16.5t-17.5 -3.5h-57v-130q0 -14 -3.5 -17t-17.5 -3h-83q-14 0 -17.5 3t-3.5 17v130h-245q-14 0 -17.5 3t-3.5 17v105l249 416q8 13 13 13t14 -4 l60 -25q15 -7 15 -14q0 -5 -6 -14l-233 -396h156z" />
<glyph unicode="5" horiz-adv-x="537" d="M191 405q23 16 47 22.5t56 6.5q43 0 78 -15t60.5 -42.5t39.5 -65.5t14 -84q0 -55 -18.5 -100t-52.5 -77t-82 -49.5t-107 -17.5q-75 0 -147 26q-18 7 -18 19v4t1 7l14 73q1 9 9 9q2 0 8 -2q14 -5 31 -10t34.5 -8.5t33.5 -5.5t28 -2q68 0 108.5 36t40.5 96q0 51 -26 78.5 t-74 27.5q-61 0 -100 -46q-8 -9 -14 -9q-2 0 -4 0.5l-6 1.5l-60 19q-10 3 -13 6t-3 8t1 10l31 329q2 13 4.5 16t16.5 3h293q14 0 17.5 -3.5t3.5 -17.5v-65q0 -14 -3.5 -17t-17.5 -3h-206z" />
<glyph unicode="6" horiz-adv-x="537" d="M280 363q-42 0 -65.5 -35t-23.5 -99q0 -66 22 -101t63 -35q43 0 67 36t24 102q0 65 -22.5 98.5t-64.5 33.5zM434 574q-2 -8 -8 -8q-1 0 -7 2q-35 13 -64 13q-63 0 -105.5 -42t-61.5 -123q29 29 54.5 40.5t62.5 11.5q69 0 118 -46q65 -61 65 -186q0 -119 -57 -186 t-158 -67q-105 0 -159.5 75t-54.5 220q0 93 21 168.5t59 128.5t92.5 82t121.5 29q19 0 38 -3t33.5 -7.5t23.5 -10.5t9 -12q0 -4 -2 -9z" />
<glyph unicode="7" horiz-adv-x="537" d="M82 555q-14 0 -17.5 3t-3.5 17v73q0 14 3.5 17.5t17.5 3.5h361q14 0 17.5 -3.5t3.5 -17.5v-39l-223 -610q-3 -9 -6.5 -12t-8.5 -3h-3.5t-6.5 1l-83 16q-13 2 -17 4.5t-4 7.5q0 2 1 6.5t2 7.5l212 528h-245z" />
<glyph unicode="8" horiz-adv-x="537" d="M261 304q-56 -26 -79.5 -55t-23.5 -68q0 -44 29.5 -69.5t78.5 -25.5q48 0 78.5 26.5t30.5 68.5q0 29 -14.5 53.5t-40.5 40.5q-13 8 -24 13t-35 16zM271 399q42 18 60.5 40.5t18.5 57.5q0 38 -23 62t-61 24q-36 0 -59.5 -23.5t-23.5 -60.5q0 -35 19.5 -57t68.5 -43z M174 352q-117 51 -117 159q0 37 16 69t44.5 55.5t67 37t83.5 13.5t83 -13.5t65.5 -36.5t43.5 -55.5t16 -69.5q0 -49 -27.5 -87t-86.5 -70q139 -60 139 -177q0 -32 -12 -63t-35 -57q-64 -74 -190 -74q-51 0 -93 12t-71 35q-32 26 -50 64t-18 80q0 60 37 106.5t105 71.5z" />
<glyph unicode="9" horiz-adv-x="537" d="M258 576q-42 0 -65.5 -36.5t-23.5 -99.5q0 -65 22.5 -99.5t65.5 -34.5t65.5 34.5t22.5 99.5q0 136 -87 136zM98 89q2 10 10 10q3 0 11 -2q14 -4 31 -6.5t33 -2.5q128 0 167 172q-30 -33 -56 -46t-64 -13q-68 0 -117 46q-34 32 -49.5 78t-15.5 115q0 56 15 101.5t43 77.5 t68 49.5t89 17.5q105 0 159.5 -75.5t54.5 -219.5q0 -95 -20.5 -170.5t-59.5 -128t-94.5 -81t-124.5 -28.5q-39 0 -66.5 7.5t-27.5 18.5v10z" />
<glyph unicode=":" horiz-adv-x="296" d="M150 504q19 0 36 -7.5t29.5 -20.5t20 -30.5t7.5 -36.5q0 -40 -27.5 -67.5t-67.5 -27.5t-67.5 27.5t-27.5 68.5q0 19 7.5 36.5t20.5 30t31 20t38 7.5zM150 174q19 0 36 -7.5t29.5 -20.5t20 -30.5t7.5 -36.5q0 -40 -27.5 -67.5t-67.5 -27.5t-67.5 27.5t-27.5 68.5 q0 19 7.5 36.5t20.5 30t31 20t38 7.5z" />
<glyph unicode=";" horiz-adv-x="296" d="M227 125q20 0 20 -11q0 -7 -5 -14l-119 -224q-5 -8 -7 -11t-7 -3q-2 0 -3.5 0.5t-8.5 2.5l-38 13q-10 4 -13 6.5t-3 7.5q0 2 0.5 3.5t2.5 8.5l62 204q3 10 7.5 13.5t15.5 3.5h96zM170 504q19 0 36 -7.5t29.5 -20.5t20 -30.5t7.5 -36.5q0 -40 -27.5 -67.5t-67.5 -27.5 t-67.5 27.5t-27.5 68.5q0 19 7.5 36.5t20.5 30t31 20t38 7.5z" />
<glyph unicode="&#x3c;" horiz-adv-x="514" d="M501 493l-299 -150l299 -150v-137l-446 229v117l446 228v-137z" />
<glyph unicode="=" horiz-adv-x="537" d="M41 211q0 11 3 14t14 3h422q11 0 14 -3t3 -14v-67q0 -11 -3 -14t-14 -3h-422q-11 0 -14 3t-3 14v67zM41 369q0 11 3 14t14 3h421q11 0 14 -3t3 -14v-67q0 -11 -3 -14t-14 -3h-421q-11 0 -14 3t-3 14v67z" />
<glyph unicode="&#x3e;" horiz-adv-x="514" d="M501 402v-117l-446 -229v137l299 150l-299 150v137z" />
<glyph unicode="?" horiz-adv-x="445" d="M190 142q17 0 32 -6.5t26.5 -18t18 -27t6.5 -33.5q0 -35 -24.5 -59.5t-59.5 -24.5t-60 25t-25 60t25 59.5t61 24.5zM240 270q0 -14 -3.5 -17.5t-16.5 -3.5h-71q-14 0 -17.5 3.5t-3.5 17.5v125q0 11 3.5 15t17.5 8q63 17 91.5 41.5t28.5 62.5q0 34 -21.5 51.5t-62.5 17.5 q-23 0 -51 -7t-57 -19q-8 -4 -11.5 -4.5t-5.5 -0.5q-7 0 -10 10l-26 68q-2 6 -2 11q0 9 18 19.5t46 19t60 14.5t61 6q44 0 80.5 -13.5t62 -38t39.5 -59t14 -76.5q0 -95 -76 -145q-17 -11 -36 -19t-51 -19v-68z" />
<glyph unicode="@" horiz-adv-x="1000" d="M579 334q-12 13 -23 18.5t-25 5.5q-15 0 -26.5 -9t-21.5 -29q-6 -13 -12 -32t-10.5 -40.5t-7.5 -43t-3 -38.5q0 -39 25 -39q15 0 31 9.5t27 26.5q8 10 12.5 22.5t9.5 36.5zM606 407q5 11 15 11h67q12 0 12 -10l-1 -10l-46 -214q-1 -5 -1.5 -12.5t-0.5 -13.5q0 -30 35 -30 q20 0 43.5 11t39.5 28q14 15 26 35.5t20.5 45t13 51t4.5 52.5q0 55 -18.5 99t-53 74.5t-84.5 47t-112 16.5q-166 0 -268 -105q-54 -56 -85 -135t-31 -163q0 -68 21.5 -122.5t63.5 -92.5q41 -38 94 -55t128 -17q78 0 154 17.5t136 49.5q8 4 11.5 5t7.5 1q6 0 9 -7l17 -41 q3 -11 3 -12q0 -7 -15 -16q-26 -16 -62.5 -29t-79 -22.5t-89 -14.5t-93.5 -5q-100 0 -170 23t-120 72q-51 50 -78.5 119.5t-27.5 150.5q0 48 10 96t29 92.5t46 84.5t62 73q66 62 150.5 94.5t181.5 32.5q85 0 155.5 -25t115.5 -71q37 -38 58 -93.5t21 -115.5 q0 -65 -21.5 -121.5t-58.5 -98t-88 -65t-109 -23.5q-42 0 -64 16.5t-29 52.5q-26 -36 -54 -52.5t-63 -16.5q-44 0 -68 31t-24 88q0 63 22 120.5t61 98.5q20 20 46 31.5t53 11.5q47 0 78 -34z" />
<glyph unicode="A" horiz-adv-x="574" d="M344 274l-42 172q-4 17 -7 33.5t-6 34.5q-2 16 -5.5 36t-5.5 35q-4 -27 -7 -47t-6 -36t-6 -29.5t-6 -26.5l-44 -172h135zM194 182l-22 -86h38q11 0 14 -3t3 -14v-62q0 -11 -3 -14t-14 -3h-206q-11 0 -14 3t-3 14v62q0 11 3 14t14 3h34l175 573q4 12 7 14.5t15 2.5h104 q12 0 15 -2.5t7 -14.5l171 -573h38q11 0 14 -3t3 -14v-62q0 -11 -3 -14t-14 -3h-216q-11 0 -14 3t-3 14v62q0 11 3 14t14 3h37l-22 86h-175z" />
<glyph unicode="B" horiz-adv-x="574" d="M230 108h43q69 0 98 21.5t29 72.5q0 53 -28.5 75t-96.5 22h-45v-191zM230 400h39q32 0 49 4t31 15t22 31.5t8 46.5q0 23 -8 42.5t-24 31.5q-12 9 -26.5 12.5t-41.5 3.5h-49v-187zM103 590h-51q-14 0 -17.5 3.5t-3.5 17.5v54q0 14 3.5 17.5t17.5 3.5h227q37 0 63.5 -1.5 t46 -5.5t33.5 -11t27 -17q29 -22 45.5 -60t16.5 -81q0 -55 -23.5 -90.5t-76.5 -60.5q60 -16 92.5 -59t32.5 -106q0 -51 -23 -96.5t-60 -68.5q-14 -9 -28.5 -14.5t-33.5 -8.5t-44 -4.5t-59 -1.5h-236q-14 0 -17.5 3.5t-3.5 17.5v54q0 14 3.5 17.5t17.5 3.5h51v494z" />
<glyph unicode="C" d="M377 186q0 11 3 14t14 3h74q11 0 14 -3t3 -14v-145q0 -13 -12 -21q-64 -37 -162 -37q-66 0 -110.5 16t-75.5 50q-84 94 -84 291q0 177 69 270t200 93q41 0 83 -11.5t70 -29.5q8 -5 11 -10.5t3 -14.5v-135q0 -11 -3 -14t-14 -3h-75q-10 0 -13 3t-3 14v79q-15 5 -26.5 6.5 t-28.5 1.5q-33 0 -53 -7.5t-34 -25.5q-45 -59 -45 -192q0 -145 37 -215q15 -28 40.5 -40t69.5 -12q14 0 24 1t24 4v84z" />
<glyph unicode="D" horiz-adv-x="611" d="M275 107q45 0 75 11.5t48 39.5t25.5 73.5t7.5 113.5q0 86 -13.5 135.5t-43.5 72.5q-19 15 -39.5 20.5t-59.5 5.5h-38v-472h38zM103 590h-51q-14 0 -17.5 3.5t-3.5 17.5v54q0 14 3.5 17.5t17.5 3.5h229q28 0 48 -0.5t35.5 -2t27.5 -4t24 -6.5q80 -26 118 -107t38 -222 q0 -235 -120 -309q-17 -10 -33 -17t-36 -11t-45.5 -5.5t-59.5 -1.5h-226q-14 0 -17.5 3.5t-3.5 17.5v54q0 14 3.5 17.5t17.5 3.5h51v494z" />
<glyph unicode="E" horiz-adv-x="519" d="M237 412h170q14 0 17.5 -3t3.5 -17v-66q0 -14 -3.5 -17.5t-17.5 -3.5h-170v-198h133v75q0 11 3 14t14 3h69q11 0 13.5 -3t2.5 -14v-161q0 -14 -3 -17.5t-17 -3.5h-400q-14 0 -17.5 3.5t-3.5 17.5v54q0 14 3.5 17.5t17.5 3.5h51v494h-51q-14 0 -17.5 3.5t-3.5 17.5v54 q0 14 3.5 17.5t17.5 3.5h400q11 0 14 -3t3 -14v-157q0 -11 -3 -14t-14 -3h-69q-11 0 -14 3t-3 14v67h-129v-167z" />
<glyph unicode="F" horiz-adv-x="482" d="M237 412h170q14 0 17.5 -3t3.5 -17v-66q0 -14 -3.5 -17.5t-17.5 -3.5h-170v-209h66q14 0 17.5 -3.5t3.5 -17.5v-54q0 -14 -3.5 -17.5t-17.5 -3.5h-251q-14 0 -17.5 3.5t-3.5 17.5v54q0 14 3.5 17.5t17.5 3.5h51v494h-51q-14 0 -17.5 3.5t-3.5 17.5v54q0 14 3.5 17.5 t17.5 3.5h400q11 0 14 -3t3 -14v-157q0 -11 -3 -14t-14 -3h-69q-11 0 -14 3t-3 14v67h-129v-167z" />
<glyph unicode="G" horiz-adv-x="593" d="M387 264h-75q-14 0 -17.5 3.5t-3.5 17.5v54q0 14 3.5 17.5t17.5 3.5h248q11 0 14 -3t3 -14v-62q0 -11 -3 -14t-14 -3h-52v-203q0 -13 -2.5 -17t-13.5 -12q-36 -23 -85 -36t-102 -13q-265 0 -265 359q0 178 68 269.5t200 91.5q48 0 92 -11.5t76 -31.5q16 -9 16 -26v-130 q0 -11 -3 -14t-14 -3h-74q-11 0 -14 3t-3 14v79q-23 8 -37 11t-31 3q-29 0 -54 -12t-39 -33q-20 -31 -31 -83.5t-11 -122.5q0 -64 8.5 -115.5t23.5 -80.5q14 -26 40.5 -41.5t61.5 -15.5q37 0 72 16v155z" />
<glyph unicode="H" horiz-adv-x="667" d="M430 408v182h-48q-14 0 -17.5 3.5t-3.5 17.5v54q0 14 3.5 17.5t17.5 3.5h233q14 0 17.5 -3.5t3.5 -17.5v-54q0 -14 -3.5 -17.5t-17.5 -3.5h-51v-494h51q14 0 17.5 -3.5t3.5 -17.5v-54q0 -14 -3.5 -17.5t-17.5 -3.5h-234q-20 0 -20 11v10v54v10q0 11 20 11h49v205h-193 v-205h49q13 0 16.5 -3.5t3.5 -17.5v-54q0 -14 -3 -17.5t-17 -3.5h-234q-14 0 -17.5 3.5t-3.5 17.5v54q0 14 3.5 17.5t17.5 3.5h51v494h-51q-14 0 -17.5 3.5t-3.5 17.5v54q0 14 3.5 17.5t17.5 3.5h234q14 0 17 -3.5t3 -17.5v-54q0 -14 -3.5 -17.5t-16.5 -3.5h-49v-182h193z " />
<glyph unicode="I" horiz-adv-x="352" d="M243 96h56q14 0 17.5 -3.5t3.5 -17.5v-54q0 -14 -3.5 -17.5t-17.5 -3.5h-245q-14 0 -17.5 3.5t-3.5 17.5v54q0 14 3.5 17.5t17.5 3.5h55v494h-55q-14 0 -17.5 3.5t-3.5 17.5v54q0 14 3.5 17.5t17.5 3.5h245q14 0 17.5 -3.5t3.5 -17.5v-54q0 -14 -3.5 -17.5t-17.5 -3.5 h-56v-494z" />
<glyph unicode="J" horiz-adv-x="445" d="M105 590q-13 0 -16.5 3.5t-3.5 17.5v54q0 14 3.5 17.5t16.5 3.5h252q14 0 17.5 -3.5t3.5 -17.5v-454q0 -66 -10.5 -105t-35.5 -67q-50 -56 -146 -56q-88 0 -134.5 53t-46.5 153q0 13 9 13h100q11 0 11 -14v-13q0 -83 63 -83q16 0 28.5 6.5t17.5 18.5q7 12 8.5 25.5 t1.5 49.5v398h-139z" />
<glyph unicode="K" horiz-adv-x="611" d="M451 675q5 8 8.5 9.5t12.5 1.5h111q11 0 14 -3t3 -14v-62q0 -11 -3 -14t-14 -3h-47l-181 -239l206 -255h34q11 0 14 -3t3 -14v-62q0 -11 -3 -14t-14 -3h-112q-11 0 -14 2t-12 13l-220 289v-208h48q13 0 16.5 -3.5t3.5 -17.5v-54q0 -14 -3 -17.5t-17 -3.5h-233 q-14 0 -17.5 3.5t-3.5 17.5v54q0 14 3.5 17.5t17.5 3.5h51v494h-51q-14 0 -17.5 3.5t-3.5 17.5v54q0 14 3.5 17.5t17.5 3.5h233q14 0 17 -3.5t3 -17.5v-54q0 -14 -3.5 -17.5t-16.5 -3.5h-48v-208z" />
<glyph unicode="L" horiz-adv-x="518" d="M383 107l18 78q2 11 4.5 14.5t7.5 3.5q2 0 4 -0.5t12 -2.5l66 -14q17 -4 17 -13q0 -3 -2 -13l-32 -142q-3 -12 -6.5 -15t-15.5 -3h-404q-14 0 -17.5 3.5t-3.5 17.5v54q0 14 3.5 17.5t17.5 3.5h51v494h-51q-14 0 -17.5 3.5t-3.5 17.5v54q0 14 3.5 17.5t17.5 3.5h239 q14 0 17.5 -3.5t3.5 -17.5v-54q0 -14 -3.5 -17.5t-17.5 -3.5h-54v-483h146z" />
<glyph unicode="M" horiz-adv-x="741" d="M337 417q10 -30 16 -56.5t13 -64.5q1 7 2.5 11.5t3 10.5t3.5 15t6 25q3 12 8.5 31t9.5 29l87 252q4 11 7 13.5t15 2.5h173q11 0 14 -3t3 -14v-62q0 -11 -3 -14t-14 -3h-56l25 -494h50q11 0 14 -3t3 -14v-62q0 -11 -3 -14t-14 -3h-224q-11 0 -14 3t-3 14v62q0 11 3 14 t14 3h47l-5 277v6v46l1 96q-7 -30 -12 -51t-9.5 -37.5t-9 -30t-9.5 -29.5l-66 -206q-4 -11 -7 -13.5t-16 -2.5h-57q-12 0 -15 2.5t-7 14.5l-57 195q-6 21 -10.5 37.5t-8.5 34t-8.5 37.5t-10.5 49l-1 -38v-39v-47l-1 -37l-6 -264h47q11 0 14 -3t3 -14v-62q0 -11 -3 -14 t-14 -3h-214q-11 0 -14 3t-3 14v62q0 11 3 14t14 3h50l22 494h-52q-11 0 -14 3t-3 14v62q0 11 3 14t14 3h173q12 0 15.5 -2.5t6.5 -13.5z" />
<glyph unicode="N" horiz-adv-x="648" d="M392 362q8 -15 17 -34.5t17.5 -39t15.5 -38t12 -33.5q-1 28 -1.5 46.5t-1 33t-0.5 26v24.5v243h-51q-14 0 -17.5 3.5t-3.5 17.5v54q0 14 3.5 17.5t17.5 3.5h216q14 0 17.5 -3.5t3.5 -17.5v-54q0 -14 -3.5 -17.5t-17.5 -3.5h-51v-569q0 -14 -3.5 -17.5t-17.5 -3.5h-66 q-11 0 -14.5 2t-8.5 12l-184 342q-11 21 -19.5 37.5t-15.5 31.5t-13 31t-13 36q1 -30 2 -47t1.5 -29t0.5 -23.5v-29.5v-267h51q14 0 17.5 -3.5t3.5 -17.5v-54q0 -14 -3.5 -17.5t-17.5 -3.5h-216q-14 0 -17.5 3.5t-3.5 17.5v54q0 14 3.5 17.5t17.5 3.5h51v494h-51 q-14 0 -17.5 3.5t-3.5 17.5v54q0 14 3.5 17.5t17.5 3.5h154q11 0 14.5 -2t8.5 -12z" />
<glyph unicode="O" horiz-adv-x="574" d="M286 597q-51 0 -78 -65t-27 -190q0 -253 106 -253q107 0 107 252q0 132 -26 194t-82 62zM292 703q50 0 95 -19t74 -52q74 -84 74 -281q0 -368 -251 -368q-244 0 -244 363q0 110 21 180t67 115q65 62 164 62z" />
<glyph unicode="P" horiz-adv-x="537" d="M269 385q66 0 93 23.5t27 81.5q0 54 -24 75t-86 21h-42v-201h32zM237 96h67q13 0 16.5 -3.5t3.5 -17.5v-54q0 -14 -3 -17.5t-17 -3.5h-252q-14 0 -17.5 3.5t-3.5 17.5v54q0 14 3.5 17.5t17.5 3.5h51v494h-51q-14 0 -17.5 3.5t-3.5 17.5v54q0 14 3.5 17.5t17.5 3.5h234 q60 0 95.5 -6.5t61.5 -21.5q36 -22 56 -64t20 -96q0 -51 -16 -92.5t-46 -70.5t-72 -45t-94 -16h-54v-178z" />
<glyph unicode="Q" horiz-adv-x="574" d="M286 597q-51 0 -78 -65t-27 -192q0 -251 106 -251q107 0 107 253q0 131 -26 193t-82 62zM484 -81q-4 -2 -9 -2q-13 0 -41 22t-62 58q-23 -8 -40.5 -11t-43.5 -3q-125 0 -186.5 89.5t-61.5 274.5q0 108 20.5 177.5t65.5 116.5q60 62 160 62q249 0 249 -346 q0 -100 -18 -177t-51 -118q15 -14 36 -30t52 -37q12 -8 12 -14q0 -3 -4 -7z" />
<glyph unicode="R" horiz-adv-x="574" d="M265 383q67 0 94 24t27 83q0 54 -24 75t-87 21h-42v-203h32zM527 96h50q11 0 14 -3t3 -14v-62q0 -11 -3 -14t-14 -3h-132q-12 0 -15 1.5t-8 12.5l-135 269h-54v-187h54q14 0 17.5 -3.5t3.5 -17.5v-54q0 -14 -3.5 -17.5t-17.5 -3.5h-235q-14 0 -17.5 3.5t-3.5 17.5v54 q0 14 3.5 17.5t17.5 3.5h51v494h-51q-14 0 -17.5 3.5t-3.5 17.5v54q0 14 3.5 17.5t17.5 3.5h235q56 0 88.5 -6t58.5 -20q86 -48 86 -168q0 -69 -26.5 -112t-87.5 -73z" />
<glyph unicode="S" d="M149 118q29 -11 50.5 -15.5t43.5 -4.5q44 0 67.5 22t23.5 63q0 37 -22 59q-7 7 -13 12t-17.5 11.5t-31.5 16t-54 25.5q-45 22 -70.5 37.5t-40.5 31.5q-43 45 -43 123q0 94 58.5 147.5t160.5 53.5q44 0 89 -11t76 -28q9 -5 12 -10t3 -14v-136q0 -11 -3 -14t-14 -3h-74 q-11 0 -14 3t-3 14v78q-22 7 -36 9.5t-31 2.5q-45 0 -69.5 -20t-24.5 -55q0 -14 4 -24.5t13.5 -20.5t27 -21t44.5 -24q36 -18 60 -30.5t40 -23t26.5 -19.5t20.5 -19q54 -60 54 -140q0 -46 -15.5 -84.5t-44 -66t-68 -42.5t-87.5 -15q-24 0 -50.5 3t-52.5 8.5t-49 13t-39 15.5 q-9 5 -12 10t-3 15v151q0 11 3 14t14 3h74q11 0 14 -3t3 -14v-84z" />
<glyph unicode="T" horiz-adv-x="463" d="M302 96h68q13 0 16.5 -3.5t3.5 -17.5v-54q0 -14 -3 -17.5t-17 -3.5h-271q-14 0 -17 3.5t-3 17.5v54q0 14 3.5 17.5t16.5 3.5h69v482h-74v-97q0 -11 -3 -14t-14 -3h-59q-11 0 -14 3t-3 14v188q0 11 3 14t14 3h433q11 0 14 -3t3 -14v-188q0 -11 -3 -14t-14 -3h-59 q-11 0 -14 3t-3 14v97h-73v-482z" />
<glyph unicode="U" horiz-adv-x="667" d="M396 590q-14 0 -17.5 3.5t-3.5 17.5v54q0 14 3.5 17.5t17.5 3.5h232q14 0 17 -3.5t3 -17.5v-54q0 -14 -3.5 -17.5t-16.5 -3.5h-52v-358q0 -34 -3 -60.5t-10.5 -48t-19 -39t-28.5 -34.5q-35 -35 -81 -51t-110 -16q-134 0 -191 79q-21 29 -30 69t-9 101v358h-51 q-14 0 -17.5 3.5t-3.5 17.5v54q0 14 3.5 17.5t17.5 3.5h237q13 0 16.5 -3.5t3.5 -17.5v-54q0 -14 -3.5 -17.5t-16.5 -3.5h-52v-358q0 -25 1 -42.5t4 -30t7.5 -21t11.5 -16.5q28 -31 81 -31q61 0 87.5 32.5t26.5 106.5v360h-51z" />
<glyph unicode="V" horiz-adv-x="537" d="M240 272q2 -7 5.5 -27t6.5 -38q4 -22 7.5 -43.5t6.5 -44.5q9 50 16 84t15 69l97 400q2 9 5 11.5t13 2.5h137q11 0 14 -3t3 -14v-62q0 -11 -3 -14t-14 -3h-40l-165 -587q-3 -11 -7 -14t-16 -3h-112q-12 0 -15.5 2.5t-6.5 14.5l-160 587h-39q-11 0 -14 3t-3 14v62 q0 11 3 14t14 3h146q10 0 13 -2.5t5 -11.5z" />
<glyph unicode="W" horiz-adv-x="778" d="M233 196l6 42q1 10 3 22t4 23t4 20t3 14l81 348q4 15 7 18t15 3h77q13 0 16 -3t6 -18l70 -315q5 -24 8.5 -42.5t6.5 -38t6 -44.5t8 -63q3 29 5 52t4.5 44.5t6 43t8.5 48.5l60 321q2 10 4.5 12.5t13.5 2.5h126q11 0 14 -3t3 -14v-62q0 -11 -3 -14t-14 -3h-37l-134 -584 q-2 -11 -6.5 -14.5t-15.5 -3.5h-86q-12 0 -15.5 3t-5.5 16l-67 338q-9 45 -15.5 90t-8.5 83q-2 -22 -4.5 -42t-5.5 -40.5t-7.5 -43t-10.5 -48.5l-79 -338q-3 -13 -6 -15.5t-16 -2.5h-86q-13 0 -16 2.5t-6 15.5l-121 584h-36q-11 0 -14 3t-3 14v62q0 11 3 14t14 3h132 q10 0 12.5 -2.5t4.5 -12.5l62 -329q5 -28 8.5 -60t7.5 -72l4 -43z" />
<glyph unicode="X" horiz-adv-x="556" d="M71 590h-55q-11 0 -14 3t-3 14v62q0 11 3 14t14 3h138q11 0 14 -1.5t8 -12.5l71 -138q6 -11 9.5 -19l7 -16t7 -18t8.5 -25q9 29 14.5 44t14.5 35l64 136q5 11 8.5 13t14.5 2h138q11 0 14 -3t3 -14v-62q0 -11 -3 -14t-14 -3h-57l-128 -229l153 -265h49q10 0 13 -3t3 -14 v-62q0 -11 -3 -14t-13 -3h-132q-12 0 -15 1.5t-8 12.5l-86 167q-9 17 -15.5 31.5t-15.5 37.5q-6 -14 -9.5 -22.5t-6.5 -15.5l-6 -14t-9 -17l-89 -167q-5 -10 -8.5 -12t-14.5 -2h-135q-11 0 -14 3t-3 14v62q0 11 3 14t14 3h53l153 267z" />
<glyph unicode="Y" d="M216 511q6 -12 10 -21.5t8 -21t9.5 -28l14.5 -43.5q11 36 22 65.5t23 55.5l74 154q5 11 8 12.5t15 1.5h105q11 0 14 -3t3 -14v-62q0 -11 -3 -14t-14 -3h-30l-154 -309v-185h68q14 0 17.5 -3.5t3.5 -17.5v-54q0 -14 -3.5 -17.5t-17.5 -3.5h-270q-14 0 -17.5 3.5t-3.5 17.5 v54q0 14 3.5 17.5t17.5 3.5h68v186l-159 308h-26q-11 0 -14 3t-3 14v62q0 11 3 14t14 3h114q12 0 15 -2t8 -13z" />
<glyph unicode="Z" d="M149 580v-83q0 -11 -3 -14t-14 -3h-71q-11 0 -14 3t-3 14v172q0 11 3 14t14 3h371q14 0 17.5 -3.5t3.5 -17.5v-90l-275 -464h180l17 78q3 14 12 14h3t9 -2l73 -16q14 -3 14 -12v-3t-2 -9l-32 -143q-3 -13 -6 -15.5t-17 -2.5h-377q-11 0 -14 3t-3 14v83l279 480h-165z" />
<glyph unicode="[" horiz-adv-x="444" d="M277 -102h90q13 0 16.5 -3.5t3.5 -17.5v-61q0 -14 -3 -17.5t-17 -3.5h-196q-14 0 -17.5 3.5t-3.5 17.5v878q0 14 3.5 17.5t17.5 3.5h196q13 0 16.5 -3.5t3.5 -17.5v-61q0 -14 -3.5 -17.5t-16.5 -3.5h-90v-714z" />
<glyph unicode="\" horiz-adv-x="445" d="M43 722l-2.5 7.5t-0.5 3.5q0 13 20 13h58q20 0 27 -18l325 -966q2 -6 2.5 -8.5t0.5 -4.5q0 -12 -18 -12h-59q-20 0 -26 18z" />
<glyph unicode="]" horiz-adv-x="444" d="M168 612h-90q-14 0 -17.5 3.5t-3.5 17.5v61q0 14 3.5 17.5t17.5 3.5h196q14 0 17.5 -3.5t3.5 -17.5v-878q0 -14 -3.5 -17.5t-17.5 -3.5h-196q-14 0 -17.5 3.5t-3.5 17.5v61q0 14 3.5 17.5t17.5 3.5h90v714z" />
<glyph unicode="^" horiz-adv-x="514" d="M40 366l161 323h154l161 -323h-123l-115 230l-115 -230h-123z" />
<glyph unicode="_" horiz-adv-x="514" d="M514 -64v-79h-514v79h514z" />
<glyph unicode="`" d="M97 711q7 14 14 14q4 0 14 -5l163 -97q13 -8 13 -14q0 -5 -5 -14l-15 -31q-5 -9 -7.5 -12t-6.5 -3q-2 0 -3.5 0.5t-9.5 3.5l-177 70q-16 7 -16 14q0 2 0.5 4.5t4.5 9.5z" />
<glyph unicode="a" d="M295 224q-39 -1 -57.5 -3t-33.5 -7q-49 -19 -49 -70q0 -29 18.5 -49t45.5 -20q40 0 76 39v110zM295 338q0 43 -15 59t-55 16q-45 0 -114 -27q-8 -2 -11 -2q-7 0 -10 10l-20 58q-2 8 -2.5 9.5t-0.5 3.5q0 8 16 16t41.5 15t56.5 11t62 4q101 0 144 -55q15 -20 21 -43.5 t6 -61.5v-174q0 -27 2 -44t8 -40h45q14 0 14 -14v-65q0 -14 -14 -14h-126q-13 0 -18 7.5t-12 35.5q-32 -32 -61 -44.5t-68 -12.5q-69 0 -109.5 40.5t-40.5 111.5q0 131 149 161q20 4 45 5.5t67 2.5v31z" />
<glyph unicode="b" horiz-adv-x="537" d="M207 101q28 -21 62 -21q54 0 81.5 44t27.5 130q0 37 -4 62.5t-14 47.5q-12 26 -28 36t-44 10q-22 0 -38.5 -6.5t-42.5 -25.5v-277zM207 467q36 25 63 34.5t61 9.5q174 0 174 -251q0 -70 -13.5 -118.5t-43.5 -86.5q-56 -72 -150 -72q-35 0 -57.5 9t-49.5 35 q-8 -23 -14.5 -32t-14.5 -9h-4.5t-9.5 2l-81 20q-10 2 -10 8q0 3 3 9q6 13 10 23.5t6 22t3 25.5t1 34v494h-55q-9 0 -11.5 2.5t-2.5 11.5v65q0 14 14 14h168q14 0 14 -14v-236z" />
<glyph unicode="c" horiz-adv-x="407" d="M289 408q-8 2 -12.5 2h-11.5q-53 0 -77 -40t-24 -128q0 -84 24.5 -121t79.5 -37q38 0 79 18q6 3 10 3q5 0 7 -5l26 -66q2 -5 2.5 -6.5t0.5 -3.5q0 -8 -12.5 -15t-32.5 -13t-45 -9.5t-50 -3.5q-107 0 -164 65.5t-57 188.5q0 130 61.5 202t172.5 72q15 0 31.5 -2t32 -5 t29 -7.5t22.5 -9.5q6 -3 8 -6.5t2 -12.5v-135q0 -14 -14 -14h-74q-14 0 -14 14v75z" />
<glyph unicode="d" horiz-adv-x="537" d="M327 392q-20 11 -36 14.5t-38 3.5q-27 0 -44.5 -8t-28.5 -27.5t-15.5 -51t-4.5 -78.5q0 -90 18.5 -126.5t64.5 -36.5q28 0 46 7.5t38 26.5v276zM374 0q-13 0 -17 5.5t-12 31.5q-36 -29 -69 -41.5t-71 -12.5q-42 0 -68.5 11.5t-48.5 39.5q-29 36 -42 84.5t-13 119.5 q0 74 14 124.5t45 88.5q26 32 57 46t76 14q32 0 54 -6t48 -22v141h-54q-9 0 -11.5 3t-2.5 11v65q0 14 14 14h167q14 0 14 -14v-526q0 -29 2.5 -47.5t7.5 -36.5h45q14 0 14 -14v-65q0 -14 -14 -14h-135z" />
<glyph unicode="e" horiz-adv-x="482" d="M317 306q-2 62 -18.5 88t-54.5 26t-57 -26t-26 -88h156zM159 213q2 -65 28.5 -95.5t82.5 -30.5q55 0 114 31q7 4 13 4t11 -9l25 -60q2 -5 2.5 -6.5t0.5 -4.5q0 -8 -8 -14t-33 -17q-65 -28 -138 -28q-95 0 -149 49q-36 33 -55.5 87.5t-19.5 123.5q0 61 15.5 110.5 t44.5 84.5t69 54t90 19q198 0 198 -274q0 -14 -4.5 -19t-17.5 -5h-269z" />
<glyph unicode="f" horiz-adv-x="371" d="M115 536q0 56 9.5 88t33.5 56q43 44 117 44q23 0 45 -3t39 -8t27.5 -11.5t10.5 -13.5v-2.5t-2 -5.5l-18 -71q-4 -9 -9 -9q-4 0 -10 3q-32 14 -60 14q-33 0 -46 -19q-6 -8 -8 -19.5t-2 -42.5v-42h114q17 0 17 -10q0 -4 -2 -10l-14 -58q-4 -15 -19 -15h-96v-308h75 q14 0 14 -14v-65q0 -14 -14 -14h-271q-14 0 -14 14v65q0 14 14 14h69v308h-76q-13 0 -15 3t-2 21v55q0 14 17 14h76v42z" />
<glyph unicode="g" horiz-adv-x="518" d="M322 377q-22 17 -38 23t-37 6q-88 0 -88 -152q0 -73 21 -112q10 -19 23 -27t36 -8q50 0 83 34v236zM73 -75q2 10 10 10q4 0 10 -3q43 -20 79 -28.5t74 -8.5q46 0 63.5 18.5t17.5 66.5q0 5 -0.5 21t-1.5 42q-29 -20 -58 -28.5t-64 -8.5q-81 0 -126 63.5t-45 179.5 q0 124 50 193t139 69q19 0 34 -2.5t29 -7.5t27.5 -14t28.5 -22q10 23 19 36t16 13q2 0 5.5 -0.5t4.5 -1.5l79 -28q9 -5 9 -10q0 -2 -0.5 -4.5t-5.5 -13.5q-13 -31 -17.5 -55t-4.5 -58v-148q0 -42 0.5 -85t2.5 -78q1 -20 1.5 -36.5t0.5 -25.5q0 -88 -49 -133.5t-144 -45.5 q-33 0 -69.5 5t-67 13.5t-50.5 18t-20 18.5q0 2 0.5 5t1.5 5z" />
<glyph unicode="h" horiz-adv-x="574" d="M217 453q59 58 137 58q38 0 66.5 -14t44.5 -40q11 -18 15.5 -41.5t4.5 -61.5v-261h51q14 0 14 -14v-65q0 -14 -14 -14h-161q-11 0 -14 3t-3 14v308q0 46 -12.5 65t-42.5 19q-23 0 -42 -9t-44 -32v-275h51q14 0 14 -14v-65q0 -14 -14 -14h-229q-9 0 -11.5 2.5t-2.5 11.5 v65q0 14 14 14h51v531h-55q-14 0 -14 14v65q0 14 14 14h168q14 0 14 -14v-250z" />
<glyph unicode="i" horiz-adv-x="315" d="M172 724q33 0 57 -24.5t24 -57.5q0 -35 -24 -59t-59 -24q-34 0 -58 24t-24 59t24.5 58.5t59.5 23.5zM46 401q-11 0 -14 3t-3 14v59q0 11 3 14t14 3h172q11 0 14 -3t3 -14v-384h65q14 0 14 -14v-65q0 -14 -14 -14h-257q-14 0 -14 14v65q0 14 14 14h65v308h-62z" />
<glyph unicode="j" horiz-adv-x="296" d="M164 724q33 0 57 -24t24 -58q0 -35 -24 -59t-58 -24q-35 0 -59 24t-24 59t24.5 58.5t59.5 23.5zM26 401q-11 0 -14 3t-3 14v59q0 11 3 14t14 3h186q11 0 14 -3t3 -14v-467q0 -36 -1 -62.5t-3.5 -46.5t-7 -35t-11.5 -28q-18 -36 -56 -55t-92 -19q-21 0 -41 2.5t-35.5 6.5 t-25 9t-9.5 10q0 2 2 10l22 75q2 7 9 7q2 0 3.5 -0.5l4.5 -1.5q29 -13 56 -13q43 0 54 49q2 12 3 33t1 59v391h-76z" />
<glyph unicode="k" horiz-adv-x="556" d="M344 404h-45q-14 0 -14 14v62q0 14 14 14h222q14 0 14 -14v-65q0 -14 -14 -14h-52l-142 -120l156 -188h50q13 0 13 -14v-65q0 -14 -13 -14h-124q-9 0 -12 1.5t-8 8.5l-172 234v-151h46q14 0 14 -14v-65q0 -14 -14 -14h-224q-9 0 -11.5 2.5t-2.5 11.5v65q0 14 14 14h51 v531h-55q-14 0 -14 14v65q0 14 14 14h168q14 0 14 -14v-406z" />
<glyph unicode="l" horiz-adv-x="296" d="M18 624q-9 0 -11.5 2.5t-2.5 11.5v65q0 14 14 14h168q14 0 14 -14v-518v-32v-17t0.5 -8.5t1.5 -5.5q4 -22 25 -22q15 0 33 6q3 1 7 1q6 0 8 -6l20 -82l1 -4q1 -2 1 -4q0 -5 -9 -10t-23.5 -9t-32 -6.5t-35.5 -2.5q-82 0 -110 59q-4 9 -7 19.5t-4.5 25t-2 36t-0.5 53.5v448 h-55z" />
<glyph unicode="m" horiz-adv-x="833" d="M234 93h51q14 0 14 -14v-65q0 -14 -14 -14h-228q-14 0 -14 14v65q0 14 14 14h51v223q0 29 -2 46t-8 39h-48q-14 0 -14 14v65q0 14 14 14h139q13 0 19 -9t14 -44q42 40 74 55t72 15q77 0 109 -70q42 38 77 54t77 16q65 0 92 -44q12 -20 16.5 -46.5t4.5 -74.5v-253h51 q14 0 14 -14v-65q0 -9 -3 -11.5t-14 -2.5h-156q-11 0 -14 3t-3 14v317q0 42 -10 58t-36 16q-20 0 -40 -9.5t-45 -32.5v-273h52q9 0 11.5 -3t2.5 -14v-62q0 -14 -14 -14h-160q-11 0 -14 3t-3 14v307q0 49 -9.5 66.5t-35.5 17.5q-20 0 -39 -9.5t-45 -32.5v-273z" />
<glyph unicode="n" horiz-adv-x="593" d="M189 494q6 0 10.5 -1.5t8 -7t6.5 -16t7 -27.5q43 39 76.5 54t76.5 15q67 0 98 -38t31 -120v-260h52q14 0 14 -14v-65q0 -14 -14 -14h-162q-11 0 -14 3t-3 14v308q0 44 -13 63.5t-42 19.5q-22 0 -41.5 -9t-44.5 -32v-274h51q14 0 14 -14v-65q0 -9 -2.5 -11.5t-11.5 -2.5 h-229q-14 0 -14 14v65q0 14 14 14h51v223q0 29 -2 46t-8 39h-48q-14 0 -14 14v65q0 14 14 14h139z" />
<glyph unicode="o" d="M249 410q-43 0 -62 -38t-19 -125t19 -125t63 -38q45 0 64 38t19 124q0 89 -19.5 126.5t-64.5 37.5zM255 511q49 0 88.5 -18.5t67 -52.5t42.5 -82.5t15 -109.5t-15 -110t-43 -83.5t-68.5 -53t-90.5 -18.5q-103 0 -160.5 69.5t-57.5 194.5q0 121 58 191q32 38 71 55.5 t93 17.5z" />
<glyph unicode="p" horiz-adv-x="537" d="M217 98q20 -11 35 -15t35 -4q47 0 65 28q25 41 25 144q0 84 -19.5 121.5t-61.5 37.5q-22 0 -39 -8t-40 -29v-275zM217 -109h54q14 0 14 -14v-65q0 -14 -14 -14h-232q-14 0 -14 14v65q0 14 14 14h51v425q0 15 -0.5 26t-1.5 20t-3 18t-5 21h-48q-14 0 -14 14v65q0 14 14 14 h139q12 0 16 -5t11 -28q40 28 68.5 39t63.5 11q86 0 130 -65t44 -191q0 -152 -61 -225q-41 -47 -123 -47q-32 0 -54.5 6t-48.5 20v-118z" />
<glyph unicode="q" horiz-adv-x="518" d="M325 373q-20 17 -37 23.5t-40 6.5q-48 0 -68 -38.5t-20 -128.5q0 -82 20 -119.5t65 -37.5q24 0 42.5 9t37.5 30v255zM325 22q-26 -21 -53 -30t-62 -9q-87 0 -132 65.5t-45 191.5q0 129 49 200t138 71q37 0 65.5 -11t56.5 -35q13 26 21.5 37t16.5 11q6 0 15 -3l73 -26 q12 -3 12 -11q0 -6 -4 -13q-14 -28 -19 -52.5t-5 -64.5v-452h51q9 0 11.5 -3t2.5 -14v-62q0 -14 -14 -14h-233q-14 0 -14 14v65q0 14 14 14h55v131z" />
<glyph unicode="r" horiz-adv-x="389" d="M235 93h54q14 0 14 -14v-65q0 -14 -14 -14h-232q-14 0 -14 14v65q0 14 14 14h51v224q0 29 -2 45.5t-8 38.5h-48h-1q-5 -3 -9 1.5t-4 12.5v65q0 14 14 14h130q7 0 11.5 -2t8.5 -8.5t8 -18.5t9 -32q20 24 35 39t29 23.5t28 12t32 3.5q23 0 40 -7t17 -16q0 -2 -0.5 -5 t-1.5 -5l-30 -81q-3 -9 -9 -9q-2 0 -6 2q-22 8 -41 8q-30 0 -75 -48v-257z" />
<glyph unicode="s" horiz-adv-x="426" d="M270 412q-16 2 -23.5 3t-15.5 1q-64 0 -64 -51q0 -10 2.5 -17.5t9.5 -13.5t20.5 -12.5t34.5 -14.5q29 -11 48 -18.5t31.5 -14.5t21 -13t16.5 -14q20 -19 31 -45.5t11 -56.5q0 -32 -12 -62.5t-34 -53.5q-45 -46 -124 -46q-38 0 -81 10t-81 27q-9 5 -12 9t-3 12v109 q0 14 14 14h68q9 0 11.5 -3t2.5 -14v-52q27 -8 40.5 -11t29.5 -3q62 0 62 52q0 11 -3 19t-11 14.5t-23.5 14t-39.5 16.5t-41.5 16t-29.5 13t-20.5 12t-15.5 12q-40 37 -40 98q0 36 13 65.5t36.5 51.5t56 34t70.5 12q31 0 67 -7t59 -18q8 -4 11 -8t3 -12v-104q0 -14 -14 -14 h-68q-14 0 -14 14v50z" />
<glyph unicode="t" horiz-adv-x="333" d="M78 620q0 11 2.5 13.5t13.5 4.5l92 13h9q10 0 10 -16v-141h114q17 0 17 -10q0 -6 -1 -9l-13 -59q-2 -9 -5.5 -12t-12.5 -3h-99v-243q0 -26 1 -34.5t5 -14.5q8 -15 31 -15q14 0 27 3t39 14q6 2 9 2q7 0 10 -10l16 -70q2 -5 2 -7v-4q0 -8 -6 -12t-25 -10q-53 -17 -100 -17 q-88 0 -121 63q-8 16 -11.5 37.5t-3.5 56.5v261h-69q-11 0 -14 3t-3 14v59q0 11 3 14t14 3h69v126z" />
<glyph unicode="u" horiz-adv-x="574" d="M354 401h-52q-13 0 -13 14v65q0 14 13 14h163q11 0 13.5 -2.5t2.5 -13.5v-301q0 -28 2 -45.5t8 -38.5h45q14 0 14 -14v-65q0 -14 -14 -14h-134q-13 0 -17.5 7t-12.5 37q-18 -17 -34 -29t-32.5 -19t-34 -10t-39.5 -3q-50 0 -84 20.5t-48 58.5q-6 17 -8.5 42.5t-2.5 73.5 v223h-51q-14 0 -14 14v65q0 14 14 14h162q11 0 13.5 -2.5t2.5 -13.5v-294q0 -33 2 -48t7 -25q6 -12 19 -19.5t30 -7.5q40 0 80 37v280z" />
<glyph unicode="v" horiz-adv-x="463" d="M203 258q6 -23 15 -61.5t17 -83.5q4 18 8.5 38.5t9.5 40.5t9.5 37.5t7.5 28.5l68 222q3 10 5.5 12t13.5 2h109q14 0 14 -14v-65q0 -14 -14 -14h-34l-141 -407q-3 -9 -6 -11t-13 -2h-83q-9 0 -12.5 2.5t-6.5 10.5l-140 407h-33q-14 0 -14 14v65q0 14 14 14h124 q11 0 13.5 -2t5.5 -12z" />
<glyph unicode="w" horiz-adv-x="685" d="M346 373q-3 -24 -5.5 -40.5t-4.5 -29.5t-4 -23t-5 -21l-58 -252q-2 -10 -5 -12.5t-14 -2.5h-81q-11 0 -13.5 2t-5.5 13l-102 394h-32q-14 0 -14 14v65q0 14 14 14h118q11 0 13.5 -2.5t4.5 -12.5l46 -221q7 -31 11 -68t9 -89q6 53 10.5 86t9.5 58l48 234q2 11 5 13t14 2 h89q11 0 14 -2t5 -13l44 -225q4 -20 6.5 -36t4.5 -32.5t4 -36.5t5 -48q6 59 11.5 99.5t11.5 66.5l49 212q2 10 5 12.5t13 2.5h112q14 0 14 -14v-65q0 -14 -14 -14h-34l-118 -395q-3 -10 -6 -12t-13 -2h-83q-10 0 -13 2.5t-5 13.5l-47 253q-4 20 -6.5 38t-5.5 50z" />
<glyph unicode="x" horiz-adv-x="482" d="M64 401h-39q-9 0 -11.5 3t-2.5 14v62q0 14 14 14h104q10 0 13.5 -2t8.5 -11l51 -83q3 -5 5.5 -9.5t5.5 -8.5q2 -5 4.5 -8.5t4.5 -7.5q5 -8 7.5 -13l7.5 -15q8 13 13 20.5l9 13.5l8 12t11 16l58 84q5 8 8.5 10t13.5 2h98q14 0 14 -14v-65q0 -14 -14 -14h-34l-109 -152 l109 -156h38q15 0 15 -14v-65q0 -8 -3 -11t-12 -3h-101q-10 0 -13.5 2t-8.5 10l-59 90q-10 15 -15.5 24t-9 14.5t-6.5 10t-7 12.5q-12 -21 -21 -35.5t-17 -25.5l-61 -90q-6 -9 -9 -10.5t-14 -1.5h-99q-8 0 -10.5 2.5t-2.5 11.5v65q0 9 2.5 11.5t10.5 2.5h36l113 156z" />
<glyph unicode="y" horiz-adv-x="463" d="M208 241q10 -38 15.5 -61.5t9.5 -41.5t6.5 -33.5t6.5 -36.5q2 9 3.5 18t3.5 18q4 19 5.5 30t3 18.5t2.5 14t3 16.5q3 14 6 28.5t7 29.5l54 238q2 11 5 13t14 2h120q14 0 14 -14v-65q0 -14 -14 -14h-35l-81 -297l-22 -80t-22 -84q-14 -53 -28.5 -81.5t-39.5 -48.5 q-40 -32 -101 -32q-21 0 -45.5 4.5t-44.5 11.5t-33.5 15t-13.5 16q0 2 0.5 4t3.5 7l31 64q3 7 9 7q2 0 8 -3q44 -22 76 -22q16 0 27.5 3.5t20.5 12.5t16 23.5t14 36.5l13 42h-42q-10 0 -13 2t-6 11l-134 388h-32q-14 0 -14 14v65q0 14 14 14h126q11 0 13 -2t5 -12z" />
<glyph unicode="z" horiz-adv-x="445" d="M145 391v-41q0 -14 -14 -14h-65q-14 0 -14 14v130q0 14 14 14h318q11 0 14 -3t3 -14v-71l-227 -301h145l22 53q3 8 10 8q3 0 11 -3l63 -27q9 -4 9 -10q0 -4 -3 -11l-44 -102q-5 -13 -19 -13h-320q-11 0 -14 3t-3 14v68l231 306h-117z" />
<glyph unicode="{" horiz-adv-x="445" d="M296 386q0 -48 -16 -74.5t-56 -45.5q41 -20 56.5 -46.5t15.5 -74.5v-175q0 -37 16 -53t52 -16h4q14 0 17.5 -3.5t3.5 -17.5v-64q0 -13 -3 -17t-14 -4q-54 0 -89.5 10.5t-61.5 34.5q-26 23 -37.5 54.5t-11.5 84.5v161q0 38 -16 54.5t-54 16.5h-17q-14 0 -17.5 3.5 t-3.5 16.5v69q0 14 3.5 17t17.5 3h17q38 0 54 16.5t16 54.5v140q0 95 48 139.5t151 44.5q11 0 14.5 -4t3.5 -16v-65q0 -14 -3.5 -17t-17.5 -3h-4q-36 0 -52 -16.5t-16 -53.5v-154z" />
<glyph unicode="|" horiz-adv-x="514" d="M347 686v-857h-139v857h139z" />
<glyph unicode="}" horiz-adv-x="445" d="M149 124q0 48 15.5 74.5t56.5 46.5q-41 20 -56.5 46.5t-15.5 74.5v175q0 37 -16 53t-52 16h-4q-14 0 -17.5 3.5t-3.5 17.5v64q0 13 3 17t14 4q54 0 89.5 -10.5t61.5 -34.5q26 -23 37.5 -54.5t11.5 -84.5v-161q0 -38 16 -54.5t54 -16.5h17q14 0 17.5 -3.5t3.5 -17.5v-68 q0 -14 -3.5 -17.5t-17.5 -3.5h-17q-38 0 -54 -16.5t-16 -54.5v-140q0 -95 -48 -139.5t-151 -44.5q-11 0 -14.5 4t-3.5 16v65q0 14 3.5 17t17.5 3h4q36 0 52 16.5t16 53.5v154z" />
<glyph unicode="~" horiz-adv-x="686" d="M116 631q29 69 65 102t84 33q21 0 45.5 -7.5t68.5 -27.5q21 -9 34.5 -15t22.5 -9t16 -4t15 -1q22 0 39.5 15t37.5 51l68 -56q-31 -72 -66 -104t-83 -32q-9 0 -17.5 1t-20 5t-28.5 10.5t-42 17.5q-24 10 -38.5 16.5t-24.5 9.5t-16.5 4t-14.5 1q-23 0 -39.5 -14.5 t-37.5 -52.5z" />
<glyph unicode="&#xa1;" horiz-adv-x="352" d="M125 -263q-22 0 -21 13l1 8l22 403q1 13 4 16.5t17 3.5h60q14 0 17 -3t4 -17l23 -403v-7q0 -14 -20 -14h-107zM178 461q34 0 58.5 -25t24.5 -60t-24.5 -59.5t-59.5 -24.5t-60 25t-25 60t25 59.5t61 24.5z" />
<glyph unicode="&#xa2;" horiz-adv-x="537" d="M302 501q-39 -11 -57 -51t-18 -117q0 -72 18.5 -110t56.5 -48v326zM362 597q22 -2 42 -7t36 -11t25.5 -13t9.5 -13q0 -2 -0.5 -3.5t-2.5 -5.5l-37 -69q-3 -5 -6 -5q-4 0 -8 3q-11 7 -18.5 11t-13.5 7t-12 4.5t-15 3.5v-323q14 1 25.5 4.5t31.5 14.5q6 2 7 2q5 0 7 -5 l28 -70q2 -5 2.5 -6.5t0.5 -3.5q0 -6 -8.5 -12.5t-23 -12t-33 -10t-37.5 -6.5v-52q0 -14 -3.5 -17t-17.5 -3h-18q-14 0 -17.5 3.5t-3.5 16.5v50q-37 2 -60.5 10t-46.5 25q-46 34 -69.5 91t-23.5 132q0 118 52 188.5t148 81.5v53q0 14 3.5 17.5t17.5 3.5h18q14 0 17.5 -3.5 t3.5 -17.5v-53z" />
<glyph unicode="&#xa3;" horiz-adv-x="537" d="M526 110q20 0 20 -12q0 -4 -2 -12l-18 -69q-4 -17 -22 -17h-435q-14 0 -17.5 3.5t-3.5 17.5v68q0 14 3.5 17.5t17.5 3.5h70q6 26 8.5 44t2.5 41t-2.5 43.5t-10.5 56.5h-79q-14 0 -17.5 3.5t-3.5 17.5v50q0 14 3.5 17.5t17.5 3.5h61q-8 29 -11 49.5t-3 45.5 q0 50 14.5 85.5t46.5 63.5q32 27 74 41t92 14q30 0 61.5 -5.5t57.5 -14.5t42.5 -20t16.5 -21q0 -4 -3 -10l-33 -62q-6 -10 -12 -10q-3 0 -7.5 1.5t-16.5 7.5q-31 15 -55 21.5t-49 6.5q-51 0 -79 -28t-28 -79q0 -21 3 -39t11 -45h138q13 0 16.5 -3.5t3.5 -17.5v-52 q0 -14 -3 -17.5t-17 -3.5h-121q8 -32 11.5 -53.5t3.5 -45.5q0 -21 -2.5 -40.5t-7.5 -45.5h263z" />
<glyph unicode="&#xa4;" horiz-adv-x="624" d="M309 510q-69 0 -99.5 -38.5t-30.5 -126.5q0 -85 31 -123t101 -38q71 0 102 38t31 124q0 89 -31 126.5t-104 37.5zM116 74q-6 -7 -8.5 -8t-6.5 -1q-3 0 -5 1t-9 8l-44 44q-6 6 -7.5 8.5t-1.5 6.5t1.5 6t7.5 8l42 42q-41 66 -41 159q0 89 40 151l-41 40q-6 5 -7.5 8t-1.5 7 q0 3 1.5 5.5t7.5 8.5l44 44q6 6 8.5 7.5t5.5 1.5q4 0 6 -1t9 -8l41 -41q32 20 70 30t86 10t84.5 -9t70.5 -30l39 40q6 7 9 8t6 1q4 0 6.5 -1t8.5 -8l43 -44q9 -9 9 -15q0 -5 -9 -14l-39 -40q38 -62 38 -153q0 -48 -10 -85t-32 -70l43 -44q9 -8 9 -14t-9 -15l-43 -43 q-8 -8 -9.5 -9t-5.5 -1t-5.5 1t-9.5 9l-44 44q-32 -19 -68.5 -27.5t-82.5 -8.5q-89 0 -153 35z" />
<glyph unicode="&#xa5;" horiz-adv-x="537" d="M495 401q14 0 17.5 -3.5t3.5 -17.5v-10q0 -14 -3.5 -17.5t-17.5 -3.5h-131l-24 -51h155q14 0 17.5 -3.5t3.5 -17.5v-10q0 -14 -3.5 -17.5t-17.5 -3.5h-163v-150h62q13 0 16.5 -3.5t3.5 -17.5v-54q0 -14 -3 -17.5t-17 -3.5h-241q-14 0 -17.5 3.5t-3.5 17.5v54 q0 14 3.5 17.5t17.5 3.5h62v150h-172q-14 0 -17.5 3.5t-3.5 17.5v10q0 14 3.5 17.5t17.5 3.5h164l-26 51h-138q-14 0 -17.5 3.5t-3.5 17.5v10q0 14 3.5 17.5t17.5 3.5h112l-92 189h-26q-11 0 -14 3t-3 14v62q0 11 3 14t14 3h102q11 0 14.5 -2t8.5 -13l67 -160 q6 -15 11.5 -29t11 -30.5t12 -37t14.5 -48.5q7 27 13 46.5t11.5 36t12 33t14.5 36.5l62 154q4 10 7.5 12t15.5 2h93q11 0 14 -3t3 -14v-62q0 -11 -3 -14t-14 -3h-29l-89 -189h106z" />
<glyph unicode="&#xa6;" horiz-adv-x="514" d="M347 158v-329h-139v329h139zM347 686v-358h-139v358h139z" />
<glyph unicode="&#xa7;" horiz-adv-x="537" d="M280 128q36 21 51.5 40t15.5 43q0 11 -3.5 20t-13 18t-25.5 19t-41 24q-40 -21 -57.5 -40.5t-17.5 -42.5q0 -11 4 -20.5t14 -18.5t28 -19t45 -23zM104 -69q5 8 9 8q6 0 11 -4q78 -50 141 -50q27 0 43 14t16 38q0 12 -4 21t-16 19t-33 21t-54 27q-25 12 -42.5 21t-30 17 t-22 15t-18.5 16q-37 35 -37 98q0 54 25 89t80 58q-41 23 -58.5 50.5t-17.5 66.5q0 34 13.5 62.5t38 49.5t58.5 32.5t74 11.5q80 0 145 -42q14 -8 14 -18q0 -6 -4 -11l-29 -56q-4 -7 -11 -7q-5 0 -12 4q-19 10 -33.5 17t-26.5 11t-22.5 5.5t-22.5 1.5q-30 0 -48 -12t-18 -32 q0 -9 1.5 -15t12 -13.5t33.5 -19.5t65 -33q25 -12 42.5 -22t30 -18t21.5 -15.5t17 -16.5q35 -38 35 -94q0 -95 -100 -145q41 -23 59.5 -52.5t18.5 -71.5q0 -35 -14.5 -65.5t-40 -53.5t-59.5 -36.5t-72 -13.5q-29 0 -62.5 7t-62.5 17.5t-48 23t-19 23.5q0 2 0.5 5.5t2.5 5.5z " />
<glyph unicode="&#xa8;" d="M339 706q28 0 48 -20t20 -49t-20 -49t-49 -20t-49 20t-20 49t20.5 49t49.5 20zM162 706q28 0 48 -20t20 -49t-20 -49t-49 -20t-49 20t-20 49t20.5 49t49.5 20z" />
<glyph unicode="&#xa9;" horiz-adv-x="739" d="M414 252q0 17 18 17h47q17 0 17 -17v-84q0 -13 -11 -18q-22 -12 -47.5 -17t-57.5 -5q-43 0 -72.5 9.5t-50.5 30.5q-55 55 -55 173q0 106 45 162t130 56q28 0 55.5 -7t46.5 -18q12 -7 12 -21v-77q0 -17 -18 -17h-47q-17 0 -17 17v40q-9 2 -14.5 2.5t-14.5 0.5 q-35 0 -49 -17q-27 -32 -27 -106q0 -83 23 -121q8 -14 23 -20.5t41 -6.5h10.5t12.5 1v43zM367 633q-51 0 -97 -23t-80 -62.5t-54 -92t-20 -112.5t20 -113t54.5 -92t80.5 -62t99 -23q52 0 98 23t80.5 62t54.5 91.5t20 112.5q0 61 -20 114t-54.5 92.5t-81 62t-100.5 22.5z M374 699q68 0 128 -28.5t105 -77t71.5 -113t26.5 -137.5q0 -74 -26.5 -138.5t-72 -113t-106.5 -76.5t-130 -28t-130.5 28t-107 76.5t-72 113t-26.5 137.5q0 75 26.5 140t72.5 113.5t108 76t133 27.5z" />
<glyph unicode="&#xaa;" horiz-adv-x="315" d="M184 406q-42 0 -61 -11t-19 -36q0 -17 10 -27.5t26 -10.5q23 0 44 21v64zM184 471v1q0 20 -8.5 29t-31.5 9q-30 0 -69 -14q-6 -3 -12 -3q-7 0 -10 9l-12 32q-2 6 -2.5 8t-0.5 4q0 6 10.5 11.5t27 10t37.5 7t42 2.5q60 0 87.5 -23.5t27.5 -74.5v-103q0 -15 1 -25t4 -20h25 q14 0 14 -13v-38q0 -13 -14 -13h-80q-10 0 -14 4t-8 18q-24 -18 -40.5 -24t-39.5 -6q-46 0 -73.5 25.5t-27.5 67.5q0 55 38.5 79.5t128.5 26.5v13z" />
<glyph unicode="&#xab;" horiz-adv-x="593" d="M305 62q7 -10 7 -14q0 -5 -2.5 -7.5t-10.5 -7.5l-49 -31q-7 -5 -9 -5.5t-5 -0.5q-4 0 -6.5 2t-7.5 10l-170 228q-5 7 -6 8.5t-1 5.5t1 6t6 8l170 222q6 8 8 10t5 2q4 0 5.5 -1t9.5 -6l50 -31q12 -8 12 -14q0 -5 -6 -15l-124 -187zM542 62q6 -11 6 -14q0 -7 -12 -15 l-50 -31q-7 -4 -9 -5t-5 -1q-4 0 -6.5 2t-7.5 10l-170 228q-5 6 -6 8.5t-1 5.5q0 4 1 6t6 8l170 222q5 7 7.5 9t5.5 2q6 0 15 -6l50 -31q8 -5 10.5 -7.5t2.5 -6.5q0 -3 -1 -5t-6 -10l-120 -187z" />
<glyph unicode="&#xac;" horiz-adv-x="514" d="M366 175h-311v121h446v-296h-135v175z" />
<glyph unicode="&#xad;" horiz-adv-x="371" d="M310 315q14 0 17.5 -3.5t3.5 -16.5v-79q0 -14 -3.5 -17t-17.5 -3h-250q-14 0 -17.5 3t-3.5 17v79q0 14 3.5 17t17.5 3h250z" />
<glyph unicode="&#xae;" horiz-adv-x="739" d="M342 371q39 0 53.5 11t14.5 40q0 26 -13 35.5t-49 9.5h-18v-96h12zM500 217h26q16 0 16 -15v-34q0 -15 -16 -15h-75q-9 0 -12 1.5t-7 9.5l-77 141h-25v-88h22q11 0 14.5 -3.5t3.5 -13.5v-30q0 -10 -3.5 -13.5t-14.5 -3.5h-132q-11 0 -14.5 3.5t-3.5 13.5v30 q0 10 3.5 13.5t14.5 3.5h24v252h-24q-11 0 -14.5 3.5t-3.5 13.5v30q0 10 3.5 13.5t14.5 3.5h137q74 0 108 -26.5t34 -83.5q0 -37 -14.5 -60.5t-49.5 -41.5zM367 633q-51 0 -97 -23t-80 -62.5t-54 -92t-20 -112.5t20 -113t54.5 -92t80.5 -62t99 -23q52 0 98 23t80.5 62 t54.5 91.5t20 112.5q0 61 -20 114t-54.5 92.5t-81 62t-100.5 22.5zM374 699q68 0 128 -28.5t105 -77t71.5 -113t26.5 -137.5q0 -74 -26.5 -138.5t-72 -113t-106.5 -76.5t-130 -28t-130.5 28t-107 76.5t-72 113t-26.5 137.5q0 75 26.5 140t72.5 113.5t108 76t133 27.5z" />
<glyph unicode="&#xaf;" d="M127 660q0 14 3.5 17.5t17.5 3.5h204q13 0 16.5 -3.5t3.5 -17.5v-45q0 -13 -3.5 -16.5t-16.5 -3.5h-204q-14 0 -17.5 3t-3.5 17v45z" />
<glyph unicode="&#xb0;" horiz-adv-x="537" d="M268 620q-31 0 -52.5 -22t-21.5 -53q0 -32 21.5 -53.5t52.5 -21.5q32 0 53.5 21.5t21.5 53.5t-21.5 53.5t-53.5 21.5zM271 703q31 0 59.5 -12.5t49.5 -34t33.5 -50t12.5 -61.5t-12.5 -61.5t-33.5 -49.5t-50 -33.5t-62 -12.5q-32 0 -60.5 12.5t-50 33.5t-34 49.5 t-12.5 61.5t12.5 62t34 50t50.5 33.5t63 12.5z" />
<glyph unicode="&#xb1;" horiz-adv-x="537" d="M41 22q0 11 3 14t14 3h421q11 0 14 -3t3 -14v-67q0 -11 -3 -14t-14 -3h-421q-11 0 -14 3t-3 14v67zM58 206q-11 0 -14 3t-3 14v68q0 11 3 14t14 3h160v159q0 11 3 14t14 3h68q11 0 14 -3t3 -14v-159h159q11 0 14 -3t3 -14v-68q0 -11 -3 -14t-14 -3h-159v-112 q0 -11 -3 -14t-14 -3h-68q-11 0 -14 3t-3 14v112h-160z" />
<glyph unicode="&#xb2;" horiz-adv-x="371" d="M300 344q11 0 15 -3t4 -14v-42q0 -11 -4 -14t-15 -3h-231q-14 0 -14 14v4q0 37 4.5 58t16.5 41q7 12 14.5 22t18.5 20t28 22.5t43 30.5q31 22 43 39t12 40q0 44 -47 44q-22 0 -34 -9.5t-26 -37.5q-5 -12 -15 -12q-2 0 -3.5 0.5l-7.5 2.5l-38 13q-12 4 -12 13q0 6 3 14.5 t8 17.5t11.5 18t13.5 16q38 40 107 40q60 0 94 -31t34 -86q0 -59 -39 -97q-8 -8 -13 -12.5t-13.5 -11t-21.5 -16t-37 -25.5q-42 -30 -43 -56h144z" />
<glyph unicode="&#xb3;" horiz-adv-x="370" d="M55 603q-6 6 -6 11q0 8 15 23q42 42 105 42q60 0 96 -30t36 -80q0 -29 -11.5 -48.5t-39.5 -37.5q35 -16 50.5 -39.5t15.5 -60.5q0 -56 -42.5 -91t-110.5 -35q-21 0 -43.5 3.5t-41 9t-30.5 12t-12 12.5q0 2 0.5 3.5t2.5 8.5l12 38q3 10 11 10q3 0 6 -1t17 -7 q39 -16 71 -16q66 0 66 57q0 28 -17.5 40.5t-57.5 12.5h-19q-11 0 -15 3.5t-4 14.5v39q0 11 4 14t15 3h20q64 0 64 50q0 20 -12.5 31.5t-34.5 11.5q-15 0 -27.5 -6.5t-26.5 -21.5q-7 -8 -12 -8t-10 4z" />
<glyph unicode="&#xb4;" d="M247 553q-8 -3 -10 -3.5t-4 -0.5q-4 0 -6 2.5t-7 12.5l-16 31q-5 10 -5 14t2.5 6.5t10.5 7.5l163 97q10 5 15 5q6 0 13 -14l31 -60q5 -10 5 -14q0 -9 -15 -14z" />
<glyph unicode="&#xb6;" horiz-adv-x="704" d="M316 596q-44 0 -73.5 -8t-47.5 -27t-25.5 -50.5t-7.5 -77.5q0 -101 26.5 -144t88.5 -43q10 0 18 1t21 4v345zM316 161q-20 -4 -32.5 -5.5t-27.5 -1.5q-48 0 -88.5 17t-69.5 48q-60 66 -60 200q0 183 109 241q15 8 30 13t33.5 8t42.5 4t57 1h333q14 0 17 -3.5t3 -17.5v-48 q0 -14 -3 -17.5t-17 -3.5h-56v-761q0 -13 -4 -17.5t-17 -4.5h-61q-12 0 -16 4t-4 17v762h-67v-761q0 -14 -3.5 -17.5t-17.5 -3.5h-61q-14 0 -17 3.5t-3 17.5v326z" />
<glyph unicode="&#xb7;" horiz-adv-x="257" d="M130 333q18 0 34 -7t28 -19.5t19 -29t7 -34.5q0 -38 -26 -64t-64 -26q-19 0 -35.5 7t-28.5 19.5t-19 29t-7 35.5q0 18 7 34.5t19.5 28.5t29.5 19t36 7z" />
<glyph unicode="&#xb8;" d="M270 -55q72 -8 72 -73q0 -40 -29.5 -64t-79.5 -24q-32 0 -53 5t-21 13l1 9l9 42q2 4 5 4t5 -1q18 -6 38 -6q30 0 30 23t-39 23q-14 0 -18 2t-4 10v6l9 86h79z" />
<glyph unicode="&#xb9;" horiz-adv-x="370" d="M227 669q11 0 15 -3.5t4 -14.5v-318h40q12 0 15.5 -3t3.5 -14v-30q0 -11 -3.5 -14.5t-15.5 -3.5h-187q-11 0 -15 3.5t-4 14.5v30q0 11 4 14t15 3h55v231l-52 -26q-8 -4 -12 -4q-6 0 -13 10l-16 26q-5 6 -5 12t10 12l115 75h46z" />
<glyph unicode="&#xba;" horiz-adv-x="333" d="M166 508q-26 0 -36.5 -21t-10.5 -69q0 -50 11 -70.5t37 -20.5t37 21t11 69q0 50 -11 70.5t-38 20.5zM170 577q66 0 103.5 -42.5t37.5 -116.5q0 -75 -38.5 -117.5t-105.5 -42.5q-69 0 -106.5 42t-37.5 118q0 75 39 117t108 42z" />
<glyph unicode="&#xbb;" horiz-adv-x="593" d="M52 431q-7 11 -7 15t2.5 6.5t10.5 7.5l49 31q8 5 10 6t5 1t5 -2t9 -10l170 -222q4 -5 5 -7.5t1 -6.5q0 -3 -1 -6t-5 -8l-170 -228q-6 -8 -8.5 -10t-5.5 -2t-5.5 0.5t-9.5 5.5l-49 31q-8 5 -10.5 8t-2.5 6t1 5.5t6 9.5l123 182zM287 431q-6 10 -6 15q0 4 2.5 6.5t10.5 7.5 l49 31q10 6 15 6q3 0 6 -2t8 -9l170 -222q4 -5 5 -7.5t1 -6.5t-1 -6.5t-5 -7.5l-170 -228q-6 -8 -8.5 -10t-5.5 -2t-5.5 0.5t-9.5 5.5l-49 31q-8 5 -10.5 8t-2.5 7q0 2 1 4.5t6 9.5l120 182z" />
<glyph unicode="&#xbc;" horiz-adv-x="871" d="M679 147l8 89q1 10 4.5 13t14.5 3h43q11 0 15 -3.5t4 -14.5v-89h31q12 0 15.5 -3.5t3.5 -14.5v-33q0 -11 -4 -14t-15 -3h-31v-70q0 -11 -3.5 -14.5t-15.5 -3.5h-53q-11 0 -15 3.5t-4 14.5v70h-151q-12 0 -15.5 3t-3.5 14v63l160 244q7 10 13 10q5 0 11 -3l38 -14 q14 -5 14 -13q0 -3 -0.5 -4.5t-4.5 -7.5l-144 -222h85zM499 662q7 15 23 15h51q20 0 20 -13q0 -3 -1 -4.5t-3 -7.5l-281 -674q-8 -18 -23 -18h-51q-21 0 -21 11q0 3 0.5 5t3.5 9zM206 669q11 0 15 -3.5t4 -14.5v-318h40q12 0 15.5 -3t3.5 -14v-30q0 -11 -3.5 -14.5 t-15.5 -3.5h-187q-11 0 -15 3.5t-4 14.5v30q0 11 4 14t15 3h55v231l-52 -26q-8 -4 -12 -4q-6 0 -13 10l-16 26q-5 6 -5 12t10 12l115 75h46z" />
<glyph unicode="&#xbd;" horiz-adv-x="871" d="M786 76q11 0 15 -3t4 -14v-42q0 -11 -4 -14t-15 -3h-231q-14 0 -14 14v4q0 37 4.5 58t16.5 41q7 12 14.5 21.5t19 20t28 23t42.5 30.5q31 22 43 39t12 40q0 44 -47 44q-22 0 -34 -9.5t-26 -37.5q-5 -12 -14 -12q-4 0 -9 2l-41 14q-12 4 -12 14t11 30.5t25 34.5 q40 40 107 40q60 0 94 -31t34 -86q0 -59 -39 -97q-8 -8 -13 -12.5t-13.5 -11t-21.5 -16t-37 -25.5q-42 -30 -43 -56h144zM503 662q7 15 22 15h52q19 0 19 -13q0 -5 -3 -12l-281 -674q-8 -18 -24 -18h-51q-20 0 -20 11q0 5 4 14zM213 669q11 0 15 -3.5t4 -14.5v-318h40 q12 0 15.5 -3t3.5 -14v-30q0 -11 -3.5 -14.5t-15.5 -3.5h-187q-11 0 -15 3.5t-4 14.5v30q0 11 4 14t15 3h55v231l-52 -26q-8 -4 -12 -4q-6 0 -13 10l-16 26q-5 6 -5 12t10 12l115 75h46z" />
<glyph unicode="&#xbe;" horiz-adv-x="871" d="M685 147l8 89q1 10 4.5 13t14.5 3h43q11 0 15 -3.5t4 -14.5v-89h31q12 0 15.5 -3.5t3.5 -14.5v-33q0 -11 -4 -14t-15 -3h-31v-70q0 -11 -3.5 -14.5t-15.5 -3.5h-53q-11 0 -15 3.5t-4 14.5v70h-151q-12 0 -15.5 3t-3.5 14v63l160 244q7 10 13 10q5 0 11 -3l38 -14 q14 -5 14 -13q0 -3 -0.5 -4.5t-4.5 -7.5l-144 -222h85zM512 662q7 15 23 15h51q20 0 20 -12q0 -4 -3 -13l-281 -674q-8 -18 -24 -18h-51q-20 0 -20 11q0 6 3 14zM41 603q-6 6 -6 11q0 8 15 23q42 42 105 42q60 0 96 -30t36 -80q0 -29 -11.5 -48.5t-39.5 -37.5 q35 -16 50.5 -39.5t15.5 -60.5q0 -56 -42.5 -91t-110.5 -35q-21 0 -43.5 3.5t-41 9t-30.5 12t-12 12.5q0 2 0.5 3.5t2.5 8.5l12 38q3 10 11 10q3 0 6 -1t17 -7q39 -16 71 -16q66 0 66 57q0 28 -17.5 40.5t-57.5 12.5h-19q-11 0 -15 3.5t-4 14.5v39q0 11 4 14t15 3h20 q64 0 64 50q0 20 -12.5 31.5t-34.5 11.5q-15 0 -27.5 -6.5t-26.5 -21.5q-7 -8 -12 -8t-10 4z" />
<glyph unicode="&#xbf;" horiz-adv-x="445" d="M258 472q17 0 32 -6.5t26.5 -18t18 -27t6.5 -33.5q0 -17 -6.5 -32.5t-18 -27t-27 -18t-33.5 -6.5q-35 0 -59.5 25t-24.5 60t25 59.5t61 24.5zM204 175q0 14 3.5 17.5t16.5 3.5h71q14 0 17.5 -3.5t3.5 -17.5v-125q0 -11 -3.5 -15t-17.5 -8q-66 -18 -93 -42t-27 -62 q0 -34 21.5 -51.5t61.5 -17.5q25 0 48.5 6t60.5 20q9 4 12 4.5t5 0.5q7 0 10 -10l26 -68q2 -6 2 -11q0 -9 -18.5 -19.5t-46 -19t-60.5 -14.5t-61 -6q-44 0 -80 13.5t-61.5 38t-39.5 59t-14 76.5q0 70 38 112.5t125 70.5v68z" />
<glyph unicode="&#xc0;" horiz-adv-x="574" d="M160 886q7 15 13 15t15 -4l175 -82q9 -5 12 -7t3 -7q0 -2 -0.5 -3.5t-3.5 -9.5l-13 -33q-4 -10 -7 -12.5t-8 -2.5q-2 0 -4 0.5t-8 2.5l-188 53q-17 4 -17 13q0 3 0.5 4.5t3.5 9.5zM344 274l-42 172q-4 17 -7 33.5t-6 34.5q-2 16 -5.5 36t-5.5 35q-4 -27 -7 -47t-6 -36 t-6 -29.5t-6 -26.5l-44 -172h135zM194 182l-22 -86h38q11 0 14 -3t3 -14v-62q0 -11 -3 -14t-14 -3h-206q-11 0 -14 3t-3 14v62q0 11 3 14t14 3h34l175 573q4 12 7 14.5t15 2.5h104q12 0 15 -2.5t7 -14.5l171 -573h38q11 0 14 -3t3 -14v-62q0 -11 -3 -14t-14 -3h-216 q-11 0 -14 3t-3 14v62q0 11 3 14t14 3h37l-22 86h-175z" />
<glyph unicode="&#xc1;" horiz-adv-x="574" d="M260 743q-6 -2 -8 -2.5t-4 -0.5q-5 0 -8 2.5t-7 12.5l-13 33q-4 9 -4 14q0 6 15 13l175 82q9 4 15 4t13 -15l27 -63q3 -7 3.5 -9.5t0.5 -4.5q0 -9 -17 -13zM344 274l-42 172q-4 17 -7 33.5t-6 34.5q-2 16 -5.5 36t-5.5 35q-4 -27 -7 -47t-6 -36t-6 -29.5t-6 -26.5 l-44 -172h135zM194 182l-22 -86h38q11 0 14 -3t3 -14v-62q0 -11 -3 -14t-14 -3h-206q-11 0 -14 3t-3 14v62q0 11 3 14t14 3h34l175 573q4 12 7 14.5t15 2.5h104q12 0 15 -2.5t7 -14.5l171 -573h38q11 0 14 -3t3 -14v-62q0 -11 -3 -14t-14 -3h-216q-11 0 -14 3t-3 14v62 q0 11 3 14t14 3h37l-22 86h-175z" />
<glyph unicode="&#xc2;" horiz-adv-x="574" d="M199 745q-8 -4 -10.5 -4.5t-4.5 -0.5q-4 0 -6.5 2.5t-7.5 10.5l-19 31q-6 10 -6 14q0 7 11 14l124 84q7 5 15 5q7 0 14 -5l125 -86q9 -6 9 -12q0 -3 -0.5 -5t-5.5 -9l-20 -32q-5 -8 -7.5 -10t-5.5 -2q-4 0 -6 0.5t-10 4.5l-94 43zM344 274l-42 172q-4 17 -7 33.5t-6 34.5 q-2 16 -5.5 36t-5.5 35q-4 -27 -7 -47t-6 -36t-6 -29.5t-6 -26.5l-44 -172h135zM194 182l-22 -86h38q11 0 14 -3t3 -14v-62q0 -11 -3 -14t-14 -3h-206q-11 0 -14 3t-3 14v62q0 11 3 14t14 3h34l175 573q4 12 7 14.5t15 2.5h104q12 0 15 -2.5t7 -14.5l171 -573h38q11 0 14 -3 t3 -14v-62q0 -11 -3 -14t-14 -3h-216q-11 0 -14 3t-3 14v62q0 11 3 14t14 3h37l-22 86h-175z" />
<glyph unicode="&#xc3;" horiz-adv-x="574" d="M438 860q8 -5 8 -9q0 -5 -5.5 -16t-15.5 -25q-20 -29 -40 -41.5t-47 -12.5q-17 0 -31.5 5.5t-37.5 20.5q-11 7 -17 9t-13 2q-21 0 -38 -29q-5 -8 -9 -8q-3 0 -9 3l-48 24q-8 3 -8 8t6.5 18t16.5 27q18 27 37 38t46 11q17 0 33.5 -5t39.5 -19q13 -8 19 -10t14 -2 q11 0 18 6t18 25q3 5 8 5l6 -1zM344 274l-42 172q-4 17 -7 33.5t-6 34.5q-2 16 -5.5 36t-5.5 35q-4 -27 -7 -47t-6 -36t-6 -29.5t-6 -26.5l-44 -172h135zM194 182l-22 -86h38q11 0 14 -3t3 -14v-62q0 -11 -3 -14t-14 -3h-206q-11 0 -14 3t-3 14v62q0 11 3 14t14 3h34 l175 573q4 12 7 14.5t15 2.5h104q12 0 15 -2.5t7 -14.5l171 -573h38q11 0 14 -3t3 -14v-62q0 -11 -3 -14t-14 -3h-216q-11 0 -14 3t-3 14v62q0 11 3 14t14 3h37l-22 86h-175z" />
<glyph unicode="&#xc4;" horiz-adv-x="574" d="M380 892q29 0 49.5 -21t20.5 -50q0 -30 -21 -51t-50 -21q-30 0 -51 21t-21 51q0 29 21 50t52 21zM197 891q29 0 49.5 -21t20.5 -50t-21 -50t-50 -21q-30 0 -50.5 21t-20.5 51q0 29 21 49.5t51 20.5zM344 274l-42 172q-4 17 -7 33.5t-6 34.5q-2 16 -5.5 36t-5.5 35 q-4 -27 -7 -47t-6 -36t-6 -29.5t-6 -26.5l-44 -172h135zM194 182l-22 -86h38q11 0 14 -3t3 -14v-62q0 -11 -3 -14t-14 -3h-206q-11 0 -14 3t-3 14v62q0 11 3 14t14 3h34l175 573q4 12 7 14.5t15 2.5h104q12 0 15 -2.5t7 -14.5l171 -573h38q11 0 14 -3t3 -14v-62 q0 -11 -3 -14t-14 -3h-216q-11 0 -14 3t-3 14v62q0 11 3 14t14 3h37l-22 86h-175z" />
<glyph unicode="&#xc5;" horiz-adv-x="574" d="M293 891q-17 0 -30 -13t-13 -31t13 -31t31 -13t30.5 13t12.5 31t-13 31t-31 13zM295 955q22 0 41.5 -8.5t34 -23.5t23 -34.5t8.5 -41.5t-8.5 -41.5t-23.5 -34.5t-34.5 -23.5t-41.5 -8.5q-23 0 -42.5 8.5t-34 23t-23 34t-8.5 42.5q0 22 8.5 42t23 34.5t34.5 23t43 8.5z M344 274l-42 172q-4 17 -7 33.5t-6 34.5q-2 16 -5.5 36t-5.5 35q-4 -27 -7 -47t-6 -36t-6 -29.5t-6 -26.5l-44 -172h135zM194 182l-22 -86h38q11 0 14 -3t3 -14v-62q0 -11 -3 -14t-14 -3h-206q-11 0 -14 3t-3 14v62q0 11 3 14t14 3h34l175 573q4 12 7 14.5t15 2.5h104 q12 0 15 -2.5t7 -14.5l171 -573h38q11 0 14 -3t3 -14v-62q0 -11 -3 -14t-14 -3h-216q-11 0 -14 3t-3 14v62q0 11 3 14t14 3h37l-22 86h-175z" />
<glyph unicode="&#xc6;" horiz-adv-x="759" d="M349 280v203v34.5v41.5t0.5 39.5t0.5 28.5q-12 -33 -19.5 -53.5t-13 -34.5t-10.5 -27t-13 -31l-84 -201h139zM479 412h169q14 0 17.5 -3.5t3.5 -16.5v-66q0 -14 -3.5 -17.5t-17.5 -3.5h-169v-198h132v75q0 11 3 14t14 3h68q11 0 14 -3t3 -14v-161q0 -14 -3 -17.5 t-17 -3.5h-392q-14 0 -17.5 3.5t-3.5 17.5v51q0 14 3.5 17.5t17.5 3.5h48v96h-168l-37 -96h59q11 0 14 -3t3 -14v-59q0 -11 -3 -14t-14 -3h-224q-11 0 -14 3t-3 14v62q0 11 3 14t14 3h34l246 575q5 11 7.5 13t14.5 2h412q11 0 14 -3t3 -14v-157q0 -11 -3 -14t-14 -3h-69 q-11 0 -14 3t-3 14v67h-128v-167z" />
<glyph unicode="&#xc7;" d="M377 186q0 11 3 14t14 3h74q11 0 14 -3t3 -14v-146q0 -9 -4.5 -14t-20.5 -13q-28 -14 -58.5 -21t-66.5 -9l-3 -39q73 -9 73 -75q0 -42 -30 -66.5t-81 -24.5q-35 0 -56 5.5t-21 13.5v2.5t2 5.5l9 43q0 5 4 5t6 -1q8 -3 18.5 -4.5t20.5 -1.5q30 0 30 23t-40 24q-14 0 -18 2 t-4 8v8l8 76q-47 7 -76 21t-52 41q-84 94 -84 291q0 177 69 270t200 93q41 0 83 -11.5t70 -29.5q8 -5 11 -10.5t3 -14.5v-135q0 -11 -3 -14t-14 -3h-75q-10 0 -13 3t-3 14v79q-15 5 -26.5 6.5t-27.5 1.5q-34 0 -54 -7.5t-34 -25.5q-45 -59 -45 -193q0 -144 37 -214 q15 -28 40.5 -40t69.5 -12q14 0 24 1t24 4v84z" />
<glyph unicode="&#xc8;" horiz-adv-x="519" d="M116 886q7 15 13 15t15 -4l175 -82q9 -5 12 -7t3 -7q0 -2 -0.5 -3.5t-3.5 -9.5l-13 -33q-4 -10 -7 -12.5t-8 -2.5q-2 0 -4 0.5t-8 2.5l-188 53q-17 4 -17 13q0 3 0.5 4.5t3.5 9.5zM237 412h170q14 0 17.5 -3t3.5 -17v-66q0 -14 -3.5 -17.5t-17.5 -3.5h-170v-198h133v75 q0 11 3 14t14 3h69q11 0 13.5 -3t2.5 -14v-161q0 -14 -3 -17.5t-17 -3.5h-400q-14 0 -17.5 3.5t-3.5 17.5v54q0 14 3.5 17.5t17.5 3.5h51v494h-51q-14 0 -17.5 3.5t-3.5 17.5v54q0 14 3.5 17.5t17.5 3.5h400q11 0 14 -3t3 -14v-157q0 -11 -3 -14t-14 -3h-69q-11 0 -14 3 t-3 14v67h-129v-167z" />
<glyph unicode="&#xc9;" horiz-adv-x="519" d="M222 743q-6 -2 -8 -2.5t-4 -0.5q-5 0 -8 2.5t-7 12.5l-13 33q-4 9 -4 14q0 6 15 13l175 82q9 4 15 4t13 -15l27 -63q3 -7 3.5 -9.5t0.5 -4.5q0 -9 -17 -13zM237 412h170q14 0 17.5 -3t3.5 -17v-66q0 -14 -3.5 -17.5t-17.5 -3.5h-170v-198h133v75q0 11 3 14t14 3h69 q11 0 13.5 -3t2.5 -14v-161q0 -14 -3 -17.5t-17 -3.5h-400q-14 0 -17.5 3.5t-3.5 17.5v54q0 14 3.5 17.5t17.5 3.5h51v494h-51q-14 0 -17.5 3.5t-3.5 17.5v54q0 14 3.5 17.5t17.5 3.5h400q11 0 14 -3t3 -14v-157q0 -11 -3 -14t-14 -3h-69q-11 0 -14 3t-3 14v67h-129v-167z " />
<glyph unicode="&#xca;" horiz-adv-x="519" d="M165 745q-8 -4 -10.5 -4.5t-4.5 -0.5q-4 0 -6.5 2.5t-7.5 10.5l-19 31q-6 10 -6 14q0 7 11 14l124 84q7 5 15 5q7 0 14 -5l125 -86q9 -6 9 -12q0 -3 -0.5 -5t-5.5 -9l-20 -32q-5 -8 -7.5 -10t-5.5 -2q-4 0 -6 0.5t-10 4.5l-94 43zM237 412h170q14 0 17.5 -3t3.5 -17v-66 q0 -14 -3.5 -17.5t-17.5 -3.5h-170v-198h133v75q0 11 3 14t14 3h69q11 0 13.5 -3t2.5 -14v-161q0 -14 -3 -17.5t-17 -3.5h-400q-14 0 -17.5 3.5t-3.5 17.5v54q0 14 3.5 17.5t17.5 3.5h51v494h-51q-14 0 -17.5 3.5t-3.5 17.5v54q0 14 3.5 17.5t17.5 3.5h400q11 0 14 -3t3 -14 v-157q0 -11 -3 -14t-14 -3h-69q-11 0 -14 3t-3 14v67h-129v-167z" />
<glyph unicode="&#xcb;" horiz-adv-x="519" d="M352 892q29 0 49.5 -21t20.5 -50q0 -30 -21 -51t-50 -21q-30 0 -51 21t-21 51q0 29 21 50t52 21zM169 891q29 0 49.5 -21t20.5 -50t-21 -50t-50 -21q-30 0 -50.5 21t-20.5 51q0 29 21 49.5t51 20.5zM237 412h170q14 0 17.5 -3t3.5 -17v-66q0 -14 -3.5 -17.5t-17.5 -3.5 h-170v-198h133v75q0 11 3 14t14 3h69q11 0 13.5 -3t2.5 -14v-161q0 -14 -3 -17.5t-17 -3.5h-400q-14 0 -17.5 3.5t-3.5 17.5v54q0 14 3.5 17.5t17.5 3.5h51v494h-51q-14 0 -17.5 3.5t-3.5 17.5v54q0 14 3.5 17.5t17.5 3.5h400q11 0 14 -3t3 -14v-157q0 -11 -3 -14t-14 -3 h-69q-11 0 -14 3t-3 14v67h-129v-167z" />
<glyph unicode="&#xcc;" horiz-adv-x="352" d="M29 886q7 15 13 15t15 -4l175 -82q9 -5 12 -7t3 -7q0 -2 -0.5 -3.5t-3.5 -9.5l-13 -33q-4 -10 -7 -12.5t-8 -2.5q-2 0 -4 0.5t-8 2.5l-188 53q-17 4 -17 13q0 3 0.5 4.5t3.5 9.5zM243 96h56q14 0 17.5 -3.5t3.5 -17.5v-54q0 -14 -3.5 -17.5t-17.5 -3.5h-245 q-14 0 -17.5 3.5t-3.5 17.5v54q0 14 3.5 17.5t17.5 3.5h55v494h-55q-14 0 -17.5 3.5t-3.5 17.5v54q0 14 3.5 17.5t17.5 3.5h245q14 0 17.5 -3.5t3.5 -17.5v-54q0 -14 -3.5 -17.5t-17.5 -3.5h-56v-494z" />
<glyph unicode="&#xcd;" horiz-adv-x="352" d="M150 743q-6 -2 -8 -2.5t-4 -0.5q-5 0 -8 2.5t-7 12.5l-13 33q-4 9 -4 14q0 6 15 13l175 82q9 4 15 4t13 -15l27 -63q3 -7 3.5 -9.5t0.5 -4.5q0 -9 -17 -13zM243 96h56q14 0 17.5 -3.5t3.5 -17.5v-54q0 -14 -3.5 -17.5t-17.5 -3.5h-245q-14 0 -17.5 3.5t-3.5 17.5v54 q0 14 3.5 17.5t17.5 3.5h55v494h-55q-14 0 -17.5 3.5t-3.5 17.5v54q0 14 3.5 17.5t17.5 3.5h245q14 0 17.5 -3.5t3.5 -17.5v-54q0 -14 -3.5 -17.5t-17.5 -3.5h-56v-494z" />
<glyph unicode="&#xce;" horiz-adv-x="352" d="M81 745q-8 -4 -10.5 -4.5t-4.5 -0.5q-4 0 -6.5 2.5t-7.5 10.5l-19 31q-6 10 -6 14q0 7 11 14l124 84q7 5 15 5q7 0 14 -5l125 -86q9 -6 9 -12q0 -3 -0.5 -5t-5.5 -9l-20 -32q-5 -8 -7.5 -10t-5.5 -2q-4 0 -6 0.5t-10 4.5l-94 43zM242 96h56q14 0 17.5 -3.5t3.5 -17.5v-54 q0 -14 -3.5 -17.5t-17.5 -3.5h-245q-14 0 -17.5 3.5t-3.5 17.5v54q0 14 3.5 17.5t17.5 3.5h55v494h-55q-14 0 -17.5 3.5t-3.5 17.5v54q0 14 3.5 17.5t17.5 3.5h245q14 0 17.5 -3.5t3.5 -17.5v-54q0 -14 -3.5 -17.5t-17.5 -3.5h-56v-494z" />
<glyph unicode="&#xcf;" horiz-adv-x="352" d="M265 892q29 0 49.5 -21t20.5 -50q0 -30 -21 -51t-50 -21q-30 0 -51 21t-21 51q0 29 21 50t52 21zM89 891q29 0 49.5 -21t20.5 -50t-21 -50t-50 -21q-30 0 -50.5 21t-20.5 51q0 29 21 49.5t51 20.5zM243 96h56q14 0 17.5 -3.5t3.5 -17.5v-54q0 -14 -3.5 -17.5t-17.5 -3.5 h-245q-14 0 -17.5 3.5t-3.5 17.5v54q0 14 3.5 17.5t17.5 3.5h55v494h-55q-14 0 -17.5 3.5t-3.5 17.5v54q0 14 3.5 17.5t17.5 3.5h245q14 0 17.5 -3.5t3.5 -17.5v-54q0 -14 -3.5 -17.5t-17.5 -3.5h-56v-494z" />
<glyph unicode="&#xd0;" horiz-adv-x="611" d="M275 107q24 0 65 9q50 11 72 65.5t22 164.5q0 64 -8.5 108.5t-27 72.5t-49 40t-74.5 12h-38v-178h103q14 0 17 -3.5t3 -17.5v-47q0 -14 -3 -17.5t-17 -3.5h-103v-205h38zM103 312h-50q-14 0 -17 3.5t-3 17.5v47q0 14 3.5 17.5t16.5 3.5h50v189h-51q-14 0 -17.5 3.5 t-3.5 17.5v54q0 14 3.5 17.5t17.5 3.5h229q28 0 48 -0.5t35 -2t27 -4t24 -6.5q80 -27 118 -107.5t38 -220.5q0 -233 -117 -309q-17 -11 -33 -17.5t-36 -11t-45 -6t-59 -1.5h-229q-14 0 -17.5 3.5t-3.5 17.5v54q0 14 3.5 17.5t17.5 3.5h51v216z" />
<glyph unicode="&#xd1;" horiz-adv-x="648" d="M498 860q8 -5 8 -9q0 -5 -5.5 -16t-15.5 -25q-20 -29 -40 -41.5t-47 -12.5q-17 0 -31.5 5.5t-37.5 20.5q-11 7 -17 9t-13 2q-21 0 -38 -29q-5 -8 -9 -8q-3 0 -9 3l-48 24q-8 3 -8 8t6.5 18t16.5 27q18 27 37 38t46 11q17 0 33.5 -5t39.5 -19q13 -8 19 -10t14 -2 q11 0 18 6t18 25q3 5 8 5l6 -1zM392 362q8 -15 17 -34.5t17.5 -39t15.5 -38t12 -33.5q-1 28 -1.5 46.5t-1 33t-0.5 26v24.5v243h-51q-14 0 -17.5 3.5t-3.5 17.5v54q0 14 3.5 17.5t17.5 3.5h216q14 0 17.5 -3.5t3.5 -17.5v-54q0 -14 -3.5 -17.5t-17.5 -3.5h-51v-569 q0 -14 -3.5 -17.5t-17.5 -3.5h-66q-11 0 -14.5 2t-8.5 12l-184 342q-11 21 -19.5 37.5t-15.5 31.5t-13 31t-13 36q1 -30 2 -47t1.5 -29t0.5 -23.5v-29.5v-267h51q14 0 17.5 -3.5t3.5 -17.5v-54q0 -14 -3.5 -17.5t-17.5 -3.5h-216q-14 0 -17.5 3.5t-3.5 17.5v54 q0 14 3.5 17.5t17.5 3.5h51v494h-51q-14 0 -17.5 3.5t-3.5 17.5v54q0 14 3.5 17.5t17.5 3.5h154q11 0 14.5 -2t8.5 -12z" />
<glyph unicode="&#xd2;" horiz-adv-x="574" d="M140 886q7 15 13 15t15 -4l175 -82q9 -5 12 -7t3 -7q0 -2 -0.5 -3.5t-3.5 -9.5l-13 -33q-4 -10 -7 -12.5t-8 -2.5q-2 0 -4 0.5t-8 2.5l-188 53q-17 4 -17 13q0 3 0.5 4.5t3.5 9.5zM286 597q-51 0 -78 -65t-27 -190q0 -253 106 -253q107 0 107 252q0 132 -26 194t-82 62z M292 703q50 0 95 -19t74 -52q74 -84 74 -281q0 -368 -251 -368q-244 0 -244 363q0 110 21 180t67 115q65 62 164 62z" />
<glyph unicode="&#xd3;" horiz-adv-x="574" d="M261 743q-6 -2 -8 -2.5t-4 -0.5q-5 0 -8 2.5t-7 12.5l-13 33q-4 9 -4 14q0 6 15 13l175 82q9 4 15 4t13 -15l27 -63q3 -7 3.5 -9.5t0.5 -4.5q0 -9 -17 -13zM286 597q-51 0 -78 -65t-27 -190q0 -253 106 -253q107 0 107 252q0 132 -26 194t-82 62zM292 703q50 0 95 -19 t74 -52q74 -84 74 -281q0 -368 -251 -368q-244 0 -244 363q0 110 21 180t67 115q65 62 164 62z" />
<glyph unicode="&#xd4;" horiz-adv-x="574" d="M193 745q-8 -4 -10.5 -4.5t-4.5 -0.5q-4 0 -6.5 2.5t-7.5 10.5l-19 31q-6 10 -6 14q0 7 11 14l124 84q7 5 15 5q7 0 14 -5l125 -86q9 -6 9 -12q0 -3 -0.5 -5t-5.5 -9l-20 -32q-5 -8 -7.5 -10t-5.5 -2q-4 0 -6 0.5t-10 4.5l-94 43zM286 597q-51 0 -78 -65t-27 -190 q0 -253 106 -253q107 0 107 252q0 132 -26 194t-82 62zM292 703q50 0 95 -19t74 -52q74 -84 74 -281q0 -368 -251 -368q-244 0 -244 363q0 110 21 180t67 115q65 62 164 62z" />
<glyph unicode="&#xd5;" horiz-adv-x="574" d="M439 860q8 -5 8 -9q0 -5 -5.5 -16t-15.5 -25q-20 -29 -40 -41.5t-47 -12.5q-17 0 -31.5 5.5t-37.5 20.5q-11 7 -17 9t-13 2q-21 0 -38 -29q-5 -8 -9 -8q-3 0 -9 3l-48 24q-8 3 -8 8t6.5 18t16.5 27q18 27 37 38t46 11q17 0 33.5 -5t39.5 -19q13 -8 19 -10t14 -2 q11 0 18 6t18 25q3 5 8 5l6 -1zM286 597q-51 0 -78 -65t-27 -190q0 -253 106 -253q107 0 107 252q0 132 -26 194t-82 62zM292 703q50 0 95 -19t74 -52q74 -84 74 -281q0 -368 -251 -368q-244 0 -244 363q0 110 21 180t67 115q65 62 164 62z" />
<glyph unicode="&#xd6;" horiz-adv-x="574" d="M380 892q29 0 49.5 -21t20.5 -50q0 -30 -21 -51t-50 -21q-30 0 -51 21t-21 51q0 29 21 50t52 21zM197 891q29 0 49.5 -21t20.5 -50t-21 -50t-50 -21q-30 0 -50.5 21t-20.5 51q0 29 21 49.5t51 20.5zM286 597q-51 0 -78 -65t-27 -190q0 -253 106 -253q107 0 107 252 q0 132 -26 194t-82 62zM292 703q50 0 95 -19t74 -52q74 -84 74 -281q0 -368 -251 -368q-244 0 -244 363q0 110 21 180t67 115q65 62 164 62z" />
<glyph unicode="&#xd7;" horiz-adv-x="537" d="M155 72q-8 -8 -12 -8q-2 0 -4.5 1.5t-7.5 6.5l-48 47q-7 8 -7 12q0 5 7 12l115 114l-115 113q-7 7 -7 12q0 4 7 12l48 47q5 5 7 6.5t5 1.5q4 0 12 -8l113 -115l113 115q8 8 12 8t12 -8l48 -47q7 -7 7 -12t-7 -12l-115 -113l115 -114q7 -6 7 -12q0 -5 -7 -12l-48 -47 q-8 -8 -12 -8t-12 8l-113 115z" />
<glyph unicode="&#xd8;" horiz-adv-x="574" d="M215 124q16 -21 33 -30.5t41 -9.5q58 0 88 65.5t30 193.5q0 42 -3 79.5t-10 81.5zM353 569q-27 33 -68 33q-57 0 -88 -66.5t-31 -190.5q0 -37 2.5 -71t9.5 -76zM439 732q7 14 14 14q2 0 14 -5l31 -16q14 -7 14 -13q0 -7 -5 -15l-39 -75q35 -50 50.5 -116t15.5 -164 q0 -359 -249 -359q-41 0 -73 8.5t-61 28.5l-41 -77q-5 -9 -7 -11.5t-6 -2.5t-5.5 0.5t-9.5 4.5l-31 16q-14 7 -14 14q0 5 5 14l54 102q-15 25 -26 53t-17.5 59.5t-10 68.5t-3.5 81q0 52 4.5 94.5t14 77t25 63t36.5 53.5q64 73 166 73q35 0 64.5 -7t58.5 -23z" />
<glyph unicode="&#xd9;" horiz-adv-x="667" d="M187 886q7 15 13 15t15 -4l175 -82q9 -5 12 -7t3 -7q0 -2 -0.5 -3.5t-3.5 -9.5l-13 -33q-4 -10 -7 -12.5t-8 -2.5q-2 0 -4 0.5t-8 2.5l-188 53q-17 4 -17 13q0 3 0.5 4.5t3.5 9.5zM396 590q-14 0 -17.5 3.5t-3.5 17.5v54q0 14 3.5 17.5t17.5 3.5h232q14 0 17 -3.5 t3 -17.5v-54q0 -14 -3.5 -17.5t-16.5 -3.5h-52v-358q0 -34 -3 -60.5t-10.5 -48t-19 -39t-28.5 -34.5q-35 -35 -81 -51t-110 -16q-134 0 -191 79q-21 29 -30 69t-9 101v358h-51q-14 0 -17.5 3.5t-3.5 17.5v54q0 14 3.5 17.5t17.5 3.5h237q13 0 16.5 -3.5t3.5 -17.5v-54 q0 -14 -3.5 -17.5t-16.5 -3.5h-52v-358q0 -25 1 -42.5t4 -30t7.5 -21t11.5 -16.5q28 -31 81 -31q61 0 87.5 32.5t26.5 106.5v360h-51z" />
<glyph unicode="&#xda;" horiz-adv-x="667" d="M321 743q-6 -2 -8 -2.5t-4 -0.5q-5 0 -8 2.5t-7 12.5l-13 33q-4 9 -4 14q0 6 15 13l175 82q9 4 15 4t13 -15l27 -63q3 -7 3.5 -9.5t0.5 -4.5q0 -9 -17 -13zM396 590q-14 0 -17.5 3.5t-3.5 17.5v54q0 14 3.5 17.5t17.5 3.5h232q14 0 17 -3.5t3 -17.5v-54q0 -14 -3.5 -17.5 t-16.5 -3.5h-52v-358q0 -34 -3 -60.5t-10.5 -48t-19 -39t-28.5 -34.5q-35 -35 -81 -51t-110 -16q-134 0 -191 79q-21 29 -30 69t-9 101v358h-51q-14 0 -17.5 3.5t-3.5 17.5v54q0 14 3.5 17.5t17.5 3.5h237q13 0 16.5 -3.5t3.5 -17.5v-54q0 -14 -3.5 -17.5t-16.5 -3.5h-52 v-358q0 -25 1 -42.5t4 -30t7.5 -21t11.5 -16.5q28 -31 81 -31q61 0 87.5 32.5t26.5 106.5v360h-51z" />
<glyph unicode="&#xdb;" horiz-adv-x="667" d="M246 745q-8 -4 -10.5 -4.5t-4.5 -0.5q-4 0 -6.5 2.5t-7.5 10.5l-19 31q-6 10 -6 14q0 7 11 14l124 84q7 5 15 5q7 0 14 -5l125 -86q9 -6 9 -12q0 -3 -0.5 -5t-5.5 -9l-20 -32q-5 -8 -7.5 -10t-5.5 -2q-4 0 -6 0.5t-10 4.5l-94 43zM396 590q-14 0 -17.5 3.5t-3.5 17.5v54 q0 14 3.5 17.5t17.5 3.5h232q14 0 17 -3.5t3 -17.5v-54q0 -14 -3.5 -17.5t-16.5 -3.5h-52v-358q0 -34 -3 -60.5t-10.5 -48t-19 -39t-28.5 -34.5q-35 -35 -81 -51t-110 -16q-134 0 -191 79q-21 29 -30 69t-9 101v358h-51q-14 0 -17.5 3.5t-3.5 17.5v54q0 14 3.5 17.5 t17.5 3.5h237q13 0 16.5 -3.5t3.5 -17.5v-54q0 -14 -3.5 -17.5t-16.5 -3.5h-52v-358q0 -25 1 -42.5t4 -30t7.5 -21t11.5 -16.5q28 -31 81 -31q61 0 87.5 32.5t26.5 106.5v360h-51z" />
<glyph unicode="&#xdc;" horiz-adv-x="667" d="M428 892q29 0 49.5 -21t20.5 -50q0 -30 -21 -51t-50 -21q-30 0 -51 21t-21 51q0 29 21 50t52 21zM245 891q29 0 49.5 -21t20.5 -50t-21 -50t-50 -21q-30 0 -50.5 21t-20.5 51q0 29 21 49.5t51 20.5zM396 590q-14 0 -17.5 3.5t-3.5 17.5v54q0 14 3.5 17.5t17.5 3.5h232 q14 0 17 -3.5t3 -17.5v-54q0 -14 -3.5 -17.5t-16.5 -3.5h-52v-358q0 -34 -3 -60.5t-10.5 -48t-19 -39t-28.5 -34.5q-35 -35 -81 -51t-110 -16q-134 0 -191 79q-21 29 -30 69t-9 101v358h-51q-14 0 -17.5 3.5t-3.5 17.5v54q0 14 3.5 17.5t17.5 3.5h237q13 0 16.5 -3.5 t3.5 -17.5v-54q0 -14 -3.5 -17.5t-16.5 -3.5h-52v-358q0 -25 1 -42.5t4 -30t7.5 -21t11.5 -16.5q28 -31 81 -31q61 0 87.5 32.5t26.5 106.5v360h-51z" />
<glyph unicode="&#xdd;" d="M255 743q-6 -2 -8 -2.5t-4 -0.5q-5 0 -8 2.5t-7 12.5l-13 33q-4 9 -4 14q0 6 15 13l175 82q9 4 15 4t13 -15l27 -63q3 -7 3.5 -9.5t0.5 -4.5q0 -9 -17 -13zM216 511q6 -12 10 -21.5t8 -21t9.5 -28l14.5 -43.5q11 36 22 65.5t23 55.5l74 154q5 11 8 12.5t15 1.5h105 q11 0 14 -3t3 -14v-62q0 -11 -3 -14t-14 -3h-30l-154 -309v-185h68q14 0 17.5 -3.5t3.5 -17.5v-54q0 -14 -3.5 -17.5t-17.5 -3.5h-270q-14 0 -17.5 3.5t-3.5 17.5v54q0 14 3.5 17.5t17.5 3.5h68v186l-159 308h-26q-11 0 -14 3t-3 14v62q0 11 3 14t14 3h114q12 0 15 -2t8 -13 z" />
<glyph unicode="&#xde;" horiz-adv-x="537" d="M269 264q36 0 55.5 4.5t34.5 15.5q32 26 32 79q0 61 -45 80q-11 5 -26.5 7t-40.5 2h-39v-188h29zM286 549q60 0 95.5 -6.5t61.5 -22.5q37 -23 56.5 -61.5t19.5 -90.5q0 -48 -16 -87.5t-46 -67t-72 -42.5t-94 -15h-56v-60h67q14 0 17 -3.5t3 -17.5v-54q0 -14 -3 -17.5 t-17 -3.5h-250q-14 0 -17.5 3.5t-3.5 17.5v54q0 14 3.5 17.5t17.5 3.5h51v494h-51q-14 0 -17.5 3t-3.5 17v55q0 14 3.5 17.5t17.5 3.5h237q14 0 17.5 -3.5t3.5 -17.5v-49q0 -14 -3.5 -17.5t-17.5 -3.5h-54v-46h51z" />
<glyph unicode="&#xdf;" horiz-adv-x="630" d="M95 496q0 62 11.5 99.5t37.5 65.5q61 64 175 64q92 0 144.5 -39t52.5 -106q0 -18 -3 -32.5t-11.5 -28.5t-22.5 -30.5t-36 -37.5q-17 -17 -22.5 -26.5t-5.5 -20.5q0 -9 1.5 -15t9 -14t24 -22t46.5 -38q29 -23 48 -42.5t30 -38.5t15.5 -39.5t4.5 -45.5q0 -79 -46 -122.5 t-129 -43.5q-29 0 -62.5 6.5t-56.5 16.5q-9 4 -11.5 6.5t-2.5 7.5l1 11l17 65q2 7 9 7q6 0 13 -4q24 -11 48.5 -17.5t44.5 -6.5q28 0 43.5 15.5t15.5 43.5q0 13 -2.5 23.5t-11 21t-23.5 24t-39 32.5q-19 15 -32 25.5t-21.5 18.5t-14 14.5t-10.5 13.5q-11 14 -17 33.5 t-6 37.5q0 30 13 54.5t45 58.5q23 23 30.5 37.5t7.5 34.5q0 64 -79 64q-35 0 -59 -14.5t-32 -39.5q-5 -18 -5 -66v-490q0 -11 -3 -14t-14 -3h-161q-14 0 -14 14v65q0 14 14 14h51v403z" />
<glyph unicode="&#xe0;" d="M132 732q7 14 14 14q4 0 14 -5l163 -97q13 -8 13 -14q0 -5 -5 -14l-15 -31q-5 -9 -7.5 -12t-6.5 -3q-2 0 -3.5 0.5t-9.5 3.5l-177 70q-16 7 -16 14q0 2 0.5 4.5t4.5 9.5zM295 224q-39 -1 -57.5 -3t-33.5 -7q-49 -19 -49 -70q0 -29 18.5 -49t45.5 -20q40 0 76 39v110z M295 338q0 43 -15 59t-55 16q-45 0 -114 -27q-8 -2 -11 -2q-7 0 -10 10l-20 58q-2 8 -2.5 9.5t-0.5 3.5q0 8 16 16t41.5 15t56.5 11t62 4q101 0 144 -55q15 -20 21 -43.5t6 -61.5v-174q0 -27 2 -44t8 -40h45q14 0 14 -14v-65q0 -14 -14 -14h-126q-13 0 -18 7.5t-12 35.5 q-32 -32 -61 -44.5t-68 -12.5q-69 0 -109.5 40.5t-40.5 111.5q0 131 149 161q20 4 45 5.5t67 2.5v31z" />
<glyph unicode="&#xe1;" d="M213 574q-8 -3 -10 -3.5t-4 -0.5q-4 0 -6 2.5t-7 12.5l-16 31q-5 10 -5 14t2.5 6.5t10.5 7.5l163 97q10 5 15 5q6 0 13 -14l31 -60q5 -10 5 -14q0 -9 -15 -14zM295 224q-39 -1 -57.5 -3t-33.5 -7q-49 -19 -49 -70q0 -29 18.5 -49t45.5 -20q40 0 76 39v110zM295 338 q0 43 -15 59t-55 16q-45 0 -114 -27q-8 -2 -11 -2q-7 0 -10 10l-20 58q-2 8 -2.5 9.5t-0.5 3.5q0 8 16 16t41.5 15t56.5 11t62 4q101 0 144 -55q15 -20 21 -43.5t6 -61.5v-174q0 -27 2 -44t8 -40h45q14 0 14 -14v-65q0 -14 -14 -14h-126q-13 0 -18 7.5t-12 35.5 q-32 -32 -61 -44.5t-68 -12.5q-69 0 -109.5 40.5t-40.5 111.5q0 131 149 161q20 4 45 5.5t67 2.5v31z" />
<glyph unicode="&#xe2;" d="M157 559q-9 -6 -13 -6q-7 0 -15 13l-18 31q-6 10 -6 13q0 4 2 7t9 8l113 89q7 5 9.5 6.5t4.5 1.5q3 0 6 -1.5t9 -6.5l112 -89q7 -5 9 -7.5t2 -7.5q0 -3 -6 -13l-19 -31q-8 -13 -15 -13q-4 0 -13 6l-85 49zM295 224q-39 -1 -57.5 -3t-33.5 -7q-49 -19 -49 -70 q0 -29 18.5 -49t45.5 -20q40 0 76 39v110zM295 338q0 43 -15 59t-55 16q-45 0 -114 -27q-8 -2 -11 -2q-7 0 -10 10l-20 58q-2 8 -2.5 9.5t-0.5 3.5q0 8 16 16t41.5 15t56.5 11t62 4q101 0 144 -55q15 -20 21 -43.5t6 -61.5v-174q0 -27 2 -44t8 -40h45q14 0 14 -14v-65 q0 -14 -14 -14h-126q-13 0 -18 7.5t-12 35.5q-32 -32 -61 -44.5t-68 -12.5q-69 0 -109.5 40.5t-40.5 111.5q0 131 149 161q20 4 45 5.5t67 2.5v31z" />
<glyph unicode="&#xe3;" d="M397 677q8 -4 8 -10q0 -4 -5.5 -15t-15.5 -25q-19 -29 -38.5 -41.5t-46.5 -12.5q-17 0 -30 5t-36 21q-18 11 -29 11q-21 0 -37 -29q-5 -8 -9 -8q-3 0 -9 3l-47 23q-7 4 -7 9t6 18t16 27q18 27 36.5 38t44.5 11q17 0 32.5 -5t38.5 -19q12 -8 18 -10t14 -2q10 0 16.5 5.5 t18.5 25.5q2 5 8 5q4 0 6 -2zM295 224q-39 -1 -57.5 -3t-33.5 -7q-49 -19 -49 -70q0 -29 18.5 -49t45.5 -20q40 0 76 39v110zM295 338q0 43 -15 59t-55 16q-45 0 -114 -27q-8 -2 -11 -2q-7 0 -10 10l-20 58q-2 8 -2.5 9.5t-0.5 3.5q0 8 16 16t41.5 15t56.5 11t62 4 q101 0 144 -55q15 -20 21 -43.5t6 -61.5v-174q0 -27 2 -44t8 -40h45q14 0 14 -14v-65q0 -14 -14 -14h-126q-13 0 -18 7.5t-12 35.5q-32 -32 -61 -44.5t-68 -12.5q-69 0 -109.5 40.5t-40.5 111.5q0 131 149 161q20 4 45 5.5t67 2.5v31z" />
<glyph unicode="&#xe4;" d="M327 706q28 0 48 -20t20 -49t-20 -49t-49 -20t-49 20t-20 49t20.5 49t49.5 20zM150 706q28 0 48 -20t20 -49t-20 -49t-49 -20t-49 20t-20 49t20.5 49t49.5 20zM295 224q-39 -1 -57.5 -3t-33.5 -7q-49 -19 -49 -70q0 -29 18.5 -49t45.5 -20q40 0 76 39v110zM295 338 q0 43 -15 59t-55 16q-45 0 -114 -27q-8 -2 -11 -2q-7 0 -10 10l-20 58q-2 8 -2.5 9.5t-0.5 3.5q0 8 16 16t41.5 15t56.5 11t62 4q101 0 144 -55q15 -20 21 -43.5t6 -61.5v-174q0 -27 2 -44t8 -40h45q14 0 14 -14v-65q0 -14 -14 -14h-126q-13 0 -18 7.5t-12 35.5 q-32 -32 -61 -44.5t-68 -12.5q-69 0 -109.5 40.5t-40.5 111.5q0 131 149 161q20 4 45 5.5t67 2.5v31z" />
<glyph unicode="&#xe5;" d="M244 706q-17 0 -29.5 -12.5t-12.5 -30.5q0 -17 12.5 -29.5t29.5 -12.5t29.5 12.5t12.5 29.5q0 18 -12.5 30.5t-29.5 12.5zM246 769q21 0 39.5 -8.5t33 -22.5t22.5 -33.5t8 -40.5q0 -22 -8.5 -41t-22.5 -33.5t-33 -22.5t-41 -8q-21 0 -40 8t-33.5 22.5t-22.5 33.5t-8 41 q0 45 30.5 75t75.5 30zM295 224q-39 -1 -57.5 -3t-33.5 -7q-49 -19 -49 -70q0 -29 18.5 -49t45.5 -20q40 0 76 39v110zM295 338q0 43 -15 59t-55 16q-45 0 -114 -27q-8 -2 -11 -2q-7 0 -10 10l-20 58q-2 8 -2.5 9.5t-0.5 3.5q0 8 16 16t41.5 15t56.5 11t62 4q101 0 144 -55 q15 -20 21 -43.5t6 -61.5v-174q0 -27 2 -44t8 -40h45q14 0 14 -14v-65q0 -14 -14 -14h-126q-13 0 -18 7.5t-12 35.5q-32 -32 -61 -44.5t-68 -12.5q-69 0 -109.5 40.5t-40.5 111.5q0 131 149 161q20 4 45 5.5t67 2.5v31z" />
<glyph unicode="&#xe6;" horiz-adv-x="722" d="M562 306q-2 61 -18 87.5t-52 26.5q-38 0 -57 -27t-25 -87h152zM290 224q-20 0 -34.5 -1t-25 -2t-19 -3.5t-15.5 -5.5q-44 -20 -44 -71q0 -29 17.5 -47.5t43.5 -18.5q43 0 77 37v112zM674 52q2 -4 2 -11q0 -9 -17 -19t-42.5 -19t-56 -14.5t-57.5 -5.5q-103 0 -161 66 q-36 -33 -74 -48t-86 -15q-69 0 -108.5 39.5t-39.5 108.5q0 45 14.5 76.5t45.5 52.5t79.5 31t116.5 12v42q0 65 -61 65q-23 0 -55 -7.5t-61 -18.5q-6 -3 -11 -3q-9 0 -12 11l-20 59q-2 8 -2 10q0 7 6 11.5t24 11.5q28 11 64.5 17.5t65.5 6.5q51 0 82.5 -16t49.5 -50 q52 66 140 66q57 0 101 -29.5t66 -83.5q11 -26 17.5 -69t6.5 -87q0 -17 -4 -23t-15 -6h-262q2 -66 26.5 -96t74.5 -30q15 0 27 1.5t25 5t28 9.5t35 15q7 3 12 3t10 -9z" />
<glyph unicode="&#xe7;" horiz-adv-x="407" d="M273 -55q72 -8 72 -72q0 -42 -29 -65.5t-80 -23.5q-32 0 -53 5.5t-21 13.5v2.5t2 5.5l8 42q2 4 5 4t5 -1q18 -6 39 -6q29 0 29 22t-39 24q-14 0 -18 2t-4 8v7l8 75q-35 8 -56.5 19t-41.5 31q-33 33 -50 84t-17 115q0 130 61.5 202t172.5 72q15 0 31.5 -2t32 -5t29 -7.5 t22.5 -9.5q6 -3 8 -6.5t2 -12.5v-135q0 -14 -14 -14h-74q-14 0 -14 14v75q-8 2 -12.5 2h-11.5q-53 0 -77 -40t-24 -128q0 -84 24.5 -121.5t78.5 -37.5q41 0 80 19q6 3 10 3q5 0 7 -5l26 -66q2 -6 2.5 -7t0.5 -3q0 -6 -9.5 -12.5t-26 -12.5t-37.5 -10t-44 -6z" />
<glyph unicode="&#xe8;" horiz-adv-x="482" d="M123 711q7 14 14 14q4 0 14 -5l163 -97q13 -8 13 -14q0 -5 -5 -14l-15 -31q-5 -9 -7.5 -12t-6.5 -3q-2 0 -3.5 0.5t-9.5 3.5l-177 70q-16 7 -16 14q0 2 0.5 4.5t4.5 9.5zM317 306q-2 62 -18.5 88t-54.5 26t-57 -26t-26 -88h156zM159 213q2 -65 28.5 -95.5t82.5 -30.5 q55 0 114 31q7 4 13 4t11 -9l25 -60q2 -5 2.5 -6.5t0.5 -4.5q0 -8 -8 -14t-33 -17q-65 -28 -138 -28q-95 0 -149 49q-36 33 -55.5 87.5t-19.5 123.5q0 61 15.5 110.5t44.5 84.5t69 54t90 19q198 0 198 -274q0 -14 -4.5 -19t-17.5 -5h-269z" />
<glyph unicode="&#xe9;" horiz-adv-x="482" d="M238 553q-8 -3 -10 -3.5t-4 -0.5q-4 0 -6 2.5t-7 12.5l-16 31q-5 10 -5 14t2.5 6.5t10.5 7.5l163 97q10 5 15 5q6 0 13 -14l31 -60q5 -10 5 -14q0 -9 -15 -14zM317 306q-2 62 -18.5 88t-54.5 26t-57 -26t-26 -88h156zM159 213q2 -65 28.5 -95.5t82.5 -30.5q55 0 114 31 q7 4 13 4t11 -9l25 -60q2 -5 2.5 -6.5t0.5 -4.5q0 -8 -8 -14t-33 -17q-65 -28 -138 -28q-95 0 -149 49q-36 33 -55.5 87.5t-19.5 123.5q0 61 15.5 110.5t44.5 84.5t69 54t90 19q198 0 198 -274q0 -14 -4.5 -19t-17.5 -5h-269z" />
<glyph unicode="&#xea;" horiz-adv-x="482" d="M168 559q-9 -6 -13 -6q-7 0 -15 13l-18 31q-6 10 -6 13q0 4 2 7t9 8l113 89q7 5 9.5 6.5t4.5 1.5q3 0 6 -1.5t9 -6.5l112 -89q7 -5 9 -7.5t2 -7.5q0 -3 -6 -13l-19 -31q-8 -13 -15 -13q-4 0 -13 6l-85 49zM317 306q-2 62 -18.5 88t-54.5 26t-57 -26t-26 -88h156zM159 213 q2 -65 28.5 -95.5t82.5 -30.5q55 0 114 31q7 4 13 4t11 -9l25 -60q2 -5 2.5 -6.5t0.5 -4.5q0 -8 -8 -14t-33 -17q-65 -28 -138 -28q-95 0 -149 49q-36 33 -55.5 87.5t-19.5 123.5q0 61 15.5 110.5t44.5 84.5t69 54t90 19q198 0 198 -274q0 -14 -4.5 -19t-17.5 -5h-269z" />
<glyph unicode="&#xeb;" horiz-adv-x="482" d="M330 706q28 0 48 -20t20 -49t-20 -49t-49 -20t-49 20t-20 49t20.5 49t49.5 20zM153 706q28 0 48 -20t20 -49t-20 -49t-49 -20t-49 20t-20 49t20.5 49t49.5 20zM317 306q-2 62 -18.5 88t-54.5 26t-57 -26t-26 -88h156zM159 213q2 -65 28.5 -95.5t82.5 -30.5q55 0 114 31 q7 4 13 4t11 -9l25 -60q2 -5 2.5 -6.5t0.5 -4.5q0 -8 -8 -14t-33 -17q-65 -28 -138 -28q-95 0 -149 49q-36 33 -55.5 87.5t-19.5 123.5q0 61 15.5 110.5t44.5 84.5t69 54t90 19q198 0 198 -274q0 -14 -4.5 -19t-17.5 -5h-269z" />
<glyph unicode="&#xec;" horiz-adv-x="315" d="M18 711q7 14 14 14q4 0 14 -5l163 -97q13 -8 13 -14q0 -5 -5 -14l-15 -31q-5 -9 -7.5 -12t-6.5 -3q-2 0 -3.5 0.5t-9.5 3.5l-177 70q-16 7 -16 14q0 2 0.5 4.5t4.5 9.5zM46 401q-11 0 -14 3t-3 14v59q0 11 3 14t14 3h172q11 0 14 -3t3 -14v-384h65q14 0 14 -14v-65 q0 -14 -14 -14h-257q-14 0 -14 14v65q0 14 14 14h65v308h-62z" />
<glyph unicode="&#xed;" horiz-adv-x="315" d="M142 574q-8 -3 -10 -3.5t-4 -0.5q-4 0 -6 2.5t-7 12.5l-16 31q-5 10 -5 14t2.5 6.5t10.5 7.5l163 97q10 5 15 5q6 0 13 -14l31 -60q5 -10 5 -14q0 -9 -15 -14zM46 401q-11 0 -14 3t-3 14v59q0 11 3 14t14 3h172q11 0 14 -3t3 -14v-384h65q14 0 14 -14v-65q0 -14 -14 -14 h-257q-14 0 -14 14v65q0 14 14 14h65v308h-62z" />
<glyph unicode="&#xee;" horiz-adv-x="315" d="M71 559q-9 -6 -13 -6q-7 0 -15 13l-18 31q-6 10 -6 13q0 4 2 7t9 8l113 89q7 5 9.5 6.5t4.5 1.5q3 0 6 -1.5t9 -6.5l112 -89q7 -5 9 -7.5t2 -7.5q0 -3 -6 -13l-19 -31q-8 -13 -15 -13q-4 0 -13 6l-85 49zM46 401q-11 0 -14 3t-3 14v59q0 11 3 14t14 3h172q11 0 14 -3 t3 -14v-384h65q14 0 14 -14v-65q0 -14 -14 -14h-257q-14 0 -14 14v65q0 14 14 14h65v308h-62z" />
<glyph unicode="&#xef;" horiz-adv-x="315" d="M243 706q28 0 48 -20t20 -49t-20 -49t-49 -20t-49 20t-20 49t20.5 49t49.5 20zM73 706q28 0 48 -20t20 -49t-20 -49t-49 -20t-49 20t-20 49t20.5 49t49.5 20zM46 401q-11 0 -14 3t-3 14v59q0 11 3 14t14 3h172q11 0 14 -3t3 -14v-384h65q14 0 14 -14v-65q0 -14 -14 -14 h-257q-14 0 -14 14v65q0 14 14 14h65v308h-62z" />
<glyph unicode="&#xf0;" d="M250 411q-44 0 -63 -38t-19 -126q0 -87 19.5 -125t64.5 -38q46 0 67 38.5t21 123.5q0 89 -21 127t-69 38zM341 633q60 -102 93.5 -203.5t33.5 -185.5q0 -60 -15.5 -108t-43.5 -82t-68.5 -52.5t-89.5 -18.5q-104 0 -161 69.5t-57 196.5q0 119 58 189q28 35 67 54.5 t77 19.5q29 0 62 -18q-9 22 -23 50.5t-25 46.5l-91 -43q-5 -2 -6 -2.5t-3 -0.5q-3 0 -8 8l-17 37q-3 6 -3 10t8 8l88 40q-17 31 -41 61q-7 8 -7 13q0 9 13 11l61 8q3 1 5.5 1h4.5q10 0 21.5 -11.5t33.5 -40.5l93 43q6 2 8 2t3.5 -1.5t4.5 -7.5l15 -32q3 -7 4 -8.5t1 -3.5 q0 -3 -2 -4l-10 -5z" />
<glyph unicode="&#xf1;" horiz-adv-x="593" d="M461 677q8 -4 8 -10q0 -4 -5.5 -15t-15.5 -25q-19 -29 -38.5 -41.5t-46.5 -12.5q-17 0 -30 5t-36 21q-18 11 -29 11q-21 0 -37 -29q-5 -8 -9 -8q-3 0 -9 3l-47 23q-7 4 -7 9t6 18t16 27q18 27 36.5 38t44.5 11q17 0 32.5 -5t38.5 -19q12 -8 18 -10t14 -2q10 0 16.5 5.5 t18.5 25.5q2 5 8 5q4 0 6 -2zM189 494q6 0 10.5 -1.5t8 -7t6.5 -16t7 -27.5q43 39 76.5 54t76.5 15q67 0 98 -38t31 -120v-260h52q14 0 14 -14v-65q0 -14 -14 -14h-162q-11 0 -14 3t-3 14v308q0 44 -13 63.5t-42 19.5q-22 0 -41.5 -9t-44.5 -32v-274h51q14 0 14 -14v-65 q0 -9 -2.5 -11.5t-11.5 -2.5h-229q-14 0 -14 14v65q0 14 14 14h51v223q0 29 -2 46t-8 39h-48q-14 0 -14 14v65q0 14 14 14h139z" />
<glyph unicode="&#xf2;" d="M118 711q7 14 14 14q4 0 14 -5l163 -97q13 -8 13 -14q0 -5 -5 -14l-15 -31q-5 -9 -7.5 -12t-6.5 -3q-2 0 -3.5 0.5t-9.5 3.5l-177 70q-16 7 -16 14q0 2 0.5 4.5t4.5 9.5zM249 410q-43 0 -62 -38t-19 -125t19 -125t63 -38q45 0 64 38t19 124q0 89 -19.5 126.5t-64.5 37.5z M255 511q49 0 88.5 -18.5t67 -52.5t42.5 -82.5t15 -109.5t-15 -110t-43 -83.5t-68.5 -53t-90.5 -18.5q-103 0 -160.5 69.5t-57.5 194.5q0 121 58 191q32 38 71 55.5t93 17.5z" />
<glyph unicode="&#xf3;" d="M247 553q-8 -3 -10 -3.5t-4 -0.5q-4 0 -6 2.5t-7 12.5l-16 31q-5 10 -5 14t2.5 6.5t10.5 7.5l163 97q10 5 15 5q6 0 13 -14l31 -60q5 -10 5 -14q0 -9 -15 -14zM249 410q-43 0 -62 -38t-19 -125t19 -125t63 -38q45 0 64 38t19 124q0 89 -19.5 126.5t-64.5 37.5zM255 511 q49 0 88.5 -18.5t67 -52.5t42.5 -82.5t15 -109.5t-15 -110t-43 -83.5t-68.5 -53t-90.5 -18.5q-103 0 -160.5 69.5t-57.5 194.5q0 121 58 191q32 38 71 55.5t93 17.5z" />
<glyph unicode="&#xf4;" d="M164 559q-9 -6 -13 -6q-7 0 -15 13l-18 31q-6 10 -6 13q0 4 2 7t9 8l113 89q7 5 9.5 6.5t4.5 1.5q3 0 6 -1.5t9 -6.5l112 -89q7 -5 9 -7.5t2 -7.5q0 -3 -6 -13l-19 -31q-8 -13 -15 -13q-4 0 -13 6l-85 49zM249 410q-43 0 -62 -38t-19 -125t19 -125t63 -38q45 0 64 38 t19 124q0 89 -19.5 126.5t-64.5 37.5zM255 511q49 0 88.5 -18.5t67 -52.5t42.5 -82.5t15 -109.5t-15 -110t-43 -83.5t-68.5 -53t-90.5 -18.5q-103 0 -160.5 69.5t-57.5 194.5q0 121 58 191q32 38 71 55.5t93 17.5z" />
<glyph unicode="&#xf5;" d="M397 677q8 -4 8 -10q0 -4 -5.5 -15t-15.5 -25q-19 -29 -38.5 -41.5t-46.5 -12.5q-17 0 -30 5t-36 21q-18 11 -29 11q-21 0 -37 -29q-5 -8 -9 -8q-3 0 -9 3l-47 23q-7 4 -7 9t6 18t16 27q18 27 36.5 38t44.5 11q17 0 32.5 -5t38.5 -19q12 -8 18 -10t14 -2q10 0 16.5 5.5 t18.5 25.5q2 5 8 5q4 0 6 -2zM249 410q-43 0 -62 -38t-19 -125t19 -125t63 -38q45 0 64 38t19 124q0 89 -19.5 126.5t-64.5 37.5zM255 511q49 0 88.5 -18.5t67 -52.5t42.5 -82.5t15 -109.5t-15 -110t-43 -83.5t-68.5 -53t-90.5 -18.5q-103 0 -160.5 69.5t-57.5 194.5 q0 121 58 191q32 38 71 55.5t93 17.5z" />
<glyph unicode="&#xf6;" d="M340 706q28 0 48 -20t20 -49t-20 -49t-49 -20t-49 20t-20 49t20.5 49t49.5 20zM163 706q28 0 48 -20t20 -49t-20 -49t-49 -20t-49 20t-20 49t20.5 49t49.5 20zM249 410q-43 0 -62 -38t-19 -125t19 -125t63 -38q45 0 64 38t19 124q0 89 -19.5 126.5t-64.5 37.5zM255 511 q49 0 88.5 -18.5t67 -52.5t42.5 -82.5t15 -109.5t-15 -110t-43 -83.5t-68.5 -53t-90.5 -18.5q-103 0 -160.5 69.5t-57.5 194.5q0 121 58 191q32 38 71 55.5t93 17.5z" />
<glyph unicode="&#xf7;" horiz-adv-x="537" d="M41 290q0 11 3 14t14 3h421q11 0 14 -3t3 -14v-67q0 -11 -3 -14t-14 -3h-421q-11 0 -14 3t-3 14v67zM269 156q29 0 49.5 -20.5t20.5 -49.5t-20.5 -50t-49.5 -21t-50 20.5t-21 49.5q0 30 20.5 50.5t50.5 20.5zM269 499q29 0 49.5 -21t20.5 -50t-20.5 -49.5t-49.5 -20.5 t-50 20.5t-21 49.5q0 30 21 50.5t50 20.5z" />
<glyph unicode="&#xf8;" d="M298 396q-12 10 -22.5 13.5t-26.5 3.5q-51 0 -73 -38t-22 -125q0 -31 2.5 -55.5t7.5 -55.5zM203 98q14 -10 23.5 -13.5t23.5 -3.5q51 0 74 38t23 123q0 32 -2.5 56.5t-9.5 53.5zM376 533q5 8 6.5 10t4.5 2t4.5 -1t7.5 -4l26 -14q7 -4 9 -6t2 -5q0 -4 -4 -12l-30 -53 q35 -40 50.5 -88t15.5 -114q0 -61 -15 -110t-43 -83.5t-68 -53t-90 -18.5q-30 0 -54 5t-49 17l-27 -48q-6 -11 -11 -11q-3 0 -12 4l-26 14q-7 4 -9 6.5t-2 5.5q0 2 0.5 3.5t4.5 8.5l31 56q-33 38 -49 88t-16 116q0 61 15 110t43.5 83t69 52t91.5 18q30 0 53.5 -5.5 t45.5 -16.5z" />
<glyph unicode="&#xf9;" horiz-adv-x="574" d="M135 711q7 14 14 14q4 0 14 -5l163 -97q13 -8 13 -14q0 -5 -5 -14l-15 -31q-5 -9 -7.5 -12t-6.5 -3q-2 0 -3.5 0.5t-9.5 3.5l-177 70q-16 7 -16 14q0 2 0.5 4.5t4.5 9.5zM354 401h-52q-13 0 -13 14v65q0 14 13 14h163q11 0 13.5 -2.5t2.5 -13.5v-301q0 -28 2 -45.5 t8 -38.5h45q14 0 14 -14v-65q0 -14 -14 -14h-134q-13 0 -17.5 7t-12.5 37q-18 -17 -34 -29t-32.5 -19t-34 -10t-39.5 -3q-50 0 -84 20.5t-48 58.5q-6 17 -8.5 42.5t-2.5 73.5v223h-51q-14 0 -14 14v65q0 14 14 14h162q11 0 13.5 -2.5t2.5 -13.5v-294q0 -33 2 -48t7 -25 q6 -12 19 -19.5t30 -7.5q40 0 80 37v280z" />
<glyph unicode="&#xfa;" horiz-adv-x="574" d="M292 553q-8 -3 -10 -3.5t-4 -0.5q-4 0 -6 2.5t-7 12.5l-16 31q-5 10 -5 14t2.5 6.5t10.5 7.5l163 97q10 5 15 5q6 0 13 -14l31 -60q5 -10 5 -14q0 -9 -15 -14zM354 401h-52q-13 0 -13 14v65q0 14 13 14h163q11 0 13.5 -2.5t2.5 -13.5v-301q0 -28 2 -45.5t8 -38.5h45 q14 0 14 -14v-65q0 -14 -14 -14h-134q-13 0 -17.5 7t-12.5 37q-18 -17 -34 -29t-32.5 -19t-34 -10t-39.5 -3q-50 0 -84 20.5t-48 58.5q-6 17 -8.5 42.5t-2.5 73.5v223h-51q-14 0 -14 14v65q0 14 14 14h162q11 0 13.5 -2.5t2.5 -13.5v-294q0 -33 2 -48t7 -25q6 -12 19 -19.5 t30 -7.5q40 0 80 37v280z" />
<glyph unicode="&#xfb;" horiz-adv-x="574" d="M201 559q-9 -6 -13 -6q-7 0 -15 13l-18 31q-6 10 -6 13q0 4 2 7t9 8l113 89q7 5 9.5 6.5t4.5 1.5q3 0 6 -1.5t9 -6.5l112 -89q7 -5 9 -7.5t2 -7.5q0 -3 -6 -13l-19 -31q-8 -13 -15 -13q-4 0 -13 6l-85 49zM354 401h-52q-13 0 -13 14v65q0 14 13 14h163q11 0 13.5 -2.5 t2.5 -13.5v-301q0 -28 2 -45.5t8 -38.5h45q14 0 14 -14v-65q0 -14 -14 -14h-134q-13 0 -17.5 7t-12.5 37q-18 -17 -34 -29t-32.5 -19t-34 -10t-39.5 -3q-50 0 -84 20.5t-48 58.5q-6 17 -8.5 42.5t-2.5 73.5v223h-51q-14 0 -14 14v65q0 14 14 14h162q11 0 13.5 -2.5 t2.5 -13.5v-294q0 -33 2 -48t7 -25q6 -12 19 -19.5t30 -7.5q40 0 80 37v280z" />
<glyph unicode="&#xfc;" horiz-adv-x="574" d="M385 706q28 0 48 -20t20 -49t-20 -49t-49 -20t-49 20t-20 49t20.5 49t49.5 20zM208 706q28 0 48 -20t20 -49t-20 -49t-49 -20t-49 20t-20 49t20.5 49t49.5 20zM354 401h-52q-13 0 -13 14v65q0 14 13 14h163q11 0 13.5 -2.5t2.5 -13.5v-301q0 -28 2 -45.5t8 -38.5h45 q14 0 14 -14v-65q0 -14 -14 -14h-134q-13 0 -17.5 7t-12.5 37q-18 -17 -34 -29t-32.5 -19t-34 -10t-39.5 -3q-50 0 -84 20.5t-48 58.5q-6 17 -8.5 42.5t-2.5 73.5v223h-51q-14 0 -14 14v65q0 14 14 14h162q11 0 13.5 -2.5t2.5 -13.5v-294q0 -33 2 -48t7 -25q6 -12 19 -19.5 t30 -7.5q40 0 80 37v280z" />
<glyph unicode="&#xfd;" horiz-adv-x="463" d="M259 553q-8 -3 -10 -3.5t-4 -0.5q-4 0 -6 2.5t-7 12.5l-16 31q-5 10 -5 14t2.5 6.5t10.5 7.5l163 97q10 5 15 5q6 0 13 -14l31 -60q5 -10 5 -14q0 -9 -15 -14zM208 241q10 -38 15.5 -61.5t9.5 -41.5t6.5 -33.5t6.5 -36.5q2 9 3.5 18t3.5 18q4 19 5.5 30t3 18.5t2.5 14 t3 16.5q3 14 6 28.5t7 29.5l54 238q2 11 5 13t14 2h120q14 0 14 -14v-65q0 -14 -14 -14h-35l-81 -297l-22 -80t-22 -84q-14 -53 -28.5 -81.5t-39.5 -48.5q-40 -32 -101 -32q-21 0 -45.5 4.5t-44.5 11.5t-33.5 15t-13.5 16q0 2 0.5 4t3.5 7l31 64q3 7 9 7q2 0 8 -3 q44 -22 76 -22q16 0 27.5 3.5t20.5 12.5t16 23.5t14 36.5l13 42h-42q-10 0 -13 2t-6 11l-134 388h-32q-14 0 -14 14v65q0 14 14 14h126q11 0 13 -2t5 -12z" />
<glyph unicode="&#xfe;" horiz-adv-x="537" d="M207 98q21 -11 35.5 -15t39.5 -4q29 0 45 6.5t25 21.5q13 20 19 56t6 87q0 87 -20 123.5t-67 36.5q-25 0 -42.5 -7.5t-40.5 -28.5v-276zM207 470q27 23 53.5 32t62.5 9q181 0 181 -256q0 -153 -61 -224q-41 -48 -130 -48q-34 0 -56.5 5.5t-49.5 20.5v-118h54q14 0 14 -14 v-65q0 -14 -14 -14h-232q-9 0 -11.5 3t-2.5 11v65q0 9 2.5 11.5t11.5 2.5h51v733h-55q-14 0 -14 14v65q0 14 14 14h168q14 0 14 -14v-233z" />
<glyph unicode="&#xff;" horiz-adv-x="463" d="M328 706q28 0 48 -20t20 -49t-20 -49t-49 -20t-49 20t-20 49t20.5 49t49.5 20zM151 706q28 0 48 -20t20 -49t-20 -49t-49 -20t-49 20t-20 49t20.5 49t49.5 20zM208 241q10 -38 15.5 -61.5t9.5 -41.5t6.5 -33.5t6.5 -36.5q2 9 3.5 18t3.5 18q4 19 5.5 30t3 18.5t2.5 14 t3 16.5q3 14 6 28.5t7 29.5l54 238q2 11 5 13t14 2h120q14 0 14 -14v-65q0 -14 -14 -14h-35l-81 -297l-22 -80t-22 -84q-14 -53 -28.5 -81.5t-39.5 -48.5q-40 -32 -101 -32q-21 0 -45.5 4.5t-44.5 11.5t-33.5 15t-13.5 16q0 2 0.5 4t3.5 7l31 64q3 7 9 7q2 0 8 -3 q44 -22 76 -22q16 0 27.5 3.5t20.5 12.5t16 23.5t14 36.5l13 42h-42q-10 0 -13 2t-6 11l-134 388h-32q-14 0 -14 14v65q0 14 14 14h126q11 0 13 -2t5 -12z" />
<glyph unicode="&#x131;" horiz-adv-x="315" d="M46 401q-11 0 -14 3t-3 14v59q0 11 3 14t14 3h172q11 0 14 -3t3 -14v-384h65q14 0 14 -14v-65q0 -14 -14 -14h-257q-14 0 -14 14v65q0 14 14 14h65v308h-62z" />
<glyph unicode="&#x141;" horiz-adv-x="519" d="M382 107l18 78q2 11 5 14.5t8 3.5q2 0 3.5 -0.5t11.5 -2.5l66 -14q17 -4 17 -13q0 -3 -2 -13l-32 -142q-2 -11 -6 -14.5t-16 -3.5h-403q-14 0 -17.5 3.5t-3.5 17.5v54q0 14 3.5 17.5t17.5 3.5h51v167l-58 -36l-5 -2.5t-3 -0.5q-7 0 -7 11v67q0 9 9 15l64 40v233h-51 q-14 0 -17.5 3.5t-3.5 17.5v54q0 14 3.5 17.5t17.5 3.5h239q14 0 17 -3.5t3 -17.5v-54q0 -14 -3.5 -17.5t-16.5 -3.5h-54v-156l144 89q5 4 8 4q6 0 6 -12v-66q0 -11 -10 -17l-148 -92v-233h145z" />
<glyph unicode="&#x142;" horiz-adv-x="315" d="M287 501q10 5 14 5q8 0 8 -8v-60q0 -9 -1.5 -11.5t-8.5 -7.5l-77 -52v-181v-31v-17t0.5 -9.5t1.5 -6.5q4 -22 26 -22q8 0 14.5 1t17.5 5q3 1 7 1q6 0 8 -6l20 -82l1 -8q0 -5 -9 -10t-23.5 -9t-32 -6.5t-35.5 -2.5q-89 0 -114 72q-3 8 -4.5 17t-2.5 23t-1.5 33.5 t-0.5 48.5v108l-62 -41q-8 -5 -13 -5q-8 0 -8 14v56q0 8 1.5 10.5t7.5 6.5l74 50v248h-55q-9 0 -11.5 2.5t-2.5 11.5v65q0 14 14 14h168q14 0 14 -14v-246z" />
<glyph unicode="&#x152;" horiz-adv-x="797" d="M386 574q-28 16 -47 22t-42 6q-66 0 -89 -57q-27 -66 -27 -201q0 -68 7.5 -117.5t21.5 -84.5q13 -30 34.5 -43t58.5 -13q23 0 40.5 5.5t42.5 20.5v462zM730 686q11 0 14 -3t3 -14v-157q0 -11 -3 -14t-14 -3h-69q-11 0 -13.5 3t-2.5 14v67h-129v-167h169q14 0 17.5 -3.5 t3.5 -16.5v-66q0 -14 -3.5 -17.5t-17.5 -3.5h-169v-198h132v75q0 11 3 14t14 3h69q11 0 14 -3t3 -14v-161q0 -14 -3.5 -17.5t-17.5 -3.5h-332q-35 -10 -58.5 -13.5t-52.5 -3.5q-125 0 -186 89t-61 274q0 357 248 357q29 0 52 -4t52 -13h338z" />
<glyph unicode="&#x153;" horiz-adv-x="759" d="M596 306q-2 64 -18 89t-54 25t-56.5 -25.5t-25.5 -88.5h154zM248 410q-44 0 -62.5 -37.5t-18.5 -125.5q0 -86 19 -124.5t61 -38.5t61 38.5t19 124.5q0 89 -18 126t-61 37zM711 52q3 -6 3 -11q0 -9 -17 -19t-42.5 -19t-55.5 -14.5t-57 -5.5q-112 0 -152 66 q-26 -35 -58.5 -50.5t-78.5 -15.5q-103 0 -161.5 71.5t-58.5 197.5q0 59 15.5 107t45 81.5t70.5 52t92 18.5q45 0 76 -13.5t61 -46.5q32 32 65 46t77 14q95 0 144 -68t49 -199q0 -18 -4 -24.5t-15 -6.5h-269q2 -65 28.5 -95.5t81.5 -30.5q27 0 53.5 7.5t60.5 24.5q7 3 12 3 q6 0 8 -7z" />
<glyph unicode="&#x160;" d="M359 896q11 5 15 5q5 0 14 -12l19 -32q5 -7 5.5 -9t0.5 -5q0 -6 -12 -14l-123 -84q-8 -5 -15 -5t-14 5l-126 86q-8 6 -8 12q0 3 1.5 6t4.5 8l19 32q5 8 7.5 10t6.5 2q3 0 5 -0.5t10 -4.5l95 -43zM149 118q29 -11 50.5 -15.5t43.5 -4.5q44 0 67.5 22t23.5 63q0 37 -22 59 q-7 7 -13 12t-17.5 11.5t-31.5 16t-54 25.5q-45 22 -70.5 37.5t-40.5 31.5q-43 45 -43 123q0 94 58.5 147.5t160.5 53.5q44 0 89 -11t76 -28q9 -5 12 -10t3 -14v-136q0 -11 -3 -14t-14 -3h-74q-11 0 -14 3t-3 14v78q-22 7 -36 9.5t-31 2.5q-45 0 -69.5 -20t-24.5 -55 q0 -14 4 -24.5t13.5 -20.5t27 -21t44.5 -24q36 -18 60 -30.5t40 -23t26.5 -19.5t20.5 -19q54 -60 54 -140q0 -46 -15.5 -84.5t-44 -66t-68 -42.5t-87.5 -15q-24 0 -50.5 3t-52.5 8.5t-49 13t-39 15.5q-9 5 -12 10t-3 15v151q0 11 3 14t14 3h74q11 0 14 -3t3 -14v-84z" />
<glyph unicode="&#x161;" horiz-adv-x="426" d="M312 716q9 6 13 6q7 0 15 -13l18 -31q6 -11 6 -13q0 -5 -2 -7.5t-9 -7.5l-113 -89q-6 -5 -9 -6.5t-5 -1.5q-3 0 -6 1.5t-9 6.5l-112 89q-7 5 -9 8t-2 7q0 2 6 13l19 31q5 8 7.5 10.5t7.5 2.5q4 0 13 -6l85 -49zM270 412q-16 2 -23.5 3t-15.5 1q-64 0 -64 -51 q0 -10 2.5 -17.5t9.5 -13.5t20.5 -12.5t34.5 -14.5q29 -11 48 -18.5t31.5 -14.5t21 -13t16.5 -14q20 -19 31 -45.5t11 -56.5q0 -32 -12 -62.5t-34 -53.5q-45 -46 -124 -46q-38 0 -81 10t-81 27q-9 5 -12 9t-3 12v109q0 14 14 14h68q9 0 11.5 -3t2.5 -14v-52q27 -8 40.5 -11 t29.5 -3q62 0 62 52q0 11 -3 19t-11 14.5t-23.5 14t-39.5 16.5t-41.5 16t-29.5 13t-20.5 12t-15.5 12q-40 37 -40 98q0 36 13 65.5t36.5 51.5t56 34t70.5 12q31 0 67 -7t59 -18q8 -4 11 -8t3 -12v-104q0 -14 -14 -14h-68q-14 0 -14 14v50z" />
<glyph unicode="&#x178;" d="M349 892q29 0 49.5 -21t20.5 -50q0 -30 -21 -51t-50 -21q-30 0 -51 21t-21 51q0 29 21 50t52 21zM166 891q29 0 49.5 -21t20.5 -50t-21 -50t-50 -21q-30 0 -50.5 21t-20.5 51q0 29 21 49.5t51 20.5zM216 511q6 -12 10 -21.5t8 -21t9.5 -28l14.5 -43.5q11 36 22 65.5 t23 55.5l74 154q5 11 8 12.5t15 1.5h105q11 0 14 -3t3 -14v-62q0 -11 -3 -14t-14 -3h-30l-154 -309v-185h68q14 0 17.5 -3.5t3.5 -17.5v-54q0 -14 -3.5 -17.5t-17.5 -3.5h-270q-14 0 -17.5 3.5t-3.5 17.5v54q0 14 3.5 17.5t17.5 3.5h68v186l-159 308h-26q-11 0 -14 3t-3 14 v62q0 11 3 14t14 3h114q12 0 15 -2t8 -13z" />
<glyph unicode="&#x17d;" d="M345 896q11 5 15 5q5 0 14 -12l19 -32q5 -7 5.5 -9t0.5 -5q0 -6 -12 -14l-123 -84q-8 -5 -15 -5t-14 5l-126 86q-8 6 -8 12q0 3 1.5 6t4.5 8l19 32q5 8 7.5 10t6.5 2q3 0 5 -0.5t10 -4.5l95 -43zM149 580v-83q0 -11 -3 -14t-14 -3h-71q-11 0 -14 3t-3 14v172q0 11 3 14 t14 3h371q14 0 17.5 -3.5t3.5 -17.5v-90l-275 -464h180l17 78q3 14 12 14h3t9 -2l73 -16q14 -3 14 -12v-3t-2 -9l-32 -143q-3 -13 -6 -15.5t-17 -2.5h-377q-11 0 -14 3t-3 14v83l279 480h-165z" />
<glyph unicode="&#x17e;" horiz-adv-x="445" d="M315 716q9 6 13 6q7 0 15 -13l18 -31q6 -11 6 -13q0 -5 -2 -7.5t-9 -7.5l-113 -89q-6 -5 -9 -6.5t-5 -1.5q-3 0 -6 1.5t-9 6.5l-112 89q-7 5 -9 8t-2 7q0 2 6 13l19 31q5 8 7.5 10.5t7.5 2.5q4 0 13 -6l85 -49zM145 391v-41q0 -14 -14 -14h-65q-14 0 -14 14v130 q0 14 14 14h318q11 0 14 -3t3 -14v-71l-227 -301h145l22 53q3 8 10 8q3 0 11 -3l63 -27q9 -4 9 -10q0 -4 -3 -11l-44 -102q-5 -13 -19 -13h-320q-11 0 -14 3t-3 14v68l231 306h-117z" />
<glyph unicode="&#x192;" horiz-adv-x="537" d="M263 558q8 42 17.5 67.5t22.5 41.5q43 52 135 52q18 0 36 -2.5t32 -6.5t23 -9t9 -10l-1 -8l-25 -72q-2 -5 -7 -5q-2 0 -6 2q-21 8 -31.5 11t-22.5 3q-30 0 -44 -17.5t-24 -67.5l-9 -43h104q20 0 20 -11q0 -2 -0.5 -6.5t-1.5 -6.5l-15 -49q-5 -16 -23 -16h-103l-80 -412 q-9 -47 -21.5 -79.5t-28.5 -52.5q-53 -66 -146 -66q-17 0 -35 2t-38 6q-12 3 -12 10q0 3 2 7l21 74q3 7 7 7q5 0 8 -1q11 -4 33 -4q21 0 35 5t24.5 18t18 35t14.5 55l78 396h-61q-21 0 -20 11l1 12l9 48q3 18 22 18h70z" />
<glyph unicode="&#x2c6;" d="M164 559q-9 -6 -13 -6q-7 0 -15 13l-18 31q-6 10 -6 13q0 4 2 7t9 8l113 89q7 5 9.5 6.5t4.5 1.5q3 0 6 -1.5t9 -6.5l112 -89q7 -5 9 -7.5t2 -7.5q0 -3 -6 -13l-19 -31q-8 -13 -15 -13q-4 0 -13 6l-85 49z" />
<glyph unicode="&#x2c7;" d="M336 716q9 6 13 6q7 0 15 -13l18 -31q6 -11 6 -13q0 -5 -2 -7.5t-9 -7.5l-113 -89q-6 -5 -9 -6.5t-5 -1.5q-3 0 -6 1.5t-9 6.5l-112 89q-7 5 -9 8t-2 7q0 2 6 13l19 31q5 8 7.5 10.5t7.5 2.5q4 0 13 -6l85 -49z" />
<glyph unicode="&#x2d8;" d="M187 708l6 1q3 0 4 -2.5t3 -14.5q9 -47 50 -47q19 0 32 12.5t17 34.5q2 11 3.5 14.5t3.5 2.5l6 -1l67 -8q11 -1 11 -13q0 -14 -7.5 -35t-17.5 -35q-36 -51 -114 -51q-91 0 -126 64q-8 13 -12 28t-4 27q0 14 11 15z" />
<glyph unicode="&#x2d9;" d="M251 715q15 0 29 -6t24.5 -16.5t16.5 -25t6 -30.5q0 -32 -22.5 -54.5t-54.5 -22.5q-33 0 -55.5 23t-22.5 55t23 54.5t56 22.5z" />
<glyph unicode="&#x2da;" d="M249 706q-17 0 -29.5 -12.5t-12.5 -30.5q0 -17 12.5 -29.5t29.5 -12.5t29.5 12.5t12.5 29.5q0 18 -12.5 30.5t-29.5 12.5zM251 769q21 0 39.5 -8.5t33 -22.5t22.5 -33.5t8 -40.5q0 -22 -8.5 -41t-22.5 -33.5t-33 -22.5t-41 -8q-21 0 -40 8t-33.5 22.5t-22.5 33.5t-8 41 q0 45 30.5 75t75.5 30z" />
<glyph unicode="&#x2db;" d="M439 15q-41 -36 -62 -64t-21 -47q0 -23 28 -23q23 0 43 11q8 4 10 4q5 0 7 -5l14 -46q2 -7 2 -8v-3q0 -5 -8.5 -10.5t-22 -10t-29 -7.5t-29.5 -3q-45 0 -72 22.5t-27 60.5q0 36 23 69.5t65 59.5h79z" />
<glyph unicode="&#x2dc;" d="M397 677q8 -4 8 -10q0 -4 -5.5 -15t-15.5 -25q-19 -29 -38.5 -41.5t-46.5 -12.5q-17 0 -30 5t-36 21q-18 11 -29 11q-21 0 -37 -29q-5 -8 -9 -8q-3 0 -9 3l-47 23q-7 4 -7 9t6 18t16 27q18 27 36.5 38t44.5 11q17 0 32.5 -5t38.5 -19q12 -8 18 -10t14 -2q10 0 16.5 5.5 t18.5 25.5q2 5 8 5q4 0 6 -2z" />
<glyph unicode="&#x2dd;" d="M409 719q8 11 15 11q3 0 5 -1t10 -8l37 -33q7 -6 8.5 -8.5t1.5 -5.5q0 -6 -10 -16l-114 -104q-7 -6 -9.5 -7.5t-5.5 -1.5t-5 1.5t-9 7.5l-16 14q-8 6 -9 8.5t-1 6.5q0 3 1 4.5t7 9.5zM253 719q8 11 15 11q3 0 4.5 -1.5t9.5 -7.5l38 -33q7 -6 8.5 -8.5t1.5 -5.5 q0 -6 -10 -16l-115 -104q-6 -6 -9 -7.5t-6 -1.5q-2 0 -4.5 1.5t-9.5 7.5l-15 14q-10 9 -10 15q0 2 1 4t7 10z" />
<glyph unicode="&#x3bc;" horiz-adv-x="574" d="M216 -185q0 -11 -3 -14t-14 -3h-93q-11 0 -14 3t-3 14v662q0 11 3 14t14 3h93q11 0 14 -3t3 -14v-293q0 -31 2 -47.5t7 -25.5q6 -12 19 -19.5t30 -7.5q39 0 80 37v356q0 11 3 14t14 3h93q11 0 14 -3t3 -14v-300q0 -28 2 -45.5t8 -38.5h45q14 0 14 -14v-65q0 -14 -14 -14 h-134q-13 0 -17.5 7t-12.5 37q-28 -33 -52 -47t-51 -14q-14 0 -25.5 3t-27.5 11v-182z" />
<glyph unicode="&#x2013;" d="M443 311q14 0 17.5 -3.5t3.5 -16.5v-68q0 -13 -3.5 -16.5t-17.5 -3.5h-387q-14 0 -17.5 3.5t-3.5 16.5v68q0 14 3.5 17t17.5 3h387z" />
<glyph unicode="&#x2014;" horiz-adv-x="833" d="M33 288q0 14 3.5 17.5t17.5 3.5h725q14 0 17.5 -3.5t3.5 -17.5v-62q0 -13 -3.5 -16.5t-17.5 -3.5h-725q-14 0 -17.5 3.5t-3.5 16.5v62z" />
<glyph unicode="&#x2018;" horiz-adv-x="296" d="M63 461q-20 0 -20 11q0 3 0.5 5.5t4.5 9.5l119 223q8 14 14 14q5 0 13 -3l37 -13q16 -5 16 -13q0 -5 -2 -13l-63 -204q-5 -17 -22 -17h-97z" />
<glyph unicode="&#x2019;" horiz-adv-x="296" d="M233 717q20 0 20 -11q0 -6 -5 -14l-119 -224q-8 -14 -13 -14q-6 0 -13 3l-38 13q-16 5 -16 13q0 2 0.5 3.5t2.5 9.5l62 204q3 10 7.5 13.5t15.5 3.5h96z" />
<glyph unicode="&#x201a;" horiz-adv-x="296" d="M233 125q12 0 16.5 -2.5t4.5 -8.5q0 -3 -1 -4.5t-5 -9.5l-119 -224q-5 -9 -7 -11.5t-6 -2.5q-2 0 -3.5 0.5t-9.5 2.5l-38 13q-10 4 -13 6t-3 7q0 2 0.5 4.5t2.5 8.5l62 204q3 10 7.5 13.5t15.5 3.5h96z" />
<glyph unicode="&#x201c;" d="M63 461q-20 0 -20 11q0 3 0.5 5.5t4.5 9.5l119 223q8 14 14 14q5 0 13 -3l37 -13q16 -5 16 -13q0 -5 -2 -13l-63 -204q-5 -17 -22 -17h-97zM267 461q-20 0 -20 11q0 6 5 15l119 223q8 14 14 14q4 0 13 -3l37 -13q16 -5 16 -13q0 -6 -3 -13l-62 -204q-5 -17 -22 -17h-97z " />
<glyph unicode="&#x201d;" d="M437 717q20 0 20 -11q0 -5 -5 -14l-119 -224q-8 -14 -14 -14q-4 0 -13 3l-37 13q-16 5 -16 13q0 4 3 13l62 204q5 17 22 17h97zM233 717q20 0 20 -11q0 -6 -5 -14l-119 -224q-8 -14 -13 -14q-6 0 -13 3l-38 13q-16 5 -16 13q0 2 0.5 3.5t2.5 9.5l62 204q3 10 7.5 13.5 t15.5 3.5h96z" />
<glyph unicode="&#x201e;" d="M437 125q20 0 20 -11q0 -7 -5 -14l-119 -224q-5 -9 -7 -11.5t-7 -2.5h-3.5t-9.5 3l-37 13q-10 4 -13 6t-3 7q0 4 3 13l62 204q5 17 22 17h97zM233 125q20 0 20 -11q0 -6 -5 -14l-119 -224q-8 -14 -13 -14q-2 0 -3.5 0.5t-9.5 2.5l-38 13q-10 4 -13 6t-3 7q0 2 0.5 3.5 t2.5 9.5l62 204q3 10 7.5 13.5t15.5 3.5h96z" />
<glyph unicode="&#x2020;" horiz-adv-x="537" d="M214 665q0 14 3.5 17.5t16.5 3.5h69q14 0 17.5 -3.5t3.5 -17.5v-188h117q14 0 17.5 -3.5t3.5 -17.5v-54q0 -14 -3.5 -17.5t-17.5 -3.5h-117v-572q0 -14 -3.5 -17.5t-17.5 -3.5h-69q-14 0 -17 3.5t-3 17.5v572h-117q-14 0 -17.5 3.5t-3.5 17.5v54q0 14 3.5 17.5t17.5 3.5 h117v188z" />
<glyph unicode="&#x2021;" horiz-adv-x="537" d="M214 665q0 14 3.5 17.5t16.5 3.5h69q14 0 17.5 -3.5t3.5 -17.5v-188h117q14 0 17.5 -3.5t3.5 -17.5v-54q0 -14 -3.5 -17.5t-17.5 -3.5h-117v-282h117q14 0 17.5 -3.5t3.5 -17.5v-54q0 -14 -3.5 -17.5t-17.5 -3.5h-117v-194q0 -14 -3.5 -17.5t-17.5 -3.5h-69 q-14 0 -17 3.5t-3 17.5v194h-117q-14 0 -17.5 3.5t-3.5 17.5v54q0 14 3.5 17.5t17.5 3.5h117v282h-117q-14 0 -17.5 3.5t-3.5 17.5v54q0 14 3.5 17.5t17.5 3.5h117v188z" />
<glyph unicode="&#x2022;" horiz-adv-x="686" d="M366 491q29 0 54.5 -11t45 -30.5t30.5 -45.5t11 -56q0 -29 -11 -55t-30.5 -45.5t-45.5 -30.5t-55 -11q-30 0 -56 11t-45.5 30.5t-30.5 45.5t-11 55q0 30 11 56t30.5 45.5t46 30.5t56.5 11z" />
<glyph unicode="&#x2026;" horiz-adv-x="889" d="M743 174q19 0 36 -7.5t29.5 -20.5t20 -30.5t7.5 -36.5q0 -40 -27.5 -67.5t-67.5 -27.5t-67.5 27.5t-27.5 68.5q0 19 7.5 36.5t20.5 30t31 20t38 7.5zM446 174q19 0 36 -7.5t29.5 -20.5t20 -30.5t7.5 -36.5q0 -40 -27.5 -67.5t-67.5 -27.5t-67.5 27.5t-27.5 68.5 q0 19 7.5 36.5t20.5 30t31 20t38 7.5zM150 174q19 0 36 -7.5t29.5 -20.5t20 -30.5t7.5 -36.5q0 -40 -27.5 -67.5t-67.5 -27.5t-67.5 27.5t-27.5 68.5q0 19 7.5 36.5t20.5 30t31 20t38 7.5z" />
<glyph unicode="&#x2030;" horiz-adv-x="1185" d="M507 662q7 15 23 15h51q20 0 20 -13q0 -2 -0.5 -4.5t-2.5 -7.5l-282 -674q-7 -18 -23 -18h-51q-12 0 -16.5 2.5t-4.5 8.5q0 3 0.5 4.5t3.5 9.5zM988 266q-26 0 -40.5 -26.5t-14.5 -73.5q0 -107 57 -107t57 100q0 107 -59 107zM992 340q69 0 109.5 -47.5t40.5 -126.5 q0 -85 -41.5 -133t-115.5 -48q-69 0 -109 45.5t-40 126.5q0 85 42 134t114 49zM630 266q-26 0 -40.5 -27t-14.5 -75q0 -105 57 -105t57 100q0 107 -59 107zM635 340q68 0 108.5 -47.5t40.5 -126.5q0 -85 -41.5 -133t-115.5 -48q-69 0 -109 46t-40 126q0 85 42 134t115 49z M196 589q-26 0 -40.5 -26.5t-14.5 -74.5q0 -107 57 -107t57 101q0 107 -59 107zM201 663q68 0 108.5 -47.5t40.5 -127.5q0 -85 -41.5 -133t-115.5 -48q-69 0 -109 46t-40 127q0 84 42.5 133.5t114.5 49.5z" />
<glyph unicode="&#x2039;" horiz-adv-x="352" d="M303 62q6 -9 6 -14q0 -6 -12 -14l-50 -31q-8 -5 -9.5 -6t-5.5 -1q-3 0 -5.5 2t-7.5 10l-170 222q-5 6 -6 8t-1 6q0 3 1 5t6 9l170 228q6 8 8 10t6 2q3 0 4.5 -1t9.5 -6l49 -31q8 -5 10.5 -7.5t2.5 -6.5t-7 -14l-123 -182z" />
<glyph unicode="&#x203a;" horiz-adv-x="352" d="M49 431q-7 11 -7 15t2.5 6.5t10.5 7.5l49 31q8 5 10 6t5 1t5 -2t9 -10l170 -222q4 -5 5 -7.5t1 -6.5q0 -3 -1 -6t-5 -8l-170 -228q-6 -8 -8.5 -10t-5.5 -2t-5.5 0.5t-9.5 5.5l-49 31q-8 5 -10.5 8t-2.5 6t1 5.5t6 9.5l123 182z" />
<glyph unicode="&#x2044;" horiz-adv-x="130" d="M156 662q7 15 22 15h52q19 0 19 -12q0 -7 -3 -13l-281 -674q-8 -18 -24 -18h-51q-20 0 -20 11q0 3 1 5.5t3 8.5z" />
<glyph unicode="&#x2122;" horiz-adv-x="759" d="M502 534l3.5 -10.5t2 -10t2 -13t3.5 -20.5l7.5 33t6.5 21l49 139q3 8 6.5 10.5t11.5 2.5h101q16 0 16 -15v-34q0 -15 -16 -15h-26l14 -263h24q15 0 15 -15v-34q0 -15 -15 -15h-132q-15 0 -15 15v34q0 15 15 15h22l-3 148v8v12.5t1 21.5q-4 -17 -6 -26t-5 -18l-37 -113 q-3 -8 -6.5 -10.5t-12.5 -2.5h-36q-9 0 -12.5 2.5t-5.5 10.5l-32 108q-3 11 -5 20.5l-6 28.5l1 -49l-3 -141h21q15 0 15 -15v-34q0 -15 -15 -15h-125q-16 0 -16 15v34q0 15 16 15h23l13 263h-25q-15 0 -15 15v34q0 15 15 15h101q9 0 12 -2.5t6 -10.5zM195 359h35 q17 0 17 -17v-30q0 -17 -17 -17h-159q-11 0 -14.5 3.5t-3.5 13.5v30q0 17 18 17h34v254h-33v-46q0 -15 -16 -15h-32q-15 0 -15 15v104q0 15 15 15h252q15 0 15 -15v-104q0 -15 -15 -15h-32q-16 0 -16 15v46h-33v-254z" />
<glyph unicode="&#x2212;" horiz-adv-x="537" d="M41 290q0 11 3 14t14 3h421q11 0 14 -3t3 -14v-67q0 -11 -3 -14t-14 -3h-421q-11 0 -14 3t-3 14v67z" />
<glyph unicode="&#x2219;" horiz-adv-x="257" d="M130 333q18 0 34 -7t28 -19.5t19 -29t7 -34.5q0 -38 -26 -64t-64 -26q-19 0 -35.5 7t-28.5 19.5t-19 29t-7 35.5q0 18 7 34.5t19.5 28.5t29.5 19t36 7z" />
<glyph unicode="&#x25fc;" horiz-adv-x="495" d="M0 495h495v-495h-495v495z" />
</font>
</defs>
</svg>
